<svg xmlns="http://www.w3.org/2000/svg" xmlns:xlink="http://www.w3.org/1999/xlink" width="94.602mm" height="60.122mm" viewBox="3994.3 3441.8 248.3 157.8"><title></title><style type="text/css">
*[layerid="1"] {stroke:#FF0000;fill:#FF0000;}
*[layerid="2"] {stroke:#0000FF;fill:#0000FF;}
*[layerid="3"] {stroke:#FFCC00;fill:#FFCC00;}
*[layerid="4"] {stroke:#66CC33;fill:#66CC33;}
*[layerid="5"] {stroke:#808080;fill:#808080;}
*[layerid="6"] {stroke:#800000;fill:#800000;}
*[layerid="7"] {stroke:#800080;fill:#800080;stroke-opacity:0.7;fill-opacity:0.7;}
*[layerid="8"] {stroke:#AA00FF;fill:#AA00FF;stroke-opacity:0.7;fill-opacity:0.7;}
*[layerid="9"] {stroke:#6464FF;fill:#6464FF;}
*[layerid="10"] {stroke:#FF00FF;fill:#FF00FF;}
*[layerid="11"] {stroke:#C0C0C0;fill:#C0C0C0;}
*[layerid="12"] {stroke:#FFFFFF;fill:#FFFFFF;}
*[layerid="13"] {stroke:#33CC99;fill:#33CC99;}
*[layerid="14"] {stroke:#5555FF;fill:#5555FF;}
*[layerid="15"] {stroke:#F022F0;fill:#F022F0;}
*[layerid="19"] {stroke:#66CCFF;fill:#66CCFF;}
*[layerid="21"] {stroke:#999966;fill:#999966;}
*[layerid="22"] {stroke:#008000;fill:#008000;}
*[layerid="23"] {stroke:#00FF00;fill:#00FF00;}
*[layerid="24"] {stroke:#BC8E00;fill:#BC8E00;}
*[layerid="25"] {stroke:#70DBFA;fill:#70DBFA;}
*[layerid="26"] {stroke:#00CC66;fill:#00CC66;}
*[layerid="27"] {stroke:#9966FF;fill:#9966FF;}
*[layerid="28"] {stroke:#800080;fill:#800080;}
*[layerid="29"] {stroke:#008080;fill:#008080;}
*[layerid="30"] {stroke:#15935F;fill:#15935F;}
*[layerid="31"] {stroke:#000080;fill:#000080;}
*[layerid="32"] {stroke:#00B400;fill:#00B400;}
*[layerid="33"] {stroke:#2E4756;fill:#2E4756;}
*[layerid="34"] {stroke:#99842F;fill:#99842F;}
*[layerid="35"] {stroke:#FFFFAA;fill:#FFFFAA;}
*[layerid="36"] {stroke:#99842F;fill:#99842F;}
*[layerid="37"] {stroke:#2E4756;fill:#2E4756;}
*[layerid="38"] {stroke:#3535FF;fill:#3535FF;}
*[layerid="39"] {stroke:#8000BC;fill:#8000BC;}
*[layerid="40"] {stroke:#43AE5F;fill:#43AE5F;}
*[layerid="41"] {stroke:#C3ECCE;fill:#C3ECCE;}
*[layerid="42"] {stroke:#728978;fill:#728978;}
*[layerid="43"] {stroke:#39503F;fill:#39503F;}
*[layerid="44"] {stroke:#0C715D;fill:#0C715D;}
*[layerid="45"] {stroke:#5A8A80;fill:#5A8A80;}
*[layerid="46"] {stroke:#2B937E;fill:#2B937E;}
*[layerid="47"] {stroke:#23999D;fill:#23999D;}
*[layerid="48"] {stroke:#45B4E3;fill:#45B4E3;}
*[layerid="49"] {stroke:#215DA1;fill:#215DA1;}
*[layerid="50"] {stroke:#4564D7;fill:#4564D7;}
*[layerid="51"] {stroke:#6969E9;fill:#6969E9;}
*[layerid="52"] {stroke:#9069E9;fill:#9069E9;}
*[layerid="99"] {stroke:#00CCCC;fill:#00CCCC;stroke-opacity:0.6;fill-opacity:0.6;}
*[layerid="100"] {stroke:#CC9999;fill:#CC9999;}
*[layerid="101"] {stroke:#66FFCC;fill:#66FFCC;}
*[layerid="Hole"] {stroke:#222222;fill:#222222;}
*[layerid="DRCError"] {stroke:#FAD609;fill:#FAD609;}
*[fill="none"] {fill: none;}
*[stroke="none"] {stroke: none;}
path, polyline, polygon, line {stroke-linecap:round;}
g[c_partid="part_pad"][layerid="1"] ellipse:not([c_etype="pad_outer"]) {fill:#FF0000;}
g[c_partid="part_pad"][layerid="1"] polygon:not([c_etype="pad_outer"]) {fill:#FF0000;}
g[c_partid="part_pad"][layerid="1"] polyline:not([c_etype="pad_outer"]) {stroke:#FF0000;}
g[c_partid="part_pad"][layerid="2"] ellipse:not([c_etype="pad_outer"]) {fill:#0000FF;}
g[c_partid="part_pad"][layerid="2"] polygon:not([c_etype="pad_outer"]) {fill:#0000FF;}
g[c_partid="part_pad"][layerid="2"] polyline:not([c_etype="pad_outer"]) {stroke:#0000FF;}
g[c_partid="part_pad"][layerid="11"] ellipse:not([c_etype="pad_outer"]) {fill:#C0C0C0;}
g[c_partid="part_pad"][layerid="11"] polygon:not([c_etype="pad_outer"]) {fill:#C0C0C0;}
g[c_partid="part_pad"][layerid="11"] polyline:not([c_etype="pad_outer"]) {stroke:#C0C0C0;}
g[c_partid="part_pad"][layerid="11"] circle {fill:#222222;}
g[c_partid="part_pad"][layerid="11"] > polyline:nth-of-type(2) {stroke:#222222;}
g[c_partid="part_pad"][layerid="11"][c_shape="ELLIPSE"]  polyline:nth-last-of-type(1) {stroke:#222222;}
g[c_partid="part_pad"][layerid="11"][c_shape="RECT"]  polyline:nth-last-of-type(1) {stroke:#222222;}
g[c_partid="part_pad"][layerid="11"][c_shape="POLYGON"]  polyline:nth-last-of-type(1) {stroke:#222222;}
g[c_partid="part_via"] > * + circle, #gCurParts g[c_partid="part_via"] > * + circle {fill:#222222;}
g[c_partid="part_pad"] > polygon[c_etype="pad_outer"], #gCurParts g[c_partid="part_pad"] > polygon[c_etype="pad_outer"] {stroke-linejoin: miter;stroke-miterlimit: 100;}
g[c_partid="part_hole"] > circle {fill: #222222;}path, polyline, polygon {stroke-linejoin:round;}
rect, circle, ellipse, polyline, line, polygon, path {shape-rendering:crispEdges;}
</style>
<rect x="3994.3" y="3441.8" width="248.3" height="157.8" fill="#000000" stroke="none"/><g transform="matrix(-1, 0, 0, 1, 8236.9, 0)"><path d="M 4035.37205 3572.7792 L 4035.20479 3572.74255 4035.06818 3572.63932 4034.98725 3572.48841 4034.97684 3572.3175 4035.03885 3572.15789 4035.16192 3572.03884 4035.28758 3571.96127 4035.97371 3571.44871 4036.61186 3570.87751 4037.19704 3570.25215 4037.72465 3569.57752 4038.19057 3568.8589 4038.36071 3568.5374 4034.4232 3568.5374 4034.4232 3572.3792 4034.39275 3572.53227 4034.30604 3572.66204 4034.17627 3572.74875 4034.0232 3572.7792 4027.90763 3572.7792 4027.18287 3572.74215 4026.51802 3572.64158 4025.86623 3572.47633 4025.52704 3572.35497 4025.38836 3572.2703 4025.2948 3572.13745 4025.2618 3571.97835 4025.2618 3568.5374 4021.82085 3568.5374 4021.66175 3568.5044 4021.5289 3568.41084 4021.44423 3568.27216 4021.31148 3567.89541 4021.14996 3567.24268 4021.0532 3566.57727 4021.02 3565.89157 4021.02 3559.776 4021.05045 3559.62293 4021.13716 3559.49316 4021.26693 3559.40645 4021.42 3559.376 4025.2618 3559.376 4025.2618 3555.43741 4024.75682 3555.71912 4024.04868 3556.20082 4023.38589 3556.74323 4022.77363 3557.34209 4022.21669 3557.99273 4021.74567 3558.65324 4021.62255 3558.76593 4021.46416 3558.81855 4021.29808 3558.80197 4021.15323 3558.71905 4021.05482 3558.58423 4021.02 3558.421 4021.02 3482.8782 4021.05482 3482.71497 4021.15323 3482.58015 4021.29808 3482.49723 4021.46416 3482.48065 4021.62255 3482.53327 4021.74567 3482.64596 4022.21669 3483.30647 4022.77363 3483.95711 4023.38589 3484.55597 4024.04868 3485.09838 4024.75682 3485.58008 4025.2618 3485.86179 4025.2618 3481.9232 4021.42 3481.9232 4021.26693 3481.89275 4021.13716 3481.80604 4021.05045 3481.67627 4021.02 3481.5232 4021.02 3475.40763 4021.05705 3474.68287 4021.15762 3474.01802 4021.32287 3473.36623 4021.44423 3473.02704 4021.5289 3472.88836 4021.66175 3472.7948 4021.82085 3472.7618 4025.2618 3472.7618 4025.2618 3469.32085 4025.2948 3469.16175 4025.38836 3469.0289 4025.52704 3468.94423 4025.90379 3468.81148 4026.55652 3468.64996 4027.22193 3468.5532 4027.90763 3468.52 4034.0232 3468.52 4034.17627 3468.55045 4034.30604 3468.63716 4034.39275 3468.76693 4034.4232 3468.92 4034.4232 3472.7618 4038.36071 3472.7618 4038.19057 3472.4403 4037.72465 3471.72168 4037.19704 3471.04705 4036.61186 3470.42169 4035.97371 3469.85049 4035.28758 3469.33793 4035.16192 3469.26036 4035.03885 3469.14131 4034.97684 3468.9817 4034.98725 3468.81079 4035.06818 3468.65988 4035.20479 3468.55665 4035.37205 3468.52 4201.48288 3468.52 4201.64746 3468.55543 4201.78289 3468.65543 4201.86517 3468.8023 4201.87974 3468.97002 4201.82402 3469.12887 4201.70786 3469.25073 4201.21408 3469.58662 4200.55129 3470.12903 4199.93903 3470.72789 4199.38209 3471.37853 4198.88484 3472.07583 4198.48202 3472.7618 4202.4272 3472.7618 4202.4272 3468.92 4202.45765 3468.76693 4202.54436 3468.63716 4202.67413 3468.55045 4202.8272 3468.52 4208.94257 3468.52 4209.66733 3468.55705 4210.33218 3468.65762 4210.98397 3468.82287 4211.32336 3468.9443 4211.46204 3469.02898 4211.5556 3469.16182 4211.5886 3469.32092 4211.5886 3472.7618 4215.02935 3472.7618 4215.18845 3472.7948 4215.3213 3472.88836 4215.40597 3473.02704 4215.53872 3473.40379 4215.70024 3474.05652 4215.797 3474.72193 4215.83 3475.40363 4215.83 3481.5232 4215.79955 3481.67627 4215.71284 3481.80604 4215.58307 3481.89275 4215.43 3481.9232 4211.5886 3481.9232 4211.5886 3485.86495 4211.72422 3485.79698 4212.45298 3485.34707 4213.13911 3484.83451 4213.77726 3484.26331 4214.36244 3483.63795 4214.89005 3482.96332 4215.09437 3482.64819 4215.21487 3482.52857 4215.37414 3482.46971 4215.54346 3482.48222 4215.69235 3482.56385 4215.79396 3482.69987 4215.83 3482.86579 4215.83 3517.81419 4215.80047 3517.96502 4215.71624 3518.09359 4215.58975 3518.1809 4215.43967 3518.21407 4215.28816 3518.18819 4215.20986 3518.1585 4214.80091 3518.07501 4214.38387 3518.0582 4213.96953 3518.10851 4213.56863 3518.22464 4213.19155 3518.40356 4212.84805 3518.64066 4212.54898 3518.92793 4212.42123 3519.01052 4212.27189 3519.03945 4149.5734 3519.03945 4149.42032 3519.009 4149.29055 3518.92229 4148.19315 3517.82489 4148.10645 3517.69512 4148.076 3517.54205 4148.10645 3517.38898 4148.19315 3517.25921 4148.32292 3517.1725 4148.476 3517.14205 4203.44885 3517.14205 4203.78233 3517.10921 4204.08409 3517.01767 4204.3622 3516.86901 4204.62123 3516.65644 4210.57121 3510.70645 4210.69505 3510.62225 4210.84118 3510.5895 4211.31421 3510.57426 4211.72156 3510.4911 4212.11181 3510.3431 4212.47328 3510.13441 4212.79658 3509.87044 4213.07335 3509.55802 4213.29643 3509.20526 4213.46003 3508.82128 4213.55991 3508.41603 4213.5935 3508 4213.55991 3507.58397 4213.46003 3507.17872 4213.29643 3506.79474 4213.07335 3506.44198 4212.79658 3506.12956 4212.47328 3505.86559 4212.11181 3505.6569 4211.72156 3505.5089 4211.31261 3505.42541 4210.89557 3505.4086 4210.48123 3505.45891 4210.08033 3505.57504 4209.70325 3505.75396 4209.35975 3505.99106 4209.05874 3506.28019 4208.808 3506.61386 4208.61403 3506.98344 4208.48186 3507.37934 4208.41491 3507.79131 4208.41491 3508.14174 4208.38446 3508.29482 4208.29775 3508.42458 4202.91855 3513.80379 4202.78878 3513.8905 4202.6357 3513.92095 4199.38333 3513.92095 4199.23026 3513.8905 4199.10049 3513.80379 4199.01378 3513.67402 4198.98333 3513.52095 4199.01378 3513.36788 4199.10049 3513.23811 4199.64037 3512.90737 4199.97337 3512.62297 4200.25777 3512.28997 4200.48659 3511.91658 4200.65417 3511.51199 4200.7564 3511.08617 4200.79076 3510.6496 4200.7564 3510.21303 4200.65417 3509.78721 4200.48659 3509.38262 4200.25777 3509.00923 4199.97337 3508.67623 4199.64037 3508.39183 4199.26698 3508.16301 4198.86239 3507.99543 4198.43657 3507.8932 4198 3507.85884 4197.56343 3507.8932 4197.13761 3507.99543 4196.73302 3508.16301 4196.35963 3508.39183 4196.02663 3508.67623 4195.74223 3509.00923 4195.51341 3509.38262 4195.34583 3509.78721 4195.2436 3510.21303 4195.20924 3510.6496 4195.2436 3511.08617 4195.34583 3511.51199 4195.51341 3511.91658 4195.74223 3512.28997 4196.02663 3512.62297 4196.35963 3512.90737 4196.73302 3513.13619 4196.89951 3513.23811 4196.98622 3513.36788 4197.01667 3513.52095 4196.98622 3513.67402 4196.89951 3513.80379 4196.76974 3513.8905 4196.61667 3513.92095 4148.6743 3513.92095 4148.52122 3513.8905 4148.39145 3513.80379 4148.20378 3513.61612 4148.11029 3513.46882 4148.08839 3513.29574 4148.14224 3513.1298 4148.26161 3513.00256 4148.42378 3512.93824 4148.61523 3512.95409 4149.02957 3513.0044 4149.44661 3512.98759 4149.85556 3512.9041 4150.24581 3512.7561 4150.60728 3512.54741 4150.93058 3512.28344 4151.20735 3511.97102 4151.43043 3511.61826 4151.59403 3511.23428 4151.69391 3510.82903 4151.7275 3510.413 4151.69391 3509.99697 4151.59403 3509.59172 4151.43043 3509.20774 4151.20735 3508.85498 4150.93058 3508.54256 4150.60728 3508.27859 4150.24581 3508.0699 4149.85556 3507.9219 4149.44821 3507.83874 4148.97518 3507.8235 4148.82905 3507.79075 4148.70521 3507.70655 4142.80683 3501.80816 4142.5478 3501.59559 4142.26969 3501.44693 4141.96793 3501.35539 4141.63445 3501.32255 4063.29367 3501.32255 4063.14576 3501.2942 4063.01881 3501.21316 4062.93083 3501.09092 4062.89165 3501.00649 4062.60276 3500.55395 4062.25613 3500.14395 4061.85446 3499.78066 4061.75994 3499.65237 4061.723 3499.49737 4061.7495 3499.34024 4061.83524 3499.20592 4061.96662 3499.11574 4062.12277 3499.084 4062.34464 3499.084 4062.59351 3499.05596 4062.80856 3498.98071 4063.00148 3498.85949 4063.16259 3498.69838 4063.28381 3498.50546 4063.35906 3498.29041 4063.3871 3498.04154 4063.3871 3492.08646 4063.35906 3491.83759 4063.28381 3491.62254 4063.16259 3491.42962 4063.00148 3491.26851 4062.80856 3491.14729 4062.59351 3491.07204 4062.34464 3491.044 4056.38956 3491.044 4056.14069 3491.07204 4055.92564 3491.14729 4055.73272 3491.26851 4055.57161 3491.42962 4055.45039 3491.62254 4055.37514 3491.83759 4055.3471 3492.08646 4055.3471 3492.31865 4055.31448 3492.47685 4055.22196 3492.60926 4055.08461 3492.69427 4054.92483 3492.71803 4054.76869 3492.67666 4054.64164 3492.5769 4054.38213 3492.26995 4053.98394 3491.90981 4053.5413 3491.60596 4053.06212 3491.36381 4052.55493 3491.1877 4052.02879 3491.08076 4051.4931 3491.0449 4050.95741 3491.08076 4050.43127 3491.1877 4049.92408 3491.36381 4049.4449 3491.60596 4049.00226 3491.90981 4048.60407 3492.26995 4048.25744 3492.67995 4047.96855 3493.13249 4047.74255 3493.6195 4047.58348 3494.13229 4047.49418 3494.6617 4047.47624 3495.1983 4047.52998 3495.7325 4047.65444 3496.25476 4047.84741 3496.75578 4048.10543 3497.22661 4048.4239 3497.65885 4048.79715 3498.04478 4049.2185 3498.37752 4049.6991 3498.66218 4049.82351 3498.77776 4049.88876 3498.93454 4049.88308 3499.10426 4049.80751 3499.25633 4049.67566 3499.36335 4049.4449 3499.47996 4049.00226 3499.78381 4048.60407 3500.14395 4048.25744 3500.55395 4047.96855 3501.00649 4047.93071 3501.08803 4047.85209 3501.20112 4047.73977 3501.28084 4047.60708 3501.31773 4047.25617 3501.35229 4046.95441 3501.44383 4046.6763 3501.59249 4046.41727 3501.80506 4042.87506 3505.34727 4042.66249 3505.6063 4042.51383 3505.88441 4042.42229 3506.18617 4042.38945 3506.51965 4042.38945 3534.48035 4042.42229 3534.81383 4042.51383 3535.11559 4042.66249 3535.3937 4042.87506 3535.65273 4046.71727 3539.49494 4046.9763 3539.70751 4047.25441 3539.85617 4047.55617 3539.94771 4047.7136 3539.98409 4047.82118 3540.05517 4047.90056 3540.15678 4048.10543 3540.53061 4048.4239 3540.96285 4048.79715 3541.34878 4049.2185 3541.68152 4049.6991 3541.96618 4049.82351 3542.08176 4049.88876 3542.23854 4049.88308 3542.40826 4049.80751 3542.56033 4049.67566 3542.66735 4049.4449 3542.78396 4049.00226 3543.08781 4048.60407 3543.44795 4048.25744 3543.85795 4047.96855 3544.31049 4047.74255 3544.7975 4047.58348 3545.31029 4047.49418 3545.8397 4047.47624 3546.3763 4047.52998 3546.9105 4047.65444 3547.43276 4047.84741 3547.93378 4048.10543 3548.40461 4048.4239 3548.83685 4048.79715 3549.22278 4049.2185 3549.55552 4049.68044 3549.82913 4050.17473 3550.03872 4050.69255 3550.18057 4051.22465 3550.25213 4051.76155 3550.25213 4052.29365 3550.18057 4052.81147 3550.03872 4053.30576 3549.82913 4053.7677 3549.55552 4054.18905 3549.22278 4054.5623 3548.83685 4054.88077 3548.40461 4055.07932 3548.04231 4055.19068 3547.9141 4055.34519 3547.84365 4055.39573 3547.84365 4055.33186 3547.75061 4055.29915 3547.60002 4055.33176 3547.43276 4055.45622 3546.9105 4055.50996 3546.3763 4055.49202 3545.8397 4055.40272 3545.31029 4055.30973 3545.01051 4055.29285 3544.86262 4055.33121 3544.71879 4055.38849 3544.64105 4055.28219 3544.62067 4055.15524 3544.53963 4055.06726 3544.4174 4055.01765 3544.31049 4054.72876 3543.85795 4054.38213 3543.44795 4053.98394 3543.08781 4053.5413 3542.78396 4053.31054 3542.66735 4053.17869 3542.56033 4053.10312 3542.40826 4053.09744 3542.23854 4053.16269 3542.08176 4053.2871 3541.96618 4053.7677 3541.68152 4054.18905 3541.34878 4054.5623 3540.96285 4054.88077 3540.53061 4055.07932 3540.16831 4055.19068 3540.0401 4055.34519 3539.96965 4055.51501 3539.96965 4055.66952 3540.0401 4055.78088 3540.16831 4055.97943 3540.53061 4056.2979 3540.96285 4056.67115 3541.34878 4057.0925 3541.68152 4057.5731 3541.96618 4057.69751 3542.08176 4057.76276 3542.23854 4057.76167 3542.27102 4057.8367 3542.21379 4057.97706 3542.1728 4058.12278 3542.18501 4058.56655 3542.30657 4059.09865 3542.37813 4059.63555 3542.37813 4060.16765 3542.30657 4060.61142 3542.18501 4060.75714 3542.1728 4060.8975 3542.21379 4060.97253 3542.27102 4060.97144 3542.23854 4061.03669 3542.08176 4061.1611 3541.96618 4061.6417 3541.68152 4062.06305 3541.34878 4062.4363 3540.96285 4062.75477 3540.53061 4062.94235 3540.18832 4063.0315 3540.07799 4063.15354 3540.0057 4063.29313 3539.98055 4104.11035 3539.98055 4104.44383 3539.94771 4104.74559 3539.85617 4105.0237 3539.70751 4105.28273 3539.49494 4109.04995 3535.72771 4109.17972 3535.641 4109.3328 3535.61055 4152.71035 3535.61055 4153.04383 3535.57771 4153.34559 3535.48617 4153.6237 3535.33751 4153.88273 3535.12494 4154.7851 3534.22256 4154.90889 3534.13838 4155.05496 3534.10561 4155.52715 3534.09027 4155.93456 3534.0071 4156.32481 3533.8591 4156.68628 3533.65041 4157.00958 3533.38644 4157.28635 3533.07402 4157.50943 3532.72126 4157.67303 3532.33728 4157.77291 3531.93203 4157.8065 3531.516 4157.77291 3531.09997 4157.67303 3530.69472 4157.50943 3530.31074 4157.28635 3529.95798 4157.00958 3529.64556 4156.68628 3529.38159 4156.32481 3529.1729 4155.93456 3529.0249 4155.52561 3528.94141 4155.10857 3528.9246 4154.69423 3528.97491 4154.29333 3529.09104 4153.91625 3529.26996 4153.57275 3529.50706 4153.27174 3529.79619 4153.021 3530.12986 4152.82703 3530.49944 4152.69486 3530.89534 4152.62791 3531.30731 4152.62791 3531.65874 4152.59746 3531.81182 4152.51075 3531.94158 4152.18005 3532.27229 4152.05028 3532.359 4151.8972 3532.38945 4108.51965 3532.38945 4108.18617 3532.42229 4107.88441 3532.51383 4107.6063 3532.66249 4107.34727 3532.87506 4103.58005 3536.64229 4103.45028 3536.729 4103.2972 3536.75945 4063.29687 3536.75945 4063.14896 3536.7311 4063.02202 3536.65006 4062.93404 3536.52782 4062.89165 3536.43649 4062.60276 3535.98395 4062.25613 3535.57395 4061.85446 3535.21066 4061.75994 3535.08237 4061.723 3534.92737 4061.7495 3534.77024 4061.83524 3534.63592 4061.96662 3534.54574 4062.12277 3534.514 4062.34464 3534.514 4062.59351 3534.48596 4062.80856 3534.41071 4063.00148 3534.28949 4063.16259 3534.12838 4063.28381 3533.93546 4063.35906 3533.72041 4063.3871 3533.47154 4063.3871 3527.51646 4063.35906 3527.26759 4063.28381 3527.05254 4063.16259 3526.85962 4063.00148 3526.69851 4062.80856 3526.57729 4062.59351 3526.50204 4062.34464 3526.474 4056.38956 3526.474 4056.14069 3526.50204 4055.92564 3526.57729 4055.73272 3526.69851 4055.57161 3526.85962 4055.45039 3527.05254 4055.37514 3527.26759 4055.3471 3527.51646 4055.3471 3527.74865 4055.31448 3527.90685 4055.22196 3528.03926 4055.08461 3528.12427 4054.92483 3528.14803 4054.76869 3528.10666 4054.64164 3528.0069 4054.38213 3527.69995 4053.98394 3527.33981 4053.5413 3527.03596 4053.06212 3526.79381 4052.55493 3526.6177 4052.02879 3526.51076 4051.4931 3526.4749 4050.95741 3526.51076 4050.43127 3526.6177 4049.92408 3526.79381 4049.4449 3527.03596 4049.00226 3527.33981 4048.60407 3527.69995 4048.25744 3528.10995 4047.96855 3528.56249 4047.74255 3529.0495 4047.58348 3529.56229 4047.49418 3530.0917 4047.47624 3530.6283 4047.52998 3531.1625 4047.65444 3531.68476 4047.84741 3532.18578 4048.10543 3532.65661 4048.4239 3533.08885 4048.79715 3533.47478 4049.2185 3533.80752 4049.6991 3534.09218 4049.82351 3534.20776 4049.88876 3534.36454 4049.88308 3534.53426 4049.80751 3534.68633 4049.67566 3534.79335 4049.4449 3534.90996 4049.00226 3535.21381 4048.60407 3535.57395 4048.31107 3535.92051 4048.18152 3536.0215 4048.02232 3536.06191 4047.86029 3536.03493 4047.72277 3535.9451 4045.72771 3533.95005 4045.641 3533.82028 4045.61055 3533.6672 4045.61055 3507.3328 4045.641 3507.17972 4045.72771 3507.04995 4047.59476 3505.1829 4047.73853 3505.0907 4047.90766 3505.06687 4048.0713 3505.11577 4048.19963 3505.22847 4048.4239 3505.53285 4048.79715 3505.91878 4049.2185 3506.25152 4049.6991 3506.53618 4049.82351 3506.65176 4049.88876 3506.80854 4049.88308 3506.97826 4049.80751 3507.13033 4049.67566 3507.23735 4049.4449 3507.35396 4049.00226 3507.65781 4048.60407 3508.01795 4048.25744 3508.42795 4047.96855 3508.88049 4047.74255 3509.3675 4047.58348 3509.88029 4047.49418 3510.4097 4047.47624 3510.9463 4047.52998 3511.4805 4047.65444 3512.00276 4047.84741 3512.50378 4048.10543 3512.97461 4048.4239 3513.40685 4048.79715 3513.79278 4049.2185 3514.12552 4049.68044 3514.39913 4050.17473 3514.60872 4050.69255 3514.75057 4051.22465 3514.82213 4051.76155 3514.82213 4052.29365 3514.75057 4052.81147 3514.60872 4053.30576 3514.39913 4053.7677 3514.12552 4054.18905 3513.79278 4054.5623 3513.40685 4054.88077 3512.97461 4055.07932 3512.61231 4055.19068 3512.4841 4055.34519 3512.41365 4055.39573 3512.41365 4055.33186 3512.32061 4055.29915 3512.17002 4055.33176 3512.00276 4055.45622 3511.4805 4055.50996 3510.9463 4055.49202 3510.4097 4055.40272 3509.88029 4055.30973 3509.58051 4055.29285 3509.43262 4055.33121 3509.28879 4055.38849 3509.21105 4055.28219 3509.19067 4055.15524 3509.10963 4055.06726 3508.9874 4055.01765 3508.88049 4054.72876 3508.42795 4054.38213 3508.01795 4053.98394 3507.65781 4053.5413 3507.35396 4053.31054 3507.23735 4053.17869 3507.13033 4053.10312 3506.97826 4053.09744 3506.80854 4053.16269 3506.65176 4053.2871 3506.53618 4053.7677 3506.25152 4054.18905 3505.91878 4054.5623 3505.53285 4054.88077 3505.10061 4055.07932 3504.73831 4055.19068 3504.6101 4055.34519 3504.53965 4055.51501 3504.53965 4055.66952 3504.6101 4055.78088 3504.73831 4055.97943 3505.10061 4056.2979 3505.53285 4056.67115 3505.91878 4057.0925 3506.25152 4057.5731 3506.53618 4057.69751 3506.65176 4057.76276 3506.80854 4057.76167 3506.84102 4057.8367 3506.78379 4057.97706 3506.7428 4058.12278 3506.75501 4058.56655 3506.87657 4059.09865 3506.94813 4059.63555 3506.94813 4060.16765 3506.87657 4060.61142 3506.75501 4060.75714 3506.7428 4060.8975 3506.78379 4060.97253 3506.84102 4060.97144 3506.80854 4061.03669 3506.65176 4061.1611 3506.53618 4061.6417 3506.25152 4062.06305 3505.91878 4062.4363 3505.53285 4062.75477 3505.10061 4062.94613 3504.75142 4063.03528 3504.64109 4063.15732 3504.5688 4063.29691 3504.54365 4140.8213 3504.54365 4140.97438 3504.5741 4141.10415 3504.66081 4142.24748 3505.80414 4142.33912 3505.9464 4142.36374 3506.11382 4142.31693 3506.27643 4142.20708 3506.40514 4142.05383 3506.47691 4141.88463 3506.4789 4141.62261 3506.42541 4141.20557 3506.4086 4140.79123 3506.45891 4140.39033 3506.57504 4140.01325 3506.75396 4139.66975 3506.99106 4139.36874 3507.28019 4139.118 3507.61386 4138.92403 3507.98344 4138.79186 3508.37934 4138.72491 3508.79131 4138.72491 3509.20869 4138.79186 3509.62066 4138.92403 3510.01656 4139.118 3510.38614 4139.36874 3510.71981 4139.42319 3510.77211 4139.51409 3510.9038 4139.5461 3511.06059 4139.51409 3511.21738 4139.42319 3511.34907 4139.31864 3511.44949 4139.0679 3511.78316 4138.87393 3512.15274 4138.74176 3512.54864 4138.67481 3512.96061 4138.67481 3513.37799 4138.74176 3513.78996 4138.87393 3514.18586 4139.0679 3514.55544 4139.31864 3514.88911 4139.48216 3515.04617 4139.57306 3515.17786 4139.60507 3515.33465 4139.57306 3515.49144 4139.48216 3515.62313 4139.31864 3515.78019 4139.0679 3516.11386 4138.87393 3516.48344 4138.74176 3516.87934 4138.67481 3517.29131 4138.67481 3517.70869 4138.74176 3518.12066 4138.87393 3518.51656 4139.0679 3518.88614 4139.31864 3519.21981 4139.61965 3519.50894 4139.96315 3519.74604 4140.34023 3519.92496 4140.74113 3520.04109 4141.15547 3520.0914 4141.38228 3520.08226 4141.54398 3520.10937 4141.68123 3520.19909 4148.10707 3526.62494 4148.3661 3526.83751 4148.64421 3526.98617 4148.94597 3527.07771 4149.27945 3527.11055 4164.1672 3527.11055 4164.32028 3527.141 4164.45005 3527.22771 4174.84727 3537.62494 4175.1063 3537.83751 4175.38441 3537.98617 4175.68617 3538.07771 4176.01965 3538.11055 4207.98035 3538.11055 4208.31383 3538.07771 4208.61559 3537.98617 4208.8937 3537.83751 4209.15273 3537.62494 4210.57121 3536.20645 4210.69505 3536.12225 4210.84118 3536.0895 4211.31421 3536.07426 4211.72156 3535.9911 4212.11181 3535.8431 4212.47328 3535.63441 4212.79658 3535.37044 4213.07335 3535.05802 4213.29643 3534.70526 4213.46003 3534.32128 4213.55991 3533.91603 4213.5935 3533.5 4213.55991 3533.08397 4213.46003 3532.67872 4213.29643 3532.29474 4213.07335 3531.94198 4212.79658 3531.62956 4212.47328 3531.36559 4212.11181 3531.1569 4211.72156 3531.0089 4211.31261 3530.92541 4210.89557 3530.9086 4210.48123 3530.95891 4210.08033 3531.07504 4209.70325 3531.25396 4209.35975 3531.49106 4209.05874 3531.78019 4208.808 3532.11386 4208.61403 3532.48344 4208.48186 3532.87934 4208.41491 3533.29131 4208.41491 3533.64174 4208.38446 3533.79482 4208.29775 3533.92458 4207.45005 3534.77229 4207.32028 3534.859 4207.1672 3534.88945 4176.8328 3534.88945 4176.67972 3534.859 4176.54995 3534.77229 4166.15273 3524.37506 4165.8937 3524.16249 4165.61559 3524.01383 4165.31383 3523.92229 4164.98035 3523.88945 4150.0926 3523.88945 4149.93952 3523.859 4149.80975 3523.77229 4148.98085 3522.94339 4148.89415 3522.81362 4148.8637 3522.66055 4148.89415 3522.50748 4148.98085 3522.37771 4149.11062 3522.291 4149.2637 3522.26055 4212.27272 3522.26055 4212.42206 3522.28948 4212.54981 3522.37207 4212.84805 3522.65854 4213.19155 3522.89564 4213.56863 3523.07456 4213.96953 3523.19069 4214.38387 3523.241 4214.80091 3523.22419 4215.20986 3523.1407 4215.28816 3523.11101 4215.43967 3523.08513 4215.58975 3523.1183 4215.71624 3523.20561 4215.80047 3523.33418 4215.83 3523.48501 4215.83 3558.43341 4215.79396 3558.59933 4215.69235 3558.73535 4215.54346 3558.81698 4215.37414 3558.82949 4215.21487 3558.77063 4215.09437 3558.65101 4214.89005 3558.33588 4214.36244 3557.66125 4213.77726 3557.03589 4213.13911 3556.46469 4212.45298 3555.95213 4211.72422 3555.50222 4211.5886 3555.43425 4211.5886 3559.376 4215.43 3559.376 4215.58307 3559.40645 4215.71284 3559.49316 4215.79955 3559.62293 4215.83 3559.776 4215.83 3565.89652 4215.79333 3566.61648 4215.69278 3567.28118 4215.52753 3567.93297 4215.40617 3568.27216 4215.3215 3568.41084 4215.18865 3568.5044 4215.02955 3568.5374 4211.5886 3568.5374 4211.5886 3571.97835 4211.5556 3572.13745 4211.46204 3572.2703 4211.32336 3572.35497 4210.94661 3572.48772 4210.29388 3572.64924 4209.62847 3572.746 4208.94277 3572.7792 4202.8272 3572.7792 4202.67413 3572.74875 4202.54436 3572.66204 4202.45765 3572.53227 4202.4272 3572.3792 4202.4272 3568.5374 4198.48202 3568.5374 4198.88484 3569.22337 4199.38209 3569.92067 4199.93903 3570.57131 4200.55129 3571.17017 4201.21408 3571.71258 4201.70786 3572.04847 4201.82402 3572.17033 4201.87974 3572.32918 4201.86517 3572.4969 4201.78289 3572.64377 4201.64746 3572.74377 4201.48288 3572.7792 4035.37205 3572.7792 Z M 4161.10857 3545.1074 L 4161.52561 3545.09059 4161.93456 3545.0071 4162.32481 3544.8591 4162.68628 3544.65041 4163.00958 3544.38644 4163.28635 3544.07402 4163.50943 3543.72126 4163.67303 3543.33728 4163.77291 3542.93203 4163.8065 3542.516 4163.77291 3542.09997 4163.67303 3541.69472 4163.50943 3541.31074 4163.28635 3540.95798 4163.00958 3540.64556 4162.68628 3540.38159 4162.32481 3540.1729 4161.93456 3540.0249 4161.52561 3539.94141 4161.10857 3539.9246 4160.69423 3539.97491 4160.29333 3540.09104 4159.91625 3540.26996 4159.57275 3540.50706 4159.2742 3540.79383 4159.14645 3540.87642 4158.99711 3540.90535 4152.41976 3540.90535 4152.25559 3540.87011 4152.12035 3540.7706 4152.00958 3540.64556 4151.68628 3540.38159 4151.32481 3540.1729 4150.93456 3540.0249 4150.52561 3539.94141 4150.10857 3539.9246 4149.69423 3539.97491 4149.29333 3540.09104 4148.91625 3540.26996 4148.57275 3540.50706 4148.27174 3540.79619 4148.021 3541.12986 4147.82703 3541.49944 4147.69486 3541.89534 4147.62791 3542.30731 4147.62791 3542.72469 4147.69486 3543.13666 4147.82703 3543.53256 4148.021 3543.90214 4148.27174 3544.23581 4148.57275 3544.52494 4148.91625 3544.76204 4149.29333 3544.94096 4149.69423 3545.05709 4150.10857 3545.1074 4150.52561 3545.09059 4150.93456 3545.0071 4151.32481 3544.8591 4151.68628 3544.65041 4152.00958 3544.38644 4152.12053 3544.2612 4152.25577 3544.16169 4152.41993 3544.12645 4158.9969 3544.12645 4159.14624 3544.15538 4159.27399 3544.23797 4159.57275 3544.52494 4159.91625 3544.76204 4160.29333 3544.94096 4160.69423 3545.05709 4161.10857 3545.1074 Z M 4194 3533.44036 L 4194.43657 3533.406 4194.86239 3533.30377 4195.26698 3533.13619 4195.64037 3532.90737 4195.97337 3532.62297 4196.25777 3532.28997 4196.48659 3531.91658 4196.65417 3531.51199 4196.7564 3531.08617 4196.79076 3530.6496 4196.7564 3530.21303 4196.65417 3529.78721 4196.48659 3529.38262 4196.25777 3529.00923 4195.97337 3528.67623 4195.64037 3528.39183 4195.26698 3528.16301 4194.86239 3527.99543 4194.43657 3527.8932 4194 3527.85884 4193.56343 3527.8932 4193.13761 3527.99543 4192.73302 3528.16301 4192.35963 3528.39183 4192.02663 3528.67623 4191.74223 3529.00923 4191.51341 3529.38262 4191.34583 3529.78721 4191.2436 3530.21303 4191.20924 3530.6496 4191.2436 3531.08617 4191.34583 3531.51199 4191.51341 3531.91658 4191.74223 3532.28997 4192.02663 3532.62297 4192.35963 3532.90737 4192.73302 3533.13619 4193.13761 3533.30377 4193.56343 3533.406 4194 3533.44036 Z M 4202 3533.44036 L 4202.43657 3533.406 4202.86239 3533.30377 4203.26698 3533.13619 4203.64037 3532.90737 4203.97337 3532.62297 4204.25777 3532.28997 4204.48659 3531.91658 4204.65417 3531.51199 4204.7564 3531.08617 4204.79076 3530.6496 4204.7564 3530.21303 4204.65417 3529.78721 4204.48659 3529.38262 4204.25777 3529.00923 4203.97337 3528.67623 4203.64037 3528.39183 4203.26698 3528.16301 4202.86239 3527.99543 4202.43657 3527.8932 4202 3527.85884 4201.56343 3527.8932 4201.13761 3527.99543 4200.73302 3528.16301 4200.35963 3528.39183 4200.02663 3528.67623 4199.74223 3529.00923 4199.51341 3529.38262 4199.34583 3529.78721 4199.2436 3530.21303 4199.20924 3530.6496 4199.2436 3531.08617 4199.34583 3531.51199 4199.51341 3531.91658 4199.74223 3532.28997 4200.02663 3532.62297 4200.35963 3532.90737 4200.73302 3533.13619 4201.13761 3533.30377 4201.56343 3533.406 4202 3533.44036 Z M 4198.88484 3558.69003 L 4198.48202 3559.376 4202.4272 3559.376 4202.4272 3555.43741 4201.92222 3555.71912 4201.21408 3556.20082 4200.55129 3556.74323 4199.93903 3557.34209 4199.38209 3557.99273 4198.88484 3558.69003 Z M 4202.4272 3485.86179 L 4202.4272 3481.9232 4198.48202 3481.9232 4198.88484 3482.60917 4199.38209 3483.30647 4199.93903 3483.95711 4200.55129 3484.55597 4201.21408 3485.09838 4201.92222 3485.58008 4202.4272 3485.86179 Z M 4034.4232 3555.43425 L 4034.4232 3559.376 4038.36071 3559.376 4038.19057 3559.0545 4037.72465 3558.33588 4037.19704 3557.66125 4036.61186 3557.03589 4035.97371 3556.46469 4035.28758 3555.95213 4034.55882 3555.50222 4034.4232 3555.43425 Z M 4034.4232 3485.86495 L 4034.55882 3485.79698 4035.28758 3485.34707 4035.97371 3484.83451 4036.61186 3484.26331 4037.19704 3483.63795 4037.72465 3482.96332 4038.19057 3482.2447 4038.36071 3481.9232 4034.4232 3481.9232 4034.4232 3485.86495 Z M 4055.79294 3544.4174 L 4055.73924 3544.492 4057.6171 3544.492 4057.6171 3542.61261 4057.54966 3542.66735 4057.3189 3542.78396 4056.87626 3543.08781 4056.47807 3543.44795 4056.13144 3543.85795 4055.84255 3544.31049 4055.79294 3544.4174 Z M 4055.79294 3508.9874 L 4055.73924 3509.062 4057.6171 3509.062 4057.6171 3507.18261 4057.54966 3507.23735 4057.3189 3507.35396 4056.87626 3507.65781 4056.47807 3508.01795 4056.13144 3508.42795 4055.84255 3508.88049 4055.79294 3508.9874 Z M 4057.6171 3549.8557 L 4057.6171 3547.992 4055.73718 3547.992 4055.78088 3548.04231 4055.97943 3548.40461 4056.2979 3548.83685 4056.67115 3549.22278 4057.0925 3549.55552 4057.55444 3549.82913 4057.6171 3549.8557 Z M 4057.6171 3514.4257 L 4057.6171 3512.562 4055.73718 3512.562 4055.78088 3512.61231 4055.97943 3512.97461 4056.2979 3513.40685 4056.67115 3513.79278 4057.0925 3514.12552 4057.55444 3514.39913 4057.6171 3514.4257 Z M 4062.97588 3509.062 L 4062.89165 3508.88049 4062.60276 3508.42795 4062.25613 3508.01795 4061.85794 3507.65781 4061.4153 3507.35396 4061.18454 3507.23735 4061.1171 3507.18261 4061.1171 3509.062 4062.97588 3509.062 Z M 4061.1171 3542.61261 L 4061.1171 3544.492 4062.97588 3544.492 4062.89165 3544.31049 4062.60276 3543.85795 4062.25613 3543.44795 4061.85794 3543.08781 4061.4153 3542.78396 4061.18454 3542.66735 4061.1171 3542.61261 Z M 4061.1171 3512.562 L 4061.1171 3514.4257 4061.17976 3514.39913 4061.6417 3514.12552 4062.06305 3513.79278 4062.4363 3513.40685 4062.75477 3512.97461 4062.98089 3512.562 4061.1171 3512.562 Z M 4061.1171 3549.8557 L 4061.17976 3549.82913 4061.6417 3549.55552 4062.06305 3549.22278 4062.4363 3548.83685 4062.75477 3548.40461 4062.98089 3547.992 4061.1171 3547.992 4061.1171 3549.8557 Z " stroke-width="0" layerid="2" attachedcopperid="gge1790" c_shapetype="line" id="gge1790_0" class=""></path><polyline points="4156.2207 3515.5315 4203.4685 3515.5315 4211 3508" stroke-width="1.1811"  stroke-linecap="round" fill="none" layerid="2" net="SWDIO" id="gge5052" locked="0" /><polyline points="4141.2598 3517.5 4149.2598 3525.5 4165 3525.5 4176 3536.5 4208 3536.5 4211 3533.5" stroke-width="1.1811"  stroke-linecap="round" fill="none" layerid="2" net="SWO" id="gge5066" locked="0" /><polyline points="4141.2598 3513.1692 4148.7406 3520.65 4214.488 3520.65" stroke-width="1.1811"  stroke-linecap="round" fill="none" layerid="2" net="SWCLK" id="gge5059" locked="0" /><polyline points="4141.31 3509 4147.8415 3515.5315 4156.2205 3515.5315" stroke-width="1.1811"  stroke-linecap="round" fill="none" layerid="2" net="SWDIO" id="gge5045" locked="0" /><polyline points="4150.2127 3542.5159 4161.2127 3542.5159" stroke-width="1.1811"  stroke-linecap="round" fill="none" layerid="2" net="NRST" id="gge3451" locked="0" /><polyline points="4155.21 3531.52 4152.73 3534 4108.5 3534 4104.13 3538.37 4059.37 3538.37" stroke-width="1.1811"  stroke-linecap="round" fill="none" layerid="2" net="PWM_OUT" id="gge3453" locked="0" /><polyline points="4051.5 3538.37 4047.87 3538.37 4044 3534.5 4044 3506.5 4047.57 3502.93 4051.5 3502.93" stroke-width="1.1811"  stroke-linecap="round" fill="none" layerid="2" net="GND_LOOP" id="gge2837" locked="0" /><polyline points="4059.3701 3502.9331 4141.6541 3502.9331 4149.134 3510.413" stroke-width="1.1811"  stroke-linecap="round" fill="none" layerid="2" net="PWM_IN" id="gge2815" locked="0" /></g><g transform="matrix(-1, 0, 0, 1, 8236.9, 0)"><g c_partid="part_pcbtext" c_etype="pinpart" c_origin="4081.5,3570" c_rotation="0" c_mirror="1" id="gge3459" locked="0" layerid="4" c_shapetype="group" ><path c_fontsize="3.937" c_fontfamily="" c_text="JLCJLCJLCJLC" d="M 4079.7105 3566.0272 L 4079.7105 3568.8905 L 4079.8894 3569.4273 L 4080.0684 3569.6063 L 4080.4263 3569.7853 L 4080.7842 3569.7853 L 4081.1421 3569.6063 L 4081.321 3569.4273 L 4081.5 3568.8905 L 4081.5 3568.5326 M 4078.5293 3566.0272 L 4078.5293 3569.7853 M 4078.5293 3569.7853 L 4076.3819 3569.7853 M 4072.5165 3566.922 L 4072.6954 3566.5641 L 4073.0533 3566.2062 L 4073.4112 3566.0272 L 4074.1271 3566.0272 L 4074.485 3566.2062 L 4074.8429 3566.5641 L 4075.0218 3566.922 L 4075.2008 3567.4588 L 4075.2008 3568.3536 L 4075.0218 3568.8905 L 4074.8429 3569.2484 L 4074.485 3569.6063 L 4074.1271 3569.7853 L 4073.4112 3569.7853 L 4073.0533 3569.6063 L 4072.6954 3569.2484 L 4072.5165 3568.8905 M 4069.5458 3566.0272 L 4069.5458 3568.8905 L 4069.7248 3569.4273 L 4069.9037 3569.6063 L 4070.2616 3569.7853 L 4070.6195 3569.7853 L 4070.9775 3569.6063 L 4071.1564 3569.4273 L 4071.3354 3568.8905 L 4071.3354 3568.5326 M 4068.3647 3566.0272 L 4068.3647 3569.7853 M 4068.3647 3569.7853 L 4066.2173 3569.7853 M 4062.3518 3566.922 L 4062.5308 3566.5641 L 4062.8887 3566.2062 L 4063.2466 3566.0272 L 4063.9624 3566.0272 L 4064.3203 3566.2062 L 4064.6782 3566.5641 L 4064.8572 3566.922 L 4065.0361 3567.4588 L 4065.0361 3568.3536 L 4064.8572 3568.8905 L 4064.6782 3569.2484 L 4064.3203 3569.6063 L 4063.9624 3569.7853 L 4063.2466 3569.7853 L 4062.8887 3569.6063 L 4062.5308 3569.2484 L 4062.3518 3568.8905 M 4059.3812 3566.0272 L 4059.3812 3568.8905 L 4059.5601 3569.4273 L 4059.7391 3569.6063 L 4060.097 3569.7853 L 4060.4549 3569.7853 L 4060.8128 3569.6063 L 4060.9918 3569.4273 L 4061.1707 3568.8905 L 4061.1707 3568.5326 M 4058.2001 3566.0272 L 4058.2001 3569.7853 M 4058.2001 3569.7853 L 4056.0526 3569.7853 M 4052.1872 3566.922 L 4052.3661 3566.5641 L 4052.7241 3566.2062 L 4053.082 3566.0272 L 4053.7978 3566.0272 L 4054.1557 3566.2062 L 4054.5136 3566.5641 L 4054.6926 3566.922 L 4054.8715 3567.4588 L 4054.8715 3568.3536 L 4054.6926 3568.8905 L 4054.5136 3569.2484 L 4054.1557 3569.6063 L 4053.7978 3569.7853 L 4053.082 3569.7853 L 4052.7241 3569.6063 L 4052.3661 3569.2484 L 4052.1872 3568.8905 M 4049.2165 3566.0272 L 4049.2165 3568.8905 L 4049.3955 3569.4273 L 4049.5744 3569.6063 L 4049.9324 3569.7853 L 4050.2903 3569.7853 L 4050.6482 3569.6063 L 4050.8271 3569.4273 L 4051.0061 3568.8905 L 4051.0061 3568.5326 M 4048.0354 3566.0272 L 4048.0354 3569.7853 M 4048.0354 3569.7853 L 4045.888 3569.7853 M 4042.0225 3566.922 L 4042.2015 3566.5641 L 4042.5594 3566.2062 L 4042.9173 3566.0272 L 4043.6331 3566.0272 L 4043.9911 3566.2062 L 4044.349 3566.5641 L 4044.5279 3566.922 L 4044.7069 3567.4588 L 4044.7069 3568.3536 L 4044.5279 3568.8905 L 4044.349 3569.2484 L 4043.9911 3569.6063 L 4043.6331 3569.7853 L 4042.9173 3569.7853 L 4042.5594 3569.6063 L 4042.2015 3569.2484 L 4042.0225 3568.8905" fill="none"  stroke-width="0.7874"  /></g><g c_partid="part_pcbtext" c_etype="pinpart" c_origin="4044.5,3489" c_rotation="90" c_mirror="1" id="gge3466" locked="0" layerid="4" c_shapetype="group" ><path c_fontsize="5.1181" c_fontfamily="" c_text="SERVER" d="M 4040.0333 3492.257 L 4039.568 3491.7917 L 4039.3354 3491.0938 L 4039.3354 3490.1632 L 4039.568 3489.4653 L 4040.0333 3489 L 4040.4986 3489 L 4040.9639 3489.2326 L 4041.1965 3489.4653 L 4041.4291 3489.9306 L 4041.8944 3491.3264 L 4042.1271 3491.7917 L 4042.3597 3492.0243 L 4042.825 3492.257 L 4043.5229 3492.257 L 4043.9882 3491.7917 L 4044.2208 3491.0938 L 4044.2208 3490.1632 L 4043.9882 3489.4653 L 4043.5229 3489 M 4039.3354 3493.7924 L 4044.2208 3493.7924 M 4039.3354 3493.7924 L 4039.3354 3496.8168 M 4041.6618 3493.7924 L 4041.6618 3495.6535 M 4044.2208 3493.7924 L 4044.2208 3496.8168 M 4039.3354 3498.3522 L 4044.2208 3498.3522 M 4039.3354 3498.3522 L 4039.3354 3500.446 L 4039.568 3501.1439 L 4039.8006 3501.3765 L 4040.2659 3501.6092 L 4040.7312 3501.6092 L 4041.1965 3501.3765 L 4041.4291 3501.1439 L 4041.6618 3500.446 L 4041.6618 3498.3522 M 4041.6618 3499.9807 L 4044.2208 3501.6092 M 4039.3354 3503.1446 L 4044.2208 3505.0057 M 4039.3354 3506.8669 L 4044.2208 3505.0057 M 4039.3354 3508.4023 L 4044.2208 3508.4023 M 4039.3354 3508.4023 L 4039.3354 3511.4266 M 4041.6618 3508.4023 L 4041.6618 3510.2634 M 4044.2208 3508.4023 L 4044.2208 3511.4266 M 4039.3354 3512.9621 L 4044.2208 3512.9621 M 4039.3354 3512.9621 L 4039.3354 3515.0558 L 4039.568 3515.7538 L 4039.8006 3515.9864 L 4040.2659 3516.219 L 4040.7312 3516.219 L 4041.1965 3515.9864 L 4041.4291 3515.7538 L 4041.6618 3515.0558 L 4041.6618 3512.9621 M 4041.6618 3514.5906 L 4044.2208 3516.219" fill="none"  stroke-width="0.9843"  /></g><g c_partid="part_pcbtext" c_etype="pinpart" c_origin="4044.5,3532" c_rotation="90" c_mirror="1" id="gge3474" locked="0" layerid="4" c_shapetype="group" ><path c_fontsize="5.1181" c_fontfamily="" c_text="FAN" d="M 4039.3354 3532 L 4044.2208 3532 M 4039.3354 3532 L 4039.3354 3535.0243 M 4041.6618 3532 L 4041.6618 3533.8611 M 4039.3354 3538.4209 L 4044.2208 3536.5598 M 4039.3354 3538.4209 L 4044.2208 3540.282 M 4042.5923 3537.2577 L 4042.5923 3539.5841 M 4039.3354 3541.8175 L 4044.2208 3541.8175 M 4039.3354 3541.8175 L 4044.2208 3545.0744 M 4039.3354 3545.0744 L 4044.2208 3545.0744" fill="none"  stroke-width="0.9843"  /></g><g c_partid="part_pcbtext" c_etype="pinpart" c_origin="4195.5,3570" c_rotation="0" c_mirror="1" id="gge3482" locked="0" layerid="4" c_shapetype="group" ><path c_fontsize="3.937" c_fontfamily="" c_text="designed by niraami" d="M 4193.3525 3566.0272 L 4193.3525 3569.7853 M 4193.3525 3567.8168 L 4193.7105 3567.4588 L 4194.0684 3567.2799 L 4194.6052 3567.2799 L 4194.9631 3567.4588 L 4195.321 3567.8168 L 4195.5 3568.3536 L 4195.5 3568.7115 L 4195.321 3569.2484 L 4194.9631 3569.6063 L 4194.6052 3569.7853 L 4194.0684 3569.7853 L 4193.7105 3569.6063 L 4193.3525 3569.2484 M 4192.1714 3568.3536 L 4190.024 3568.3536 L 4190.024 3567.9957 L 4190.2029 3567.6378 L 4190.3819 3567.4588 L 4190.7398 3567.2799 L 4191.2767 3567.2799 L 4191.6346 3567.4588 L 4191.9925 3567.8168 L 4192.1714 3568.3536 L 4192.1714 3568.7115 L 4191.9925 3569.2484 L 4191.6346 3569.6063 L 4191.2767 3569.7853 L 4190.7398 3569.7853 L 4190.3819 3569.6063 L 4190.024 3569.2484 M 4186.8744 3567.8168 L 4187.0533 3567.4588 L 4187.5902 3567.2799 L 4188.1271 3567.2799 L 4188.6639 3567.4588 L 4188.8429 3567.8168 L 4188.6639 3568.1747 L 4188.306 3568.3536 L 4187.4112 3568.5326 L 4187.0533 3568.7115 L 4186.8744 3569.0694 L 4186.8744 3569.2484 L 4187.0533 3569.6063 L 4187.5902 3569.7853 L 4188.1271 3569.7853 L 4188.6639 3569.6063 L 4188.8429 3569.2484 M 4185.6933 3566.0272 L 4185.5143 3566.2062 L 4185.3354 3566.0272 L 4185.5143 3565.8482 L 4185.6933 3566.0272 M 4185.5143 3567.2799 L 4185.5143 3569.7853 M 4182.0068 3567.2799 L 4182.0068 3570.1432 L 4182.1858 3570.68 L 4182.3647 3570.859 L 4182.7226 3571.0379 L 4183.2595 3571.0379 L 4183.6174 3570.859 M 4182.0068 3567.8168 L 4182.3647 3567.4588 L 4182.7226 3567.2799 L 4183.2595 3567.2799 L 4183.6174 3567.4588 L 4183.9753 3567.8168 L 4184.1543 3568.3536 L 4184.1543 3568.7115 L 4183.9753 3569.2484 L 4183.6174 3569.6063 L 4183.2595 3569.7853 L 4182.7226 3569.7853 L 4182.3647 3569.6063 L 4182.0068 3569.2484 M 4180.8257 3567.2799 L 4180.8257 3569.7853 M 4180.8257 3567.9957 L 4180.2888 3567.4588 L 4179.9309 3567.2799 L 4179.3941 3567.2799 L 4179.0361 3567.4588 L 4178.8572 3567.9957 L 4178.8572 3569.7853 M 4177.6761 3568.3536 L 4175.5286 3568.3536 L 4175.5286 3567.9957 L 4175.7076 3567.6378 L 4175.8865 3567.4588 L 4176.2445 3567.2799 L 4176.7813 3567.2799 L 4177.1392 3567.4588 L 4177.4971 3567.8168 L 4177.6761 3568.3536 L 4177.6761 3568.7115 L 4177.4971 3569.2484 L 4177.1392 3569.6063 L 4176.7813 3569.7853 L 4176.2445 3569.7853 L 4175.8865 3569.6063 L 4175.5286 3569.2484 M 4172.2001 3566.0272 L 4172.2001 3569.7853 M 4172.2001 3567.8168 L 4172.558 3567.4588 L 4172.9159 3567.2799 L 4173.4528 3567.2799 L 4173.8107 3567.4588 L 4174.1686 3567.8168 L 4174.3475 3568.3536 L 4174.3475 3568.7115 L 4174.1686 3569.2484 L 4173.8107 3569.6063 L 4173.4528 3569.7853 L 4172.9159 3569.7853 L 4172.558 3569.6063 L 4172.2001 3569.2484 M 4168.2631 3566.0272 L 4168.2631 3569.7853 M 4168.2631 3567.8168 L 4167.9052 3567.4588 L 4167.5472 3567.2799 L 4167.0104 3567.2799 L 4166.6525 3567.4588 L 4166.2946 3567.8168 L 4166.1156 3568.3536 L 4166.1156 3568.7115 L 4166.2946 3569.2484 L 4166.6525 3569.6063 L 4167.0104 3569.7853 L 4167.5472 3569.7853 L 4167.9052 3569.6063 L 4168.2631 3569.2484 M 4164.7555 3567.2799 L 4163.6818 3569.7853 M 4162.6081 3567.2799 L 4163.6818 3569.7853 L 4164.0397 3570.5011 L 4164.3976 3570.859 L 4164.7555 3571.0379 L 4164.9345 3571.0379 M 4158.6711 3567.2799 L 4158.6711 3569.7853 M 4158.6711 3567.9957 L 4158.1342 3567.4588 L 4157.7763 3567.2799 L 4157.2394 3567.2799 L 4156.8815 3567.4588 L 4156.7026 3567.9957 L 4156.7026 3569.7853 M 4155.5215 3566.0272 L 4155.3425 3566.2062 L 4155.1636 3566.0272 L 4155.3425 3565.8482 L 4155.5215 3566.0272 M 4155.3425 3567.2799 L 4155.3425 3569.7853 M 4153.9825 3567.2799 L 4153.9825 3569.7853 M 4153.9825 3568.3536 L 4153.8035 3567.8168 L 4153.4456 3567.4588 L 4153.0877 3567.2799 L 4152.5508 3567.2799 M 4149.2223 3567.2799 L 4149.2223 3569.7853 M 4149.2223 3567.8168 L 4149.5802 3567.4588 L 4149.9381 3567.2799 L 4150.4749 3567.2799 L 4150.8329 3567.4588 L 4151.1908 3567.8168 L 4151.3697 3568.3536 L 4151.3697 3568.7115 L 4151.1908 3569.2484 L 4150.8329 3569.6063 L 4150.4749 3569.7853 L 4149.9381 3569.7853 L 4149.5802 3569.6063 L 4149.2223 3569.2484 M 4145.8937 3567.2799 L 4145.8937 3569.7853 M 4145.8937 3567.8168 L 4146.2516 3567.4588 L 4146.6095 3567.2799 L 4147.1464 3567.2799 L 4147.5043 3567.4588 L 4147.8622 3567.8168 L 4148.0412 3568.3536 L 4148.0412 3568.7115 L 4147.8622 3569.2484 L 4147.5043 3569.6063 L 4147.1464 3569.7853 L 4146.6095 3569.7853 L 4146.2516 3569.6063 L 4145.8937 3569.2484 M 4144.7126 3567.2799 L 4144.7126 3569.7853 M 4144.7126 3567.9957 L 4144.1757 3567.4588 L 4143.8178 3567.2799 L 4143.281 3567.2799 L 4142.923 3567.4588 L 4142.7441 3567.9957 L 4142.7441 3569.7853 M 4142.7441 3567.9957 L 4142.2072 3567.4588 L 4141.8493 3567.2799 L 4141.3125 3567.2799 L 4140.9545 3567.4588 L 4140.7756 3567.9957 L 4140.7756 3569.7853 M 4139.5945 3566.0272 L 4139.4155 3566.2062 L 4139.2366 3566.0272 L 4139.4155 3565.8482 L 4139.5945 3566.0272 M 4139.4155 3567.2799 L 4139.4155 3569.7853" fill="none"  stroke-width="0.7874"  /></g></g><g transform="matrix(-1, 0, 0, 1, 8236.9, 0)"><g c_partid="part_pad" c_etype="pinpart" c_origin="4059.367,3495.064" layerid="11" number="1" net="VCC12V" plated ="Y"  id="gge5191" locked="0" c_rotation="90" c_width="6" c_height="6" title="VCC12V" c_shape="RECT" pasteexpansion="0" solderexpansion="0.2"><polygon  c_etype="pad_shell" points="4056.3671 3498.064 4056.3671 3492.064 4062.3671 3492.064 4062.3671 3498.064" layerid="11" stroke-width="0" /><circle c_etype="pad_hole" cx="4059.3671" cy="3495.064" r="1.8" layerid="11" stroke-width="0"/></g><g c_partid="part_pad" c_etype="pinpart" c_origin="4051.493,3495.064" layerid="11" number="2" net="" plated ="Y"  id="gge5196" locked="0" c_rotation="90" c_width="6" c_height="6" title="" c_shape="ELLIPSE" pasteexpansion="0" solderexpansion="0.2"><ellipse c_etype="pad_shell" cx="4051.493" cy="3495.064" rx="3" ry="3" layerid="11" stroke-width="0"/><circle c_etype="pad_hole" cx="4051.4931" cy="3495.064" r="1.8" layerid="11" stroke-width="0"/></g><g c_partid="part_pad" c_etype="pinpart" c_origin="4059.367,3502.938" layerid="11" number="3" net="PWM_IN" plated ="Y"  id="gge5201" locked="0" c_rotation="90" c_width="6" c_height="6" title="PWM_IN" c_shape="ELLIPSE" pasteexpansion="0" solderexpansion="0.2"><ellipse c_etype="pad_shell" cx="4059.367" cy="3502.938" rx="3" ry="3" layerid="11" stroke-width="0"/><circle c_etype="pad_hole" cx="4059.3671" cy="3502.938" r="1.8" layerid="11" stroke-width="0"/></g><g c_partid="part_pad" c_etype="pinpart" c_origin="4051.493,3502.938" layerid="11" number="4" net="GND_LOOP" plated ="Y"  id="gge5206" locked="0" c_rotation="90" c_width="6" c_height="6" title="GND_LOOP" c_shape="ELLIPSE" pasteexpansion="0" solderexpansion="0.2"><ellipse c_etype="pad_shell" cx="4051.493" cy="3502.938" rx="3" ry="3" layerid="11" stroke-width="0"/><circle c_etype="pad_hole" cx="4051.4931" cy="3502.938" r="1.8" layerid="11" stroke-width="0"/></g><g c_partid="part_pad" c_etype="pinpart" c_origin="4059.367,3510.812" layerid="11" number="5" net="GND" plated ="Y"  id="gge5211" locked="0" c_rotation="90" c_width="6" c_height="6" title="GND" c_shape="ELLIPSE" pasteexpansion="0" solderexpansion="0.2"><ellipse c_etype="pad_shell" cx="4059.367" cy="3510.812" rx="3" ry="3" layerid="11" stroke-width="0"/><circle c_etype="pad_hole" cx="4059.3671" cy="3510.812" r="1.8" layerid="11" stroke-width="0"/></g><g c_partid="part_pad" c_etype="pinpart" c_origin="4051.493,3510.812" layerid="11" number="6" net="FAN_SENSE" plated ="Y"  id="gge5216" locked="0" c_rotation="90" c_width="6" c_height="6" title="FAN_SENSE" c_shape="ELLIPSE" pasteexpansion="0" solderexpansion="0.2"><ellipse c_etype="pad_shell" cx="4051.493" cy="3510.812" rx="3" ry="3" layerid="11" stroke-width="0"/><circle c_etype="pad_hole" cx="4051.4931" cy="3510.812" r="1.8" layerid="11" stroke-width="0"/></g><g c_partid="part_pad" c_etype="pinpart" c_origin="4059.367,3530.494" layerid="11" number="1" net="VCC12V" plated ="Y"  id="gge5250" locked="0" c_rotation="90" c_width="6" c_height="6" title="VCC12V" c_shape="RECT" pasteexpansion="0" solderexpansion="0.2"><polygon  c_etype="pad_shell" points="4056.3671 3533.494 4056.3671 3527.494 4062.3671 3527.494 4062.3671 3533.494" layerid="11" stroke-width="0" /><circle c_etype="pad_hole" cx="4059.3671" cy="3530.494" r="1.8" layerid="11" stroke-width="0"/></g><g c_partid="part_pad" c_etype="pinpart" c_origin="4051.493,3530.494" layerid="11" number="2" net="" plated ="Y"  id="gge5255" locked="0" c_rotation="90" c_width="6" c_height="6" title="" c_shape="ELLIPSE" pasteexpansion="0" solderexpansion="0.2"><ellipse c_etype="pad_shell" cx="4051.493" cy="3530.494" rx="3" ry="3" layerid="11" stroke-width="0"/><circle c_etype="pad_hole" cx="4051.4931" cy="3530.494" r="1.8" layerid="11" stroke-width="0"/></g><g c_partid="part_pad" c_etype="pinpart" c_origin="4059.367,3538.368" layerid="11" number="3" net="PWM_OUT" plated ="Y"  id="gge5260" locked="0" c_rotation="90" c_width="6" c_height="6" title="PWM_OUT" c_shape="ELLIPSE" pasteexpansion="0" solderexpansion="0.2"><ellipse c_etype="pad_shell" cx="4059.367" cy="3538.368" rx="3" ry="3" layerid="11" stroke-width="0"/><circle c_etype="pad_hole" cx="4059.3671" cy="3538.368" r="1.8" layerid="11" stroke-width="0"/></g><g c_partid="part_pad" c_etype="pinpart" c_origin="4051.493,3538.368" layerid="11" number="4" net="GND_LOOP" plated ="Y"  id="gge5265" locked="0" c_rotation="90" c_width="6" c_height="6" title="GND_LOOP" c_shape="ELLIPSE" pasteexpansion="0" solderexpansion="0.2"><ellipse c_etype="pad_shell" cx="4051.493" cy="3538.368" rx="3" ry="3" layerid="11" stroke-width="0"/><circle c_etype="pad_hole" cx="4051.4931" cy="3538.368" r="1.8" layerid="11" stroke-width="0"/></g><g c_partid="part_pad" c_etype="pinpart" c_origin="4059.367,3546.242" layerid="11" number="5" net="GND" plated ="Y"  id="gge5270" locked="0" c_rotation="90" c_width="6" c_height="6" title="GND" c_shape="ELLIPSE" pasteexpansion="0" solderexpansion="0.2"><ellipse c_etype="pad_shell" cx="4059.367" cy="3546.242" rx="3" ry="3" layerid="11" stroke-width="0"/><circle c_etype="pad_hole" cx="4059.3671" cy="3546.242" r="1.8" layerid="11" stroke-width="0"/></g><g c_partid="part_pad" c_etype="pinpart" c_origin="4051.493,3546.242" layerid="11" number="6" net="FAN_SENSE" plated ="Y"  id="gge5275" locked="0" c_rotation="90" c_width="6" c_height="6" title="FAN_SENSE" c_shape="ELLIPSE" pasteexpansion="0" solderexpansion="0.2"><ellipse c_etype="pad_shell" cx="4051.493" cy="3546.242" rx="3" ry="3" layerid="11" stroke-width="0"/><circle c_etype="pad_hole" cx="4051.4931" cy="3546.242" r="1.8" layerid="11" stroke-width="0"/></g><g c_partid="part_pad" c_etype="pinpart" c_origin="4029.843,3477.343" layerid="11" number="1" net="GND" plated ="Y"  id="gge1577" locked="0" c_rotation="0" c_width="17.3228" c_height="17.3228" title="GND" c_shape="ELLIPSE" pasteexpansion="0" solderexpansion="0.4"><ellipse c_etype="pad_shell" cx="4029.843" cy="3477.343" rx="8.6614" ry="8.6614" layerid="11" stroke-width="0"/><polyline c_etype="pad_hole" points="4029.8325 3477.3425 4029.8525 3477.3425" layerid="11" stroke-width="8.6614"></polyline></g><g c_partid="part_pad" c_etype="pinpart" c_origin="4207.008,3477.343" layerid="11" number="1" net="GND" plated ="Y"  id="gge1588" locked="0" c_rotation="0" c_width="17.3228" c_height="17.3228" title="GND" c_shape="ELLIPSE" pasteexpansion="0" solderexpansion="0.4"><ellipse c_etype="pad_shell" cx="4207.008" cy="3477.343" rx="8.6614" ry="8.6614" layerid="11" stroke-width="0"/><polyline c_etype="pad_hole" points="4206.9979 3477.3425 4207.0179 3477.3425" layerid="11" stroke-width="8.6614"></polyline></g><g c_partid="part_pad" c_etype="pinpart" c_origin="4029.843,3563.957" layerid="11" number="1" net="GND" plated ="Y"  id="gge1599" locked="0" c_rotation="0" c_width="17.3228" c_height="17.3228" title="GND" c_shape="ELLIPSE" pasteexpansion="0" solderexpansion="0.4"><ellipse c_etype="pad_shell" cx="4029.843" cy="3563.957" rx="8.6614" ry="8.6614" layerid="11" stroke-width="0"/><polyline c_etype="pad_hole" points="4029.8325 3563.9567 4029.8525 3563.9567" layerid="11" stroke-width="8.6614"></polyline></g><g c_partid="part_pad" c_etype="pinpart" c_origin="4207.008,3563.957" layerid="11" number="1" net="GND" plated ="Y"  id="gge1610" locked="0" c_rotation="0" c_width="17.3228" c_height="17.3228" title="GND" c_shape="ELLIPSE" pasteexpansion="0" solderexpansion="0.4"><ellipse c_etype="pad_shell" cx="4207.008" cy="3563.957" rx="8.6614" ry="8.6614" layerid="11" stroke-width="0"/><polyline c_etype="pad_hole" points="4206.9979 3563.9567 4207.0179 3563.9567" layerid="11" stroke-width="8.6614"></polyline></g><g c_partid="part_via" c_etype="pinpart" c_shapetype="group" net="GND" c_origin="4064.5,3512" layerid="11" id="gge1718" locked="0" solderexpansion=""><circle cx="4064.5" cy="3512" r="1.5748" stroke-width="0" c_etype="pad_shell"/><circle cx="4064.5" cy="3512" r="0.7874"  stroke-width="0" c_etype="pad_hole"/></g><g c_partid="part_via" c_etype="pinpart" c_shapetype="group" net="GND" c_origin="4064.5,3515.937" layerid="11" id="gge1750" locked="0" solderexpansion=""><circle cx="4064.5" cy="3515.937" r="1.5748" stroke-width="0" c_etype="pad_shell"/><circle cx="4064.5" cy="3515.937" r="0.7874"  stroke-width="0" c_etype="pad_hole"/></g><g c_partid="part_via" c_etype="pinpart" c_shapetype="group" net="GND" c_origin="4060.563,3515.937" layerid="11" id="gge1754" locked="0" solderexpansion=""><circle cx="4060.563" cy="3515.937" r="1.5748" stroke-width="0" c_etype="pad_shell"/><circle cx="4060.563" cy="3515.937" r="0.7874"  stroke-width="0" c_etype="pad_hole"/></g><g c_partid="part_via" c_etype="pinpart" c_shapetype="group" net="GND" c_origin="4056.626,3515.937" layerid="11" id="gge1758" locked="0" solderexpansion=""><circle cx="4056.626" cy="3515.937" r="1.5748" stroke-width="0" c_etype="pad_shell"/><circle cx="4056.626" cy="3515.937" r="0.7874"  stroke-width="0" c_etype="pad_hole"/></g><g c_partid="part_via" c_etype="pinpart" c_shapetype="group" net="GND" c_origin="4064.5,3547.563" layerid="11" id="gge1775" locked="0" solderexpansion=""><circle cx="4064.5" cy="3547.563" r="1.5748" stroke-width="0" c_etype="pad_shell"/><circle cx="4064.5" cy="3547.563" r="0.7874"  stroke-width="0" c_etype="pad_hole"/></g><g c_partid="part_via" c_etype="pinpart" c_shapetype="group" net="GND" c_origin="4064.5,3551.5" layerid="11" id="gge1776" locked="0" solderexpansion=""><circle cx="4064.5" cy="3551.5" r="1.5748" stroke-width="0" c_etype="pad_shell"/><circle cx="4064.5" cy="3551.5" r="0.7874"  stroke-width="0" c_etype="pad_hole"/></g><g c_partid="part_via" c_etype="pinpart" c_shapetype="group" net="GND" c_origin="4060.563,3551.5" layerid="11" id="gge1777" locked="0" solderexpansion=""><circle cx="4060.563" cy="3551.5" r="1.5748" stroke-width="0" c_etype="pad_shell"/><circle cx="4060.563" cy="3551.5" r="0.7874"  stroke-width="0" c_etype="pad_hole"/></g><g c_partid="part_via" c_etype="pinpart" c_shapetype="group" net="GND" c_origin="4056.626,3551.5" layerid="11" id="gge1778" locked="0" solderexpansion=""><circle cx="4056.626" cy="3551.5" r="1.5748" stroke-width="0" c_etype="pad_shell"/><circle cx="4056.626" cy="3551.5" r="0.7874"  stroke-width="0" c_etype="pad_hole"/></g><g c_partid="part_via" c_etype="pinpart" c_shapetype="group" net="GND" c_origin="4174.969,3505.311" layerid="11" id="gge2012" locked="0" solderexpansion=""><circle cx="4174.969" cy="3505.311" r="1.5748" stroke-width="0" c_etype="pad_shell"/><circle cx="4174.969" cy="3505.311" r="0.7874"  stroke-width="0" c_etype="pad_hole"/></g><g c_partid="part_via" c_etype="pinpart" c_shapetype="group" net="NRST" c_origin="4150.213,3542.516" layerid="11" id="gge2137" locked="0" solderexpansion=""><circle cx="4150.213" cy="3542.516" r="1.5748" stroke-width="0" c_etype="pad_shell"/><circle cx="4150.213" cy="3542.516" r="0.7874"  stroke-width="0" c_etype="pad_hole"/></g><g c_partid="part_via" c_etype="pinpart" c_shapetype="group" net="NRST" c_origin="4161.213,3542.516" layerid="11" id="gge2138" locked="0" solderexpansion=""><circle cx="4161.213" cy="3542.516" r="1.5748" stroke-width="0" c_etype="pad_shell"/><circle cx="4161.213" cy="3542.516" r="0.7874"  stroke-width="0" c_etype="pad_hole"/></g><g c_partid="part_via" c_etype="pinpart" c_shapetype="group" net="GND" c_origin="4141.213,3529.516" layerid="11" id="gge2159" locked="0" solderexpansion=""><circle cx="4141.213" cy="3529.516" r="1.5748" stroke-width="0" c_etype="pad_shell"/><circle cx="4141.213" cy="3529.516" r="0.7874"  stroke-width="0" c_etype="pad_hole"/></g><g c_partid="part_via" c_etype="pinpart" c_shapetype="group" net="GND" c_origin="4145.213,3529.516" layerid="11" id="gge2163" locked="0" solderexpansion=""><circle cx="4145.213" cy="3529.516" r="1.5748" stroke-width="0" c_etype="pad_shell"/><circle cx="4145.213" cy="3529.516" r="0.7874"  stroke-width="0" c_etype="pad_hole"/></g><g c_partid="part_via" c_etype="pinpart" c_shapetype="group" net="GND" c_origin="4149.213,3529.516" layerid="11" id="gge2167" locked="0" solderexpansion=""><circle cx="4149.213" cy="3529.516" r="1.5748" stroke-width="0" c_etype="pad_shell"/><circle cx="4149.213" cy="3529.516" r="0.7874"  stroke-width="0" c_etype="pad_hole"/></g><g c_partid="part_via" c_etype="pinpart" c_shapetype="group" net="GND" c_origin="4158.189,3510.413" layerid="11" id="gge2259" locked="0" solderexpansion=""><circle cx="4158.189" cy="3510.413" r="1.5748" stroke-width="0" c_etype="pad_shell"/><circle cx="4158.189" cy="3510.413" r="0.7874"  stroke-width="0" c_etype="pad_hole"/></g><g c_partid="part_via" c_etype="pinpart" c_shapetype="group" net="GND" c_origin="4144.213,3559.516" layerid="11" id="gge2292" locked="0" solderexpansion=""><circle cx="4144.213" cy="3559.516" r="1.5748" stroke-width="0" c_etype="pad_shell"/><circle cx="4144.213" cy="3559.516" r="0.7874"  stroke-width="0" c_etype="pad_hole"/></g><g c_partid="part_via" c_etype="pinpart" c_shapetype="group" net="GND" c_origin="4153.213,3559.516" layerid="11" id="gge2297" locked="0" solderexpansion=""><circle cx="4153.213" cy="3559.516" r="1.5748" stroke-width="0" c_etype="pad_shell"/><circle cx="4153.213" cy="3559.516" r="0.7874"  stroke-width="0" c_etype="pad_hole"/></g><g c_partid="part_via" c_etype="pinpart" c_shapetype="group" net="GND" c_origin="4148.713,3559.516" layerid="11" id="gge2309" locked="0" solderexpansion=""><circle cx="4148.713" cy="3559.516" r="1.5748" stroke-width="0" c_etype="pad_shell"/><circle cx="4148.713" cy="3559.516" r="0.7874"  stroke-width="0" c_etype="pad_hole"/></g><g c_partid="part_via" c_etype="pinpart" c_shapetype="group" net="GND" c_origin="4150.213,3494.516" layerid="11" id="gge2481" locked="0" solderexpansion=""><circle cx="4150.213" cy="3494.516" r="1.5748" stroke-width="0" c_etype="pad_shell"/><circle cx="4150.213" cy="3494.516" r="0.7874"  stroke-width="0" c_etype="pad_hole"/></g><g c_partid="part_via" c_etype="pinpart" c_shapetype="group" net="GND" c_origin="4154.213,3494.516" layerid="11" id="gge2485" locked="0" solderexpansion=""><circle cx="4154.213" cy="3494.516" r="1.5748" stroke-width="0" c_etype="pad_shell"/><circle cx="4154.213" cy="3494.516" r="0.7874"  stroke-width="0" c_etype="pad_hole"/></g><g c_partid="part_via" c_etype="pinpart" c_shapetype="group" net="GND" c_origin="4184,3532" layerid="11" id="gge2678" locked="0" solderexpansion=""><circle cx="4184" cy="3532" r="1.5748" stroke-width="0" c_etype="pad_shell"/><circle cx="4184" cy="3532" r="0.7874"  stroke-width="0" c_etype="pad_hole"/></g><g c_partid="part_via" c_etype="pinpart" c_shapetype="group" net="PWM_IN" c_origin="4149.134,3510.413" layerid="11" id="gge2772" locked="0" solderexpansion=""><circle cx="4149.134" cy="3510.413" r="1.5748" stroke-width="0" c_etype="pad_shell"/><circle cx="4149.134" cy="3510.413" r="0.7874"  stroke-width="0" c_etype="pad_hole"/></g><g c_partid="part_via" c_etype="pinpart" c_shapetype="group" net="PWM_OUT" c_origin="4155.213,3531.516" layerid="11" id="gge2778" locked="0" solderexpansion=""><circle cx="4155.213" cy="3531.516" r="1.5748" stroke-width="0" c_etype="pad_shell"/><circle cx="4155.213" cy="3531.516" r="0.7874"  stroke-width="0" c_etype="pad_hole"/></g><g c_partid="part_via" c_etype="pinpart" c_shapetype="group" net="GND" c_origin="4119.213,3541.516" layerid="11" id="gge2966" locked="0" solderexpansion=""><circle cx="4119.213" cy="3541.516" r="1.5748" stroke-width="0" c_etype="pad_shell"/><circle cx="4119.213" cy="3541.516" r="0.7874"  stroke-width="0" c_etype="pad_hole"/></g><g c_partid="part_via" c_etype="pinpart" c_shapetype="group" net="GND" c_origin="4116.457,3538.76" layerid="11" id="gge2979" locked="0" solderexpansion=""><circle cx="4116.457" cy="3538.76" r="1.5748" stroke-width="0" c_etype="pad_shell"/><circle cx="4116.457" cy="3538.76" r="0.7874"  stroke-width="0" c_etype="pad_hole"/></g><g c_partid="part_via" c_etype="pinpart" c_shapetype="group" net="GND" c_origin="4087,3531.5" layerid="11" id="gge3359" locked="0" solderexpansion=""><circle cx="4087" cy="3531.5" r="1.5748" stroke-width="0" c_etype="pad_shell"/><circle cx="4087" cy="3531.5" r="0.7874"  stroke-width="0" c_etype="pad_hole"/></g><g c_partid="part_via" c_etype="pinpart" c_shapetype="group" net="GND" c_origin="4087,3525" layerid="11" id="gge3423" locked="0" solderexpansion=""><circle cx="4087" cy="3525" r="1.5748" stroke-width="0" c_etype="pad_shell"/><circle cx="4087" cy="3525" r="0.7874"  stroke-width="0" c_etype="pad_hole"/></g><g c_partid="part_via" c_etype="pinpart" c_shapetype="group" net="GND" c_origin="4175,3501" layerid="11" id="gge3527" locked="0" solderexpansion=""><circle cx="4175" cy="3501" r="1.5748" stroke-width="0" c_etype="pad_shell"/><circle cx="4175" cy="3501" r="0.7874"  stroke-width="0" c_etype="pad_hole"/></g><g c_partid="part_via" c_etype="pinpart" c_shapetype="group" net="GND" c_origin="4079,3534.5" layerid="11" id="gge3640" locked="0" solderexpansion=""><circle cx="4079" cy="3534.5" r="1.5748" stroke-width="0" c_etype="pad_shell"/><circle cx="4079" cy="3534.5" r="0.7874"  stroke-width="0" c_etype="pad_hole"/></g><g c_partid="part_via" c_etype="pinpart" c_shapetype="group" net="GND" c_origin="4079,3542.768" layerid="11" id="gge3654" locked="0" solderexpansion=""><circle cx="4079" cy="3542.768" r="1.5748" stroke-width="0" c_etype="pad_shell"/><circle cx="4079" cy="3542.768" r="0.7874"  stroke-width="0" c_etype="pad_hole"/></g><g c_partid="part_via" c_etype="pinpart" c_shapetype="group" net="GND" c_origin="4082.992,3507.264" layerid="11" id="gge3684" locked="0" solderexpansion=""><circle cx="4082.992" cy="3507.264" r="1.5748" stroke-width="0" c_etype="pad_shell"/><circle cx="4082.992" cy="3507.264" r="0.7874"  stroke-width="0" c_etype="pad_hole"/></g><g c_partid="part_via" c_etype="pinpart" c_shapetype="group" net="GND" c_origin="4087.323,3507.264" layerid="11" id="gge3689" locked="0" solderexpansion=""><circle cx="4087.323" cy="3507.264" r="1.5748" stroke-width="0" c_etype="pad_shell"/><circle cx="4087.323" cy="3507.264" r="0.7874"  stroke-width="0" c_etype="pad_hole"/></g><g c_partid="part_via" c_etype="pinpart" c_shapetype="group" net="GND" c_origin="4082.992,3498.209" layerid="11" id="gge3694" locked="0" solderexpansion=""><circle cx="4082.992" cy="3498.209" r="1.5748" stroke-width="0" c_etype="pad_shell"/><circle cx="4082.992" cy="3498.209" r="0.7874"  stroke-width="0" c_etype="pad_hole"/></g><g c_partid="part_via" c_etype="pinpart" c_shapetype="group" net="GND" c_origin="4087.323,3498.209" layerid="11" id="gge3699" locked="0" solderexpansion=""><circle cx="4087.323" cy="3498.209" r="1.5748" stroke-width="0" c_etype="pad_shell"/><circle cx="4087.323" cy="3498.209" r="0.7874"  stroke-width="0" c_etype="pad_hole"/></g><g c_partid="part_via" c_etype="pinpart" c_shapetype="group" net="GND" c_origin="4187.5,3532" layerid="11" id="gge5018" locked="0" solderexpansion=""><circle cx="4187.5" cy="3532" r="1.5748" stroke-width="0" c_etype="pad_shell"/><circle cx="4187.5" cy="3532" r="0.7874"  stroke-width="0" c_etype="pad_hole"/></g><g c_partid="part_via" c_etype="pinpart" c_shapetype="group" net="GND" c_origin="4184,3525" layerid="11" id="gge5027" locked="0" solderexpansion=""><circle cx="4184" cy="3525" r="1.5748" stroke-width="0" c_etype="pad_shell"/><circle cx="4184" cy="3525" r="0.7874"  stroke-width="0" c_etype="pad_hole"/></g><g c_partid="part_via" c_etype="pinpart" c_shapetype="group" net="GND" c_origin="4187.5,3525" layerid="11" id="gge5028" locked="0" solderexpansion=""><circle cx="4187.5" cy="3525" r="1.5748" stroke-width="0" c_etype="pad_shell"/><circle cx="4187.5" cy="3525" r="0.7874"  stroke-width="0" c_etype="pad_hole"/></g><g c_partid="part_via" c_etype="pinpart" c_shapetype="group" net="SWDIO" c_origin="4141.31,3509" layerid="11" id="gge5044" locked="0" solderexpansion=""><circle cx="4141.31" cy="3509" r="1.5748" stroke-width="0" c_etype="pad_shell"/><circle cx="4141.31" cy="3509" r="0.7874"  stroke-width="0" c_etype="pad_hole"/></g><g c_partid="part_via" c_etype="pinpart" c_shapetype="group" net="SWDIO" c_origin="4211,3508" layerid="11" id="gge5050" locked="0" solderexpansion=""><circle cx="4211" cy="3508" r="1.5748" stroke-width="0" c_etype="pad_shell"/><circle cx="4211" cy="3508" r="0.7874"  stroke-width="0" c_etype="pad_hole"/></g><g c_partid="part_via" c_etype="pinpart" c_shapetype="group" net="SWO" c_origin="4211,3533.5" layerid="11" id="gge5055" locked="0" solderexpansion=""><circle cx="4211" cy="3533.5" r="1.5748" stroke-width="0" c_etype="pad_shell"/><circle cx="4211" cy="3533.5" r="0.7874"  stroke-width="0" c_etype="pad_hole"/></g><g c_partid="part_via" c_etype="pinpart" c_shapetype="group" net="SWCLK" c_origin="4141.26,3513.169" layerid="11" id="gge5058" locked="0" solderexpansion=""><circle cx="4141.26" cy="3513.169" r="1.5748" stroke-width="0" c_etype="pad_shell"/><circle cx="4141.26" cy="3513.169" r="0.7874"  stroke-width="0" c_etype="pad_hole"/></g><g c_partid="part_via" c_etype="pinpart" c_shapetype="group" net="SWCLK" c_origin="4214.488,3520.65" layerid="11" id="gge5060" locked="0" solderexpansion=""><circle cx="4214.488" cy="3520.65" r="1.5748" stroke-width="0" c_etype="pad_shell"/><circle cx="4214.488" cy="3520.65" r="0.7874"  stroke-width="0" c_etype="pad_hole"/></g><g c_partid="part_via" c_etype="pinpart" c_shapetype="group" net="SWO" c_origin="4141.26,3517.5" layerid="11" id="gge5065" locked="0" solderexpansion=""><circle cx="4141.26" cy="3517.5" r="1.5748" stroke-width="0" c_etype="pad_shell"/><circle cx="4141.26" cy="3517.5" r="0.7874"  stroke-width="0" c_etype="pad_hole"/></g><g c_partid="part_hole" c_etype="pinpart" c_shapetype="group" c_origin="4198,3510.65" layerid="11" id="gge5403" locked="0" ><circle cx="4198" cy="3510.65" r="1.772"  stroke-width="0" /></g><g c_partid="part_hole" c_etype="pinpart" c_shapetype="group" c_origin="4194,3530.65" layerid="11" id="gge5407" locked="0" ><circle cx="4194" cy="3530.65" r="1.772"  stroke-width="0" /></g><g c_partid="part_hole" c_etype="pinpart" c_shapetype="group" c_origin="4202,3530.65" layerid="11" id="gge5411" locked="0" ><circle cx="4202" cy="3530.65" r="1.772"  stroke-width="0" /></g></g><g transform="matrix(-1, 0, 0, 1, 8236.9, 0)"><polyline points="4216.85 3475.37 4216.85 3493.33 4216.85 3565.93" stroke-width="1"  stroke-linecap="round" fill="none" layerid="10" net="S$1241" id="gge1240" locked="0" /><polyline points="4208.9764 3573.7992 4027.874 3573.7992" stroke-width="1"  stroke-linecap="round" fill="none" layerid="10" net="S$1243" id="gge1242" locked="0" /><polyline points="4027.874 3467.5 4208.9764 3467.5" stroke-width="1"  stroke-linecap="round" fill="none" layerid="10" net="" id="gge1235" locked="0" /><polyline points="4020 3565.9252 4020 3475.374" stroke-width="1"  stroke-linecap="round" fill="none" layerid="10" net="" id="gge1217" locked="0" /><path d="M4027.874,3467.5 A7.874,7.874 0 0 0 4020,3475.374" locked="0"  fill="none" stroke-width="1" c_helper_type="arc2" net="S$1221" layerid="10" id="gge1220" /><path d="M 4208.9764 3573.7992 A 7.874 7.874 0 0 0 4216.8504 3565.9252" locked="0"  fill="none" stroke-width="1" c_helper_type="arc2" net="S$1221" layerid="10" id="gge1228" /><path d="M 4020 3565.9252 A 7.874 7.874 0 0 0 4027.874 3573.7992" locked="0"  fill="none" stroke-width="1" c_helper_type="arc2" net="S$1221" layerid="10" id="gge1231" /><path d="M 4216.8502 3475.374 A 7.874 7.874 0 0 0 4208.9762 3467.5" locked="0"  fill="none" stroke-width="1" c_helper_type="arc2" net="S$1221" layerid="10" id="gge1225" /></g></svg>