G04 Layer: TopLayer*
G04 EasyEDA v6.4.25, 2021-10-07T01:57:40+02:00*
G04 74d54719dcbb48859515a23e3f46d2e4,21b141c4020943fdbba11dee5124b23b,10*
G04 Gerber Generator version 0.2*
G04 Scale: 100 percent, Rotated: No, Reflected: No *
G04 Dimensions in millimeters *
G04 leading zeros omitted , absolute positions ,4 integer and 5 decimal *
%FSLAX45Y45*%
%MOMM*%

%ADD10C,0.2540*%
%ADD11C,0.5000*%
%ADD12C,1.1020*%
%ADD13C,1.0000*%
%ADD14C,1.8000*%
%ADD15C,0.3000*%
%ADD16C,0.8000*%
%ADD17C,0.2700*%
%ADD18R,3.0000X0.8900*%
%ADD19R,0.8000X0.8000*%
%ADD21R,0.8000X0.9000*%
%ADD22R,0.9000X0.8000*%
%ADD23R,1.7280X1.1901*%
%ADD24R,1.3770X1.1325*%
%ADD26R,0.8640X0.8065*%
%ADD27R,2.5000X1.1000*%
%ADD29R,1.5240X1.5240*%
%ADD30C,1.5240*%
%ADD31C,4.4000*%

%LPD*%
D11*
X635000Y-2419197D02*
G01*
X635000Y-2273300D01*
X685800Y-2222500D01*
X841400Y-2222500D01*
X930300Y-2133600D01*
X3155002Y-2038598D02*
G01*
X3383602Y-2038598D01*
X2814424Y-2362212D02*
G01*
X2814424Y-2185578D01*
X2961401Y-2038601D01*
X3155002Y-2038601D01*
D12*
X1600009Y-1009995D02*
G01*
X1709999Y-1009995D01*
X1600004Y-779993D02*
G01*
X1600004Y-1009995D01*
X1600009Y-780000D02*
G01*
X1709999Y-780000D01*
X1710006Y-779993D02*
G01*
X1710006Y-1009995D01*
D13*
X1498610Y-1911804D02*
G01*
X1498610Y-1701805D01*
D14*
X999997Y-1599945D02*
G01*
X1320800Y-1600454D01*
X999997Y-699998D02*
G01*
X1220698Y-699998D01*
X1320800Y-800100D01*
X1320800Y-1989099D01*
D13*
X930300Y-1230299D02*
G01*
X930300Y-1169695D01*
X999997Y-1099997D01*
X1030300Y-1230299D02*
G01*
X999997Y-1199997D01*
X999997Y-1099997D01*
X1130300Y-1230299D02*
G01*
X999997Y-1099997D01*
X1130300Y-1130300D02*
G01*
X1099997Y-1099997D01*
X999997Y-1099997D01*
X930300Y-2133600D02*
G01*
X930300Y-2069693D01*
X999997Y-1999995D01*
X1030300Y-2133600D02*
G01*
X999997Y-2103297D01*
X999997Y-1999995D01*
X1130300Y-2133600D02*
G01*
X999997Y-2003297D01*
X999997Y-1999995D01*
X1130300Y-2033600D02*
G01*
X1096695Y-1999995D01*
X999997Y-1999995D01*
D15*
X799998Y-1099997D02*
G01*
X690702Y-1099997D01*
X609600Y-1181100D01*
X609600Y-1919599D01*
X690001Y-2000001D01*
X799993Y-2000001D01*
D11*
X4045102Y-685800D02*
G01*
X4045102Y-806297D01*
X4000500Y-850900D01*
X3937000Y-850900D01*
D13*
X1701800Y-1460500D02*
G01*
X1778000Y-1384300D01*
X1921510Y-1384300D01*
X1701800Y-1625600D02*
G01*
X1936597Y-1625600D01*
X1701800Y-1625600D02*
G01*
X1701800Y-1460500D01*
X1498600Y-1701800D02*
G01*
X1574800Y-1625600D01*
X1701800Y-1625600D01*
X1498600Y-1701800D02*
G01*
X1498600Y-1663700D01*
X1701800Y-1460500D01*
D15*
X3510003Y-1090000D02*
G01*
X3545425Y-1125423D01*
X3681196Y-1125423D01*
D11*
X3937000Y-850900D02*
G01*
X3937000Y-850900D01*
X3936238Y-960373D01*
X3682243Y-686307D02*
G01*
X3682751Y-685800D01*
X3905097Y-685800D01*
D15*
X3174212Y-686206D02*
G01*
X3174212Y-750087D01*
X3124200Y-800100D01*
X3060700Y-800100D01*
X3031210Y-829589D01*
X3031210Y-925423D01*
D11*
X1030300Y-1230299D02*
G01*
X930300Y-1230299D01*
X1130300Y-1230299D02*
G01*
X1030300Y-1230299D01*
X1130300Y-1130300D02*
G01*
X1130300Y-1230299D01*
X1030300Y-2133600D02*
G01*
X930300Y-2133600D01*
X1030300Y-2133600D02*
G01*
X1130300Y-2133600D01*
X1130300Y-2033600D02*
G01*
X1130300Y-2133600D01*
D10*
X2595135Y-1420601D02*
G01*
X2599936Y-1425407D01*
X2831203Y-1425407D01*
D15*
X3681295Y-1275483D02*
G01*
X3936301Y-1275737D01*
X3936301Y-1125115D02*
G01*
X3681295Y-1125369D01*
D11*
X3936202Y-960407D02*
G01*
X3936202Y-1125093D01*
D15*
X3383602Y-2038598D02*
G01*
X3381184Y-1775409D01*
X3281184Y-1775409D02*
G01*
X3281184Y-1879191D01*
X3307402Y-1905403D01*
X2831203Y-1575409D02*
G01*
X3078802Y-1575203D01*
X3180402Y-1575203D02*
G01*
X3282002Y-1575203D01*
X3282002Y-1575203D02*
G01*
X3331202Y-1624403D01*
X3331202Y-1775409D01*
X3078802Y-1575203D02*
G01*
X3180402Y-1575203D01*
D11*
X3155002Y-2337203D02*
G01*
X3155002Y-2178608D01*
X3383602Y-2337203D02*
G01*
X3383602Y-2178608D01*
X3383602Y-2178608D02*
G01*
X3155002Y-2178608D01*
X3155002Y-2337203D02*
G01*
X3269302Y-2337203D01*
X3269302Y-2337203D02*
G01*
X3383602Y-2337203D01*
X3269302Y-2337203D02*
G01*
X3269302Y-2292908D01*
X3383602Y-2178608D01*
X3269302Y-2337203D02*
G01*
X3269302Y-2292908D01*
X3155002Y-2178608D01*
D15*
X2590002Y-1626003D02*
G01*
X2831203Y-1625422D01*
D11*
X2590002Y-1626003D02*
G01*
X2590609Y-1740402D01*
D15*
X2771211Y-1775409D02*
G01*
X2977253Y-1775409D01*
D11*
X3034202Y-686203D02*
G01*
X3034202Y-533915D01*
X3034314Y-533803D01*
D15*
X3034202Y-686203D02*
G01*
X2981195Y-739211D01*
X2981195Y-925421D01*
D11*
X3174202Y-686203D02*
G01*
X3307402Y-686203D01*
X3307402Y-686203D02*
G01*
X3409002Y-686203D01*
X3409002Y-686203D02*
G01*
X3542202Y-686203D01*
D15*
X3682202Y-686203D02*
G01*
X3681183Y-1075408D01*
D11*
X2520002Y-1880003D02*
G01*
X2653202Y-1880003D01*
D15*
X3280003Y-1089990D02*
G01*
X3280003Y-926604D01*
X3281189Y-925418D01*
X3434402Y-1626003D02*
G01*
X3431202Y-1629204D01*
X3431202Y-1775409D01*
D11*
X2590609Y-1740303D02*
G01*
X2736199Y-1740402D01*
X2793202Y-1797403D01*
X2793202Y-1880003D01*
X2450002Y-1809998D02*
G01*
X2450002Y-1626003D01*
X2520002Y-1880003D02*
G01*
X2450002Y-1809998D01*
X2450002Y-1626003D02*
G01*
X2450002Y-1426103D01*
X2444485Y-1420596D01*
X2539225Y-533803D02*
G01*
X3663002Y-533803D01*
X3682202Y-553008D01*
X3682202Y-686203D01*
X2294806Y-2133198D02*
G01*
X2616200Y-2133198D01*
X2793204Y-1956193D01*
X2793204Y-1880003D01*
X2616200Y-2133198D02*
G01*
X2621180Y-2138179D01*
X2621180Y-2362212D01*
D13*
X1700801Y-2133198D02*
G01*
X2294806Y-2133198D01*
X1320794Y-2278100D02*
G01*
X1231739Y-2367153D01*
X914400Y-2367153D01*
X635000Y-2559304D02*
G01*
X914400Y-2560320D01*
X914392Y-2560431D02*
G01*
X1503565Y-2560431D01*
X1700801Y-2363195D01*
D11*
X2294806Y-1786806D02*
G01*
X2294806Y-778222D01*
X2539225Y-533803D01*
X2076592Y-1625600D02*
G01*
X2133600Y-1625600D01*
X2294806Y-1786806D01*
X2294806Y-1786806D02*
G01*
X2294806Y-2133198D01*
X1701800Y-1625600D02*
G01*
X1700784Y-1903221D01*
X1936597Y-1625600D02*
G01*
X1921510Y-1610512D01*
X1921510Y-1384300D01*
X2081936Y-1155700D02*
G01*
X2294806Y-1155700D01*
X1931161Y-1155700D02*
G01*
X1931161Y-1207262D01*
X1993900Y-1270000D01*
X2057400Y-1270000D01*
X2091690Y-1304289D01*
X2091690Y-1384300D01*
D13*
X4457700Y-1222999D02*
G01*
X4369198Y-1222999D01*
X4296199Y-1150000D01*
D15*
X3586810Y-1905406D02*
G01*
X3873093Y-1905406D01*
X4076700Y-1701800D01*
X4076700Y-1422400D01*
X4149100Y-1349999D01*
X4296199Y-1349999D01*
D16*
X4165600Y-1460500D02*
G01*
X4254500Y-1460500D01*
X4165600Y-1638300D02*
G01*
X4254500Y-1638300D01*
X4254500Y-1638300D02*
G01*
X4254500Y-1460500D01*
X4165600Y-1638300D02*
G01*
X4165600Y-1460500D01*
D11*
X3663002Y-533803D02*
G01*
X4178703Y-533803D01*
X4296199Y-651299D01*
X4296199Y-1150000D01*
D15*
X3081274Y-925525D02*
G01*
X3081274Y-1054100D01*
X2831287Y-1075512D02*
G01*
X2995513Y-1075512D01*
X3080001Y-1160000D01*
X4939995Y-1350010D02*
G01*
X4939987Y-1350002D01*
X4746190Y-1350002D01*
X2831287Y-1175512D02*
G01*
X2985513Y-1175512D01*
X3080001Y-1270000D01*
X4746185Y-1150000D02*
G01*
X4746185Y-1057714D01*
X4775200Y-1028700D01*
X4851400Y-1028700D01*
X4746185Y-1549999D02*
G01*
X4746185Y-1647385D01*
X4775200Y-1676400D01*
X4851400Y-1676400D01*
D13*
X4584700Y-1476999D02*
G01*
X4673185Y-1476999D01*
X4746185Y-1549999D01*
X4457700Y-1476999D02*
G01*
X4369198Y-1476999D01*
X4296199Y-1549999D01*
X4584700Y-1222999D02*
G01*
X4673185Y-1222999D01*
X4746185Y-1150000D01*
D17*
X2981274Y-1714012D02*
G01*
X2981274Y-1837011D01*
X3031286Y-1714012D02*
G01*
X3031286Y-1837011D01*
X3081274Y-1714012D02*
G01*
X3081274Y-1837011D01*
X3131286Y-1714012D02*
G01*
X3131286Y-1837011D01*
X3181273Y-1714012D02*
G01*
X3181273Y-1837011D01*
X3231286Y-1714012D02*
G01*
X3231286Y-1837011D01*
X3281273Y-1714012D02*
G01*
X3281273Y-1837011D01*
X3331286Y-1714012D02*
G01*
X3331286Y-1837011D01*
X3381273Y-1714012D02*
G01*
X3381273Y-1837011D01*
X3431286Y-1714012D02*
G01*
X3431286Y-1837011D01*
X3481273Y-1714012D02*
G01*
X3481273Y-1837011D01*
X3531285Y-1714012D02*
G01*
X3531285Y-1837011D01*
X3619771Y-1625523D02*
G01*
X3742773Y-1625523D01*
X3619771Y-1575511D02*
G01*
X3742773Y-1575511D01*
X3619771Y-1525523D02*
G01*
X3742773Y-1525523D01*
X3619771Y-1475511D02*
G01*
X3742773Y-1475511D01*
X3619771Y-1425524D02*
G01*
X3742773Y-1425524D01*
X3619771Y-1375511D02*
G01*
X3742773Y-1375511D01*
X3619771Y-1325524D02*
G01*
X3742773Y-1325524D01*
X3619771Y-1275511D02*
G01*
X3742773Y-1275511D01*
X3619771Y-1225524D02*
G01*
X3742773Y-1225524D01*
X3619771Y-1175512D02*
G01*
X3742773Y-1175512D01*
X3619771Y-1125524D02*
G01*
X3742773Y-1125524D01*
X3619771Y-1075512D02*
G01*
X3742773Y-1075512D01*
X3531285Y-864026D02*
G01*
X3531285Y-987026D01*
X3481273Y-864026D02*
G01*
X3481273Y-987026D01*
X3431286Y-864026D02*
G01*
X3431286Y-987026D01*
X3381273Y-864026D02*
G01*
X3381273Y-987026D01*
X3331286Y-864026D02*
G01*
X3331286Y-987026D01*
X3281273Y-864026D02*
G01*
X3281273Y-987026D01*
X3231286Y-864026D02*
G01*
X3231286Y-987026D01*
X3181273Y-864026D02*
G01*
X3181273Y-987026D01*
X3131286Y-864026D02*
G01*
X3131286Y-987026D01*
X3081274Y-864026D02*
G01*
X3081274Y-987026D01*
X3031286Y-864026D02*
G01*
X3031286Y-987026D01*
X2981274Y-864026D02*
G01*
X2981274Y-987026D01*
X2769786Y-1075512D02*
G01*
X2892788Y-1075512D01*
X2769786Y-1125524D02*
G01*
X2892788Y-1125524D01*
X2769786Y-1175512D02*
G01*
X2892788Y-1175512D01*
X2769786Y-1225524D02*
G01*
X2892788Y-1225524D01*
X2769786Y-1275511D02*
G01*
X2892788Y-1275511D01*
X2769786Y-1325524D02*
G01*
X2892788Y-1325524D01*
X2769786Y-1375511D02*
G01*
X2892788Y-1375511D01*
X2769786Y-1425524D02*
G01*
X2892788Y-1425524D01*
X2769786Y-1475511D02*
G01*
X2892788Y-1475511D01*
X2769786Y-1525523D02*
G01*
X2892788Y-1525523D01*
X2769786Y-1575511D02*
G01*
X2892788Y-1575511D01*
X2769786Y-1625523D02*
G01*
X2892788Y-1625523D01*
G36*
X4584700Y-1183629D02*
G01*
X4589449Y-1183909D01*
X4594123Y-1184772D01*
X4598670Y-1186195D01*
X4602988Y-1188151D01*
X4607052Y-1190589D01*
X4610811Y-1193535D01*
X4614163Y-1196888D01*
X4617110Y-1200622D01*
X4619548Y-1204711D01*
X4621504Y-1209029D01*
X4622927Y-1213576D01*
X4623790Y-1218250D01*
X4624070Y-1222999D01*
X4624070Y-1222999D01*
X4623790Y-1227749D01*
X4622927Y-1232423D01*
X4621504Y-1236969D01*
X4619548Y-1241287D01*
X4617110Y-1245351D01*
X4614163Y-1249111D01*
X4610811Y-1252463D01*
X4607052Y-1255410D01*
X4602988Y-1257848D01*
X4598670Y-1259804D01*
X4594123Y-1261226D01*
X4589449Y-1262090D01*
X4584700Y-1262369D01*
X4584700Y-1262369D01*
X4579950Y-1262090D01*
X4575276Y-1261226D01*
X4570729Y-1259804D01*
X4566411Y-1257848D01*
X4562322Y-1255410D01*
X4558588Y-1252463D01*
X4555236Y-1249111D01*
X4552289Y-1245351D01*
X4549851Y-1241287D01*
X4547895Y-1236969D01*
X4546472Y-1232423D01*
X4545609Y-1227749D01*
X4545329Y-1222999D01*
X4545329Y-1222999D01*
X4545609Y-1218250D01*
X4546472Y-1213576D01*
X4547895Y-1209029D01*
X4549851Y-1204711D01*
X4552289Y-1200622D01*
X4555236Y-1196888D01*
X4558588Y-1193535D01*
X4562322Y-1190589D01*
X4566411Y-1188151D01*
X4570729Y-1186195D01*
X4575276Y-1184772D01*
X4579950Y-1183909D01*
X4584700Y-1183629D01*
G37*
G36*
X4584700Y-1310629D02*
G01*
X4589449Y-1310909D01*
X4594123Y-1311772D01*
X4598670Y-1313195D01*
X4602988Y-1315151D01*
X4607052Y-1317589D01*
X4610811Y-1320535D01*
X4614163Y-1323888D01*
X4617110Y-1327622D01*
X4619548Y-1331711D01*
X4621504Y-1336029D01*
X4622927Y-1340576D01*
X4623790Y-1345250D01*
X4624070Y-1349999D01*
X4624070Y-1349999D01*
X4623790Y-1354749D01*
X4622927Y-1359423D01*
X4621504Y-1363969D01*
X4619548Y-1368287D01*
X4617110Y-1372351D01*
X4614163Y-1376111D01*
X4610811Y-1379463D01*
X4607052Y-1382410D01*
X4602988Y-1384848D01*
X4598670Y-1386804D01*
X4594123Y-1388226D01*
X4589449Y-1389090D01*
X4584700Y-1389369D01*
X4584700Y-1389369D01*
X4579950Y-1389090D01*
X4575276Y-1388226D01*
X4570729Y-1386804D01*
X4566411Y-1384848D01*
X4562322Y-1382410D01*
X4558588Y-1379463D01*
X4555236Y-1376111D01*
X4552289Y-1372351D01*
X4549851Y-1368287D01*
X4547895Y-1363969D01*
X4546472Y-1359423D01*
X4545609Y-1354749D01*
X4545329Y-1349999D01*
X4545329Y-1349999D01*
X4545609Y-1345250D01*
X4546472Y-1340576D01*
X4547895Y-1336029D01*
X4549851Y-1331711D01*
X4552289Y-1327622D01*
X4555236Y-1323888D01*
X4558588Y-1320535D01*
X4562322Y-1317589D01*
X4566411Y-1315151D01*
X4570729Y-1313195D01*
X4575276Y-1311772D01*
X4579950Y-1310909D01*
X4584700Y-1310629D01*
G37*
G36*
X4584700Y-1437629D02*
G01*
X4589449Y-1437909D01*
X4594123Y-1438772D01*
X4598670Y-1440195D01*
X4602988Y-1442151D01*
X4607052Y-1444589D01*
X4610811Y-1447535D01*
X4614163Y-1450888D01*
X4617110Y-1454622D01*
X4619548Y-1458711D01*
X4621504Y-1463029D01*
X4622927Y-1467576D01*
X4623790Y-1472250D01*
X4624070Y-1476999D01*
X4624070Y-1476999D01*
X4623790Y-1481749D01*
X4622927Y-1486423D01*
X4621504Y-1490969D01*
X4619548Y-1495287D01*
X4617110Y-1499351D01*
X4614163Y-1503111D01*
X4610811Y-1506463D01*
X4607052Y-1509410D01*
X4602988Y-1511848D01*
X4598670Y-1513804D01*
X4594123Y-1515226D01*
X4589449Y-1516090D01*
X4584700Y-1516369D01*
X4584700Y-1516369D01*
X4579950Y-1516090D01*
X4575276Y-1515226D01*
X4570729Y-1513804D01*
X4566411Y-1511848D01*
X4562322Y-1509410D01*
X4558588Y-1506463D01*
X4555236Y-1503111D01*
X4552289Y-1499351D01*
X4549851Y-1495287D01*
X4547895Y-1490969D01*
X4546472Y-1486423D01*
X4545609Y-1481749D01*
X4545329Y-1476999D01*
X4545329Y-1476999D01*
X4545609Y-1472250D01*
X4546472Y-1467576D01*
X4547895Y-1463029D01*
X4549851Y-1458711D01*
X4552289Y-1454622D01*
X4555236Y-1450888D01*
X4558588Y-1447535D01*
X4562322Y-1444589D01*
X4566411Y-1442151D01*
X4570729Y-1440195D01*
X4575276Y-1438772D01*
X4579950Y-1437909D01*
X4584700Y-1437629D01*
G37*
G36*
X4457700Y-1437629D02*
G01*
X4462449Y-1437909D01*
X4467123Y-1438772D01*
X4471670Y-1440195D01*
X4475988Y-1442151D01*
X4480077Y-1444589D01*
X4483811Y-1447535D01*
X4487163Y-1450888D01*
X4490110Y-1454622D01*
X4492548Y-1458711D01*
X4494504Y-1463029D01*
X4495927Y-1467576D01*
X4496790Y-1472250D01*
X4497070Y-1476999D01*
X4497070Y-1476999D01*
X4496790Y-1481749D01*
X4495927Y-1486423D01*
X4494504Y-1490969D01*
X4492548Y-1495287D01*
X4490110Y-1499351D01*
X4487163Y-1503111D01*
X4483811Y-1506463D01*
X4480077Y-1509410D01*
X4475988Y-1511848D01*
X4471670Y-1513804D01*
X4467123Y-1515226D01*
X4462449Y-1516090D01*
X4457700Y-1516369D01*
X4457700Y-1516369D01*
X4452950Y-1516090D01*
X4448276Y-1515226D01*
X4443729Y-1513804D01*
X4439411Y-1511848D01*
X4435347Y-1509410D01*
X4431588Y-1506463D01*
X4428236Y-1503111D01*
X4425289Y-1499351D01*
X4422851Y-1495287D01*
X4420895Y-1490969D01*
X4419472Y-1486423D01*
X4418609Y-1481749D01*
X4418329Y-1476999D01*
X4418329Y-1476999D01*
X4418609Y-1472250D01*
X4419472Y-1467576D01*
X4420895Y-1463029D01*
X4422851Y-1458711D01*
X4425289Y-1454622D01*
X4428236Y-1450888D01*
X4431588Y-1447535D01*
X4435347Y-1444589D01*
X4439411Y-1442151D01*
X4443729Y-1440195D01*
X4448276Y-1438772D01*
X4452950Y-1437909D01*
X4457700Y-1437629D01*
G37*
G36*
X4457700Y-1310629D02*
G01*
X4462449Y-1310909D01*
X4467123Y-1311772D01*
X4471670Y-1313195D01*
X4475988Y-1315151D01*
X4480077Y-1317589D01*
X4483811Y-1320535D01*
X4487163Y-1323888D01*
X4490110Y-1327622D01*
X4492548Y-1331711D01*
X4494504Y-1336029D01*
X4495927Y-1340576D01*
X4496790Y-1345250D01*
X4497070Y-1349999D01*
X4497070Y-1349999D01*
X4496790Y-1354749D01*
X4495927Y-1359423D01*
X4494504Y-1363969D01*
X4492548Y-1368287D01*
X4490110Y-1372351D01*
X4487163Y-1376111D01*
X4483811Y-1379463D01*
X4480077Y-1382410D01*
X4475988Y-1384848D01*
X4471670Y-1386804D01*
X4467123Y-1388226D01*
X4462449Y-1389090D01*
X4457700Y-1389369D01*
X4457700Y-1389369D01*
X4452950Y-1389090D01*
X4448276Y-1388226D01*
X4443729Y-1386804D01*
X4439411Y-1384848D01*
X4435347Y-1382410D01*
X4431588Y-1379463D01*
X4428236Y-1376111D01*
X4425289Y-1372351D01*
X4422851Y-1368287D01*
X4420895Y-1363969D01*
X4419472Y-1359423D01*
X4418609Y-1354749D01*
X4418329Y-1349999D01*
X4418329Y-1349999D01*
X4418609Y-1345250D01*
X4419472Y-1340576D01*
X4420895Y-1336029D01*
X4422851Y-1331711D01*
X4425289Y-1327622D01*
X4428236Y-1323888D01*
X4431588Y-1320535D01*
X4435347Y-1317589D01*
X4439411Y-1315151D01*
X4443729Y-1313195D01*
X4448276Y-1311772D01*
X4452950Y-1310909D01*
X4457700Y-1310629D01*
G37*
G36*
X4457700Y-1183629D02*
G01*
X4462449Y-1183909D01*
X4467123Y-1184772D01*
X4471670Y-1186195D01*
X4475988Y-1188151D01*
X4480077Y-1190589D01*
X4483811Y-1193535D01*
X4487163Y-1196888D01*
X4490110Y-1200622D01*
X4492548Y-1204711D01*
X4494504Y-1209029D01*
X4495927Y-1213576D01*
X4496790Y-1218250D01*
X4497070Y-1222999D01*
X4497070Y-1222999D01*
X4496790Y-1227749D01*
X4495927Y-1232423D01*
X4494504Y-1236969D01*
X4492548Y-1241287D01*
X4490110Y-1245351D01*
X4487163Y-1249111D01*
X4483811Y-1252463D01*
X4480077Y-1255410D01*
X4475988Y-1257848D01*
X4471670Y-1259804D01*
X4467123Y-1261226D01*
X4462449Y-1262090D01*
X4457700Y-1262369D01*
X4457700Y-1262369D01*
X4452950Y-1262090D01*
X4448276Y-1261226D01*
X4443729Y-1259804D01*
X4439411Y-1257848D01*
X4435347Y-1255410D01*
X4431588Y-1252463D01*
X4428236Y-1249111D01*
X4425289Y-1245351D01*
X4422851Y-1241287D01*
X4420895Y-1236969D01*
X4419472Y-1232423D01*
X4418609Y-1227749D01*
X4418329Y-1222999D01*
X4418329Y-1222999D01*
X4418609Y-1218250D01*
X4419472Y-1213576D01*
X4420895Y-1209029D01*
X4422851Y-1204711D01*
X4425289Y-1200622D01*
X4428236Y-1196888D01*
X4431588Y-1193535D01*
X4435347Y-1190589D01*
X4439411Y-1188151D01*
X4443729Y-1186195D01*
X4448276Y-1184772D01*
X4452950Y-1183909D01*
X4457700Y-1183629D01*
G37*
D18*
G01*
X4746193Y-1550009D03*
G01*
X4296206Y-1550009D03*
G01*
X4746193Y-1350010D03*
G01*
X4296206Y-1350010D03*
G01*
X4746193Y-1150010D03*
G01*
X4296206Y-1150010D03*
D19*
G01*
X2091690Y-1384300D03*
G01*
X1921510Y-1384300D03*
G36*
X2041601Y-1198900D02*
G01*
X2041601Y-1112499D01*
X2122248Y-1112499D01*
X2122248Y-1198900D01*
G37*
G36*
X1971598Y-1198900D02*
G01*
X1971598Y-1112499D01*
X1890951Y-1112499D01*
X1890951Y-1198900D01*
G37*
G36*
X2036599Y-1580598D02*
G01*
X2116599Y-1580598D01*
X2116599Y-1670601D01*
X2036599Y-1670601D01*
G37*
G36*
X1896600Y-1580598D02*
G01*
X1976600Y-1580598D01*
X1976600Y-1670601D01*
X1896600Y-1670601D01*
G37*
D22*
G01*
X635000Y-2559202D03*
G01*
X635000Y-2419197D03*
D21*
G01*
X3905097Y-685800D03*
G01*
X4045102Y-685800D03*
D23*
G01*
X1320800Y-1989099D03*
G01*
X1320800Y-2278100D03*
D24*
G01*
X914400Y-2367178D03*
G36*
X845548Y-2503799D02*
G01*
X983244Y-2503799D01*
X983244Y-2617053D01*
X845548Y-2617053D01*
G37*
G36*
X2677800Y-2431051D02*
G01*
X2677800Y-2293355D01*
X2564546Y-2293355D01*
X2564546Y-2431051D01*
G37*
G36*
X2757799Y-2431051D02*
G01*
X2757799Y-2293355D01*
X2871053Y-2293355D01*
X2871053Y-2431051D01*
G37*
G36*
X2554803Y-1463804D02*
G01*
X2554803Y-1377403D01*
X2635450Y-1377403D01*
X2635450Y-1463804D01*
G37*
G36*
X2484800Y-1463804D02*
G01*
X2484800Y-1377403D01*
X2404153Y-1377403D01*
X2404153Y-1463804D01*
G37*
G36*
X3893004Y-1235405D02*
G01*
X3979405Y-1235405D01*
X3979405Y-1316052D01*
X3893004Y-1316052D01*
G37*
D26*
G01*
X3936212Y-1125067D03*
D27*
G01*
X1700809Y-1903196D03*
G01*
X1700809Y-2133193D03*
G01*
X1700809Y-2363190D03*
G36*
X2177803Y-2313200D02*
G01*
X2177803Y-1953201D01*
X2411803Y-1953201D01*
X2411803Y-2313200D01*
G37*
D22*
G01*
X3155010Y-2178608D03*
G01*
X3155010Y-2038604D03*
G01*
X3383610Y-2178608D03*
G01*
X3383610Y-2038604D03*
D21*
G01*
X2653207Y-1880006D03*
G01*
X2793212Y-1880006D03*
G01*
X2450007Y-1626006D03*
G01*
X2590012Y-1626006D03*
G36*
X3134202Y-641202D02*
G01*
X3214202Y-641202D01*
X3214202Y-731205D01*
X3134202Y-731205D01*
G37*
G36*
X2994202Y-641202D02*
G01*
X3074202Y-641202D01*
X3074202Y-731205D01*
X2994202Y-731205D01*
G37*
G01*
X3542207Y-686206D03*
G01*
X3682212Y-686206D03*
D29*
G01*
X999921Y-700125D03*
D30*
G01*
X799922Y-700125D03*
G01*
X999921Y-900125D03*
G01*
X799922Y-900125D03*
G01*
X999921Y-1100124D03*
G01*
X799922Y-1100124D03*
D29*
G01*
X999921Y-1600047D03*
D30*
G01*
X799922Y-1600047D03*
G01*
X999921Y-1800047D03*
G01*
X799922Y-1800047D03*
G01*
X999921Y-2000046D03*
G01*
X799922Y-2000046D03*
D31*
G01*
X250012Y-250012D03*
G01*
X4750003Y-250012D03*
G01*
X250012Y-2450007D03*
G01*
X4750003Y-2450007D03*
D16*
G01*
X1130300Y-1130300D03*
G01*
X1130300Y-1230299D03*
G01*
X1030300Y-1230299D03*
G01*
X930300Y-1230299D03*
G01*
X1130300Y-2033600D03*
G01*
X1130300Y-2133600D03*
G01*
X1030300Y-2133600D03*
G01*
X930300Y-2133600D03*
G01*
X3936212Y-960399D03*
G01*
X3307410Y-1905406D03*
G01*
X3586810Y-1905406D03*
G01*
X3078810Y-1575206D03*
G01*
X3180410Y-1575206D03*
G01*
X3282010Y-1575206D03*
G01*
X3510000Y-1089990D03*
G01*
X3155010Y-2337206D03*
G01*
X3383610Y-2337206D03*
G01*
X3269310Y-2337206D03*
G01*
X3307410Y-686206D03*
G01*
X3409010Y-686206D03*
G01*
X4165600Y-1638300D03*
G01*
X3280003Y-1089990D03*
G01*
X3434410Y-1626006D03*
G01*
X2520010Y-1880006D03*
G01*
X2450007Y-1810004D03*
G01*
X1701800Y-1625600D03*
G01*
X1701800Y-1460500D03*
G01*
X3937000Y-850900D03*
G01*
X1498600Y-1701800D03*
G01*
X1498600Y-1911807D03*
G01*
X1599996Y-1010005D03*
G01*
X1710004Y-1010005D03*
G01*
X1599996Y-780008D03*
G01*
X1710004Y-780008D03*
G01*
X4254500Y-1638300D03*
G01*
X4165600Y-1460500D03*
G01*
X4254500Y-1460500D03*
G01*
X3081274Y-1054100D03*
G01*
X4851400Y-1028700D03*
G01*
X4851400Y-1676400D03*
G01*
X3080004Y-1159992D03*
G01*
X4939995Y-1350010D03*
G01*
X3080004Y-1270000D03*
M02*
