M48
METRIC,LZ,000.000
;FILE_FORMAT=3:3
;TYPE=PLATED
;Layer: Drill PTH
;EasyEDA v6.4.20.6, 2021-08-21T12:51:08+02:00
;49faa743f6f2471693ae6abc579f8785,21b141c4020943fdbba11dee5124b23b,10
;Gerber Generator version 0.2
;Holesize 1 = 0.306 mm
T01C0.306
;Holesize 2 = 0.400 mm
T02C0.400
;Holesize 3 = 0.800 mm
T03C0.800
;Holesize 4 = 0.915 mm
T04C0.915
;Holesize 5 = 1.600 mm
T05C1.600
;Holesize 6 = 3.200 mm
T06C3.200
%
G05
G90
T01
X033203Y122293
X033203Y121023
X020192Y120098
X028822Y117633
X028822Y116363
X030092Y116363
X030092Y115093
X011072Y121294
X011072Y118754
X011072Y108594
X012342Y112404
X012342Y109864
X013612Y118754
X014882Y120024
X014882Y112404
X014882Y109864
X016152Y109864
X017422Y127644
X017422Y108594
X017422Y103514
X018692Y127644
X018692Y126374
X018692Y125104
X018692Y104784
X018692Y103514
X019962Y127644
X019962Y126374
X021232Y127644
X021232Y126374
X022502Y127644
X022502Y126374
X023772Y127644
X023772Y121294
X023772Y118754
X023772Y116214
X023772Y113674
X023772Y103514
X025042Y113674
X025042Y108594
X025042Y103514
X026312Y108594
X031392Y104784
X033932Y103514
X035202Y103514
X036472Y103514
X037742Y103514
X039012Y103514
X041552Y118754
X042822Y120024
X042822Y118754
X044092Y122564
X044092Y121294
X044092Y120024
X044092Y103514
X045362Y125104
X045362Y121294
X045362Y113674
X046632Y125104
X046632Y123834
X046632Y113674
X046632Y112404
X047902Y125104
X047902Y123834
X047902Y122564
X047902Y112404
X049172Y127644
X049172Y123834
X049172Y122564
X049172Y111134
X049172Y109864
X050442Y127644
X050442Y126374
X050442Y122564
X050442Y109864
X050442Y108594
X050442Y104784
X050442Y103514
X051712Y127644
X051712Y126374
X051712Y125104
X051712Y109864
X051712Y108594
X051712Y107324
X051712Y106054
X051712Y104784
X051712Y103514
X052982Y127644
X052982Y109864
X052982Y108594
X054252Y109864
X055522Y112404
X055522Y109864
X056792Y120024
X056792Y109864
X058062Y121294
X058062Y118754
X058062Y112404
X032500Y117400
X033300Y117400
X028400Y120000
X028400Y120900
X032350Y119100
X033600Y119100
X043000Y109600
X058062Y109864
T02
X031700Y116150
X034450Y123250
X043800Y104700
X050000Y106500
X035800Y120850
X036949Y123251
X035800Y118300
X037950Y123250
X037950Y120850
X038000Y118300
X045200Y104700
X041100Y120600
X049500Y104100
T03
X028400Y107596
X030100Y113700
X039200Y113700
X025600Y125700
X047400Y116100
X025700Y127200
X054600Y114200
X016200Y119902
T04
X019600Y117200
X017600Y117200
X019600Y115200
X017600Y115200
X019600Y113200
X017600Y113200
X050400Y113200
X052400Y113200
X050400Y115200
X052400Y115200
X050400Y117200
X052400Y117200
T05
X049464Y119700
X022700Y110900
T06
X013896Y124800G85X013901Y124800
X056098Y124800G85X056104Y124800
X013896Y105601G85X013901Y105601
X056098Y105601G85X056104Y105601
M30
