G04 Layer: BottomSilkLayer*
G04 EasyEDA v6.4.25, 2021-10-07T01:57:40+02:00*
G04 74d54719dcbb48859515a23e3f46d2e4,21b141c4020943fdbba11dee5124b23b,10*
G04 Gerber Generator version 0.2*
G04 Scale: 100 percent, Rotated: No, Reflected: No *
G04 Dimensions in millimeters *
G04 leading zeros omitted , absolute positions ,4 integer and 5 decimal *
%FSLAX45Y45*%
%MOMM*%

%ADD32C,0.2000*%
%ADD37C,0.2500*%

%LPD*%
D32*
X1516646Y-2502590D02*
G01*
X1516646Y-2575318D01*
X1521190Y-2588953D01*
X1525737Y-2593500D01*
X1534828Y-2598046D01*
X1543918Y-2598046D01*
X1553009Y-2593500D01*
X1557553Y-2588953D01*
X1562100Y-2575318D01*
X1562100Y-2566228D01*
X1486644Y-2502590D02*
G01*
X1486644Y-2598046D01*
X1486644Y-2598046D02*
G01*
X1432100Y-2598046D01*
X1333919Y-2525318D02*
G01*
X1338463Y-2516228D01*
X1347553Y-2507137D01*
X1356644Y-2502590D01*
X1374828Y-2502590D01*
X1383919Y-2507137D01*
X1393009Y-2516228D01*
X1397553Y-2525318D01*
X1402100Y-2538953D01*
X1402100Y-2561681D01*
X1397553Y-2575318D01*
X1393009Y-2584409D01*
X1383919Y-2593500D01*
X1374828Y-2598046D01*
X1356644Y-2598046D01*
X1347553Y-2593500D01*
X1338463Y-2584409D01*
X1333919Y-2575318D01*
X1258463Y-2502590D02*
G01*
X1258463Y-2575318D01*
X1263009Y-2588953D01*
X1267553Y-2593500D01*
X1276644Y-2598046D01*
X1285735Y-2598046D01*
X1294828Y-2593500D01*
X1299372Y-2588953D01*
X1303919Y-2575318D01*
X1303919Y-2566228D01*
X1228463Y-2502590D02*
G01*
X1228463Y-2598046D01*
X1228463Y-2598046D02*
G01*
X1173919Y-2598046D01*
X1075735Y-2525318D02*
G01*
X1080282Y-2516228D01*
X1089372Y-2507137D01*
X1098463Y-2502590D01*
X1116644Y-2502590D01*
X1125735Y-2507137D01*
X1134826Y-2516228D01*
X1139372Y-2525318D01*
X1143916Y-2538953D01*
X1143916Y-2561681D01*
X1139372Y-2575318D01*
X1134826Y-2584409D01*
X1125735Y-2593500D01*
X1116644Y-2598046D01*
X1098463Y-2598046D01*
X1089372Y-2593500D01*
X1080282Y-2584409D01*
X1075735Y-2575318D01*
X1000282Y-2502590D02*
G01*
X1000282Y-2575318D01*
X1004826Y-2588953D01*
X1009373Y-2593500D01*
X1018463Y-2598046D01*
X1027554Y-2598046D01*
X1036645Y-2593500D01*
X1041191Y-2588953D01*
X1045735Y-2575318D01*
X1045735Y-2566228D01*
X970282Y-2502590D02*
G01*
X970282Y-2598046D01*
X970282Y-2598046D02*
G01*
X915736Y-2598046D01*
X817554Y-2525318D02*
G01*
X822098Y-2516228D01*
X831192Y-2507137D01*
X840282Y-2502590D01*
X858464Y-2502590D01*
X867554Y-2507137D01*
X876645Y-2516228D01*
X881192Y-2525318D01*
X885736Y-2538953D01*
X885736Y-2561681D01*
X881192Y-2575318D01*
X876645Y-2584409D01*
X867554Y-2593500D01*
X858464Y-2598046D01*
X840282Y-2598046D01*
X831192Y-2593500D01*
X822098Y-2584409D01*
X817554Y-2575318D01*
X742099Y-2502590D02*
G01*
X742099Y-2575318D01*
X746645Y-2588953D01*
X751189Y-2593500D01*
X760282Y-2598046D01*
X769373Y-2598046D01*
X778464Y-2593500D01*
X783008Y-2588953D01*
X787554Y-2575318D01*
X787554Y-2566228D01*
X712099Y-2502590D02*
G01*
X712099Y-2598046D01*
X712099Y-2598046D02*
G01*
X657555Y-2598046D01*
X559371Y-2525318D02*
G01*
X563918Y-2516228D01*
X573008Y-2507137D01*
X582099Y-2502590D01*
X600280Y-2502590D01*
X609373Y-2507137D01*
X618464Y-2516228D01*
X623008Y-2525318D01*
X627555Y-2538953D01*
X627555Y-2561681D01*
X623008Y-2575318D01*
X618464Y-2584409D01*
X609373Y-2593500D01*
X600280Y-2598046D01*
X582099Y-2598046D01*
X573008Y-2593500D01*
X563918Y-2584409D01*
X559371Y-2575318D01*
D37*
X508845Y-628827D02*
G01*
X497027Y-617009D01*
X491119Y-599282D01*
X491119Y-575645D01*
X497027Y-557918D01*
X508845Y-546100D01*
X520664Y-546100D01*
X532483Y-552008D01*
X538391Y-557918D01*
X544299Y-569737D01*
X556117Y-605190D01*
X562028Y-617009D01*
X567936Y-622917D01*
X579754Y-628827D01*
X597481Y-628827D01*
X609300Y-617009D01*
X615208Y-599282D01*
X615208Y-575645D01*
X609300Y-557918D01*
X597481Y-546100D01*
X491119Y-667826D02*
G01*
X615208Y-667826D01*
X491119Y-667826D02*
G01*
X491119Y-744646D01*
X550209Y-667826D02*
G01*
X550209Y-715098D01*
X615208Y-667826D02*
G01*
X615208Y-744646D01*
X491119Y-783645D02*
G01*
X615208Y-783645D01*
X491119Y-783645D02*
G01*
X491119Y-836828D01*
X497027Y-854555D01*
X502935Y-860463D01*
X514753Y-866373D01*
X526572Y-866373D01*
X538391Y-860463D01*
X544299Y-854555D01*
X550209Y-836828D01*
X550209Y-783645D01*
X550209Y-825009D02*
G01*
X615208Y-866373D01*
X491119Y-905372D02*
G01*
X615208Y-952644D01*
X491119Y-999919D02*
G01*
X615208Y-952644D01*
X491119Y-1038918D02*
G01*
X615208Y-1038918D01*
X491119Y-1038918D02*
G01*
X491119Y-1115735D01*
X550209Y-1038918D02*
G01*
X550209Y-1086190D01*
X615208Y-1038918D02*
G01*
X615208Y-1115735D01*
X491119Y-1154737D02*
G01*
X615208Y-1154737D01*
X491119Y-1154737D02*
G01*
X491119Y-1207917D01*
X497027Y-1225646D01*
X502935Y-1231554D01*
X514753Y-1237462D01*
X526572Y-1237462D01*
X538391Y-1231554D01*
X544299Y-1225646D01*
X550209Y-1207917D01*
X550209Y-1154737D01*
X550209Y-1196101D02*
G01*
X615208Y-1237462D01*
X491119Y-1638300D02*
G01*
X615208Y-1638300D01*
X491119Y-1638300D02*
G01*
X491119Y-1715117D01*
X550209Y-1638300D02*
G01*
X550209Y-1685571D01*
X491119Y-1801390D02*
G01*
X615208Y-1754118D01*
X491119Y-1801390D02*
G01*
X615208Y-1848662D01*
X573844Y-1771845D02*
G01*
X573844Y-1830936D01*
X491119Y-1887664D02*
G01*
X615208Y-1887664D01*
X491119Y-1887664D02*
G01*
X615208Y-1970389D01*
X491119Y-1970389D02*
G01*
X615208Y-1970389D01*
D32*
X4403153Y-2502590D02*
G01*
X4403153Y-2598046D01*
X4403153Y-2548046D02*
G01*
X4412246Y-2538953D01*
X4421337Y-2534409D01*
X4434972Y-2534409D01*
X4444062Y-2538953D01*
X4453153Y-2548046D01*
X4457700Y-2561681D01*
X4457700Y-2570772D01*
X4453153Y-2584409D01*
X4444062Y-2593500D01*
X4434972Y-2598046D01*
X4421337Y-2598046D01*
X4412246Y-2593500D01*
X4403153Y-2584409D01*
X4373153Y-2561681D02*
G01*
X4318609Y-2561681D01*
X4318609Y-2552590D01*
X4323153Y-2543500D01*
X4327700Y-2538953D01*
X4336790Y-2534409D01*
X4350428Y-2534409D01*
X4359518Y-2538953D01*
X4368609Y-2548046D01*
X4373153Y-2561681D01*
X4373153Y-2570772D01*
X4368609Y-2584409D01*
X4359518Y-2593500D01*
X4350428Y-2598046D01*
X4336790Y-2598046D01*
X4327700Y-2593500D01*
X4318609Y-2584409D01*
X4238609Y-2548046D02*
G01*
X4243153Y-2538953D01*
X4256791Y-2534409D01*
X4270428Y-2534409D01*
X4284063Y-2538953D01*
X4288609Y-2548046D01*
X4284063Y-2557137D01*
X4274972Y-2561681D01*
X4252244Y-2566228D01*
X4243153Y-2570772D01*
X4238609Y-2579862D01*
X4238609Y-2584409D01*
X4243153Y-2593500D01*
X4256791Y-2598046D01*
X4270428Y-2598046D01*
X4284063Y-2593500D01*
X4288609Y-2584409D01*
X4208609Y-2502590D02*
G01*
X4204063Y-2507137D01*
X4199519Y-2502590D01*
X4204063Y-2498044D01*
X4208609Y-2502590D01*
X4204063Y-2534409D02*
G01*
X4204063Y-2598046D01*
X4114972Y-2534409D02*
G01*
X4114972Y-2607137D01*
X4119519Y-2620771D01*
X4124063Y-2625318D01*
X4133154Y-2629862D01*
X4146791Y-2629862D01*
X4155881Y-2625318D01*
X4114972Y-2548046D02*
G01*
X4124063Y-2538953D01*
X4133154Y-2534409D01*
X4146791Y-2534409D01*
X4155881Y-2538953D01*
X4164972Y-2548046D01*
X4169519Y-2561681D01*
X4169519Y-2570772D01*
X4164972Y-2584409D01*
X4155881Y-2593500D01*
X4146791Y-2598046D01*
X4133154Y-2598046D01*
X4124063Y-2593500D01*
X4114972Y-2584409D01*
X4084972Y-2534409D02*
G01*
X4084972Y-2598046D01*
X4084972Y-2552590D02*
G01*
X4071335Y-2538953D01*
X4062244Y-2534409D01*
X4048610Y-2534409D01*
X4039516Y-2538953D01*
X4034972Y-2552590D01*
X4034972Y-2598046D01*
X4004972Y-2561681D02*
G01*
X3950426Y-2561681D01*
X3950426Y-2552590D01*
X3954973Y-2543500D01*
X3959517Y-2538953D01*
X3968610Y-2534409D01*
X3982245Y-2534409D01*
X3991335Y-2538953D01*
X4000426Y-2548046D01*
X4004972Y-2561681D01*
X4004972Y-2570772D01*
X4000426Y-2584409D01*
X3991335Y-2593500D01*
X3982245Y-2598046D01*
X3968610Y-2598046D01*
X3959517Y-2593500D01*
X3950426Y-2584409D01*
X3865882Y-2502590D02*
G01*
X3865882Y-2598046D01*
X3865882Y-2548046D02*
G01*
X3874973Y-2538953D01*
X3884063Y-2534409D01*
X3897701Y-2534409D01*
X3906791Y-2538953D01*
X3915882Y-2548046D01*
X3920426Y-2561681D01*
X3920426Y-2570772D01*
X3915882Y-2584409D01*
X3906791Y-2593500D01*
X3897701Y-2598046D01*
X3884063Y-2598046D01*
X3874973Y-2593500D01*
X3865882Y-2584409D01*
X3765882Y-2502590D02*
G01*
X3765882Y-2598046D01*
X3765882Y-2548046D02*
G01*
X3756792Y-2538953D01*
X3747698Y-2534409D01*
X3734064Y-2534409D01*
X3724973Y-2538953D01*
X3715882Y-2548046D01*
X3711336Y-2561681D01*
X3711336Y-2570772D01*
X3715882Y-2584409D01*
X3724973Y-2593500D01*
X3734064Y-2598046D01*
X3747698Y-2598046D01*
X3756792Y-2593500D01*
X3765882Y-2584409D01*
X3676789Y-2534409D02*
G01*
X3649517Y-2598046D01*
X3622245Y-2534409D02*
G01*
X3649517Y-2598046D01*
X3658608Y-2616227D01*
X3667699Y-2625318D01*
X3676789Y-2629862D01*
X3681336Y-2629862D01*
X3522245Y-2534409D02*
G01*
X3522245Y-2598046D01*
X3522245Y-2552590D02*
G01*
X3508608Y-2538953D01*
X3499518Y-2534409D01*
X3485880Y-2534409D01*
X3476790Y-2538953D01*
X3472246Y-2552590D01*
X3472246Y-2598046D01*
X3442246Y-2502590D02*
G01*
X3437699Y-2507137D01*
X3433155Y-2502590D01*
X3437699Y-2498044D01*
X3442246Y-2502590D01*
X3437699Y-2534409D02*
G01*
X3437699Y-2598046D01*
X3403155Y-2534409D02*
G01*
X3403155Y-2598046D01*
X3403155Y-2561681D02*
G01*
X3398608Y-2548046D01*
X3389518Y-2538953D01*
X3380427Y-2534409D01*
X3366790Y-2534409D01*
X3282246Y-2534409D02*
G01*
X3282246Y-2598046D01*
X3282246Y-2548046D02*
G01*
X3291337Y-2538953D01*
X3300427Y-2534409D01*
X3314062Y-2534409D01*
X3323155Y-2538953D01*
X3332246Y-2548046D01*
X3336790Y-2561681D01*
X3336790Y-2570772D01*
X3332246Y-2584409D01*
X3323155Y-2593500D01*
X3314062Y-2598046D01*
X3300427Y-2598046D01*
X3291337Y-2593500D01*
X3282246Y-2584409D01*
X3197699Y-2534409D02*
G01*
X3197699Y-2598046D01*
X3197699Y-2548046D02*
G01*
X3206790Y-2538953D01*
X3215881Y-2534409D01*
X3229518Y-2534409D01*
X3238609Y-2538953D01*
X3247699Y-2548046D01*
X3252246Y-2561681D01*
X3252246Y-2570772D01*
X3247699Y-2584409D01*
X3238609Y-2593500D01*
X3229518Y-2598046D01*
X3215881Y-2598046D01*
X3206790Y-2593500D01*
X3197699Y-2584409D01*
X3167700Y-2534409D02*
G01*
X3167700Y-2598046D01*
X3167700Y-2552590D02*
G01*
X3154062Y-2538953D01*
X3144972Y-2534409D01*
X3131337Y-2534409D01*
X3122244Y-2538953D01*
X3117700Y-2552590D01*
X3117700Y-2598046D01*
X3117700Y-2552590D02*
G01*
X3104062Y-2538953D01*
X3094972Y-2534409D01*
X3081337Y-2534409D01*
X3072244Y-2538953D01*
X3067700Y-2552590D01*
X3067700Y-2598046D01*
X3037700Y-2502590D02*
G01*
X3033153Y-2507137D01*
X3028609Y-2502590D01*
X3033153Y-2498044D01*
X3037700Y-2502590D01*
X3033153Y-2534409D02*
G01*
X3033153Y-2598046D01*
M02*
