G04 Layer: TopSilkLayer*
G04 EasyEDA v6.4.25, 2021-10-07T01:57:40+02:00*
G04 74d54719dcbb48859515a23e3f46d2e4,21b141c4020943fdbba11dee5124b23b,10*
G04 Gerber Generator version 0.2*
G04 Scale: 100 percent, Rotated: No, Reflected: No *
G04 Dimensions in millimeters *
G04 leading zeros omitted , absolute positions ,4 integer and 5 decimal *
%FSLAX45Y45*%
%MOMM*%

%ADD10C,0.2540*%
%ADD32C,0.2000*%
%ADD33C,0.2030*%
%ADD34C,0.1524*%
%ADD35C,0.4000*%
%ADD36C,0.0762*%
%ADD37C,0.2500*%

%LPD*%
D37*
X825500Y-183642D02*
G01*
X825500Y-298195D01*
X901954Y-183642D02*
G01*
X901954Y-298195D01*
X825500Y-238252D02*
G01*
X901954Y-238252D01*
X937768Y-183642D02*
G01*
X937768Y-298195D01*
X937768Y-183642D02*
G01*
X987044Y-183642D01*
X1003300Y-189229D01*
X1008887Y-194563D01*
X1014221Y-205486D01*
X1014221Y-221995D01*
X1008887Y-232918D01*
X1003300Y-238252D01*
X987044Y-243586D01*
X937768Y-243586D01*
X1194307Y-238252D02*
G01*
X1188720Y-227329D01*
X1172463Y-221995D01*
X1155954Y-221995D01*
X1139697Y-227329D01*
X1134110Y-238252D01*
X1139697Y-249173D01*
X1150620Y-254507D01*
X1177797Y-260095D01*
X1188720Y-265429D01*
X1194307Y-276352D01*
X1194307Y-281939D01*
X1188720Y-292862D01*
X1172463Y-298195D01*
X1155954Y-298195D01*
X1139697Y-292862D01*
X1134110Y-281939D01*
X1230121Y-254507D02*
G01*
X1295654Y-254507D01*
X1295654Y-243586D01*
X1290320Y-232918D01*
X1284731Y-227329D01*
X1273810Y-221995D01*
X1257554Y-221995D01*
X1246631Y-227329D01*
X1235710Y-238252D01*
X1230121Y-254507D01*
X1230121Y-265429D01*
X1235710Y-281939D01*
X1246631Y-292862D01*
X1257554Y-298195D01*
X1273810Y-298195D01*
X1284731Y-292862D01*
X1295654Y-281939D01*
X1331721Y-221995D02*
G01*
X1331721Y-298195D01*
X1331721Y-254507D02*
G01*
X1337055Y-238252D01*
X1347978Y-227329D01*
X1358900Y-221995D01*
X1375410Y-221995D01*
X1411223Y-221995D02*
G01*
X1443989Y-298195D01*
X1476755Y-221995D02*
G01*
X1443989Y-298195D01*
X1512823Y-254507D02*
G01*
X1578102Y-254507D01*
X1578102Y-243586D01*
X1572768Y-232918D01*
X1567434Y-227329D01*
X1556512Y-221995D01*
X1540002Y-221995D01*
X1529079Y-227329D01*
X1518157Y-238252D01*
X1512823Y-254507D01*
X1512823Y-265429D01*
X1518157Y-281939D01*
X1529079Y-292862D01*
X1540002Y-298195D01*
X1556512Y-298195D01*
X1567434Y-292862D01*
X1578102Y-281939D01*
X1614170Y-221995D02*
G01*
X1614170Y-298195D01*
X1614170Y-254507D02*
G01*
X1619757Y-238252D01*
X1630679Y-227329D01*
X1641602Y-221995D01*
X1657857Y-221995D01*
X1837944Y-238252D02*
G01*
X1832355Y-227329D01*
X1816100Y-221995D01*
X1799589Y-221995D01*
X1783334Y-227329D01*
X1777745Y-238252D01*
X1783334Y-249173D01*
X1794255Y-254507D01*
X1821434Y-260095D01*
X1832355Y-265429D01*
X1837944Y-276352D01*
X1837944Y-281939D01*
X1832355Y-292862D01*
X1816100Y-298195D01*
X1799589Y-298195D01*
X1783334Y-292862D01*
X1777745Y-281939D01*
X1873757Y-183642D02*
G01*
X1879345Y-189229D01*
X1884679Y-183642D01*
X1879345Y-178307D01*
X1873757Y-183642D01*
X1879345Y-221995D02*
G01*
X1879345Y-298195D01*
X1920747Y-183642D02*
G01*
X1920747Y-298195D01*
X1956815Y-254507D02*
G01*
X2022347Y-254507D01*
X2022347Y-243586D01*
X2016759Y-232918D01*
X2011425Y-227329D01*
X2000504Y-221995D01*
X1983993Y-221995D01*
X1973072Y-227329D01*
X1962150Y-238252D01*
X1956815Y-254507D01*
X1956815Y-265429D01*
X1962150Y-281939D01*
X1973072Y-292862D01*
X1983993Y-298195D01*
X2000504Y-298195D01*
X2011425Y-292862D01*
X2022347Y-281939D01*
X2058161Y-221995D02*
G01*
X2058161Y-298195D01*
X2058161Y-243586D02*
G01*
X2074672Y-227329D01*
X2085593Y-221995D01*
X2101850Y-221995D01*
X2112772Y-227329D01*
X2118106Y-243586D01*
X2118106Y-298195D01*
X2219706Y-238252D02*
G01*
X2208784Y-227329D01*
X2197861Y-221995D01*
X2181606Y-221995D01*
X2170684Y-227329D01*
X2159761Y-238252D01*
X2154174Y-254507D01*
X2154174Y-265429D01*
X2159761Y-281939D01*
X2170684Y-292862D01*
X2181606Y-298195D01*
X2197861Y-298195D01*
X2208784Y-292862D01*
X2219706Y-281939D01*
X2255774Y-254507D02*
G01*
X2321052Y-254507D01*
X2321052Y-243586D01*
X2315718Y-232918D01*
X2310129Y-227329D01*
X2299208Y-221995D01*
X2282952Y-221995D01*
X2272029Y-227329D01*
X2261108Y-238252D01*
X2255774Y-254507D01*
X2255774Y-265429D01*
X2261108Y-281939D01*
X2272029Y-292862D01*
X2282952Y-298195D01*
X2299208Y-298195D01*
X2310129Y-292862D01*
X2321052Y-281939D01*
X2357120Y-221995D02*
G01*
X2357120Y-298195D01*
X2357120Y-254507D02*
G01*
X2362708Y-238252D01*
X2373375Y-227329D01*
X2384297Y-221995D01*
X2400808Y-221995D01*
X2520695Y-249173D02*
G01*
X2618993Y-249173D01*
X2738881Y-205486D02*
G01*
X2749804Y-200152D01*
X2766313Y-183642D01*
X2766313Y-298195D01*
X2834893Y-183642D02*
G01*
X2818638Y-189229D01*
X2807715Y-205486D01*
X2802127Y-232918D01*
X2802127Y-249173D01*
X2807715Y-276352D01*
X2818638Y-292862D01*
X2834893Y-298195D01*
X2845815Y-298195D01*
X2862325Y-292862D01*
X2873247Y-276352D01*
X2878581Y-249173D01*
X2878581Y-232918D01*
X2873247Y-205486D01*
X2862325Y-189229D01*
X2845815Y-183642D01*
X2834893Y-183642D01*
X3012693Y-161797D02*
G01*
X2914650Y-336550D01*
X3054095Y-211073D02*
G01*
X3054095Y-205486D01*
X3059684Y-194563D01*
X3065018Y-189229D01*
X3075940Y-183642D01*
X3097784Y-183642D01*
X3108706Y-189229D01*
X3114293Y-194563D01*
X3119627Y-205486D01*
X3119627Y-216407D01*
X3114293Y-227329D01*
X3103372Y-243586D01*
X3048761Y-298195D01*
X3125215Y-298195D01*
X3161029Y-205486D02*
G01*
X3171952Y-200152D01*
X3188461Y-183642D01*
X3188461Y-298195D01*
X3308350Y-249173D02*
G01*
X3406647Y-249173D01*
X3526536Y-183642D02*
G01*
X3526536Y-298195D01*
X3526536Y-183642D02*
G01*
X3575558Y-183642D01*
X3592068Y-189229D01*
X3597402Y-194563D01*
X3602990Y-205486D01*
X3602990Y-216407D01*
X3597402Y-227329D01*
X3592068Y-232918D01*
X3575558Y-238252D01*
X3526536Y-238252D01*
X3564890Y-238252D02*
G01*
X3602990Y-298195D01*
X3639058Y-183642D02*
G01*
X3639058Y-298195D01*
X3639058Y-183642D02*
G01*
X3709924Y-183642D01*
X3639058Y-238252D02*
G01*
X3682491Y-238252D01*
X3639058Y-298195D02*
G01*
X3709924Y-298195D01*
X3745738Y-183642D02*
G01*
X3789425Y-298195D01*
X3833113Y-183642D02*
G01*
X3789425Y-298195D01*
X3953256Y-205486D02*
G01*
X3963924Y-200152D01*
X3980434Y-183642D01*
X3980434Y-298195D01*
X4021836Y-271018D02*
G01*
X4016502Y-276352D01*
X4021836Y-281939D01*
X4027424Y-276352D01*
X4021836Y-271018D01*
X4068825Y-211073D02*
G01*
X4068825Y-205486D01*
X4074159Y-194563D01*
X4079747Y-189229D01*
X4090670Y-183642D01*
X4112513Y-183642D01*
X4123436Y-189229D01*
X4128770Y-194563D01*
X4134104Y-205486D01*
X4134104Y-216407D01*
X4128770Y-227329D01*
X4117847Y-243586D01*
X4063238Y-298195D01*
X4139691Y-298195D01*
G36*
X184912Y-541121D02*
G01*
X184912Y-641146D01*
X314909Y-591108D01*
G37*
G36*
X184912Y-1441043D02*
G01*
X184912Y-1541068D01*
X314909Y-1491030D01*
G37*
D10*
X99009Y-1128979D02*
G01*
X294843Y-1128979D01*
X294843Y-1045159D01*
X550875Y-1045159D01*
X550875Y-960831D01*
X550875Y-948131D01*
X292811Y-948131D01*
X292811Y-948131D01*
X100025Y-670255D02*
G01*
X295859Y-670255D01*
X295859Y-754075D01*
X551891Y-754075D01*
X551891Y-855167D01*
X292811Y-855167D01*
X292811Y-948131D01*
X99009Y-1128979D02*
G01*
X294843Y-1128979D01*
X294843Y-1045159D01*
X550875Y-1045159D01*
X99926Y-500128D02*
G01*
X99926Y-1300124D01*
X1074917Y-1300134D02*
G01*
X774915Y-1300134D01*
X1074917Y-1200134D02*
G01*
X774915Y-1200134D01*
X1074917Y-1300134D02*
G01*
X1074917Y-1200134D01*
X99918Y-1300134D02*
G01*
X774915Y-1300134D01*
X774915Y-1200134D02*
G01*
X774915Y-1196497D01*
X688479Y-500128D02*
G01*
X688479Y-1300124D01*
X774920Y-1004018D02*
G01*
X774920Y-996231D01*
X774920Y-804019D02*
G01*
X774920Y-796231D01*
X99926Y-500128D02*
G01*
X774923Y-500126D01*
X1074922Y-500123D02*
G01*
X1074922Y-600123D01*
X774920Y-600123D01*
X1074922Y-500123D02*
G01*
X774920Y-500123D01*
X99009Y-2028901D02*
G01*
X294843Y-2028901D01*
X294843Y-1945081D01*
X550875Y-1945081D01*
X550875Y-1860753D01*
X550875Y-1848053D01*
X292811Y-1848053D01*
X292811Y-1848053D01*
X100025Y-1570177D02*
G01*
X295859Y-1570177D01*
X295859Y-1653997D01*
X551891Y-1653997D01*
X551891Y-1755089D01*
X292811Y-1755089D01*
X292811Y-1848053D01*
X99009Y-2028901D02*
G01*
X294843Y-2028901D01*
X294843Y-1945081D01*
X550875Y-1945081D01*
X99926Y-1400050D02*
G01*
X99926Y-2200046D01*
X1074917Y-2200056D02*
G01*
X774915Y-2200056D01*
X1074917Y-2100056D02*
G01*
X774915Y-2100056D01*
X1074917Y-2200056D02*
G01*
X1074917Y-2100056D01*
X99918Y-2200056D02*
G01*
X774915Y-2200056D01*
X774915Y-2100056D02*
G01*
X774915Y-2096419D01*
X688479Y-1400050D02*
G01*
X688479Y-2200046D01*
X774920Y-1903940D02*
G01*
X774920Y-1896153D01*
X774920Y-1703941D02*
G01*
X774920Y-1696153D01*
X99926Y-1400050D02*
G01*
X774923Y-1400047D01*
X1074922Y-1400045D02*
G01*
X1074922Y-1500045D01*
X774920Y-1500045D01*
X1074922Y-1400045D02*
G01*
X774920Y-1400045D01*
D32*
X2966720Y-1016507D02*
G01*
X3586479Y-1016507D01*
X3586479Y-1681987D01*
X2923540Y-1681987D01*
X2923540Y-1016507D01*
X2999740Y-1016507D01*
D10*
X4724400Y-1617614D02*
G01*
X4724400Y-1654799D01*
X4318000Y-1654799D01*
X4318000Y-1617614D01*
X4321200Y-1417614D02*
G01*
X4321200Y-1482384D01*
X4321200Y-1217615D02*
G01*
X4321200Y-1282385D01*
X4321200Y-1050000D02*
G01*
X4321200Y-1082385D01*
X4521200Y-1050000D02*
G01*
X4321200Y-1050000D01*
X4721199Y-1417614D02*
G01*
X4721199Y-1482384D01*
X4721199Y-1217615D02*
G01*
X4721199Y-1282385D01*
X4521200Y-1050000D02*
G01*
X4721199Y-1050000D01*
X4721199Y-1082385D01*
X2183129Y-1470660D02*
G01*
X2183129Y-1297939D01*
X2183129Y-1297939D02*
G01*
X2035809Y-1297939D01*
X2183129Y-1470660D02*
G01*
X2035809Y-1470660D01*
X1977390Y-1297939D02*
G01*
X1860550Y-1297939D01*
X1974850Y-1470660D02*
G01*
X1860550Y-1470660D01*
X1860550Y-1470660D02*
G01*
X1824989Y-1435100D01*
X1824989Y-1333500D01*
X1860550Y-1297939D01*
D33*
X2014220Y-1424939D02*
G01*
X2014220Y-1346200D01*
X2014220Y-1385095D02*
G01*
X1996683Y-1385095D01*
D34*
X2049221Y-1221760D02*
G01*
X2145108Y-1221760D01*
X2145108Y-1089639D01*
X2049221Y-1089639D01*
X1963978Y-1221760D02*
G01*
X1868091Y-1221760D01*
X1868091Y-1089639D01*
X1963978Y-1089639D01*
D10*
X2145601Y-1585622D02*
G01*
X2145601Y-1665625D01*
X2034626Y-1554637D02*
G01*
X2114623Y-1554637D01*
X2034626Y-1696603D02*
G01*
X2114623Y-1696603D01*
X1977036Y-1554055D02*
G01*
X1897037Y-1554055D01*
X1866054Y-1585038D02*
G01*
X1866054Y-1665036D01*
X1977036Y-1696016D02*
G01*
X1897037Y-1696016D01*
X674977Y-2628201D02*
G01*
X594974Y-2628201D01*
X705962Y-2517226D02*
G01*
X705962Y-2597223D01*
X563996Y-2517226D02*
G01*
X563996Y-2597223D01*
X706544Y-2459636D02*
G01*
X706544Y-2379637D01*
X675561Y-2348654D02*
G01*
X595563Y-2348654D01*
X564583Y-2459636D02*
G01*
X564583Y-2379637D01*
X3836098Y-725777D02*
G01*
X3836098Y-645774D01*
X3947073Y-756762D02*
G01*
X3867076Y-756762D01*
X3947073Y-614796D02*
G01*
X3867076Y-614796D01*
X4004663Y-757344D02*
G01*
X4084662Y-757344D01*
X4115645Y-726361D02*
G01*
X4115645Y-646363D01*
X4004663Y-615383D02*
G01*
X4084662Y-615383D01*
D34*
X1430060Y-2040981D02*
G01*
X1430060Y-1921969D01*
X1430060Y-2226221D02*
G01*
X1430060Y-2345230D01*
X1414820Y-1906729D02*
G01*
X1226779Y-1906729D01*
X1414820Y-2360470D02*
G01*
X1226779Y-2360470D01*
X1211539Y-1921969D02*
G01*
X1211539Y-2040981D01*
X1211539Y-2345230D02*
G01*
X1211539Y-2226221D01*
D10*
X1015987Y-2421674D02*
G01*
X1015987Y-2307374D01*
X1015987Y-2294674D01*
X990587Y-2269274D01*
X850887Y-2269274D01*
X838187Y-2269274D01*
X812787Y-2294674D01*
X812787Y-2421674D01*
X812787Y-2497874D02*
G01*
X812787Y-2612174D01*
X812787Y-2624874D01*
X838187Y-2650274D01*
X977887Y-2650274D01*
X990587Y-2650274D01*
X1015987Y-2624874D01*
X1015987Y-2497874D01*
X2675674Y-2260612D02*
G01*
X2561374Y-2260612D01*
X2548674Y-2260612D01*
X2523274Y-2286012D01*
X2523274Y-2425712D01*
X2523274Y-2438412D01*
X2548674Y-2463812D01*
X2675674Y-2463812D01*
X2751874Y-2463812D02*
G01*
X2866174Y-2463812D01*
X2878874Y-2463812D01*
X2904274Y-2438412D01*
X2904274Y-2298712D01*
X2904274Y-2286012D01*
X2878874Y-2260612D01*
X2751874Y-2260612D01*
D34*
X2562423Y-1486664D02*
G01*
X2658310Y-1486664D01*
X2658310Y-1354543D01*
X2562423Y-1354543D01*
X2477180Y-1486664D02*
G01*
X2381293Y-1486664D01*
X2381293Y-1354543D01*
X2477180Y-1354543D01*
X3870144Y-1243025D02*
G01*
X3870144Y-1338912D01*
X4002265Y-1338912D01*
X4002265Y-1243025D01*
X3870144Y-1157782D02*
G01*
X3870144Y-1061895D01*
X4002265Y-1061895D01*
X4002265Y-1157782D01*
X2154943Y-1800580D02*
G01*
X2154943Y-2465821D01*
X1860664Y-2465821D01*
X1860664Y-1800580D01*
X2154943Y-1800580D01*
D10*
X3194979Y-2247605D02*
G01*
X3114977Y-2247605D01*
X3225965Y-2136630D02*
G01*
X3225965Y-2216627D01*
X3083999Y-2136630D02*
G01*
X3083999Y-2216627D01*
X3226546Y-2079040D02*
G01*
X3226546Y-1999040D01*
X3195563Y-1968058D02*
G01*
X3115566Y-1968058D01*
X3084586Y-2079040D02*
G01*
X3084586Y-1999040D01*
X3423579Y-2247605D02*
G01*
X3343577Y-2247605D01*
X3454565Y-2136630D02*
G01*
X3454565Y-2216627D01*
X3312599Y-2136630D02*
G01*
X3312599Y-2216627D01*
X3455146Y-2079040D02*
G01*
X3455146Y-1999040D01*
X3424163Y-1968058D02*
G01*
X3344166Y-1968058D01*
X3313186Y-2079040D02*
G01*
X3313186Y-1999040D01*
X2584201Y-1919980D02*
G01*
X2584201Y-1839978D01*
X2695176Y-1950966D02*
G01*
X2615178Y-1950966D01*
X2695176Y-1809000D02*
G01*
X2615178Y-1809000D01*
X2752765Y-1951548D02*
G01*
X2832765Y-1951548D01*
X2863748Y-1920565D02*
G01*
X2863748Y-1840567D01*
X2752765Y-1809587D02*
G01*
X2832765Y-1809587D01*
X2381001Y-1665980D02*
G01*
X2381001Y-1585978D01*
X2491976Y-1696966D02*
G01*
X2411978Y-1696966D01*
X2491976Y-1555000D02*
G01*
X2411978Y-1555000D01*
X2549565Y-1697548D02*
G01*
X2629565Y-1697548D01*
X2660548Y-1666565D02*
G01*
X2660548Y-1586567D01*
X2549565Y-1555587D02*
G01*
X2629565Y-1555587D01*
X3243204Y-646226D02*
G01*
X3243204Y-726229D01*
X3132228Y-615241D02*
G01*
X3212226Y-615241D01*
X3132228Y-757207D02*
G01*
X3212226Y-757207D01*
X3074639Y-614659D02*
G01*
X2994639Y-614659D01*
X2963656Y-645642D02*
G01*
X2963656Y-725639D01*
X3074639Y-756620D02*
G01*
X2994639Y-756620D01*
X3473201Y-726180D02*
G01*
X3473201Y-646178D01*
X3584176Y-757166D02*
G01*
X3504178Y-757166D01*
X3584176Y-615200D02*
G01*
X3504178Y-615200D01*
X3641765Y-757748D02*
G01*
X3721765Y-757748D01*
X3752748Y-726765D02*
G01*
X3752748Y-646767D01*
X3641765Y-615787D02*
G01*
X3721765Y-615787D01*
D35*
G75*
G01*
X2917281Y-1756517D02*
G03*
X2917535Y-1756517I127J-19999D01*
D10*
G75*
G01*
X1866049Y-1585039D02*
G02*
X1897032Y-1554056I30983J0D01*
G75*
G01*
X1897032Y-1696022D02*
G02*
X1866049Y-1665036I0J30983D01*
G75*
G01*
X2114619Y-1554637D02*
G02*
X2145601Y-1585623I0J-30983D01*
G75*
G01*
X2145601Y-1665620D02*
G02*
X2114619Y-1696603I-30982J0D01*
G75*
G01*
X675561Y-2348649D02*
G02*
X706544Y-2379632I0J-30983D01*
G75*
G01*
X564578Y-2379632D02*
G02*
X595564Y-2348649I30983J0D01*
G75*
G01*
X705963Y-2597219D02*
G02*
X674977Y-2628201I-30983J0D01*
G75*
G01*
X594980Y-2628201D02*
G02*
X563997Y-2597219I0J30982D01*
G75*
G01*
X4115651Y-726361D02*
G02*
X4084668Y-757344I-30983J0D01*
G75*
G01*
X4084668Y-615378D02*
G02*
X4115651Y-646364I0J-30983D01*
G75*
G01*
X3867081Y-756763D02*
G02*
X3836099Y-725777I0J30983D01*
G75*
G01*
X3836099Y-645780D02*
G02*
X3867081Y-614797I30982J0D01*
D36*
G75*
G01*
X1320800Y-2133600D02*
G02*
X1405296Y-2133600I42248J-73175D01*
G75*
G01*
X1320800Y-2133600D02*
G02*
X1236304Y-2133600I-42248J73175D01*
D10*
G75*
G01*
X3195564Y-1968053D02*
G02*
X3226547Y-1999036I0J-30983D01*
G75*
G01*
X3084581Y-1999036D02*
G02*
X3115567Y-1968053I30983J0D01*
G75*
G01*
X3225965Y-2216622D02*
G02*
X3194980Y-2247605I-30983J0D01*
G75*
G01*
X3114982Y-2247605D02*
G02*
X3083999Y-2216622I0J30983D01*
G75*
G01*
X3424164Y-1968053D02*
G02*
X3455147Y-1999036I0J-30983D01*
G75*
G01*
X3313181Y-1999036D02*
G02*
X3344167Y-1968053I30983J0D01*
G75*
G01*
X3454565Y-2216622D02*
G02*
X3423580Y-2247605I-30983J0D01*
G75*
G01*
X3343582Y-2247605D02*
G02*
X3312599Y-2216622I0J30983D01*
G75*
G01*
X2863753Y-1920565D02*
G02*
X2832771Y-1951548I-30982J0D01*
G75*
G01*
X2832771Y-1809582D02*
G02*
X2863753Y-1840568I0J-30983D01*
G75*
G01*
X2615184Y-1950966D02*
G02*
X2584201Y-1919981I0J30983D01*
G75*
G01*
X2584201Y-1839984D02*
G02*
X2615184Y-1809001I30983J0D01*
G75*
G01*
X2660553Y-1666565D02*
G02*
X2629571Y-1697548I-30982J0D01*
G75*
G01*
X2629571Y-1555582D02*
G02*
X2660553Y-1586568I0J-30983D01*
G75*
G01*
X2411984Y-1696966D02*
G02*
X2381001Y-1665981I0J30983D01*
G75*
G01*
X2381001Y-1585984D02*
G02*
X2411984Y-1555001I30983J0D01*
G75*
G01*
X2963652Y-645643D02*
G02*
X2994635Y-614660I30983J0D01*
G75*
G01*
X2994635Y-756625D02*
G02*
X2963652Y-725640I0J30983D01*
G75*
G01*
X3212221Y-615241D02*
G02*
X3243204Y-646227I0J-30983D01*
G75*
G01*
X3243204Y-726224D02*
G02*
X3212221Y-757207I-30983J0D01*
G75*
G01*
X3752753Y-726765D02*
G02*
X3721771Y-757748I-30982J0D01*
G75*
G01*
X3721771Y-615782D02*
G02*
X3752753Y-646768I0J-30983D01*
G75*
G01*
X3504184Y-757166D02*
G02*
X3473201Y-726181I0J30983D01*
G75*
G01*
X3473201Y-646184D02*
G02*
X3504184Y-615201I30983J0D01*
G75*
G01
X3011322Y-1633525D02*
G03X3011322Y-1633525I-17043J0D01*
G75*
G01
X4241800Y-1043407D02*
G03X4241800Y-1043407I-12700J0D01*
M02*
