G04 Layer: TopLayer*
G04 EasyEDA v6.4.20.6, 2021-08-21T12:51:08+02:00*
G04 49faa743f6f2471693ae6abc579f8785,21b141c4020943fdbba11dee5124b23b,10*
G04 Gerber Generator version 0.2*
G04 Scale: 100 percent, Rotated: No, Reflected: No *
G04 Dimensions in millimeters *
G04 leading zeros omitted , absolute positions ,4 integer and 5 decimal *
%FSLAX45Y45*%
%MOMM*%

%ADD10C,0.2540*%
%ADD11C,0.5000*%
%ADD12C,0.3000*%
%ADD13C,1.0000*%
%ADD14C,0.4000*%
%ADD15C,2.0000*%
%ADD16C,0.2700*%
%ADD17C,0.8000*%
%ADD18C,0.6100*%
%ADD19R,0.9000X0.8000*%
%ADD20R,0.5400X0.7901*%
%ADD22R,1.3770X1.1325*%
%ADD23R,0.8640X0.8065*%
%ADD24R,2.5000X1.1000*%
%ADD26C,0.7874*%
%ADD27R,1.1901X1.7280*%
%ADD28R,1.5240X1.5240*%
%ADD29C,1.5240*%
%ADD30C,0.9906*%
%ADD31C,2.3749*%
%ADD32C,6.4000*%

%LPD*%
G36*
X1370634Y10197490D02*
G01*
X1345082Y10198455D01*
X1320698Y10201097D01*
X1296517Y10205466D01*
X1272743Y10211562D01*
X1249426Y10219334D01*
X1226718Y10228783D01*
X1204772Y10239806D01*
X1183690Y10252354D01*
X1163523Y10266375D01*
X1144422Y10281818D01*
X1126439Y10298582D01*
X1109726Y10316565D01*
X1094333Y10335717D01*
X1080363Y10355884D01*
X1067866Y10377017D01*
X1056894Y10399014D01*
X1047496Y10421721D01*
X1039774Y10445038D01*
X1033729Y10468813D01*
X1029411Y10492994D01*
X1026769Y10517428D01*
X1025906Y10542219D01*
X1025906Y12500965D01*
X1026820Y12526518D01*
X1029512Y12550902D01*
X1033881Y12575082D01*
X1039977Y12598857D01*
X1047750Y12622174D01*
X1057198Y12644882D01*
X1068222Y12666827D01*
X1080770Y12687909D01*
X1094790Y12708077D01*
X1110234Y12727178D01*
X1126947Y12745161D01*
X1144981Y12761874D01*
X1164082Y12777266D01*
X1184300Y12791236D01*
X1205433Y12803733D01*
X1227378Y12814706D01*
X1250086Y12824104D01*
X1273403Y12831826D01*
X1297228Y12837871D01*
X1321409Y12842189D01*
X1345793Y12844830D01*
X1370634Y12845694D01*
X5629402Y12845694D01*
X5654903Y12844780D01*
X5679338Y12842087D01*
X5703468Y12837718D01*
X5727293Y12831622D01*
X5750560Y12823850D01*
X5773267Y12814401D01*
X5795213Y12803428D01*
X5816295Y12790830D01*
X5836462Y12776809D01*
X5855563Y12761366D01*
X5873546Y12744653D01*
X5890260Y12726619D01*
X5905652Y12707518D01*
X5919622Y12687300D01*
X5932170Y12666167D01*
X5943142Y12644221D01*
X5952490Y12621514D01*
X5960211Y12598196D01*
X5966256Y12574371D01*
X5970625Y12550190D01*
X5973216Y12525705D01*
X5974080Y12500965D01*
X5974080Y10542219D01*
X5973165Y10516717D01*
X5970524Y10492282D01*
X5966104Y10468102D01*
X5960008Y10444327D01*
X5952236Y10421010D01*
X5942838Y10398353D01*
X5931814Y10376408D01*
X5919266Y10355275D01*
X5905195Y10335107D01*
X5889802Y10316006D01*
X5873038Y10298074D01*
X5855055Y10281361D01*
X5835904Y10265968D01*
X5815685Y10251948D01*
X5794552Y10239451D01*
X5772607Y10228478D01*
X5749899Y10219080D01*
X5726582Y10211358D01*
X5702757Y10205313D01*
X5678627Y10200995D01*
X5654192Y10198404D01*
X5629402Y10197490D01*
G37*

%LPC*%
G36*
X4124960Y10251490D02*
G01*
X4141470Y10251948D01*
X4157827Y10254284D01*
X4173778Y10258501D01*
X4189171Y10264495D01*
X4203801Y10272217D01*
X4217416Y10281513D01*
X4229912Y10292334D01*
X4241088Y10304475D01*
X4250791Y10317835D01*
X4258919Y10332262D01*
X4265320Y10347452D01*
X4269994Y10363301D01*
X4272788Y10379557D01*
X4273753Y10396067D01*
X4272788Y10412526D01*
X4269994Y10428833D01*
X4265320Y10444683D01*
X4258919Y10459872D01*
X4250791Y10474248D01*
X4241088Y10487609D01*
X4231487Y10498074D01*
X4229252Y10501884D01*
X4228846Y10506252D01*
X4230370Y10510367D01*
X4233418Y10513466D01*
X4237532Y10514990D01*
X4240174Y10515396D01*
X4246016Y10517174D01*
X4252518Y10520426D01*
X4256633Y10521492D01*
X4263948Y10521797D01*
X4274261Y10523880D01*
X4284065Y10527588D01*
X4293158Y10532872D01*
X4301286Y10539476D01*
X4308246Y10547350D01*
X4310888Y10551515D01*
X4313580Y10554360D01*
X4317136Y10555935D01*
X4320997Y10556087D01*
X4324705Y10554766D01*
X4327601Y10552176D01*
X4334256Y10543286D01*
X4335983Y10541660D01*
X4338269Y10538307D01*
X4339082Y10534345D01*
X4339082Y10526064D01*
X4338269Y10522102D01*
X4335983Y10518749D01*
X4330700Y10513669D01*
X4324350Y10505236D01*
X4319422Y10495838D01*
X4316018Y10485780D01*
X4314342Y10475315D01*
X4314342Y10464698D01*
X4316018Y10454233D01*
X4319422Y10444175D01*
X4324350Y10434777D01*
X4330700Y10426344D01*
X4338320Y10418978D01*
X4347057Y10412933D01*
X4356658Y10408412D01*
X4366818Y10405465D01*
X4377334Y10404195D01*
X4387951Y10404602D01*
X4398314Y10406735D01*
X4408220Y10410494D01*
X4417415Y10415778D01*
X4425645Y10422483D01*
X4432655Y10430408D01*
X4438345Y10439400D01*
X4440529Y10444581D01*
X4442663Y10447731D01*
X4445812Y10449915D01*
X4449521Y10450728D01*
X4453280Y10450169D01*
X4456582Y10448239D01*
X4458919Y10445292D01*
X4464354Y10434777D01*
X4470704Y10426344D01*
X4478324Y10418978D01*
X4487062Y10412933D01*
X4496663Y10408412D01*
X4506823Y10405465D01*
X4517339Y10404195D01*
X4527956Y10404602D01*
X4538319Y10406735D01*
X4542434Y10408310D01*
X4546295Y10408970D01*
X4550105Y10408107D01*
X4553305Y10405872D01*
X4555439Y10402620D01*
X4556201Y10398810D01*
X4556201Y10387787D01*
X4558080Y10371378D01*
X4561840Y10355326D01*
X4567377Y10339730D01*
X4574641Y10324947D01*
X4583582Y10311028D01*
X4594047Y10298277D01*
X4605883Y10286746D01*
X4618939Y10276636D01*
X4633112Y10268153D01*
X4648149Y10261295D01*
X4663846Y10256164D01*
X4680000Y10252913D01*
X4696460Y10251490D01*
X4712970Y10251948D01*
X4729327Y10254284D01*
X4745278Y10258501D01*
X4760671Y10264495D01*
X4775301Y10272217D01*
X4788916Y10281513D01*
X4801412Y10292334D01*
X4812588Y10304475D01*
X4822291Y10317835D01*
X4830419Y10332262D01*
X4836820Y10347452D01*
X4841494Y10363301D01*
X4844288Y10379557D01*
X4845253Y10396067D01*
X4844288Y10412526D01*
X4841494Y10428833D01*
X4836820Y10444683D01*
X4830419Y10459872D01*
X4822291Y10474248D01*
X4812588Y10487609D01*
X4801412Y10499801D01*
X4789068Y10510469D01*
X4786579Y10513771D01*
X4785563Y10517784D01*
X4786122Y10521035D01*
X4783328Y10519359D01*
X4779213Y10518800D01*
X4775250Y10519968D01*
X4760671Y10527639D01*
X4744567Y10533888D01*
X4741164Y10536072D01*
X4738878Y10539374D01*
X4738065Y10543336D01*
X4738065Y10560507D01*
X4710633Y10560507D01*
X4707026Y10561167D01*
X4703876Y10563098D01*
X4701641Y10565942D01*
X4700524Y10569448D01*
X4700778Y10573105D01*
X4701489Y10576102D01*
X4702352Y10586567D01*
X4701489Y10597032D01*
X4700778Y10599978D01*
X4700524Y10603636D01*
X4701641Y10607141D01*
X4703876Y10610037D01*
X4707026Y10611916D01*
X4710633Y10612577D01*
X4738065Y10612577D01*
X4738065Y10639856D01*
X4738776Y10643565D01*
X4740706Y10646714D01*
X4743704Y10649000D01*
X4747310Y10649966D01*
X4761484Y10648340D01*
X4766614Y10648594D01*
X4770729Y10647883D01*
X4774184Y10645597D01*
X4787138Y10632643D01*
X4789373Y10629341D01*
X4790135Y10625480D01*
X4790135Y10612577D01*
X4809439Y10612577D01*
X4812385Y10612170D01*
X4819650Y10609935D01*
X4823612Y10609529D01*
X4827625Y10608259D01*
X4830775Y10605516D01*
X4832553Y10601655D01*
X4832604Y10597489D01*
X4830927Y10593578D01*
X4826304Y10586974D01*
X4821174Y10576661D01*
X4818278Y10567619D01*
X4816195Y10563910D01*
X4812792Y10561421D01*
X4808626Y10560507D01*
X4790135Y10560507D01*
X4790135Y10528909D01*
X4789525Y10525963D01*
X4805781Y10535615D01*
X4809693Y10536021D01*
X4813452Y10534904D01*
X4816500Y10532414D01*
X4818380Y10528960D01*
X4821174Y10520273D01*
X4826304Y10509910D01*
X4832908Y10500461D01*
X4840935Y10492181D01*
X4850130Y10485170D01*
X4860239Y10479633D01*
X4871110Y10475722D01*
X4882438Y10473537D01*
X4893970Y10473080D01*
X4905451Y10474401D01*
X4916576Y10477500D01*
X4927142Y10482224D01*
X4936794Y10488472D01*
X4945430Y10496143D01*
X4952796Y10505084D01*
X4958689Y10514990D01*
X4963007Y10525709D01*
X4965649Y10536936D01*
X4966512Y10548467D01*
X4965649Y10559948D01*
X4963007Y10571226D01*
X4960924Y10576356D01*
X4960162Y10580319D01*
X4961026Y10584281D01*
X4963363Y10587583D01*
X4966817Y10589717D01*
X4970780Y10590326D01*
X4974691Y10589361D01*
X4976672Y10588447D01*
X4986832Y10585450D01*
X4997348Y10584180D01*
X5007965Y10584637D01*
X5018328Y10586720D01*
X5028234Y10590479D01*
X5037429Y10595813D01*
X5045659Y10602518D01*
X5052669Y10610443D01*
X5058359Y10619384D01*
X5062524Y10629138D01*
X5065014Y10639450D01*
X5065877Y10650016D01*
X5065014Y10660583D01*
X5062524Y10670895D01*
X5058359Y10680649D01*
X5052669Y10689590D01*
X5045659Y10697514D01*
X5037429Y10704220D01*
X5028234Y10709554D01*
X5018328Y10713313D01*
X5007965Y10715396D01*
X4997348Y10715853D01*
X4986832Y10714583D01*
X4976672Y10711586D01*
X4974640Y10710672D01*
X4970729Y10709706D01*
X4966766Y10710316D01*
X4963312Y10712450D01*
X4960975Y10715752D01*
X4960112Y10719663D01*
X4960874Y10723626D01*
X4963007Y10728909D01*
X4965649Y10740136D01*
X4966512Y10751667D01*
X4965649Y10763148D01*
X4963007Y10774426D01*
X4958689Y10785094D01*
X4952796Y10795050D01*
X4945430Y10803940D01*
X4936794Y10811611D01*
X4927142Y10817910D01*
X4916576Y10822635D01*
X4905451Y10825683D01*
X4893970Y10827004D01*
X4882438Y10826546D01*
X4871110Y10824362D01*
X4860239Y10820450D01*
X4850130Y10814964D01*
X4840935Y10807954D01*
X4832908Y10799622D01*
X4826304Y10790174D01*
X4821174Y10779861D01*
X4818380Y10771124D01*
X4816500Y10767669D01*
X4813452Y10765231D01*
X4809693Y10764062D01*
X4805781Y10764469D01*
X4792065Y10772495D01*
X4788560Y10774781D01*
X4786274Y10778236D01*
X4785563Y10782300D01*
X4786579Y10786364D01*
X4789068Y10789666D01*
X4801412Y10800334D01*
X4812588Y10812475D01*
X4822291Y10825835D01*
X4830419Y10840262D01*
X4836820Y10855452D01*
X4841494Y10871301D01*
X4844288Y10887557D01*
X4845253Y10904067D01*
X4844288Y10920526D01*
X4841494Y10936833D01*
X4836820Y10952683D01*
X4830419Y10967872D01*
X4822291Y10982248D01*
X4812588Y10995609D01*
X4801412Y11007801D01*
X4788916Y11018570D01*
X4775301Y11027918D01*
X4760671Y11035639D01*
X4745278Y11041634D01*
X4729327Y11045799D01*
X4712970Y11048136D01*
X4696460Y11048644D01*
X4680000Y11047222D01*
X4663846Y11043920D01*
X4648149Y11038840D01*
X4633112Y11031982D01*
X4618939Y11023447D01*
X4605883Y11013338D01*
X4594047Y11001857D01*
X4583582Y10989056D01*
X4574641Y10975187D01*
X4567377Y10960354D01*
X4561840Y10944809D01*
X4558080Y10928705D01*
X4556201Y10912297D01*
X4556201Y10895787D01*
X4558080Y10879378D01*
X4561840Y10863326D01*
X4567377Y10847730D01*
X4574641Y10832947D01*
X4583582Y10819028D01*
X4594047Y10806277D01*
X4605883Y10794746D01*
X4612030Y10789970D01*
X4614722Y10786872D01*
X4615942Y10782960D01*
X4615535Y10778845D01*
X4613503Y10775238D01*
X4610201Y10772749D01*
X4604461Y10770057D01*
X4595825Y10764113D01*
X4588256Y10756798D01*
X4581601Y10747959D01*
X4578705Y10745317D01*
X4574997Y10743996D01*
X4571136Y10744149D01*
X4567580Y10745774D01*
X4564888Y10748619D01*
X4562246Y10752734D01*
X4555286Y10760608D01*
X4547158Y10767263D01*
X4538065Y10772495D01*
X4528261Y10776204D01*
X4517948Y10778337D01*
X4507484Y10778744D01*
X4497070Y10777474D01*
X4486960Y10774578D01*
X4477461Y10770057D01*
X4468825Y10764113D01*
X4461256Y10756798D01*
X4454601Y10747959D01*
X4451705Y10745317D01*
X4447997Y10743996D01*
X4444136Y10744149D01*
X4440580Y10745774D01*
X4437888Y10748619D01*
X4435246Y10752734D01*
X4428286Y10760608D01*
X4420158Y10767263D01*
X4411065Y10772495D01*
X4409135Y10773257D01*
X4409135Y10739577D01*
X4436516Y10739577D01*
X4440783Y10738662D01*
X4444238Y10736021D01*
X4446270Y10732160D01*
X4446524Y10727791D01*
X4445050Y10718800D01*
X4445050Y10708284D01*
X4446524Y10699292D01*
X4446270Y10694974D01*
X4444238Y10691114D01*
X4440783Y10688472D01*
X4436516Y10687507D01*
X4409135Y10687507D01*
X4409135Y10660075D01*
X4408170Y10655706D01*
X4405376Y10652201D01*
X4401413Y10650169D01*
X4396943Y10650118D01*
X4390948Y10651337D01*
X4380484Y10651744D01*
X4366310Y10650118D01*
X4362704Y10651134D01*
X4359706Y10653369D01*
X4357776Y10656570D01*
X4357065Y10660227D01*
X4357065Y10687507D01*
X4329633Y10687507D01*
X4326026Y10688167D01*
X4322876Y10690098D01*
X4320641Y10692942D01*
X4319524Y10696448D01*
X4319778Y10700105D01*
X4320489Y10703102D01*
X4321352Y10713567D01*
X4321149Y10715701D01*
X4321759Y10720019D01*
X4324096Y10723727D01*
X4328566Y10728147D01*
X4334764Y10735818D01*
X4338269Y10738612D01*
X4342638Y10739577D01*
X4357065Y10739577D01*
X4357065Y10773206D01*
X4355439Y10772394D01*
X4351477Y10771428D01*
X4347464Y10772089D01*
X4344009Y10774273D01*
X4341723Y10777626D01*
X4340910Y10781588D01*
X4340910Y10917326D01*
X4341368Y10920374D01*
X4342739Y10923168D01*
X4348835Y10931804D01*
X4352950Y10940745D01*
X4355490Y10950194D01*
X4356354Y10959998D01*
X4355490Y10969802D01*
X4352950Y10979302D01*
X4348835Y10988192D01*
X4343196Y10996218D01*
X4336237Y11003178D01*
X4328210Y11008817D01*
X4319270Y11012982D01*
X4309770Y11015522D01*
X4300016Y11016386D01*
X4290212Y11015522D01*
X4280712Y11012982D01*
X4271822Y11008817D01*
X4263796Y11003229D01*
X4255922Y10995202D01*
X4252518Y10992916D01*
X4248505Y10992154D01*
X4244492Y10993069D01*
X4241190Y10995456D01*
X4229912Y11007801D01*
X4217416Y11018570D01*
X4203801Y11027918D01*
X4189171Y11035639D01*
X4173778Y11041634D01*
X4157827Y11045799D01*
X4141470Y11048136D01*
X4126179Y11048593D01*
X4122369Y11049457D01*
X4119168Y11051692D01*
X4117035Y11054994D01*
X4116324Y11058855D01*
X4117136Y11062665D01*
X4119321Y11065916D01*
X4649470Y11596116D01*
X4652924Y11598402D01*
X4656988Y11599062D01*
X4661001Y11598097D01*
X4664303Y11595608D01*
X4666335Y11592001D01*
X4669637Y11581638D01*
X4674768Y11571224D01*
X4681474Y11561724D01*
X4689500Y11553342D01*
X4698746Y11546332D01*
X4708956Y11540794D01*
X4719878Y11536832D01*
X4731308Y11534648D01*
X4742891Y11534190D01*
X4754422Y11535511D01*
X4765649Y11538610D01*
X4776266Y11543334D01*
X4785969Y11549684D01*
X4793691Y11556542D01*
X4796840Y11558422D01*
X4800447Y11559082D01*
X4804714Y11559082D01*
X4808626Y11558320D01*
X4811877Y11556136D01*
X4883861Y11484152D01*
X4887315Y11481003D01*
X4890820Y11478310D01*
X4894580Y11475923D01*
X4898491Y11473891D01*
X4902606Y11472164D01*
X4906822Y11470843D01*
X4911191Y11469878D01*
X4915560Y11469319D01*
X4920234Y11469116D01*
X4945837Y11469116D01*
X4948986Y11468608D01*
X4951780Y11467185D01*
X4954016Y11464950D01*
X4962042Y11454079D01*
X4971542Y11444274D01*
X4976672Y11440261D01*
X4979314Y11437061D01*
X4980482Y11433048D01*
X4979974Y11428933D01*
X4977790Y11425377D01*
X4974437Y11422989D01*
X4970373Y11422126D01*
X4964379Y11422126D01*
X4958029Y11421414D01*
X4952593Y11419484D01*
X4947666Y11416436D01*
X4943602Y11412321D01*
X4940503Y11407444D01*
X4938623Y11401958D01*
X4937912Y11395659D01*
X4937912Y11364468D01*
X4995570Y11364468D01*
X4995570Y11413236D01*
X4996230Y11416893D01*
X4998161Y11420094D01*
X5001107Y11422329D01*
X5004714Y11423345D01*
X5008372Y11423040D01*
X5019649Y11419992D01*
X5033162Y11418163D01*
X5046827Y11418163D01*
X5060340Y11419992D01*
X5071618Y11423040D01*
X5075326Y11423345D01*
X5078882Y11422329D01*
X5081828Y11420094D01*
X5083759Y11416893D01*
X5084470Y11413236D01*
X5084470Y11364468D01*
X5133340Y11364468D01*
X5137048Y11363756D01*
X5140248Y11361724D01*
X5142534Y11358676D01*
X5143500Y11355019D01*
X5143042Y11351310D01*
X5140706Y11343690D01*
X5138420Y11330228D01*
X5137962Y11316614D01*
X5139334Y11303050D01*
X5142636Y11289385D01*
X5143347Y11285524D01*
X5142484Y11281664D01*
X5140299Y11278463D01*
X5136997Y11276330D01*
X5133187Y11275568D01*
X5084470Y11275568D01*
X5084470Y11217910D01*
X5115610Y11217910D01*
X5121960Y11218621D01*
X5127396Y11220500D01*
X5132324Y11223599D01*
X5136388Y11227714D01*
X5139486Y11232591D01*
X5141417Y11238077D01*
X5142128Y11244376D01*
X5142128Y11250218D01*
X5142992Y11254333D01*
X5145430Y11257788D01*
X5149088Y11259870D01*
X5153304Y11260328D01*
X5157317Y11259058D01*
X5160467Y11256264D01*
X5162042Y11254079D01*
X5171541Y11244275D01*
X5182209Y11235842D01*
X5193944Y11228882D01*
X5206492Y11223548D01*
X5219649Y11219992D01*
X5233162Y11218164D01*
X5246827Y11218164D01*
X5260340Y11219992D01*
X5273497Y11223548D01*
X5286044Y11228882D01*
X5297779Y11235842D01*
X5308498Y11244275D01*
X5317947Y11254079D01*
X5325973Y11264950D01*
X5328208Y11267186D01*
X5331053Y11268608D01*
X5334152Y11269116D01*
X5359806Y11269116D01*
X5364480Y11269319D01*
X5368848Y11269878D01*
X5373217Y11270843D01*
X5377434Y11272164D01*
X5381548Y11273891D01*
X5385460Y11275923D01*
X5389219Y11278311D01*
X5392724Y11281003D01*
X5396179Y11284153D01*
X5453278Y11341303D01*
X5456783Y11343538D01*
X5460847Y11344249D01*
X5462930Y11344148D01*
X5474462Y11345519D01*
X5485638Y11348567D01*
X5496255Y11353342D01*
X5506008Y11359642D01*
X5514695Y11367363D01*
X5522061Y11376355D01*
X5528005Y11386312D01*
X5532374Y11397081D01*
X5535015Y11408410D01*
X5535879Y11419992D01*
X5535015Y11431574D01*
X5532374Y11442903D01*
X5528005Y11453672D01*
X5522061Y11463629D01*
X5514695Y11472621D01*
X5506008Y11480342D01*
X5496255Y11486642D01*
X5485638Y11491417D01*
X5474462Y11494465D01*
X5462930Y11495836D01*
X5451297Y11495379D01*
X5439918Y11493144D01*
X5428945Y11489232D01*
X5418785Y11483695D01*
X5409539Y11476634D01*
X5401462Y11468252D01*
X5394807Y11458752D01*
X5389626Y11448338D01*
X5386120Y11437264D01*
X5384342Y11425783D01*
X5384342Y11420551D01*
X5383580Y11416639D01*
X5381396Y11413337D01*
X5341924Y11373916D01*
X5338622Y11371681D01*
X5333898Y11370919D01*
X5330596Y11371478D01*
X5327599Y11373104D01*
X5325364Y11375593D01*
X5322163Y11380571D01*
X5313375Y11390985D01*
X5303266Y11400129D01*
X5292039Y11407851D01*
X5286146Y11410797D01*
X5282793Y11413540D01*
X5280914Y11417401D01*
X5280761Y11421719D01*
X5282387Y11425682D01*
X5285587Y11428628D01*
X5297779Y11435842D01*
X5308498Y11444274D01*
X5317947Y11454079D01*
X5326024Y11465052D01*
X5330799Y11473738D01*
X5333034Y11476532D01*
X5336133Y11478361D01*
X5339689Y11479022D01*
X5349494Y11479022D01*
X5357977Y11479834D01*
X5365648Y11482171D01*
X5372709Y11485930D01*
X5379262Y11491315D01*
X5438597Y11550904D01*
X5443931Y11557406D01*
X5447690Y11564467D01*
X5450027Y11572138D01*
X5450840Y11580622D01*
X5450840Y11939524D01*
X5450027Y11948007D01*
X5447690Y11955678D01*
X5443931Y11962739D01*
X5438495Y11969292D01*
X5249214Y12158573D01*
X5242661Y12164009D01*
X5235600Y12167768D01*
X5227929Y12170105D01*
X5219446Y12170918D01*
X4770628Y12170918D01*
X4762144Y12170105D01*
X4754473Y12167768D01*
X4747412Y12164009D01*
X4740859Y12158573D01*
X4286250Y11704015D01*
X4282948Y11701780D01*
X4279087Y11701018D01*
X4049674Y11701018D01*
X4045610Y11701881D01*
X4042257Y11704320D01*
X4040073Y11707876D01*
X4039565Y11711990D01*
X4040733Y11716004D01*
X4042867Y11719915D01*
X4045102Y11727332D01*
X4045864Y11735003D01*
X4045102Y11742674D01*
X4042867Y11750040D01*
X4040073Y11755221D01*
X4039006Y11758371D01*
X4039006Y11761673D01*
X4040073Y11764822D01*
X4042867Y11769953D01*
X4045102Y11777319D01*
X4045864Y11785041D01*
X4045102Y11792712D01*
X4042867Y11800078D01*
X4040124Y11805208D01*
X4039057Y11808358D01*
X4039057Y11811660D01*
X4040124Y11814810D01*
X4042867Y11819940D01*
X4045102Y11827306D01*
X4045864Y11834977D01*
X4045102Y11842699D01*
X4042867Y11850065D01*
X4040073Y11855196D01*
X4039006Y11858345D01*
X4039006Y11861647D01*
X4040073Y11864797D01*
X4042867Y11869978D01*
X4045102Y11877344D01*
X4045864Y11885015D01*
X4045102Y11892686D01*
X4042867Y11900103D01*
X4040124Y11905234D01*
X4039057Y11908332D01*
X4039057Y11911685D01*
X4040124Y11914784D01*
X4042867Y11919915D01*
X4044950Y11926874D01*
X4046931Y11930532D01*
X4050233Y11933072D01*
X4054246Y11934088D01*
X4059478Y11934291D01*
X4063847Y11934901D01*
X4068165Y11935866D01*
X4072432Y11937187D01*
X4076496Y11938863D01*
X4080459Y11940946D01*
X4084218Y11943334D01*
X4087723Y11946026D01*
X4091178Y11949176D01*
X4145686Y12003684D01*
X4148175Y12006427D01*
X4155643Y12012472D01*
X4162653Y12020397D01*
X4168343Y12029389D01*
X4172508Y12039142D01*
X4174998Y12049404D01*
X4175861Y12059970D01*
X4174998Y12070588D01*
X4172508Y12080849D01*
X4168343Y12090603D01*
X4162653Y12099594D01*
X4156913Y12106097D01*
X4154982Y12109297D01*
X4154373Y12113056D01*
X4155135Y12116714D01*
X4160265Y12124791D01*
X4162196Y12130227D01*
X4162907Y12136577D01*
X4162907Y12149378D01*
X4129836Y12149378D01*
X4129836Y12135408D01*
X4129024Y12131395D01*
X4126687Y12128042D01*
X4123232Y12125909D01*
X4119219Y12125248D01*
X4107332Y12125807D01*
X4101541Y12125096D01*
X4097274Y12125502D01*
X4093565Y12127585D01*
X4091025Y12131040D01*
X4090162Y12135205D01*
X4090162Y12149378D01*
X4049268Y12149378D01*
X4045712Y12150039D01*
X4042613Y12151918D01*
X4040073Y12155220D01*
X4039006Y12158370D01*
X4039006Y12161672D01*
X4040073Y12164771D01*
X4042867Y12169952D01*
X4045102Y12177318D01*
X4045864Y12185040D01*
X4045305Y12190425D01*
X4045762Y12194641D01*
X4047896Y12198248D01*
X4051300Y12200737D01*
X4055414Y12201601D01*
X4090162Y12201601D01*
X4090162Y12208916D01*
X4090924Y12212828D01*
X4093108Y12216130D01*
X4096410Y12218314D01*
X4100322Y12219076D01*
X4119676Y12219076D01*
X4123588Y12218314D01*
X4126890Y12216130D01*
X4129074Y12212828D01*
X4129836Y12208916D01*
X4129836Y12201601D01*
X4162907Y12201601D01*
X4162907Y12214352D01*
X4161942Y12222175D01*
X4162298Y12226442D01*
X4164380Y12230150D01*
X4167835Y12232690D01*
X4172000Y12233605D01*
X4197959Y12233605D01*
X4202176Y12232690D01*
X4205579Y12230150D01*
X4207713Y12226442D01*
X4208068Y12222175D01*
X4207103Y12214352D01*
X4207103Y12201601D01*
X4240174Y12201601D01*
X4240174Y12208916D01*
X4240936Y12212828D01*
X4243120Y12216130D01*
X4246422Y12218314D01*
X4250334Y12219076D01*
X4269689Y12219076D01*
X4273600Y12218314D01*
X4276852Y12216130D01*
X4279087Y12212828D01*
X4279849Y12208916D01*
X4279849Y12201601D01*
X4312920Y12201601D01*
X4312920Y12214453D01*
X4312208Y12220752D01*
X4310126Y12226645D01*
X4309567Y12229998D01*
X4310126Y12233351D01*
X4312208Y12239244D01*
X4312920Y12245594D01*
X4312920Y12323470D01*
X4312208Y12329769D01*
X4310888Y12335154D01*
X4310888Y12429794D01*
X4310684Y12434417D01*
X4310126Y12438837D01*
X4309160Y12443155D01*
X4307840Y12447422D01*
X4306112Y12451537D01*
X4304080Y12455448D01*
X4301693Y12459208D01*
X4299000Y12462713D01*
X4295851Y12466167D01*
X4110685Y12651333D01*
X4107230Y12654483D01*
X4103725Y12657175D01*
X4099966Y12659563D01*
X4096004Y12661646D01*
X4091940Y12663322D01*
X4087672Y12664643D01*
X4083354Y12665608D01*
X4078935Y12666218D01*
X4074261Y12666421D01*
X3302000Y12666421D01*
X3297834Y12667284D01*
X3294379Y12669824D01*
X3292297Y12673584D01*
X3291941Y12677800D01*
X3292906Y12685623D01*
X3292906Y12698425D01*
X3259836Y12698425D01*
X3259836Y12691059D01*
X3259074Y12687198D01*
X3256889Y12683896D01*
X3253587Y12681712D01*
X3249676Y12680899D01*
X3230321Y12680899D01*
X3226409Y12681712D01*
X3223107Y12683896D01*
X3220923Y12687198D01*
X3220161Y12691059D01*
X3220161Y12698425D01*
X3187090Y12698425D01*
X3187090Y12685623D01*
X3188055Y12677800D01*
X3187700Y12673584D01*
X3185617Y12669824D01*
X3182162Y12667284D01*
X3177997Y12666421D01*
X3152038Y12666421D01*
X3147822Y12667284D01*
X3144418Y12669824D01*
X3142335Y12673584D01*
X3141929Y12677800D01*
X3142894Y12685623D01*
X3142894Y12698425D01*
X3109874Y12698425D01*
X3109874Y12691059D01*
X3109061Y12687198D01*
X3106877Y12683896D01*
X3103575Y12681712D01*
X3099714Y12680899D01*
X3080308Y12680899D01*
X3076448Y12681712D01*
X3073146Y12683896D01*
X3070910Y12687198D01*
X3070148Y12691059D01*
X3070148Y12698425D01*
X3037078Y12698425D01*
X3037078Y12685623D01*
X3038043Y12677800D01*
X3037687Y12673584D01*
X3035604Y12669824D01*
X3032150Y12667284D01*
X3027984Y12666421D01*
X2945942Y12666421D01*
X2941269Y12666218D01*
X2936900Y12665608D01*
X2932531Y12664643D01*
X2928315Y12663322D01*
X2924200Y12661646D01*
X2920288Y12659563D01*
X2916529Y12657175D01*
X2913024Y12654483D01*
X2909570Y12651333D01*
X2574239Y12316053D01*
X2571089Y12312599D01*
X2568397Y12309094D01*
X2566009Y12305334D01*
X2563977Y12301372D01*
X2562250Y12297308D01*
X2560929Y12293041D01*
X2559964Y12288723D01*
X2559405Y12284303D01*
X2559202Y12279680D01*
X2559304Y11435689D01*
X2560878Y11426850D01*
X2563977Y11418316D01*
X2566009Y11414455D01*
X2568295Y11410797D01*
X2571089Y11407190D01*
X2574188Y11403838D01*
X2720492Y11257534D01*
X2723896Y11254384D01*
X2727452Y11251692D01*
X2731160Y11249304D01*
X2735072Y11247272D01*
X2738983Y11245697D01*
X2742031Y11243767D01*
X2744216Y11240871D01*
X2745232Y11237417D01*
X2745943Y11231016D01*
X2746552Y11229340D01*
X2747111Y11225530D01*
X2746197Y11221770D01*
X2743962Y11218621D01*
X2740710Y11216538D01*
X2736951Y11215776D01*
X2020925Y11215776D01*
X2016760Y11216690D01*
X2013305Y11219230D01*
X2011222Y11222939D01*
X2010867Y11227206D01*
X2012238Y11231219D01*
X2015185Y11234318D01*
X2023262Y11239906D01*
X2033371Y11249050D01*
X2042210Y11259464D01*
X2049525Y11270945D01*
X2055266Y11283340D01*
X2059330Y11296345D01*
X2061565Y11309807D01*
X2062022Y11323421D01*
X2060651Y11336985D01*
X2057501Y11350244D01*
X2052624Y11362994D01*
X2046071Y11374932D01*
X2037943Y11385905D01*
X2028494Y11395710D01*
X2017775Y11404193D01*
X2005584Y11411407D01*
X2002383Y11414353D01*
X2000757Y11418316D01*
X2000910Y11422634D01*
X2002789Y11426494D01*
X2006142Y11429187D01*
X2012035Y11432184D01*
X2023262Y11439906D01*
X2033371Y11449050D01*
X2042210Y11459464D01*
X2045309Y11464290D01*
X2047544Y11466830D01*
X2050542Y11468455D01*
X2053843Y11469014D01*
X2064359Y11469217D01*
X2068779Y11469776D01*
X2073097Y11470741D01*
X2077364Y11472062D01*
X2081428Y11473789D01*
X2085390Y11475821D01*
X2089150Y11478209D01*
X2092655Y11480901D01*
X2096109Y11484051D01*
X2225852Y11613794D01*
X2229002Y11617248D01*
X2231694Y11620754D01*
X2234082Y11624513D01*
X2236114Y11628475D01*
X2237841Y11632539D01*
X2239162Y11636806D01*
X2240127Y11641124D01*
X2240686Y11645544D01*
X2240889Y11650167D01*
X2240889Y12254585D01*
X2241651Y12258497D01*
X2243886Y12261748D01*
X2495296Y12513208D01*
X2498293Y12515291D01*
X2501849Y12516154D01*
X2505456Y12515748D01*
X2508707Y12514072D01*
X2518765Y12506299D01*
X2528976Y12500762D01*
X2539898Y12496850D01*
X2551328Y12494615D01*
X2562910Y12494158D01*
X2574442Y12495530D01*
X2585669Y12498578D01*
X2596286Y12503353D01*
X2605989Y12509652D01*
X2614676Y12517374D01*
X2622092Y12526365D01*
X2628036Y12536322D01*
X2632354Y12547092D01*
X2634996Y12558420D01*
X2635910Y12570002D01*
X2634996Y12581585D01*
X2632354Y12592913D01*
X2628036Y12603683D01*
X2622092Y12613640D01*
X2614676Y12622631D01*
X2605989Y12630353D01*
X2600807Y12633706D01*
X2597759Y12636804D01*
X2596235Y12640868D01*
X2596591Y12645186D01*
X2598674Y12648946D01*
X2602179Y12651536D01*
X2606243Y12653365D01*
X2615996Y12659664D01*
X2624683Y12667386D01*
X2632049Y12676378D01*
X2637993Y12686334D01*
X2642362Y12697104D01*
X2645003Y12708432D01*
X2645867Y12720015D01*
X2645003Y12731597D01*
X2642362Y12742926D01*
X2637993Y12753695D01*
X2632049Y12763652D01*
X2624683Y12772644D01*
X2615996Y12780365D01*
X2606243Y12786664D01*
X2595626Y12791440D01*
X2584450Y12794488D01*
X2572918Y12795859D01*
X2561285Y12795402D01*
X2549906Y12793167D01*
X2538933Y12789255D01*
X2528773Y12783718D01*
X2519527Y12776657D01*
X2517038Y12774066D01*
X2513685Y12771780D01*
X2509723Y12770967D01*
X2490165Y12770967D01*
X2485542Y12770764D01*
X2481122Y12770205D01*
X2476804Y12769240D01*
X2472537Y12767919D01*
X2468473Y12766192D01*
X2464511Y12764160D01*
X2460752Y12761772D01*
X2457246Y12759080D01*
X2453792Y12755930D01*
X1724101Y12026239D01*
X1720951Y12022785D01*
X1718259Y12019280D01*
X1715871Y12015520D01*
X1713839Y12011558D01*
X1712417Y12008154D01*
X1710029Y12004649D01*
X1706422Y12002465D01*
X1702206Y12001906D01*
X1698142Y12003125D01*
X1694942Y12005868D01*
X1693113Y12009729D01*
X1692351Y12013082D01*
X1687982Y12023852D01*
X1682089Y12033859D01*
X1674672Y12042800D01*
X1665986Y12050572D01*
X1656232Y12056872D01*
X1645666Y12061596D01*
X1634439Y12064695D01*
X1622907Y12066016D01*
X1611325Y12065609D01*
X1599895Y12063374D01*
X1588973Y12059462D01*
X1578762Y12053874D01*
X1569516Y12046864D01*
X1561439Y12038482D01*
X1554784Y12028982D01*
X1549603Y12018568D01*
X1546098Y12007494D01*
X1544370Y11996013D01*
X1544370Y11984380D01*
X1546098Y11972899D01*
X1549603Y11961825D01*
X1554784Y11951411D01*
X1561439Y11941911D01*
X1566265Y11936933D01*
X1568348Y11933682D01*
X1569110Y11929922D01*
X1569110Y11660225D01*
X1569313Y11655450D01*
X1569872Y11651183D01*
X1570837Y11646712D01*
X1572158Y11642598D01*
X1573834Y11638534D01*
X1578356Y11630710D01*
X1584350Y11623548D01*
X1657553Y11550345D01*
X1659534Y11547551D01*
X1660448Y11544249D01*
X1660245Y11540794D01*
X1659331Y11536984D01*
X1657959Y11523421D01*
X1658416Y11509806D01*
X1660702Y11496344D01*
X1664716Y11483340D01*
X1670456Y11470944D01*
X1677822Y11459464D01*
X1686610Y11449050D01*
X1694078Y11442293D01*
X1696364Y11439296D01*
X1697380Y11435689D01*
X1697024Y11431930D01*
X1695297Y11428577D01*
X1692503Y11426088D01*
X1688439Y11423599D01*
X1676501Y11414252D01*
X1665732Y11403482D01*
X1656384Y11391544D01*
X1648510Y11378539D01*
X1642262Y11364671D01*
X1637741Y11350142D01*
X1634998Y11335207D01*
X1634083Y11319713D01*
X1634083Y11160150D01*
X1634286Y11152378D01*
X1634998Y11144808D01*
X1636115Y11137290D01*
X1637741Y11129873D01*
X1639773Y11122558D01*
X1642262Y11115344D01*
X1645157Y11108334D01*
X1648460Y11101476D01*
X1652219Y11094872D01*
X1656334Y11088471D01*
X1660855Y11082375D01*
X1665732Y11076533D01*
X1671066Y11070844D01*
X1740916Y11000994D01*
X1746605Y10995660D01*
X1752447Y10990783D01*
X1758543Y10986262D01*
X1764944Y10982147D01*
X1771548Y10978388D01*
X1778406Y10975086D01*
X1785416Y10972190D01*
X1792630Y10969701D01*
X1799945Y10967669D01*
X1807362Y10966043D01*
X1814880Y10964926D01*
X1822450Y10964214D01*
X1830222Y10963960D01*
X2138426Y10963960D01*
X2142337Y10963198D01*
X2145588Y10961014D01*
X2147824Y10957712D01*
X2148586Y10953800D01*
X2148586Y10800334D01*
X2149500Y10784840D01*
X2152243Y10769854D01*
X2156764Y10755376D01*
X2163013Y10741507D01*
X2170887Y10728502D01*
X2180285Y10716514D01*
X2188616Y10708132D01*
X2191054Y10704322D01*
X2191715Y10702391D01*
X2194814Y10697514D01*
X2198878Y10693400D01*
X2203805Y10690301D01*
X2209190Y10688421D01*
X2216708Y10687659D01*
X2219858Y10686796D01*
X2229866Y10682274D01*
X2244344Y10677753D01*
X2259330Y10675010D01*
X2274468Y10674096D01*
X2289657Y10675010D01*
X2304643Y10677753D01*
X2319121Y10682274D01*
X2329129Y10686796D01*
X2332278Y10687659D01*
X2339797Y10688421D01*
X2345232Y10690301D01*
X2350109Y10693400D01*
X2354224Y10697514D01*
X2357272Y10702391D01*
X2358948Y10706404D01*
X2360371Y10708182D01*
X2368702Y10716514D01*
X2378100Y10728502D01*
X2385974Y10741507D01*
X2392222Y10755376D01*
X2396744Y10769854D01*
X2399487Y10784840D01*
X2400401Y10800334D01*
X2400401Y10953800D01*
X2401163Y10957712D01*
X2403398Y10961014D01*
X2406650Y10963198D01*
X2410561Y10963960D01*
X2687574Y10963960D01*
X2691790Y10963097D01*
X2695244Y10960506D01*
X2697276Y10956747D01*
X2697632Y10952480D01*
X2696159Y10948416D01*
X2694838Y10946282D01*
X2692908Y10940796D01*
X2692196Y10934496D01*
X2692196Y10913922D01*
X2774238Y10913922D01*
X2774238Y10953800D01*
X2775051Y10957712D01*
X2777236Y10961014D01*
X2780538Y10963198D01*
X2784398Y10963960D01*
X2901797Y10963960D01*
X2905658Y10963198D01*
X2908960Y10961014D01*
X2911195Y10957712D01*
X2911957Y10953800D01*
X2911957Y10913922D01*
X2993999Y10913922D01*
X2993999Y10934496D01*
X2993288Y10940796D01*
X2991408Y10946282D01*
X2990037Y10948416D01*
X2988564Y10952480D01*
X2988919Y10956747D01*
X2991002Y10960506D01*
X2994456Y10963097D01*
X2998622Y10963960D01*
X3965041Y10963960D01*
X3972763Y10964214D01*
X3982161Y10965180D01*
X3986225Y10964773D01*
X3989781Y10962792D01*
X3992270Y10959592D01*
X3993337Y10955680D01*
X3992778Y10951667D01*
X3990340Y10944809D01*
X3986580Y10928705D01*
X3984701Y10912297D01*
X3984701Y10895787D01*
X3986580Y10879378D01*
X3990340Y10863326D01*
X3995877Y10847730D01*
X4003141Y10832947D01*
X4012082Y10819028D01*
X4022547Y10806277D01*
X4034383Y10794746D01*
X4047439Y10784636D01*
X4061612Y10776153D01*
X4076649Y10769295D01*
X4092346Y10764164D01*
X4108500Y10760913D01*
X4124960Y10759490D01*
X4141470Y10759948D01*
X4157827Y10762284D01*
X4173778Y10766501D01*
X4189171Y10772495D01*
X4201668Y10779099D01*
X4205630Y10780217D01*
X4209745Y10779709D01*
X4213250Y10777575D01*
X4215688Y10774222D01*
X4216552Y10770209D01*
X4215790Y10766145D01*
X4213453Y10762742D01*
X4207256Y10756798D01*
X4200956Y10748416D01*
X4196080Y10739120D01*
X4192727Y10729163D01*
X4191050Y10718190D01*
X4190136Y10713974D01*
X4187545Y10710519D01*
X4183735Y10708436D01*
X4179417Y10708132D01*
X4175404Y10709656D01*
X4165142Y10716310D01*
X4154576Y10721035D01*
X4143451Y10724083D01*
X4131970Y10725404D01*
X4120438Y10724946D01*
X4109110Y10722762D01*
X4098239Y10718850D01*
X4088129Y10713364D01*
X4078935Y10706354D01*
X4070908Y10698022D01*
X4064304Y10688574D01*
X4059174Y10678261D01*
X4055668Y10667238D01*
X4053890Y10655808D01*
X4053890Y10644276D01*
X4055668Y10632897D01*
X4060850Y10616641D01*
X4060240Y10612577D01*
X4058056Y10609072D01*
X4054703Y10606735D01*
X4050690Y10605922D01*
X3893210Y10605922D01*
X3889349Y10606684D01*
X3886047Y10608868D01*
X3783888Y10711027D01*
X3781704Y10714329D01*
X3780891Y10718241D01*
X3780891Y10759440D01*
X3780180Y10765739D01*
X3778300Y10771225D01*
X3775201Y10776102D01*
X3771137Y10780217D01*
X3766210Y10783265D01*
X3760774Y10785195D01*
X3754424Y10785906D01*
X3665575Y10785906D01*
X3659276Y10785195D01*
X3653790Y10783265D01*
X3648913Y10780217D01*
X3642258Y10773156D01*
X3639261Y10771479D01*
X3635908Y10770920D01*
X3590188Y10770920D01*
X3586276Y10771682D01*
X3582974Y10773918D01*
X3580790Y10777169D01*
X3580028Y10781080D01*
X3580028Y10829493D01*
X3579317Y10835792D01*
X3577386Y10841278D01*
X3574287Y10846155D01*
X3570224Y10850270D01*
X3565296Y10853318D01*
X3559860Y10855248D01*
X3553510Y10855960D01*
X3320694Y10855960D01*
X3314344Y10855248D01*
X3308908Y10853318D01*
X3303981Y10850270D01*
X3299917Y10846155D01*
X3296818Y10841278D01*
X3294887Y10835792D01*
X3294176Y10829493D01*
X3294176Y10711129D01*
X3293414Y10707217D01*
X3291230Y10703915D01*
X3287928Y10701731D01*
X3284016Y10700969D01*
X3003499Y10700969D01*
X2999841Y10701629D01*
X2996692Y10703560D01*
X2994456Y10706455D01*
X2993288Y10710824D01*
X2991408Y10716260D01*
X2988310Y10721187D01*
X2984195Y10725251D01*
X2979318Y10728350D01*
X2973832Y10730230D01*
X2967532Y10730941D01*
X2926080Y10730941D01*
X2922168Y10731754D01*
X2918866Y10733938D01*
X2916682Y10737240D01*
X2915920Y10741101D01*
X2915920Y10759236D01*
X2915056Y10770920D01*
X2912516Y10781944D01*
X2911195Y10785297D01*
X2910484Y10789158D01*
X2911297Y10792968D01*
X2913532Y10796219D01*
X2916834Y10798403D01*
X2920644Y10799165D01*
X2967532Y10799165D01*
X2973832Y10799876D01*
X2979318Y10801756D01*
X2984195Y10804855D01*
X2988310Y10808919D01*
X2991408Y10813846D01*
X2993288Y10819282D01*
X2993999Y10825632D01*
X2993999Y10846206D01*
X2911957Y10846206D01*
X2911957Y10819485D01*
X2911195Y10815675D01*
X2909112Y10812424D01*
X2905963Y10810189D01*
X2902204Y10809325D01*
X2898343Y10809884D01*
X2895041Y10811865D01*
X2885998Y10819942D01*
X2876245Y10826242D01*
X2865577Y10831017D01*
X2856687Y10833658D01*
X2845460Y10835284D01*
X2843123Y10835436D01*
X2834132Y10835284D01*
X2831490Y10835030D01*
X2822956Y10833557D01*
X2820060Y10832846D01*
X2812135Y10830204D01*
X2809087Y10828934D01*
X2801924Y10825276D01*
X2798826Y10823346D01*
X2790952Y10817504D01*
X2787650Y10815624D01*
X2783840Y10815116D01*
X2780131Y10816031D01*
X2777032Y10818266D01*
X2774950Y10821517D01*
X2774238Y10825276D01*
X2774238Y10846206D01*
X2692196Y10846206D01*
X2692196Y10825632D01*
X2692908Y10819282D01*
X2694838Y10813846D01*
X2697886Y10808919D01*
X2702001Y10804855D01*
X2706878Y10801756D01*
X2712364Y10799876D01*
X2718663Y10799165D01*
X2759202Y10799165D01*
X2762961Y10798403D01*
X2766212Y10796320D01*
X2768447Y10793171D01*
X2769311Y10789412D01*
X2768752Y10785602D01*
X2767482Y10781944D01*
X2766110Y10776915D01*
X2764942Y10770870D01*
X2764332Y10765434D01*
X2764078Y10759389D01*
X2764078Y10741101D01*
X2763316Y10737240D01*
X2761132Y10733938D01*
X2757830Y10731754D01*
X2753918Y10730941D01*
X2718663Y10730941D01*
X2712364Y10730230D01*
X2706878Y10728350D01*
X2702001Y10725251D01*
X2697886Y10721187D01*
X2694838Y10716260D01*
X2692908Y10710824D01*
X2692196Y10704474D01*
X2692196Y10595610D01*
X2692908Y10589310D01*
X2694838Y10583824D01*
X2697886Y10578947D01*
X2702001Y10574832D01*
X2706878Y10571784D01*
X2712364Y10569854D01*
X2718663Y10569143D01*
X2967532Y10569143D01*
X2973832Y10569854D01*
X2979318Y10571784D01*
X2984195Y10574832D01*
X2988310Y10578947D01*
X2991408Y10583824D01*
X2994456Y10593628D01*
X2996692Y10596575D01*
X2999841Y10598454D01*
X3003499Y10599166D01*
X3284016Y10599166D01*
X3287928Y10598353D01*
X3291230Y10596168D01*
X3293414Y10592866D01*
X3294176Y10589006D01*
X3294176Y10470642D01*
X3294887Y10464292D01*
X3296818Y10458856D01*
X3299917Y10453928D01*
X3303981Y10449864D01*
X3308908Y10446766D01*
X3314344Y10444835D01*
X3320694Y10444124D01*
X3553510Y10444124D01*
X3559860Y10444835D01*
X3565296Y10446766D01*
X3570224Y10449864D01*
X3574287Y10453928D01*
X3577386Y10458856D01*
X3579317Y10464292D01*
X3580028Y10470642D01*
X3580028Y10658957D01*
X3580790Y10662818D01*
X3582974Y10666120D01*
X3586276Y10668304D01*
X3590188Y10669117D01*
X3635908Y10669117D01*
X3639261Y10668508D01*
X3642258Y10666882D01*
X3644798Y10663885D01*
X3648913Y10659770D01*
X3650792Y10658602D01*
X3653739Y10655808D01*
X3655314Y10652048D01*
X3655314Y10647984D01*
X3653739Y10644225D01*
X3650792Y10641380D01*
X3648913Y10640212D01*
X3644798Y10636148D01*
X3641699Y10631220D01*
X3639820Y10625785D01*
X3639108Y10619435D01*
X3639108Y10606379D01*
X3681171Y10606379D01*
X3681171Y10643920D01*
X3681933Y10647832D01*
X3684117Y10651134D01*
X3687419Y10653318D01*
X3691331Y10654080D01*
X3706774Y10654080D01*
X3710686Y10653318D01*
X3713987Y10651134D01*
X3735882Y10629188D01*
X3738067Y10625937D01*
X3738879Y10622026D01*
X3738879Y10606379D01*
X3754526Y10606379D01*
X3758387Y10605617D01*
X3761689Y10603382D01*
X3794099Y10571022D01*
X3795776Y10568482D01*
X3798265Y10566857D01*
X3838803Y10526318D01*
X3845864Y10521035D01*
X3853434Y10517225D01*
X3861562Y10514939D01*
X3870451Y10514076D01*
X4018330Y10514076D01*
X4022242Y10513314D01*
X4025544Y10511078D01*
X4027728Y10507776D01*
X4028490Y10503865D01*
X4027678Y10499953D01*
X4025442Y10496651D01*
X4022547Y10493857D01*
X4012082Y10481056D01*
X4003141Y10467187D01*
X3995877Y10452354D01*
X3990340Y10436809D01*
X3986580Y10420705D01*
X3984701Y10404297D01*
X3984701Y10387787D01*
X3986580Y10371378D01*
X3990340Y10355326D01*
X3995877Y10339730D01*
X4003141Y10324947D01*
X4012082Y10311028D01*
X4022547Y10298277D01*
X4034383Y10286746D01*
X4047439Y10276636D01*
X4061612Y10268153D01*
X4076649Y10261295D01*
X4092346Y10256164D01*
X4108500Y10252913D01*
G37*
G36*
X1556258Y10257028D02*
G01*
X1562862Y10260482D01*
X1584756Y10274249D01*
X1605534Y10289590D01*
X1625142Y10306507D01*
X1643430Y10324795D01*
X1660347Y10344404D01*
X1675688Y10365181D01*
X1689455Y10387076D01*
X1692910Y10393680D01*
X1556258Y10393680D01*
G37*
G36*
X5443728Y10257028D02*
G01*
X5443728Y10393680D01*
X5307076Y10393680D01*
X5310530Y10387076D01*
X5324297Y10365181D01*
X5339638Y10344404D01*
X5356555Y10324795D01*
X5374843Y10306507D01*
X5394452Y10289590D01*
X5415229Y10274249D01*
X5437124Y10260482D01*
G37*
G36*
X5776468Y10257028D02*
G01*
X5783072Y10260482D01*
X5804966Y10274249D01*
X5825744Y10289590D01*
X5845352Y10306507D01*
X5863640Y10324795D01*
X5880557Y10344404D01*
X5895898Y10365181D01*
X5909665Y10387076D01*
X5913120Y10393680D01*
X5776468Y10393680D01*
G37*
G36*
X1223518Y10257028D02*
G01*
X1223518Y10393680D01*
X1086866Y10393680D01*
X1090320Y10387076D01*
X1104087Y10365181D01*
X1119428Y10344404D01*
X1136345Y10324795D01*
X1154633Y10306507D01*
X1174242Y10289590D01*
X1195019Y10274249D01*
X1216914Y10260482D01*
G37*
G36*
X2718663Y10339171D02*
G01*
X2967532Y10339171D01*
X2973832Y10339882D01*
X2979318Y10341762D01*
X2984195Y10344861D01*
X2988310Y10348925D01*
X2991408Y10353852D01*
X2993288Y10359288D01*
X2993999Y10365638D01*
X2993999Y10474502D01*
X2993288Y10480802D01*
X2991408Y10486288D01*
X2988310Y10491165D01*
X2984195Y10495280D01*
X2979318Y10498328D01*
X2973832Y10500258D01*
X2967532Y10500969D01*
X2740609Y10500969D01*
X2736697Y10501731D01*
X2733395Y10503916D01*
X2623820Y10613542D01*
X2621838Y10616336D01*
X2620873Y10619587D01*
X2620213Y10625785D01*
X2618282Y10631220D01*
X2615184Y10636148D01*
X2611120Y10640212D01*
X2609240Y10641380D01*
X2606294Y10644225D01*
X2604668Y10647984D01*
X2604668Y10652048D01*
X2606294Y10655808D01*
X2609240Y10658602D01*
X2611120Y10659770D01*
X2615184Y10663885D01*
X2618282Y10668762D01*
X2620213Y10674248D01*
X2620924Y10680547D01*
X2620924Y10693654D01*
X2578862Y10693654D01*
X2578862Y10663885D01*
X2577846Y10659567D01*
X2575102Y10656011D01*
X2571089Y10654030D01*
X2566670Y10653928D01*
X2561336Y10655046D01*
X2552750Y10655858D01*
X2531262Y10655909D01*
X2527401Y10656671D01*
X2524099Y10658906D01*
X2521915Y10662208D01*
X2521153Y10666069D01*
X2521153Y10693654D01*
X2479090Y10693654D01*
X2479090Y10680547D01*
X2479802Y10674248D01*
X2481478Y10669422D01*
X2482037Y10665612D01*
X2481173Y10661853D01*
X2478938Y10658703D01*
X2475687Y10656620D01*
X2471928Y10655909D01*
X2334006Y10655858D01*
X2325166Y10655046D01*
X2322779Y10654639D01*
X2314143Y10652455D01*
X2311806Y10651693D01*
X2301392Y10647222D01*
X2291740Y10641177D01*
X2284933Y10635538D01*
X2247138Y10597794D01*
X2243836Y10595610D01*
X2239924Y10594797D01*
X2200656Y10594797D01*
X2194356Y10594086D01*
X2188870Y10592206D01*
X2183993Y10589107D01*
X2179878Y10585043D01*
X2176830Y10580116D01*
X2174900Y10574680D01*
X2174189Y10568330D01*
X2174189Y10431780D01*
X2174900Y10425480D01*
X2176830Y10419994D01*
X2179878Y10415117D01*
X2183993Y10411002D01*
X2188870Y10407904D01*
X2194356Y10406024D01*
X2200656Y10405313D01*
X2312771Y10405313D01*
X2319121Y10406024D01*
X2324557Y10407904D01*
X2329434Y10411002D01*
X2333548Y10415117D01*
X2336647Y10419994D01*
X2338527Y10425480D01*
X2339238Y10431780D01*
X2339238Y10470997D01*
X2340051Y10474909D01*
X2342235Y10478211D01*
X2365146Y10501122D01*
X2368448Y10503306D01*
X2372309Y10504119D01*
X2514346Y10504119D01*
X2518257Y10503306D01*
X2521559Y10501122D01*
X2658160Y10364571D01*
X2665018Y10358882D01*
X2667050Y10357459D01*
X2674670Y10352887D01*
X2676855Y10351770D01*
X2685084Y10348366D01*
X2687370Y10347604D01*
X2695854Y10345470D01*
X2700223Y10344912D01*
X2704236Y10343438D01*
X2706878Y10341762D01*
X2712364Y10339882D01*
G37*
G36*
X2007412Y10405313D02*
G01*
X2119528Y10405313D01*
X2125827Y10406024D01*
X2131314Y10407904D01*
X2136190Y10411002D01*
X2140305Y10415117D01*
X2143353Y10419994D01*
X2145284Y10425480D01*
X2145995Y10431780D01*
X2145995Y10568330D01*
X2145284Y10574680D01*
X2143353Y10580116D01*
X2140305Y10585043D01*
X2136190Y10589107D01*
X2131314Y10592206D01*
X2125827Y10594086D01*
X2119528Y10594797D01*
X2080260Y10594797D01*
X2076399Y10595610D01*
X2073097Y10597794D01*
X2064359Y10606481D01*
X2062175Y10609783D01*
X2061413Y10613694D01*
X2061413Y10689488D01*
X2062175Y10693400D01*
X2065223Y10697514D01*
X2068271Y10702391D01*
X2070201Y10707878D01*
X2070912Y10714177D01*
X2070912Y10885830D01*
X2070201Y10892180D01*
X2068271Y10897616D01*
X2065223Y10902543D01*
X2061108Y10906607D01*
X2056231Y10909706D01*
X2050745Y10911586D01*
X2044446Y10912297D01*
X1926539Y10912297D01*
X1920239Y10911586D01*
X1914753Y10909706D01*
X1909876Y10906607D01*
X1905762Y10902543D01*
X1902714Y10897616D01*
X1900783Y10892180D01*
X1900072Y10885830D01*
X1900072Y10714177D01*
X1900783Y10707878D01*
X1902714Y10702391D01*
X1905762Y10697514D01*
X1908810Y10693349D01*
X1909572Y10689488D01*
X1909622Y10575391D01*
X1910486Y10566501D01*
X1910892Y10564114D01*
X1913026Y10555478D01*
X1913788Y10553141D01*
X1917192Y10544911D01*
X1918309Y10542727D01*
X1922881Y10535107D01*
X1924304Y10533126D01*
X1929993Y10526268D01*
X1977948Y10478211D01*
X1980133Y10474909D01*
X1980946Y10471048D01*
X1980946Y10431780D01*
X1981657Y10425480D01*
X1983536Y10419994D01*
X1986635Y10415117D01*
X1990750Y10411002D01*
X1995627Y10407904D01*
X2001062Y10406024D01*
G37*
G36*
X3738879Y10514126D02*
G01*
X3754424Y10514126D01*
X3760774Y10514838D01*
X3766210Y10516717D01*
X3771137Y10519816D01*
X3775201Y10523880D01*
X3778300Y10528808D01*
X3780180Y10534243D01*
X3780891Y10540593D01*
X3780891Y10553649D01*
X3738879Y10553649D01*
G37*
G36*
X3665575Y10514126D02*
G01*
X3681171Y10514126D01*
X3681171Y10553649D01*
X3639108Y10553649D01*
X3639108Y10540593D01*
X3639820Y10534243D01*
X3641699Y10528808D01*
X3644798Y10523880D01*
X3648913Y10519816D01*
X3653790Y10516717D01*
X3659276Y10514838D01*
G37*
G36*
X5776468Y10726420D02*
G01*
X5913120Y10726420D01*
X5909665Y10733024D01*
X5895898Y10754918D01*
X5880557Y10775696D01*
X5863640Y10795304D01*
X5845352Y10813592D01*
X5825744Y10830509D01*
X5804966Y10845850D01*
X5783072Y10859617D01*
X5776468Y10863072D01*
G37*
G36*
X1556258Y10726420D02*
G01*
X1692910Y10726420D01*
X1689455Y10733024D01*
X1675688Y10754918D01*
X1660347Y10775696D01*
X1643430Y10795304D01*
X1625142Y10813592D01*
X1605534Y10830509D01*
X1584756Y10845850D01*
X1562862Y10859617D01*
X1556258Y10863072D01*
G37*
G36*
X1086866Y10726420D02*
G01*
X1223518Y10726420D01*
X1223518Y10863072D01*
X1216914Y10859617D01*
X1195019Y10845850D01*
X1174242Y10830509D01*
X1154633Y10813592D01*
X1136345Y10795304D01*
X1119428Y10775696D01*
X1104087Y10754918D01*
X1090320Y10733024D01*
G37*
G36*
X5307076Y10726420D02*
G01*
X5443728Y10726420D01*
X5443728Y10863072D01*
X5437124Y10859617D01*
X5415229Y10845850D01*
X5394452Y10830509D01*
X5374843Y10813592D01*
X5356555Y10795304D01*
X5339638Y10775696D01*
X5324297Y10754918D01*
X5310530Y10733024D01*
G37*
G36*
X2578862Y10746333D02*
G01*
X2620924Y10746333D01*
X2620924Y10759440D01*
X2620213Y10765739D01*
X2618282Y10771225D01*
X2615184Y10776102D01*
X2611120Y10780217D01*
X2606192Y10783265D01*
X2600756Y10785195D01*
X2594406Y10785906D01*
X2578862Y10785906D01*
G37*
G36*
X2479090Y10746333D02*
G01*
X2521153Y10746333D01*
X2521153Y10785906D01*
X2505557Y10785906D01*
X2499258Y10785195D01*
X2493772Y10783265D01*
X2488895Y10780217D01*
X2484780Y10776102D01*
X2481732Y10771225D01*
X2479802Y10765739D01*
X2479090Y10759440D01*
G37*
G36*
X4964379Y11217910D02*
G01*
X4995570Y11217910D01*
X4995570Y11275568D01*
X4937912Y11275568D01*
X4937912Y11244376D01*
X4938623Y11238077D01*
X4940503Y11232591D01*
X4943602Y11227714D01*
X4947666Y11223599D01*
X4952593Y11220500D01*
X4958029Y11218621D01*
G37*
G36*
X4233570Y12110110D02*
G01*
X4240174Y12110110D01*
X4240174Y12149378D01*
X4207103Y12149378D01*
X4207103Y12136577D01*
X4207814Y12130227D01*
X4209694Y12124791D01*
X4212793Y12119864D01*
X4216908Y12115800D01*
X4221784Y12112701D01*
X4227271Y12110821D01*
G37*
G36*
X4279849Y12110110D02*
G01*
X4286453Y12110110D01*
X4292752Y12110821D01*
X4298238Y12112701D01*
X4303115Y12115800D01*
X4307230Y12119864D01*
X4310278Y12124791D01*
X4312208Y12130227D01*
X4312920Y12136577D01*
X4312920Y12149378D01*
X4279849Y12149378D01*
G37*
G36*
X1556258Y12177014D02*
G01*
X1562862Y12180468D01*
X1584756Y12194235D01*
X1605534Y12209576D01*
X1625142Y12226493D01*
X1643430Y12244781D01*
X1660347Y12264390D01*
X1675688Y12285167D01*
X1689455Y12307062D01*
X1692910Y12313666D01*
X1556258Y12313666D01*
G37*
G36*
X5443728Y12177014D02*
G01*
X5443728Y12313666D01*
X5307076Y12313666D01*
X5310530Y12307062D01*
X5324297Y12285167D01*
X5339638Y12264390D01*
X5356555Y12244781D01*
X5374843Y12226493D01*
X5394452Y12209576D01*
X5415229Y12194235D01*
X5437124Y12180468D01*
G37*
G36*
X1223518Y12177014D02*
G01*
X1223518Y12313666D01*
X1086866Y12313666D01*
X1090320Y12307062D01*
X1104087Y12285167D01*
X1119428Y12264390D01*
X1136345Y12244781D01*
X1154633Y12226493D01*
X1174242Y12209576D01*
X1195019Y12194235D01*
X1216914Y12180468D01*
G37*
G36*
X5776468Y12177014D02*
G01*
X5783072Y12180468D01*
X5804966Y12194235D01*
X5825744Y12209576D01*
X5845352Y12226493D01*
X5863640Y12244781D01*
X5880557Y12264390D01*
X5895898Y12285167D01*
X5909665Y12307062D01*
X5913120Y12313666D01*
X5776468Y12313666D01*
G37*
G36*
X5776468Y12646406D02*
G01*
X5913120Y12646406D01*
X5909665Y12653010D01*
X5895898Y12674904D01*
X5880557Y12695682D01*
X5863640Y12715290D01*
X5845352Y12733578D01*
X5825744Y12750495D01*
X5804966Y12765836D01*
X5783072Y12779603D01*
X5776468Y12783058D01*
G37*
G36*
X1556258Y12646406D02*
G01*
X1692910Y12646406D01*
X1689455Y12653010D01*
X1675688Y12674904D01*
X1660347Y12695682D01*
X1643430Y12715290D01*
X1625142Y12733578D01*
X1605534Y12750495D01*
X1584756Y12765836D01*
X1562862Y12779603D01*
X1556258Y12783058D01*
G37*
G36*
X1086866Y12646406D02*
G01*
X1223518Y12646406D01*
X1223518Y12783058D01*
X1216914Y12779603D01*
X1195019Y12765836D01*
X1174242Y12750495D01*
X1154633Y12733578D01*
X1136345Y12715290D01*
X1119428Y12695682D01*
X1104087Y12674904D01*
X1090320Y12653010D01*
G37*
G36*
X5307076Y12646406D02*
G01*
X5443728Y12646406D01*
X5443728Y12783058D01*
X5437124Y12779603D01*
X5415229Y12765836D01*
X5394452Y12750495D01*
X5374843Y12733578D01*
X5356555Y12715290D01*
X5339638Y12695682D01*
X5324297Y12674904D01*
X5310530Y12653010D01*
G37*
G36*
X3187090Y12750596D02*
G01*
X3220161Y12750596D01*
X3220161Y12789916D01*
X3213557Y12789916D01*
X3207258Y12789204D01*
X3201771Y12787325D01*
X3196894Y12784226D01*
X3192780Y12780111D01*
X3189732Y12775234D01*
X3187801Y12769748D01*
X3187090Y12763449D01*
G37*
G36*
X3109874Y12750596D02*
G01*
X3142894Y12750596D01*
X3142894Y12763449D01*
X3142183Y12769748D01*
X3140303Y12775234D01*
X3137204Y12780111D01*
X3133090Y12784226D01*
X3128213Y12787325D01*
X3122777Y12789204D01*
X3116427Y12789916D01*
X3109874Y12789916D01*
G37*
G36*
X3037078Y12750596D02*
G01*
X3070148Y12750596D01*
X3070148Y12789916D01*
X3063595Y12789916D01*
X3057245Y12789204D01*
X3051810Y12787325D01*
X3046882Y12784226D01*
X3042818Y12780111D01*
X3039719Y12775234D01*
X3037789Y12769748D01*
X3037078Y12763449D01*
G37*
G36*
X3259836Y12750596D02*
G01*
X3292906Y12750596D01*
X3292906Y12763449D01*
X3292195Y12769748D01*
X3290265Y12775234D01*
X3287217Y12780111D01*
X3283102Y12784226D01*
X3278225Y12787325D01*
X3272739Y12789204D01*
X3266440Y12789916D01*
X3259836Y12789916D01*
G37*

%LPD*%
G36*
X3868928Y12322556D02*
G01*
X3864711Y12324232D01*
X3861663Y12327483D01*
X3860292Y12331801D01*
X3859987Y12335560D01*
X3857498Y12345822D01*
X3853332Y12355576D01*
X3847642Y12364567D01*
X3836873Y12376810D01*
X3835908Y12381128D01*
X3835908Y12434366D01*
X3834434Y12446660D01*
X3834434Y12495987D01*
X3833622Y12504166D01*
X3831386Y12511582D01*
X3827729Y12518390D01*
X3822852Y12524333D01*
X3816858Y12529210D01*
X3810050Y12532868D01*
X3802684Y12535103D01*
X3795014Y12535865D01*
X3787343Y12535103D01*
X3779977Y12532868D01*
X3774795Y12530124D01*
X3771646Y12529058D01*
X3768344Y12529058D01*
X3765194Y12530124D01*
X3760063Y12532868D01*
X3752697Y12535103D01*
X3745026Y12535865D01*
X3737305Y12535103D01*
X3729939Y12532868D01*
X3724808Y12530124D01*
X3721658Y12529058D01*
X3718356Y12529058D01*
X3715207Y12530124D01*
X3710076Y12532868D01*
X3702710Y12535103D01*
X3695039Y12535865D01*
X3687318Y12535103D01*
X3679951Y12532868D01*
X3674770Y12530124D01*
X3671671Y12529058D01*
X3668318Y12529058D01*
X3665220Y12530124D01*
X3660038Y12532868D01*
X3652672Y12535103D01*
X3645001Y12535865D01*
X3637330Y12535103D01*
X3629964Y12532868D01*
X3624834Y12530124D01*
X3621684Y12529058D01*
X3618382Y12529058D01*
X3615232Y12530124D01*
X3610051Y12532868D01*
X3602685Y12535103D01*
X3595014Y12535865D01*
X3587343Y12535103D01*
X3579977Y12532868D01*
X3574796Y12530124D01*
X3571646Y12529058D01*
X3568344Y12529058D01*
X3565194Y12530124D01*
X3560064Y12532868D01*
X3552698Y12535103D01*
X3545027Y12535865D01*
X3537305Y12535103D01*
X3529939Y12532868D01*
X3524808Y12530124D01*
X3521659Y12529058D01*
X3518357Y12529058D01*
X3515258Y12530124D01*
X3510076Y12532868D01*
X3502710Y12535103D01*
X3495040Y12535865D01*
X3487318Y12535103D01*
X3479952Y12532868D01*
X3474770Y12530124D01*
X3471672Y12529058D01*
X3468319Y12529058D01*
X3465220Y12530124D01*
X3460038Y12532868D01*
X3452672Y12535103D01*
X3445001Y12535865D01*
X3437331Y12535103D01*
X3429965Y12532868D01*
X3424834Y12530124D01*
X3421684Y12529058D01*
X3418382Y12529058D01*
X3415233Y12530124D01*
X3410051Y12532868D01*
X3402685Y12535103D01*
X3395014Y12535865D01*
X3387344Y12535103D01*
X3379978Y12532868D01*
X3374796Y12530124D01*
X3371646Y12529058D01*
X3368344Y12529058D01*
X3365195Y12530124D01*
X3360064Y12532868D01*
X3352698Y12535103D01*
X3345027Y12535865D01*
X3337306Y12535103D01*
X3329940Y12532868D01*
X3324809Y12530124D01*
X3321659Y12529058D01*
X3318357Y12529058D01*
X3315208Y12530124D01*
X3310077Y12532868D01*
X3308096Y12533477D01*
X3308096Y12511328D01*
X3307689Y12508382D01*
X3306419Y12504166D01*
X3306165Y12501880D01*
X3304794Y12497714D01*
X3301847Y12494514D01*
X3297783Y12492837D01*
X3293364Y12493091D01*
X3289503Y12495123D01*
X3286861Y12498578D01*
X3285896Y12502896D01*
X3285896Y12554407D01*
X3286658Y12558318D01*
X3288893Y12561620D01*
X3292195Y12563805D01*
X3296056Y12564567D01*
X4049217Y12564567D01*
X4053078Y12563805D01*
X4056379Y12561620D01*
X4206138Y12411913D01*
X4208322Y12408611D01*
X4209084Y12404699D01*
X4209084Y12345568D01*
X4208322Y12341707D01*
X4206138Y12338405D01*
X4202836Y12336170D01*
X4198924Y12335408D01*
X4165803Y12335408D01*
X4162450Y12335967D01*
X4159453Y12337592D01*
X4153103Y12344196D01*
X4148226Y12347295D01*
X4142740Y12349226D01*
X4136440Y12349937D01*
X4083558Y12349937D01*
X4077258Y12349226D01*
X4071772Y12347295D01*
X4066895Y12344196D01*
X4062780Y12340132D01*
X4059732Y12335205D01*
X4058716Y12332360D01*
X4056583Y12328804D01*
X4053179Y12326366D01*
X4049115Y12325553D01*
X3945483Y12325858D01*
X3933393Y12324435D01*
X3883964Y12324435D01*
X3875786Y12323622D01*
X3873398Y12322911D01*
G37*

%LPD*%
G36*
X4021378Y12221870D02*
G01*
X4018584Y12222276D01*
X4012895Y12223902D01*
X4009237Y12225832D01*
X4006646Y12229033D01*
X4005579Y12233046D01*
X4006138Y12237110D01*
X4008323Y12240666D01*
X4011676Y12243003D01*
X4015740Y12243816D01*
X4049064Y12243714D01*
X4053128Y12242901D01*
X4056481Y12240463D01*
X4058615Y12236907D01*
X4059732Y12231573D01*
X4058818Y12227864D01*
X4056583Y12224715D01*
X4053332Y12222632D01*
X4049572Y12221870D01*
G37*

%LPD*%
G36*
X2992932Y11925909D02*
G01*
X2989326Y11926570D01*
X2986176Y11928500D01*
X2983941Y11931396D01*
X2982620Y11936780D01*
X2983077Y11940997D01*
X2985160Y11944705D01*
X2988614Y11947194D01*
X2992729Y11948109D01*
X3018790Y11948109D01*
X3021736Y11947652D01*
X3025851Y11946432D01*
X3028137Y11946178D01*
X3032302Y11944807D01*
X3035503Y11941860D01*
X3037128Y11937796D01*
X3036925Y11933428D01*
X3034893Y11929516D01*
X3031388Y11926874D01*
X3027121Y11925909D01*
G37*

%LPD*%
G36*
X3510076Y11793118D02*
G01*
X3505657Y11793626D01*
X3501847Y11796014D01*
X3434384Y11863425D01*
X3427831Y11868861D01*
X3420770Y11872620D01*
X3413099Y11874957D01*
X3404615Y11875770D01*
X3205988Y11875770D01*
X3202330Y11876481D01*
X3199180Y11878411D01*
X3196894Y11881358D01*
X3195878Y11884964D01*
X3195116Y11892686D01*
X3192881Y11900103D01*
X3190138Y11905234D01*
X3189071Y11908332D01*
X3189071Y11911685D01*
X3190138Y11914784D01*
X3192881Y11919915D01*
X3193491Y11921896D01*
X3171393Y11921896D01*
X3168446Y11922353D01*
X3164179Y11923623D01*
X3162300Y11923826D01*
X3158134Y11925147D01*
X3154934Y11928144D01*
X3153257Y11932208D01*
X3153460Y11936577D01*
X3155492Y11940489D01*
X3158998Y11943130D01*
X3163265Y11944096D01*
X3403854Y11944096D01*
X3407765Y11943334D01*
X3411016Y11941098D01*
X3511346Y11840768D01*
X3513582Y11837466D01*
X3514344Y11833606D01*
X3514344Y11824716D01*
X3516020Y11814251D01*
X3518662Y11806428D01*
X3519068Y11801957D01*
X3517544Y11797741D01*
X3514344Y11794591D01*
G37*

%LPD*%
G36*
X3650132Y11790934D02*
G01*
X3646220Y11791746D01*
X3642918Y11793931D01*
X3640683Y11797284D01*
X3639972Y11801195D01*
X3640785Y11805107D01*
X3642512Y11809120D01*
X3645001Y11819432D01*
X3645865Y11829999D01*
X3645001Y11840565D01*
X3642512Y11850878D01*
X3638346Y11860631D01*
X3632657Y11869572D01*
X3625646Y11877497D01*
X3617417Y11884202D01*
X3608222Y11889536D01*
X3598316Y11893296D01*
X3588004Y11895378D01*
X3575964Y11895785D01*
X3572256Y11896598D01*
X3569106Y11898731D01*
X3454298Y12013590D01*
X3447694Y12018975D01*
X3440633Y12022734D01*
X3432962Y12025071D01*
X3424529Y12025884D01*
X3205988Y12025884D01*
X3202330Y12026595D01*
X3199130Y12028525D01*
X3196894Y12031472D01*
X3195878Y12035078D01*
X3195116Y12042648D01*
X3192881Y12050064D01*
X3190138Y12055195D01*
X3189071Y12058345D01*
X3189071Y12061647D01*
X3190138Y12064796D01*
X3192881Y12069978D01*
X3195116Y12077344D01*
X3195878Y12085015D01*
X3195116Y12092686D01*
X3192881Y12100102D01*
X3190138Y12105233D01*
X3189071Y12108332D01*
X3189071Y12111685D01*
X3190138Y12114784D01*
X3192881Y12119914D01*
X3195116Y12127331D01*
X3195878Y12135002D01*
X3195116Y12142673D01*
X3192881Y12150039D01*
X3190138Y12155220D01*
X3189071Y12158370D01*
X3189071Y12161672D01*
X3190138Y12164771D01*
X3192881Y12169952D01*
X3195116Y12177318D01*
X3195878Y12185040D01*
X3195116Y12192711D01*
X3192881Y12200077D01*
X3190138Y12205208D01*
X3189071Y12208357D01*
X3189071Y12211659D01*
X3190138Y12214809D01*
X3192881Y12219940D01*
X3195116Y12227306D01*
X3195878Y12234976D01*
X3195116Y12242647D01*
X3192881Y12250064D01*
X3190138Y12255195D01*
X3189071Y12258344D01*
X3189071Y12261646D01*
X3190138Y12264796D01*
X3192881Y12269978D01*
X3195116Y12277344D01*
X3195878Y12285014D01*
X3195116Y12292685D01*
X3192881Y12300102D01*
X3189224Y12306858D01*
X3184347Y12312853D01*
X3178403Y12317730D01*
X3171596Y12321387D01*
X3164179Y12323622D01*
X3156000Y12324435D01*
X3106470Y12324435D01*
X3102813Y12325045D01*
X3094380Y12325858D01*
X2990900Y12325553D01*
X2986836Y12326366D01*
X2983433Y12328804D01*
X2981299Y12332360D01*
X2980283Y12335205D01*
X2977184Y12340132D01*
X2973120Y12344196D01*
X2968193Y12347295D01*
X2962757Y12349226D01*
X2956407Y12349937D01*
X2940812Y12349937D01*
X2936900Y12350699D01*
X2933598Y12352883D01*
X2920644Y12365837D01*
X2917240Y12368987D01*
X2913684Y12371679D01*
X2909976Y12374067D01*
X2906014Y12376150D01*
X2901899Y12377826D01*
X2897682Y12379147D01*
X2893364Y12380112D01*
X2888945Y12380722D01*
X2884271Y12380925D01*
X2824073Y12380925D01*
X2820720Y12381484D01*
X2817774Y12383109D01*
X2815183Y12386106D01*
X2807716Y12393066D01*
X2806090Y12396317D01*
X2805684Y12399924D01*
X2806598Y12403429D01*
X2808630Y12406426D01*
X2963824Y12561620D01*
X2967126Y12563805D01*
X2971038Y12564567D01*
X3034233Y12564567D01*
X3037586Y12564008D01*
X3040532Y12562382D01*
X3046882Y12555778D01*
X3051810Y12552730D01*
X3057245Y12550800D01*
X3063595Y12550089D01*
X3116427Y12550089D01*
X3122777Y12550800D01*
X3128213Y12552730D01*
X3133090Y12555778D01*
X3139490Y12562382D01*
X3142437Y12564008D01*
X3145790Y12564567D01*
X3184245Y12564567D01*
X3187547Y12564008D01*
X3190544Y12562382D01*
X3196894Y12555778D01*
X3199333Y12554254D01*
X3201873Y12551968D01*
X3203498Y12549022D01*
X3204108Y12545669D01*
X3204108Y12435484D01*
X3204921Y12427051D01*
X3205581Y12423292D01*
X3205581Y12374016D01*
X3206394Y12365837D01*
X3208629Y12358420D01*
X3212287Y12351613D01*
X3217164Y12345670D01*
X3223158Y12340793D01*
X3229965Y12337135D01*
X3237331Y12334900D01*
X3245002Y12334138D01*
X3252673Y12334900D01*
X3260039Y12337135D01*
X3265220Y12339878D01*
X3268370Y12340945D01*
X3271672Y12340945D01*
X3274822Y12339878D01*
X3279952Y12337135D01*
X3281934Y12336526D01*
X3281934Y12358725D01*
X3282340Y12361672D01*
X3283610Y12365837D01*
X3284423Y12374016D01*
X3284423Y12423343D01*
X3285388Y12430252D01*
X3286963Y12434265D01*
X3290062Y12437262D01*
X3294126Y12438684D01*
X3298393Y12438329D01*
X3302152Y12436246D01*
X3304692Y12432792D01*
X3305606Y12428626D01*
X3305606Y12374016D01*
X3306419Y12365837D01*
X3307689Y12361621D01*
X3308096Y12358674D01*
X3308096Y12336526D01*
X3310077Y12337135D01*
X3315208Y12339878D01*
X3318357Y12340945D01*
X3321659Y12340945D01*
X3324809Y12339878D01*
X3329940Y12337135D01*
X3337306Y12334900D01*
X3345027Y12334138D01*
X3352698Y12334900D01*
X3360064Y12337135D01*
X3364382Y12339421D01*
X3368395Y12340590D01*
X3372510Y12340082D01*
X3376066Y12337948D01*
X3378504Y12334544D01*
X3379317Y12330480D01*
X3379317Y12319660D01*
X3381044Y12309195D01*
X3384397Y12299137D01*
X3389325Y12289739D01*
X3395675Y12281306D01*
X3403346Y12273940D01*
X3412083Y12267895D01*
X3421634Y12263374D01*
X3431844Y12260427D01*
X3442360Y12259157D01*
X3452926Y12259564D01*
X3463340Y12261697D01*
X3473246Y12265456D01*
X3482441Y12270740D01*
X3490620Y12277445D01*
X3497681Y12285370D01*
X3503320Y12294362D01*
X3507486Y12304115D01*
X3510026Y12314377D01*
X3510889Y12324943D01*
X3510483Y12329769D01*
X3511042Y12334036D01*
X3513378Y12337694D01*
X3516985Y12340082D01*
X3521252Y12340742D01*
X3525418Y12339574D01*
X3529939Y12337135D01*
X3537305Y12334900D01*
X3545027Y12334138D01*
X3552698Y12334900D01*
X3560064Y12337135D01*
X3565245Y12339878D01*
X3568344Y12340945D01*
X3571697Y12340945D01*
X3574796Y12339878D01*
X3579977Y12337135D01*
X3587343Y12334900D01*
X3595014Y12334138D01*
X3602685Y12334900D01*
X3610051Y12337135D01*
X3614318Y12339421D01*
X3618331Y12340590D01*
X3622446Y12340031D01*
X3626002Y12337897D01*
X3628440Y12334544D01*
X3629253Y12330430D01*
X3629253Y12319812D01*
X3630980Y12309348D01*
X3634333Y12299289D01*
X3639261Y12289891D01*
X3645611Y12281408D01*
X3653282Y12274092D01*
X3662019Y12268047D01*
X3671570Y12263526D01*
X3681780Y12260529D01*
X3692296Y12259259D01*
X3702862Y12259716D01*
X3713276Y12261799D01*
X3723182Y12265558D01*
X3732377Y12270892D01*
X3738422Y12275870D01*
X3741674Y12277598D01*
X3745280Y12278106D01*
X3748836Y12277344D01*
X3751884Y12275312D01*
X3753307Y12273940D01*
X3762044Y12267895D01*
X3771646Y12263374D01*
X3781806Y12260427D01*
X3792321Y12259157D01*
X3802938Y12259564D01*
X3813301Y12261697D01*
X3823208Y12265456D01*
X3832809Y12271044D01*
X3836771Y12273076D01*
X3841191Y12273178D01*
X3845255Y12271349D01*
X3848150Y12267996D01*
X3849878Y12264796D01*
X3850944Y12261646D01*
X3850944Y12258344D01*
X3849878Y12255195D01*
X3847134Y12250064D01*
X3846525Y12248083D01*
X3868775Y12248083D01*
X3871722Y12247676D01*
X3875786Y12246406D01*
X3878579Y12246152D01*
X3882745Y12244781D01*
X3885946Y12241784D01*
X3887622Y12237770D01*
X3887419Y12233402D01*
X3885387Y12229490D01*
X3881932Y12226848D01*
X3877665Y12225883D01*
X3680409Y12225782D01*
X3671976Y12224969D01*
X3664305Y12222632D01*
X3657244Y12218873D01*
X3650640Y12213437D01*
X3590696Y12153544D01*
X3587242Y12151258D01*
X3583127Y12150547D01*
X3577336Y12150801D01*
X3566820Y12149531D01*
X3556660Y12146534D01*
X3547059Y12142012D01*
X3538321Y12135967D01*
X3530701Y12128652D01*
X3524300Y12120168D01*
X3519424Y12110770D01*
X3516020Y12100712D01*
X3514344Y12090247D01*
X3514344Y12079681D01*
X3516020Y12069216D01*
X3519424Y12059158D01*
X3524300Y12049760D01*
X3530701Y12041276D01*
X3538321Y12033961D01*
X3547059Y12027916D01*
X3556660Y12023394D01*
X3566820Y12020397D01*
X3577336Y12019127D01*
X3587953Y12019584D01*
X3598316Y12021667D01*
X3608222Y12025426D01*
X3617417Y12030760D01*
X3625646Y12037466D01*
X3632657Y12045391D01*
X3638346Y12054332D01*
X3642512Y12064085D01*
X3645001Y12074398D01*
X3645865Y12084964D01*
X3645662Y12087707D01*
X3646271Y12092025D01*
X3648608Y12095683D01*
X3693871Y12140996D01*
X3697173Y12143181D01*
X3701084Y12143994D01*
X3736848Y12143994D01*
X3741216Y12142978D01*
X3744722Y12140234D01*
X3746703Y12136272D01*
X3746804Y12131802D01*
X3744976Y12127738D01*
X3739286Y12120168D01*
X3734409Y12110770D01*
X3731006Y12100712D01*
X3729329Y12090247D01*
X3729329Y12079681D01*
X3731006Y12069216D01*
X3734409Y12059158D01*
X3739286Y12049760D01*
X3745687Y12041276D01*
X3750970Y12036196D01*
X3753256Y12032843D01*
X3754069Y12028881D01*
X3754069Y11881256D01*
X3753256Y11877294D01*
X3744315Y11865203D01*
X3739387Y11855805D01*
X3736035Y11845747D01*
X3734308Y11835282D01*
X3734308Y11824716D01*
X3736035Y11814251D01*
X3739337Y11804345D01*
X3739845Y11800535D01*
X3738930Y11796826D01*
X3736695Y11793728D01*
X3733444Y11791645D01*
X3729685Y11790934D01*
G37*

%LPD*%
G36*
X2045817Y11582095D02*
G01*
X2041906Y11582908D01*
X2038604Y11585194D01*
X2028443Y11595709D01*
X2023364Y11599773D01*
X2020671Y11602974D01*
X2019503Y11606936D01*
X2020062Y11611051D01*
X2022195Y11614658D01*
X2025599Y11617045D01*
X2029663Y11617909D01*
X2035606Y11617909D01*
X2041956Y11618620D01*
X2047392Y11620500D01*
X2052320Y11623598D01*
X2056384Y11627713D01*
X2059482Y11632590D01*
X2061413Y11638076D01*
X2062124Y11644376D01*
X2062124Y11675567D01*
X2004466Y11675567D01*
X2004466Y11626748D01*
X2003755Y11623090D01*
X2001824Y11619941D01*
X1998878Y11617706D01*
X1995322Y11616639D01*
X1991614Y11616944D01*
X1980336Y11620042D01*
X1966823Y11621871D01*
X1953158Y11621871D01*
X1939645Y11620042D01*
X1928418Y11616944D01*
X1924710Y11616639D01*
X1921154Y11617706D01*
X1918157Y11619941D01*
X1916226Y11623090D01*
X1915566Y11626748D01*
X1915566Y11675567D01*
X1866646Y11675567D01*
X1862937Y11676278D01*
X1859737Y11678259D01*
X1857502Y11681307D01*
X1856536Y11684965D01*
X1856943Y11688724D01*
X1859330Y11696344D01*
X1861566Y11709806D01*
X1862023Y11723420D01*
X1860651Y11736984D01*
X1857349Y11750649D01*
X1856689Y11754510D01*
X1857502Y11758320D01*
X1859737Y11761571D01*
X1862988Y11763705D01*
X1866849Y11764467D01*
X1915566Y11764467D01*
X1915566Y11822125D01*
X1884375Y11822125D01*
X1878025Y11821414D01*
X1872589Y11819483D01*
X1867712Y11816435D01*
X1863598Y11812320D01*
X1860499Y11807444D01*
X1858619Y11801957D01*
X1857908Y11795658D01*
X1857908Y11789765D01*
X1857044Y11785650D01*
X1854555Y11782247D01*
X1850898Y11780113D01*
X1846732Y11779656D01*
X1842719Y11780926D01*
X1839569Y11783771D01*
X1837943Y11785904D01*
X1828495Y11795709D01*
X1817776Y11804192D01*
X1815846Y11805310D01*
X1813204Y11807596D01*
X1811477Y11810593D01*
X1810867Y11814048D01*
X1810867Y11964771D01*
X1811629Y11968683D01*
X1813864Y11971934D01*
X2121712Y12279833D01*
X2125014Y12282068D01*
X2128926Y12282830D01*
X2132787Y12282068D01*
X2136089Y12279833D01*
X2138324Y12276531D01*
X2139086Y12272670D01*
X2139086Y11675262D01*
X2138324Y11671350D01*
X2136089Y11668099D01*
X2053082Y11585041D01*
X2049729Y11582857D01*
G37*

%LPC*%
G36*
X2004466Y11764467D02*
G01*
X2062124Y11764467D01*
X2062124Y11795658D01*
X2061413Y11801957D01*
X2059482Y11807444D01*
X2056384Y11812320D01*
X2052320Y11816435D01*
X2047392Y11819483D01*
X2041956Y11821414D01*
X2035606Y11822125D01*
X2004466Y11822125D01*
G37*

%LPD*%
G36*
X3746246Y11581384D02*
G01*
X3741877Y11581587D01*
X3738016Y11583619D01*
X3735374Y11587124D01*
X3734409Y11591391D01*
X3734409Y11646001D01*
X3733596Y11654180D01*
X3732326Y11658396D01*
X3731869Y11661343D01*
X3731869Y11683441D01*
X3729939Y11682882D01*
X3724808Y11680139D01*
X3721658Y11679072D01*
X3718356Y11679072D01*
X3715207Y11680139D01*
X3710076Y11682882D01*
X3702659Y11685117D01*
X3694988Y11685879D01*
X3687318Y11685117D01*
X3679951Y11682882D01*
X3674770Y11680139D01*
X3671620Y11679072D01*
X3668318Y11679072D01*
X3665169Y11680139D01*
X3660038Y11682882D01*
X3652672Y11685117D01*
X3645001Y11685879D01*
X3637330Y11685117D01*
X3629914Y11682882D01*
X3624783Y11680139D01*
X3621684Y11679072D01*
X3618331Y11679072D01*
X3615232Y11680139D01*
X3610051Y11682882D01*
X3602685Y11685117D01*
X3595014Y11685879D01*
X3587343Y11685117D01*
X3579926Y11682882D01*
X3574745Y11680139D01*
X3571646Y11679072D01*
X3568344Y11679072D01*
X3565194Y11680139D01*
X3560064Y11682882D01*
X3552647Y11685117D01*
X3544976Y11685879D01*
X3537305Y11685117D01*
X3529939Y11682882D01*
X3524808Y11680139D01*
X3521659Y11679072D01*
X3518357Y11679072D01*
X3515207Y11680139D01*
X3510076Y11682882D01*
X3502660Y11685117D01*
X3494989Y11685879D01*
X3487318Y11685117D01*
X3479952Y11682882D01*
X3474770Y11680139D01*
X3471621Y11679072D01*
X3468319Y11679072D01*
X3465169Y11680139D01*
X3460038Y11682882D01*
X3452672Y11685117D01*
X3445001Y11685879D01*
X3437331Y11685117D01*
X3429914Y11682882D01*
X3424783Y11680139D01*
X3421684Y11679072D01*
X3418332Y11679072D01*
X3415233Y11680139D01*
X3410051Y11682882D01*
X3402685Y11685117D01*
X3395014Y11685879D01*
X3387344Y11685117D01*
X3379927Y11682882D01*
X3374745Y11680139D01*
X3371646Y11679072D01*
X3368344Y11679072D01*
X3365195Y11680139D01*
X3360064Y11682882D01*
X3352647Y11685117D01*
X3344976Y11685879D01*
X3337306Y11685117D01*
X3329940Y11682882D01*
X3324809Y11680139D01*
X3321659Y11679072D01*
X3318357Y11679072D01*
X3315208Y11680139D01*
X3310077Y11682882D01*
X3302660Y11685117D01*
X3294989Y11685879D01*
X3287318Y11685117D01*
X3279952Y11682882D01*
X3274771Y11680139D01*
X3271621Y11679072D01*
X3268319Y11679072D01*
X3265170Y11680139D01*
X3260039Y11682882D01*
X3252673Y11685117D01*
X3245002Y11685879D01*
X3237331Y11685117D01*
X3229914Y11682882D01*
X3223107Y11679224D01*
X3213912Y11671350D01*
X3210560Y11670131D01*
X3207004Y11670131D01*
X3203702Y11671350D01*
X3198215Y11674500D01*
X3188309Y11678259D01*
X3177540Y11680393D01*
X3173323Y11681510D01*
X3169920Y11684304D01*
X3168040Y11688267D01*
X3168040Y11692636D01*
X3169818Y11696649D01*
X3173171Y11699494D01*
X3178403Y11702288D01*
X3184347Y11707164D01*
X3189224Y11713108D01*
X3192881Y11719915D01*
X3195116Y11727332D01*
X3195878Y11735003D01*
X3195116Y11742674D01*
X3192881Y11750040D01*
X3190138Y11755221D01*
X3189071Y11758371D01*
X3189071Y11761673D01*
X3190138Y11764822D01*
X3192881Y11769953D01*
X3195116Y11777319D01*
X3195828Y11784787D01*
X3196894Y11788394D01*
X3199130Y11791340D01*
X3202330Y11793270D01*
X3205988Y11793982D01*
X3383991Y11793982D01*
X3387851Y11793169D01*
X3391154Y11790984D01*
X3460699Y11721490D01*
X3467252Y11716054D01*
X3474313Y11712295D01*
X3481984Y11709958D01*
X3490468Y11709146D01*
X3768801Y11709146D01*
X3772712Y11708384D01*
X3776014Y11706148D01*
X3782872Y11699341D01*
X3785006Y11696192D01*
X3785819Y11692534D01*
X3785311Y11688826D01*
X3783431Y11685524D01*
X3780485Y11683187D01*
X3774744Y11680139D01*
X3771646Y11679072D01*
X3768344Y11679072D01*
X3765194Y11680139D01*
X3760063Y11682882D01*
X3758082Y11683441D01*
X3758082Y11661292D01*
X3757625Y11658346D01*
X3756406Y11654180D01*
X3755593Y11646001D01*
X3755593Y11596674D01*
X3754678Y11590375D01*
X3753307Y11586210D01*
X3750310Y11583009D01*
G37*

%LPD*%
G36*
X3705758Y11455400D02*
G01*
X3702456Y11456009D01*
X3699459Y11457635D01*
X3693109Y11464239D01*
X3691077Y11465509D01*
X3688079Y11468404D01*
X3686505Y11472265D01*
X3686606Y11476431D01*
X3688384Y11480190D01*
X3691534Y11482933D01*
X3695496Y11484203D01*
X3702659Y11484914D01*
X3710076Y11487150D01*
X3715207Y11489893D01*
X3718306Y11490960D01*
X3721658Y11490960D01*
X3724757Y11489893D01*
X3729939Y11487150D01*
X3731869Y11486540D01*
X3731869Y11508689D01*
X3732326Y11511635D01*
X3733596Y11515852D01*
X3733850Y11518138D01*
X3735171Y11522303D01*
X3738168Y11525504D01*
X3742232Y11527129D01*
X3746601Y11526926D01*
X3750513Y11524894D01*
X3753154Y11521440D01*
X3754120Y11517122D01*
X3754120Y11469573D01*
X3753662Y11466576D01*
X3752342Y11463832D01*
X3747008Y11458651D01*
X3743655Y11456263D01*
X3739591Y11455400D01*
G37*

%LPD*%
G36*
X2753360Y11371783D02*
G01*
X2750108Y11372697D01*
X2747314Y11374678D01*
X2664002Y11457990D01*
X2661767Y11461292D01*
X2661005Y11465204D01*
X2661005Y12138202D01*
X2661818Y12142165D01*
X2664104Y12145467D01*
X2667508Y12147651D01*
X2671521Y12148312D01*
X2675432Y12147397D01*
X2678684Y12145010D01*
X2680766Y12141555D01*
X2681732Y12138812D01*
X2684780Y12133884D01*
X2688894Y12129820D01*
X2693771Y12126722D01*
X2699258Y12124842D01*
X2705557Y12124131D01*
X2721152Y12124131D01*
X2721152Y12163653D01*
X2671165Y12163653D01*
X2667304Y12164415D01*
X2664002Y12166650D01*
X2661767Y12169952D01*
X2661005Y12173813D01*
X2661005Y12206224D01*
X2661767Y12210084D01*
X2664002Y12213386D01*
X2667304Y12215571D01*
X2671165Y12216384D01*
X2721152Y12216384D01*
X2721152Y12253925D01*
X2721914Y12257836D01*
X2724150Y12261088D01*
X2727401Y12263323D01*
X2731312Y12264085D01*
X2768701Y12264085D01*
X2772562Y12263323D01*
X2775864Y12261088D01*
X2778099Y12257836D01*
X2778861Y12253925D01*
X2778861Y12216384D01*
X2820924Y12216384D01*
X2820924Y12229439D01*
X2820212Y12235789D01*
X2818282Y12241225D01*
X2815183Y12246152D01*
X2811119Y12250216D01*
X2809240Y12251385D01*
X2806293Y12254230D01*
X2804668Y12257989D01*
X2804668Y12262053D01*
X2806293Y12265812D01*
X2809240Y12268606D01*
X2811119Y12269774D01*
X2817774Y12276886D01*
X2820720Y12278512D01*
X2824124Y12279122D01*
X2859227Y12279122D01*
X2863088Y12278309D01*
X2866390Y12276124D01*
X2874111Y12268403D01*
X2876296Y12265101D01*
X2877108Y12261240D01*
X2877108Y12245594D01*
X2877820Y12239244D01*
X2879852Y12233351D01*
X2880461Y12229998D01*
X2879852Y12226645D01*
X2877820Y12220752D01*
X2877108Y12214453D01*
X2877108Y12201601D01*
X2910128Y12201601D01*
X2910128Y12208916D01*
X2910941Y12212828D01*
X2913126Y12216130D01*
X2916428Y12218314D01*
X2920288Y12219076D01*
X2939694Y12219076D01*
X2943555Y12218314D01*
X2946857Y12216130D01*
X2949092Y12212828D01*
X2949854Y12208916D01*
X2949854Y12201601D01*
X2984601Y12201601D01*
X2988716Y12200737D01*
X2992120Y12198248D01*
X2994202Y12194641D01*
X2994710Y12190425D01*
X2994152Y12185040D01*
X2994914Y12177318D01*
X2997149Y12169952D01*
X2999892Y12164771D01*
X3000959Y12161672D01*
X3000959Y12158370D01*
X2999689Y12154763D01*
X2997403Y12151918D01*
X2994304Y12150039D01*
X2990697Y12149378D01*
X2949854Y12149378D01*
X2949854Y12110110D01*
X2956407Y12110110D01*
X2962757Y12110821D01*
X2968193Y12112701D01*
X2973120Y12115800D01*
X2977184Y12119864D01*
X2978810Y12122454D01*
X2981452Y12125248D01*
X2984906Y12126874D01*
X2988767Y12127077D01*
X2992424Y12125858D01*
X2995320Y12123369D01*
X2999892Y12114784D01*
X3000959Y12111685D01*
X3000959Y12108332D01*
X2999892Y12105233D01*
X2997149Y12100102D01*
X2994914Y12092686D01*
X2994152Y12085015D01*
X2994914Y12077344D01*
X2997149Y12069978D01*
X2999892Y12064796D01*
X3000959Y12061647D01*
X3000959Y12058345D01*
X2998978Y12053417D01*
X2996488Y12050420D01*
X2993085Y12048540D01*
X2989224Y12048083D01*
X2985465Y12049150D01*
X2982366Y12051487D01*
X2977184Y12060123D01*
X2973120Y12064238D01*
X2968193Y12067286D01*
X2962757Y12069216D01*
X2956407Y12069927D01*
X2949854Y12069927D01*
X2949854Y12030608D01*
X2986379Y12030608D01*
X2990545Y12029694D01*
X2993999Y12027154D01*
X2996082Y12023394D01*
X2997149Y12019940D01*
X2999892Y12014809D01*
X3000959Y12011660D01*
X3000959Y12008358D01*
X2999892Y12005208D01*
X2997149Y12000077D01*
X2994914Y11992711D01*
X2994406Y11987580D01*
X2993390Y11984024D01*
X2991104Y11981027D01*
X2987954Y11979097D01*
X2984296Y11978386D01*
X2949854Y11978386D01*
X2949854Y11971070D01*
X2949092Y11967210D01*
X2946857Y11963908D01*
X2943555Y11961672D01*
X2939694Y11960910D01*
X2920288Y11960910D01*
X2916428Y11961672D01*
X2913126Y11963908D01*
X2910941Y11967210D01*
X2910128Y11971070D01*
X2910128Y11978386D01*
X2877108Y11978386D01*
X2877108Y11965635D01*
X2878074Y11957812D01*
X2877667Y11953544D01*
X2875584Y11949836D01*
X2872181Y11947296D01*
X2867964Y11946382D01*
X2812034Y11946382D01*
X2807868Y11947296D01*
X2804414Y11949836D01*
X2802331Y11953544D01*
X2801924Y11957812D01*
X2802890Y11965635D01*
X2802890Y11978386D01*
X2769870Y11978386D01*
X2769870Y11971070D01*
X2769057Y11967159D01*
X2766872Y11963908D01*
X2763570Y11961672D01*
X2759710Y11960910D01*
X2740304Y11960910D01*
X2736443Y11961672D01*
X2733141Y11963908D01*
X2730906Y11967159D01*
X2730144Y11971070D01*
X2730144Y11978386D01*
X2697073Y11978386D01*
X2697073Y11965584D01*
X2697784Y11959234D01*
X2699867Y11953341D01*
X2700426Y11949988D01*
X2699867Y11946636D01*
X2697784Y11940743D01*
X2697073Y11934444D01*
X2697073Y11856567D01*
X2697784Y11850217D01*
X2699105Y11844832D01*
X2699105Y11576862D01*
X2699308Y11572189D01*
X2699867Y11567820D01*
X2700832Y11563451D01*
X2702153Y11559235D01*
X2703880Y11555120D01*
X2705912Y11551208D01*
X2708300Y11547449D01*
X2710992Y11543893D01*
X2714142Y11540490D01*
X2742285Y11512397D01*
X2744470Y11509095D01*
X2745232Y11505184D01*
X2745232Y11430558D01*
X2745943Y11424259D01*
X2747873Y11418773D01*
X2750921Y11413896D01*
X2755036Y11409781D01*
X2759913Y11406733D01*
X2765399Y11404803D01*
X2771698Y11404092D01*
X2908300Y11404092D01*
X2911500Y11404447D01*
X2915615Y11404041D01*
X2919272Y11402060D01*
X2921812Y11398758D01*
X2922778Y11394744D01*
X2922066Y11390630D01*
X2919831Y11387175D01*
X2911551Y11378895D01*
X2908249Y11376660D01*
X2904337Y11375898D01*
X2771698Y11375898D01*
X2765399Y11375186D01*
X2756763Y11371986D01*
G37*

%LPC*%
G36*
X2769870Y12030608D02*
G01*
X2802890Y12030608D01*
X2802890Y12043460D01*
X2802178Y12049760D01*
X2800299Y12055246D01*
X2797200Y12060123D01*
X2793136Y12064238D01*
X2788208Y12067286D01*
X2782773Y12069216D01*
X2776423Y12069927D01*
X2769870Y12069927D01*
G37*
G36*
X2697073Y12030608D02*
G01*
X2730144Y12030608D01*
X2730144Y12069927D01*
X2723591Y12069927D01*
X2717241Y12069216D01*
X2711805Y12067286D01*
X2706878Y12064238D01*
X2702814Y12060123D01*
X2699715Y12055246D01*
X2697784Y12049760D01*
X2697073Y12043460D01*
G37*
G36*
X2877108Y12030608D02*
G01*
X2910128Y12030608D01*
X2910128Y12069927D01*
X2903575Y12069927D01*
X2897225Y12069216D01*
X2891790Y12067286D01*
X2886913Y12064238D01*
X2882798Y12060123D01*
X2879699Y12055246D01*
X2877820Y12049760D01*
X2877108Y12043460D01*
G37*
G36*
X2903575Y12110110D02*
G01*
X2910128Y12110110D01*
X2910128Y12149378D01*
X2877108Y12149378D01*
X2877108Y12136577D01*
X2877820Y12130227D01*
X2879699Y12124791D01*
X2882798Y12119864D01*
X2886913Y12115800D01*
X2891790Y12112701D01*
X2897225Y12110821D01*
G37*
G36*
X2778861Y12124131D02*
G01*
X2794406Y12124131D01*
X2800756Y12124842D01*
X2806192Y12126722D01*
X2811119Y12129820D01*
X2815183Y12133884D01*
X2818282Y12138812D01*
X2820212Y12144248D01*
X2820924Y12150598D01*
X2820924Y12163653D01*
X2778861Y12163653D01*
G37*

%LPD*%
G36*
X2986684Y11215776D02*
G01*
X2982671Y11216640D01*
X2979267Y11219027D01*
X2977134Y11222532D01*
X2976575Y11226596D01*
X2977642Y11230559D01*
X2980232Y11233810D01*
X2985160Y11237874D01*
X3064459Y11317122D01*
X3072079Y11326368D01*
X3078022Y11336426D01*
X3081731Y11345164D01*
X3084626Y11356086D01*
X3085846Y11367363D01*
X3085896Y11369802D01*
X3085388Y11378692D01*
X3085033Y11381435D01*
X3083255Y11389817D01*
X3082391Y11392763D01*
X3079496Y11400485D01*
X3078073Y11403584D01*
X3074212Y11410492D01*
X3072130Y11413591D01*
X3067456Y11419586D01*
X3064764Y11422583D01*
X3059430Y11427612D01*
X3056077Y11430304D01*
X3050336Y11434318D01*
X3046323Y11436654D01*
X3040329Y11439601D01*
X3035706Y11441430D01*
X3029610Y11443309D01*
X3024479Y11444528D01*
X3018485Y11445443D01*
X3012897Y11445849D01*
X3007156Y11445849D01*
X3001264Y11445392D01*
X2995930Y11444579D01*
X2989834Y11443208D01*
X2984957Y11441684D01*
X2978912Y11439245D01*
X2974594Y11437162D01*
X2968701Y11433657D01*
X2964992Y11431117D01*
X2959506Y11426647D01*
X2951581Y11418925D01*
X2948127Y11416741D01*
X2944012Y11416080D01*
X2940050Y11417096D01*
X2936748Y11419636D01*
X2934766Y11423243D01*
X2934411Y11427358D01*
X2934766Y11430558D01*
X2934766Y11542674D01*
X2934055Y11549024D01*
X2932125Y11554460D01*
X2929077Y11559387D01*
X2924962Y11563451D01*
X2920085Y11566550D01*
X2914599Y11568430D01*
X2908300Y11569141D01*
X2833674Y11569141D01*
X2829814Y11569954D01*
X2826512Y11572138D01*
X2803906Y11594744D01*
X2801670Y11598046D01*
X2800908Y11601907D01*
X2800908Y11834418D01*
X2801670Y11838330D01*
X2803906Y11841632D01*
X2807157Y11843816D01*
X2811068Y11844578D01*
X2874213Y11844578D01*
X2877566Y11844020D01*
X2880512Y11842394D01*
X2886913Y11835790D01*
X2891790Y11832691D01*
X2897225Y11830812D01*
X2903575Y11830100D01*
X2956407Y11830100D01*
X2962757Y11830812D01*
X2968193Y11832691D01*
X2973070Y11835739D01*
X2976880Y11839702D01*
X2980029Y11841886D01*
X2983738Y11842750D01*
X2987548Y11842191D01*
X2990850Y11840260D01*
X2993186Y11837263D01*
X2994304Y11833606D01*
X2994914Y11827306D01*
X2997149Y11819940D01*
X2999892Y11814810D01*
X3000959Y11811660D01*
X3000959Y11808358D01*
X2999892Y11805208D01*
X2997149Y11800078D01*
X2994914Y11792712D01*
X2994152Y11785041D01*
X2994914Y11777319D01*
X2997149Y11769953D01*
X2999892Y11764822D01*
X3000959Y11761673D01*
X3000959Y11758371D01*
X2999892Y11755221D01*
X2997149Y11750040D01*
X2994914Y11742674D01*
X2994152Y11735003D01*
X2994914Y11727332D01*
X2997149Y11719915D01*
X3000806Y11713108D01*
X3005683Y11707164D01*
X3011627Y11702288D01*
X3018434Y11698630D01*
X3025851Y11696395D01*
X3034030Y11695582D01*
X3141624Y11695582D01*
X3145434Y11694820D01*
X3148736Y11692737D01*
X3150920Y11689537D01*
X3151784Y11685727D01*
X3151174Y11681866D01*
X3149142Y11678564D01*
X3145993Y11676227D01*
X3137052Y11672011D01*
X3128314Y11665966D01*
X3120694Y11658650D01*
X3114344Y11650167D01*
X3109417Y11640769D01*
X3106013Y11630710D01*
X3104337Y11620246D01*
X3104337Y11609679D01*
X3106013Y11599214D01*
X3109417Y11589156D01*
X3114344Y11579758D01*
X3116986Y11576202D01*
X3118510Y11573357D01*
X3119018Y11570106D01*
X3119018Y11500307D01*
X3119221Y11495684D01*
X3119780Y11491264D01*
X3120745Y11486946D01*
X3122066Y11482679D01*
X3123793Y11478615D01*
X3125825Y11474653D01*
X3128213Y11470894D01*
X3130905Y11467388D01*
X3134055Y11463934D01*
X3228187Y11369852D01*
X3230168Y11367058D01*
X3231083Y11363807D01*
X3231591Y11359235D01*
X3233521Y11353800D01*
X3236620Y11348872D01*
X3240684Y11344808D01*
X3245612Y11341709D01*
X3251657Y11339576D01*
X3255213Y11337442D01*
X3257600Y11334089D01*
X3258464Y11330025D01*
X3257600Y11325961D01*
X3255213Y11322558D01*
X3251657Y11320424D01*
X3245612Y11318290D01*
X3240684Y11315192D01*
X3236620Y11311128D01*
X3233521Y11306200D01*
X3231591Y11300764D01*
X3230880Y11294414D01*
X3230880Y11281206D01*
X3272028Y11281206D01*
X3272028Y11328958D01*
X3272840Y11332819D01*
X3275025Y11336121D01*
X3278327Y11338306D01*
X3282187Y11339118D01*
X3317798Y11339118D01*
X3321659Y11338306D01*
X3324961Y11336121D01*
X3327196Y11332819D01*
X3327958Y11328958D01*
X3327958Y11281206D01*
X3369106Y11281206D01*
X3369106Y11294414D01*
X3368395Y11300764D01*
X3366465Y11306200D01*
X3363417Y11311128D01*
X3359302Y11315192D01*
X3354425Y11318290D01*
X3348329Y11320424D01*
X3344773Y11322558D01*
X3342386Y11325961D01*
X3341522Y11330025D01*
X3342386Y11334089D01*
X3344773Y11337442D01*
X3348329Y11339576D01*
X3354425Y11341709D01*
X3359302Y11344808D01*
X3363417Y11348872D01*
X3366465Y11353800D01*
X3368395Y11359235D01*
X3369106Y11365585D01*
X3369106Y11445087D01*
X3368395Y11451386D01*
X3366465Y11456873D01*
X3363417Y11461750D01*
X3359302Y11465864D01*
X3355594Y11468201D01*
X3352749Y11470843D01*
X3351123Y11474297D01*
X3350920Y11478158D01*
X3352139Y11481816D01*
X3354628Y11484762D01*
X3358032Y11486540D01*
X3360064Y11487150D01*
X3365195Y11489893D01*
X3368344Y11490960D01*
X3371646Y11490960D01*
X3374796Y11489893D01*
X3379927Y11487150D01*
X3387344Y11484914D01*
X3395014Y11484152D01*
X3402685Y11484914D01*
X3410051Y11487150D01*
X3415182Y11489893D01*
X3418332Y11490960D01*
X3421634Y11490960D01*
X3424783Y11489893D01*
X3428390Y11487962D01*
X3431387Y11485524D01*
X3433267Y11482070D01*
X3433724Y11478209D01*
X3432708Y11474450D01*
X3430320Y11471402D01*
X3425596Y11468963D01*
X3420668Y11465864D01*
X3416604Y11461750D01*
X3413506Y11456873D01*
X3411626Y11451386D01*
X3410915Y11445087D01*
X3410915Y11365585D01*
X3411626Y11359235D01*
X3413506Y11353800D01*
X3416604Y11348872D01*
X3420668Y11344808D01*
X3425596Y11341709D01*
X3431641Y11339576D01*
X3435197Y11337442D01*
X3437636Y11334089D01*
X3438448Y11330025D01*
X3437636Y11325961D01*
X3435197Y11322558D01*
X3431641Y11320424D01*
X3425596Y11318290D01*
X3420668Y11315192D01*
X3416604Y11311128D01*
X3413506Y11306200D01*
X3411626Y11300764D01*
X3410915Y11294414D01*
X3410915Y11281206D01*
X3452063Y11281206D01*
X3452063Y11328958D01*
X3452825Y11332819D01*
X3455009Y11336121D01*
X3458311Y11338306D01*
X3462223Y11339118D01*
X3497783Y11339118D01*
X3501694Y11338306D01*
X3504996Y11336121D01*
X3507181Y11332819D01*
X3507943Y11328958D01*
X3507943Y11281206D01*
X3549091Y11281206D01*
X3549091Y11294414D01*
X3548379Y11300764D01*
X3546500Y11306200D01*
X3543401Y11311128D01*
X3539337Y11315192D01*
X3534410Y11318290D01*
X3528314Y11320424D01*
X3524808Y11322558D01*
X3522370Y11325961D01*
X3521557Y11330025D01*
X3522370Y11334089D01*
X3524808Y11337442D01*
X3528314Y11339576D01*
X3534410Y11341709D01*
X3539337Y11344808D01*
X3543401Y11348872D01*
X3546500Y11353800D01*
X3548379Y11359235D01*
X3549091Y11365585D01*
X3549091Y11397030D01*
X3549904Y11400942D01*
X3552088Y11404244D01*
X3579774Y11431828D01*
X3583076Y11434013D01*
X3586937Y11434775D01*
X3590848Y11434013D01*
X3594100Y11431828D01*
X3596335Y11428526D01*
X3597097Y11424615D01*
X3597097Y11365585D01*
X3597808Y11359235D01*
X3599891Y11353342D01*
X3600450Y11349990D01*
X3599891Y11346637D01*
X3597808Y11340744D01*
X3597097Y11334445D01*
X3597097Y11321592D01*
X3630168Y11321592D01*
X3630168Y11328958D01*
X3630929Y11332819D01*
X3633114Y11336121D01*
X3636416Y11338306D01*
X3640328Y11339118D01*
X3659682Y11339118D01*
X3663594Y11338306D01*
X3666896Y11336121D01*
X3669080Y11332819D01*
X3669842Y11328958D01*
X3669842Y11321592D01*
X3702913Y11321592D01*
X3702913Y11334394D01*
X3701948Y11342217D01*
X3702304Y11346434D01*
X3704386Y11350193D01*
X3707841Y11352733D01*
X3712006Y11353596D01*
X3737965Y11353596D01*
X3742182Y11352733D01*
X3745585Y11350193D01*
X3747668Y11346434D01*
X3748074Y11342217D01*
X3747109Y11334394D01*
X3747109Y11321592D01*
X3780434Y11321592D01*
X3781907Y11324844D01*
X3784346Y11327384D01*
X3787546Y11328958D01*
X3791051Y11329314D01*
X3800398Y11328603D01*
X3809695Y11328603D01*
X3813810Y11327739D01*
X3817213Y11325250D01*
X3819347Y11321592D01*
X3846880Y11321592D01*
X3850792Y11320830D01*
X3854043Y11318646D01*
X3858310Y11314430D01*
X3864965Y11308892D01*
X3874719Y11302796D01*
X3876903Y11301679D01*
X3885133Y11298275D01*
X3887470Y11297513D01*
X3896106Y11295380D01*
X3898493Y11294973D01*
X3907282Y11294160D01*
X3922826Y11294160D01*
X3931513Y11294973D01*
X3934307Y11295481D01*
X3942537Y11297513D01*
X3945534Y11298529D01*
X3953052Y11301679D01*
X3956151Y11303254D01*
X3962857Y11307368D01*
X3965956Y11309553D01*
X3971696Y11314430D01*
X3974642Y11317325D01*
X3979418Y11322761D01*
X3982059Y11326266D01*
X3985768Y11332108D01*
X3988003Y11336274D01*
X3990695Y11342319D01*
X3992372Y11347043D01*
X3993997Y11353139D01*
X3995013Y11358422D01*
X3995674Y11364366D01*
X3995928Y11370005D01*
X3995674Y11375644D01*
X3995013Y11381587D01*
X3993997Y11386870D01*
X3992372Y11392916D01*
X3990695Y11397691D01*
X3988003Y11403736D01*
X3985768Y11407902D01*
X3982059Y11413744D01*
X3979418Y11417249D01*
X3974642Y11422684D01*
X3971696Y11425580D01*
X3965956Y11430457D01*
X3962857Y11432641D01*
X3956151Y11436756D01*
X3953103Y11438280D01*
X3948226Y11440261D01*
X3944874Y11442496D01*
X3927246Y11460022D01*
X3920439Y11465712D01*
X3918407Y11467134D01*
X3910787Y11471706D01*
X3908602Y11472824D01*
X3900373Y11476228D01*
X3898036Y11476990D01*
X3889400Y11479123D01*
X3887012Y11479530D01*
X3878122Y11480393D01*
X3846068Y11480444D01*
X3842207Y11481206D01*
X3838905Y11483390D01*
X3836670Y11486692D01*
X3835908Y11490604D01*
X3835908Y11584533D01*
X3835095Y11592966D01*
X3834384Y11596725D01*
X3834384Y11623548D01*
X3835095Y11627256D01*
X3837127Y11630456D01*
X3840226Y11632692D01*
X3843883Y11633657D01*
X3847693Y11633200D01*
X3850995Y11631371D01*
X3857396Y11626138D01*
X3864457Y11622379D01*
X3872128Y11620042D01*
X3880612Y11619230D01*
X4291939Y11619230D01*
X4295800Y11618417D01*
X4299102Y11616232D01*
X4301337Y11612930D01*
X4302099Y11609070D01*
X4301337Y11605158D01*
X4299102Y11601856D01*
X3916019Y11218773D01*
X3912717Y11216589D01*
X3908856Y11215776D01*
X3846576Y11215776D01*
X3842308Y11216741D01*
X3838854Y11219332D01*
X3836822Y11223142D01*
X3836517Y11227460D01*
X3838092Y11231524D01*
X3841140Y11234572D01*
X3843121Y11235791D01*
X3847185Y11239906D01*
X3850284Y11244783D01*
X3852214Y11250269D01*
X3852926Y11256568D01*
X3852926Y11269421D01*
X3819855Y11269421D01*
X3819855Y11225936D01*
X3819093Y11222075D01*
X3816858Y11218773D01*
X3813556Y11216589D01*
X3809695Y11215776D01*
X3790289Y11215776D01*
X3786428Y11216589D01*
X3783126Y11218773D01*
X3780942Y11222075D01*
X3780129Y11225936D01*
X3780129Y11269421D01*
X3747109Y11269421D01*
X3747109Y11256568D01*
X3747820Y11250269D01*
X3749700Y11244783D01*
X3752799Y11239906D01*
X3756914Y11235791D01*
X3758844Y11234572D01*
X3761943Y11231524D01*
X3763467Y11227460D01*
X3763213Y11223142D01*
X3761130Y11219332D01*
X3757676Y11216741D01*
X3753459Y11215776D01*
X3696563Y11215776D01*
X3692347Y11216741D01*
X3688842Y11219332D01*
X3686810Y11223142D01*
X3686505Y11227460D01*
X3688079Y11231524D01*
X3691178Y11234572D01*
X3693109Y11235791D01*
X3697224Y11239906D01*
X3700272Y11244783D01*
X3702202Y11250269D01*
X3702913Y11256568D01*
X3702913Y11269421D01*
X3669842Y11269421D01*
X3669842Y11225936D01*
X3669080Y11222075D01*
X3666896Y11218773D01*
X3663594Y11216589D01*
X3659682Y11215776D01*
X3640328Y11215776D01*
X3636416Y11216589D01*
X3633114Y11218773D01*
X3630929Y11222075D01*
X3630168Y11225936D01*
X3630168Y11269421D01*
X3597097Y11269421D01*
X3597097Y11256568D01*
X3597808Y11250269D01*
X3599738Y11244783D01*
X3602786Y11239906D01*
X3606901Y11235791D01*
X3608832Y11234572D01*
X3611930Y11231524D01*
X3613505Y11227460D01*
X3613200Y11223142D01*
X3611118Y11219332D01*
X3607663Y11216741D01*
X3603447Y11215776D01*
X3559251Y11215776D01*
X3555390Y11216589D01*
X3552088Y11218773D01*
X3549904Y11222075D01*
X3549091Y11225936D01*
X3549091Y11228171D01*
X3507943Y11228171D01*
X3507943Y11225936D01*
X3507181Y11222075D01*
X3504996Y11218773D01*
X3501694Y11216589D01*
X3497783Y11215776D01*
X3462223Y11215776D01*
X3458311Y11216589D01*
X3455009Y11218773D01*
X3452825Y11222075D01*
X3452063Y11225936D01*
X3452063Y11228171D01*
X3410915Y11228171D01*
X3410915Y11225936D01*
X3410102Y11222075D01*
X3407918Y11218773D01*
X3404615Y11216589D01*
X3400755Y11215776D01*
X3379266Y11215776D01*
X3375406Y11216589D01*
X3372104Y11218773D01*
X3369868Y11222075D01*
X3369106Y11225936D01*
X3369106Y11228171D01*
X3327958Y11228171D01*
X3327958Y11225936D01*
X3327196Y11222075D01*
X3324961Y11218773D01*
X3321659Y11216589D01*
X3317798Y11215776D01*
X3282187Y11215776D01*
X3278327Y11216589D01*
X3275025Y11218773D01*
X3272840Y11222075D01*
X3272028Y11225936D01*
X3272028Y11228171D01*
X3230880Y11228171D01*
X3230880Y11225936D01*
X3230118Y11222075D01*
X3227933Y11218773D01*
X3224631Y11216589D01*
X3220720Y11215776D01*
G37*

%LPD*%
G36*
X4447997Y10616996D02*
G01*
X4444136Y10617149D01*
X4440580Y10618774D01*
X4437888Y10621619D01*
X4435246Y10625734D01*
X4428286Y10633608D01*
X4420158Y10640263D01*
X4418431Y10641279D01*
X4415282Y10644073D01*
X4413554Y10647934D01*
X4413554Y10652150D01*
X4415282Y10656011D01*
X4418431Y10658856D01*
X4420158Y10659872D01*
X4428286Y10666476D01*
X4435246Y10674350D01*
X4437888Y10678515D01*
X4440580Y10681360D01*
X4444136Y10682935D01*
X4447997Y10683087D01*
X4451705Y10681766D01*
X4454601Y10679176D01*
X4461256Y10670286D01*
X4468825Y10663021D01*
X4475480Y10658398D01*
X4478223Y10655604D01*
X4479696Y10651998D01*
X4479696Y10648086D01*
X4478223Y10644479D01*
X4475480Y10641685D01*
X4468825Y10637113D01*
X4461256Y10629798D01*
X4454601Y10620959D01*
X4451705Y10618317D01*
G37*

%LPD*%
G36*
X4493310Y10531348D02*
G01*
X4489704Y10532364D01*
X4486706Y10534599D01*
X4484776Y10537799D01*
X4484065Y10541457D01*
X4484065Y10560507D01*
X4456633Y10560507D01*
X4453026Y10561167D01*
X4449876Y10563098D01*
X4447641Y10565942D01*
X4446524Y10569448D01*
X4446778Y10573105D01*
X4447489Y10576102D01*
X4448352Y10586567D01*
X4447489Y10597032D01*
X4446778Y10599978D01*
X4446524Y10603636D01*
X4447641Y10607141D01*
X4449876Y10610037D01*
X4453026Y10611916D01*
X4456633Y10612577D01*
X4484065Y10612577D01*
X4484065Y10639856D01*
X4484776Y10643565D01*
X4486706Y10646714D01*
X4489704Y10649000D01*
X4493310Y10649966D01*
X4507484Y10648340D01*
X4517948Y10648797D01*
X4523943Y10650016D01*
X4528413Y10649915D01*
X4532376Y10647934D01*
X4535170Y10644428D01*
X4536135Y10640060D01*
X4536135Y10612577D01*
X4563516Y10612577D01*
X4567783Y10611662D01*
X4571238Y10609021D01*
X4573270Y10605160D01*
X4573524Y10600791D01*
X4572050Y10591800D01*
X4572050Y10583722D01*
X4571288Y10579862D01*
X4569053Y10576560D01*
X4555947Y10563504D01*
X4552645Y10561269D01*
X4548784Y10560507D01*
X4536135Y10560507D01*
X4536135Y10547959D01*
X4535373Y10544048D01*
X4533138Y10540746D01*
X4530902Y10538561D01*
X4527448Y10536275D01*
X4523333Y10535564D01*
X4517339Y10535818D01*
X4506823Y10534548D01*
X4497070Y10531703D01*
G37*

%LPD*%
D11*
X4739995Y11610009D02*
G01*
X4830010Y11610009D01*
X4920010Y11520009D01*
X5040002Y11520009D01*
D12*
X4764100Y10586554D02*
G01*
X4764100Y10550865D01*
X4904953Y10410012D01*
X4950002Y10410012D01*
D11*
X3299968Y11405362D02*
G01*
X3264661Y11405362D01*
X3169920Y11500104D01*
X3169920Y11614912D01*
X3240001Y12615499D02*
G01*
X4074507Y12615499D01*
X4260001Y12430005D01*
X4260001Y12284514D01*
D12*
X3094990Y11834876D02*
G01*
X3405124Y11834876D01*
X3489959Y11750039D01*
X3789934Y11750039D01*
X3880104Y11660124D01*
X4210050Y11660124D01*
X3480054Y11405362D02*
G01*
X3495293Y11405362D01*
X3595115Y11504929D01*
X3595115Y11584939D01*
D11*
X4510100Y10586554D02*
G01*
X4383100Y10713554D01*
X2840009Y11486626D02*
G01*
X2750002Y11576634D01*
X2750002Y11895495D01*
D12*
X4210050Y11660124D02*
G01*
X4300220Y11660124D01*
X4770120Y12130024D01*
X5219954Y12130024D01*
X5409945Y11940031D01*
X5409945Y11580113D01*
X5350002Y11519915D01*
X5240020Y11519915D01*
D11*
X5460009Y11419992D02*
G01*
X5360027Y11320010D01*
X5240002Y11320010D01*
X4109999Y12059996D02*
G01*
X4109999Y12040008D01*
X4055008Y11985017D01*
X4026359Y11985017D01*
D12*
X3720084Y12184887D02*
G01*
X3679926Y12184887D01*
X3580002Y12084964D01*
X3720084Y12184887D02*
G01*
X3863593Y12184887D01*
D11*
X2750002Y12330008D02*
G01*
X2660218Y12329998D01*
X2610104Y12279884D02*
G01*
X2945719Y12615499D01*
X3090001Y12615499D01*
X2610104Y11439905D02*
G01*
X2610104Y12279884D01*
X2610002Y11440005D02*
G01*
X2756623Y11293383D01*
X2840009Y11293383D01*
D12*
X4764100Y10713554D02*
G01*
X4827635Y10650016D01*
X5000015Y10650016D01*
X3580002Y11829999D02*
G01*
X3425009Y11984992D01*
X3175000Y11984992D01*
X3794993Y12084974D02*
G01*
X3794993Y11834975D01*
X4519929Y10469879D02*
G01*
X4637024Y10586465D01*
X3795006Y12434999D02*
G01*
X3794993Y12434986D01*
X3794993Y12324974D01*
X3864990Y12184974D02*
G01*
X3944874Y12184887D01*
X3175000Y11984989D02*
G01*
X3094990Y11984989D01*
D13*
X3920007Y11370005D02*
G01*
X3910004Y11370005D01*
X3875496Y11404513D01*
X3800002Y11404513D01*
X3010001Y11370005D02*
G01*
X2933377Y11293381D01*
X2840012Y11293381D01*
X2843118Y10650054D02*
G01*
X2839999Y10653166D01*
X2839999Y10759592D01*
D12*
X3694938Y12325095D02*
G01*
X3694938Y12435078D01*
X4383100Y10586554D02*
G01*
X4380001Y10583456D01*
X4380001Y10470004D01*
X3445002Y12324969D02*
G01*
X3445002Y12434996D01*
X3444999Y12434999D01*
X3800002Y11404516D02*
G01*
X3795006Y11409512D01*
X3795006Y11585013D01*
D11*
X3800002Y11404516D02*
G01*
X3650000Y11404516D01*
D12*
X4109974Y12284455D02*
G01*
X3944874Y12284963D01*
D11*
X4260001Y12284514D02*
G01*
X4110001Y12284514D01*
D14*
X3710005Y10720009D02*
G01*
X3870007Y10560006D01*
X4229552Y10560006D01*
X4256100Y10586554D01*
D13*
X2550002Y10580004D02*
G01*
X2709948Y10420057D01*
X2843118Y10420057D01*
X2256721Y10500047D02*
G01*
X2336678Y10580004D01*
X2550002Y10580004D01*
X1985500Y10800006D02*
G01*
X1985500Y10578025D01*
X2063478Y10500047D01*
D11*
X3437097Y10650054D02*
G01*
X3507051Y10720009D01*
X3710005Y10720009D01*
X2843118Y10650054D02*
G01*
X3437097Y10650054D01*
D12*
X3240001Y12615499D02*
G01*
X3244994Y12610505D01*
X3244994Y12434999D01*
D11*
X3090001Y12615499D02*
G01*
X3240001Y12615499D01*
D12*
X2929890Y12284455D02*
G01*
X3094990Y12284963D01*
D11*
X2750002Y12330008D02*
G01*
X2884507Y12330008D01*
X2930001Y12284514D01*
D12*
X2930001Y11895498D02*
G01*
X2940486Y11885013D01*
X3095007Y11885013D01*
D11*
X1759965Y11519915D02*
G01*
X1620012Y11659870D01*
X1620001Y11660007D02*
G01*
X1620001Y11990207D01*
X1759965Y11720068D02*
G01*
X1759965Y11990070D01*
X2489961Y12720065D01*
X2569972Y12720065D01*
X1960118Y11519915D02*
G01*
X2059940Y11519915D01*
X2189988Y11649963D01*
X2189988Y12279884D01*
X2480056Y12569952D01*
X2560065Y12569952D01*
D15*
X2274493Y10800003D02*
G01*
X2274493Y11079987D01*
X3965193Y11089894D02*
G01*
X4845304Y11970004D01*
X5155438Y11970004D01*
X5235447Y11889994D01*
X5235447Y11729974D01*
X3965193Y11089894D02*
G01*
X1830070Y11089894D01*
X1759965Y11159997D01*
X1759965Y11320018D01*
D11*
X2750002Y11895495D02*
G01*
X2930001Y11895498D01*
D12*
X4300001Y10960006D02*
G01*
X4300001Y10757443D01*
X4256100Y10713542D01*
D16*
X3156516Y12285014D02*
G01*
X3033514Y12285014D01*
X3156516Y12235002D02*
G01*
X3033514Y12235002D01*
X3156516Y12185014D02*
G01*
X3033514Y12185014D01*
X3156516Y12135002D02*
G01*
X3033514Y12135002D01*
X3156516Y12085015D02*
G01*
X3033514Y12085015D01*
X3156516Y12035002D02*
G01*
X3033514Y12035002D01*
X3156516Y11985015D02*
G01*
X3033514Y11985015D01*
X3156516Y11935002D02*
G01*
X3033514Y11935002D01*
X3156516Y11885015D02*
G01*
X3033514Y11885015D01*
X3156516Y11835003D02*
G01*
X3033514Y11835003D01*
X3156516Y11785015D02*
G01*
X3033514Y11785015D01*
X3156516Y11735003D02*
G01*
X3033514Y11735003D01*
X3245002Y11646517D02*
G01*
X3245002Y11523515D01*
X3295015Y11646517D02*
G01*
X3295015Y11523515D01*
X3345002Y11646517D02*
G01*
X3345002Y11523515D01*
X3395014Y11646517D02*
G01*
X3395014Y11523515D01*
X3445002Y11646517D02*
G01*
X3445002Y11523515D01*
X3495014Y11646517D02*
G01*
X3495014Y11523515D01*
X3545001Y11646517D02*
G01*
X3545001Y11523515D01*
X3595014Y11646517D02*
G01*
X3595014Y11523515D01*
X3645001Y11646517D02*
G01*
X3645001Y11523515D01*
X3695014Y11646517D02*
G01*
X3695014Y11523515D01*
X3745001Y11646517D02*
G01*
X3745001Y11523515D01*
X3795013Y11646517D02*
G01*
X3795013Y11523515D01*
X4006502Y11735003D02*
G01*
X3883499Y11735003D01*
X4006502Y11785015D02*
G01*
X3883499Y11785015D01*
X4006502Y11835003D02*
G01*
X3883499Y11835003D01*
X4006502Y11885015D02*
G01*
X3883499Y11885015D01*
X4006502Y11935002D02*
G01*
X3883499Y11935002D01*
X4006502Y11985015D02*
G01*
X3883499Y11985015D01*
X4006502Y12035002D02*
G01*
X3883499Y12035002D01*
X4006502Y12085015D02*
G01*
X3883499Y12085015D01*
X4006502Y12135002D02*
G01*
X3883499Y12135002D01*
X4006502Y12185014D02*
G01*
X3883499Y12185014D01*
X4006502Y12235002D02*
G01*
X3883499Y12235002D01*
X4006502Y12285014D02*
G01*
X3883499Y12285014D01*
X3795013Y12496502D02*
G01*
X3795013Y12373500D01*
X3745001Y12496502D02*
G01*
X3745001Y12373500D01*
X3695014Y12496502D02*
G01*
X3695014Y12373500D01*
X3645001Y12496502D02*
G01*
X3645001Y12373500D01*
X3595014Y12496502D02*
G01*
X3595014Y12373500D01*
X3545001Y12496502D02*
G01*
X3545001Y12373500D01*
X3495014Y12496502D02*
G01*
X3495014Y12373500D01*
X3445002Y12496502D02*
G01*
X3445002Y12373500D01*
X3395014Y12496502D02*
G01*
X3395014Y12373500D01*
X3345002Y12496502D02*
G01*
X3345002Y12373500D01*
X3295015Y12496502D02*
G01*
X3295015Y12373500D01*
X3245002Y12496502D02*
G01*
X3245002Y12373500D01*
D19*
G01*
X3710000Y10719993D03*
G01*
X3710000Y10580014D03*
G01*
X2550007Y10580014D03*
G01*
X2550007Y10719993D03*
G36*
X2777002Y11965005D02*
G01*
X2723001Y11965005D01*
X2723001Y12044014D01*
X2777002Y12044014D01*
G37*
D20*
G01*
X2750007Y11895505D03*
G36*
X2957001Y11965007D02*
G01*
X2903001Y11965007D01*
X2903001Y12044017D01*
X2957001Y12044017D01*
G37*
G01*
X2929991Y11895505D03*
G36*
X2903001Y12215004D02*
G01*
X2957001Y12215004D01*
X2957001Y12135995D01*
X2903001Y12135995D01*
G37*
G01*
X2929991Y12284506D03*
G36*
X3623000Y11335006D02*
G01*
X3677000Y11335006D01*
X3677000Y11255997D01*
X3623000Y11255997D01*
G37*
G01*
X3650005Y11404523D03*
G36*
X3773002Y11335006D02*
G01*
X3827002Y11335006D01*
X3827002Y11255997D01*
X3773002Y11255997D01*
G37*
G01*
X3799992Y11404523D03*
G36*
X4233001Y12215004D02*
G01*
X4287001Y12215004D01*
X4287001Y12135995D01*
X4233001Y12135995D01*
G37*
G01*
X4260011Y12284506D03*
G36*
X2120099Y10431203D02*
G01*
X2120099Y10568899D01*
X2006846Y10568899D01*
X2006846Y10431203D01*
G37*
G36*
X2200099Y10431203D02*
G01*
X2200099Y10568899D01*
X2313353Y10568899D01*
X2313353Y10431203D01*
G37*
D22*
G01*
X2839999Y11293373D03*
G36*
X2908853Y11430005D02*
G01*
X2771157Y11430005D01*
X2771157Y11543258D01*
X2908853Y11543258D01*
G37*
G36*
X3343201Y11365009D02*
G01*
X3256800Y11365009D01*
X3256800Y11445656D01*
X3343201Y11445656D01*
G37*
D23*
G01*
X3299993Y11254689D03*
G36*
X3523200Y11365009D02*
G01*
X3436800Y11365009D01*
X3436800Y11445656D01*
X3523200Y11445656D01*
G37*
G01*
X3480003Y11254689D03*
D24*
G01*
X2843098Y10880039D03*
G01*
X2843098Y10650042D03*
G01*
X2843098Y10420045D03*
G36*
X3320102Y10470055D02*
G01*
X3320102Y10830054D01*
X3554102Y10830054D01*
X3554102Y10470055D01*
G37*
G36*
X3117001Y12685008D02*
G01*
X3063001Y12685008D01*
X3063001Y12764018D01*
X3117001Y12764018D01*
G37*
D20*
G01*
X3090011Y12615494D03*
G36*
X3267001Y12685008D02*
G01*
X3213000Y12685008D01*
X3213000Y12764018D01*
X3267001Y12764018D01*
G37*
G01*
X3239998Y12615494D03*
D19*
G01*
X2750007Y12329998D03*
G01*
X2750007Y12189993D03*
G36*
X4083001Y12215004D02*
G01*
X4137002Y12215004D01*
X4137002Y12135995D01*
X4083001Y12135995D01*
G37*
D20*
G01*
X4109999Y12284506D03*
D26*
G01*
X4256100Y10586542D03*
G01*
X4383100Y10586542D03*
G01*
X4510100Y10586542D03*
G01*
X4637100Y10586542D03*
G01*
X4764100Y10586542D03*
G01*
X4764100Y10713542D03*
G01*
X4637100Y10713542D03*
G01*
X4510100Y10713542D03*
G01*
X4383100Y10713542D03*
G01*
X4256100Y10713542D03*
D27*
G01*
X2274493Y10800003D03*
G01*
X1985492Y10800003D03*
D10*
G75*
G01*
X2840010Y11486627D02*
G02*
X2840002Y11486645I17J18D01*
D28*
G01*
X1959990Y11720017D03*
D29*
G01*
X1759991Y11720017D03*
G01*
X1959990Y11520017D03*
G01*
X1759991Y11520017D03*
G01*
X1959990Y11320018D03*
G01*
X1759991Y11320018D03*
D28*
G01*
X5039995Y11320018D03*
D29*
G01*
X5239994Y11320018D03*
G01*
X5039995Y11520017D03*
G01*
X5239994Y11520017D03*
G01*
X5039995Y11720017D03*
G01*
X5239994Y11720017D03*
D30*
G01*
X4891100Y10751642D03*
G01*
X4891100Y10548442D03*
G01*
X4129100Y10650042D03*
D31*
G01*
X4129100Y10904042D03*
G01*
X4129100Y10396042D03*
G01*
X4700600Y10396042D03*
G01*
X4700600Y10904042D03*
D32*
G01*
X1389887Y12480036D03*
G01*
X5610097Y12480036D03*
G01*
X1389887Y10560050D03*
G01*
X5610097Y10560050D03*
D17*
G01*
X3169996Y11614962D03*
G01*
X3445002Y12324969D03*
G01*
X4380001Y10470006D03*
G01*
X5000015Y10650016D03*
G01*
X3580002Y12084964D03*
G01*
X3694938Y12325095D03*
D13*
G01*
X2839999Y10759592D03*
G01*
X3010001Y11370005D03*
G01*
X3920007Y11370005D03*
D17*
G01*
X3580002Y11829999D03*
G01*
X3794988Y12324969D03*
G01*
X3794988Y12084964D03*
G01*
X3799992Y11829999D03*
G01*
X4520006Y10470006D03*
G01*
X4109999Y12059996D03*
D13*
G01*
X2560015Y12570002D03*
G01*
X4739995Y11610009D03*
G01*
X2569997Y12720015D03*
G01*
X5460009Y11419992D03*
D17*
G01*
X4950002Y10410012D03*
D13*
G01*
X1620012Y11990196D03*
D15*
G01*
X4946370Y11970004D03*
G01*
X2269997Y11089995D03*
D18*
G01*
X3320313Y12229287D03*
G01*
X3320313Y12102287D03*
G01*
X2019172Y12009831D03*
G01*
X2882214Y11763273D03*
G01*
X2882214Y11636273D03*
G01*
X3009214Y11636273D03*
G01*
X3009214Y11509273D03*
G01*
X1107211Y12129388D03*
G01*
X1107211Y11875388D03*
G01*
X1107211Y10859388D03*
G01*
X1234211Y11240388D03*
G01*
X1234211Y10986388D03*
G01*
X1361211Y11875388D03*
G01*
X1488211Y12002388D03*
G01*
X1488211Y11240388D03*
G01*
X1488211Y10986388D03*
G01*
X1615211Y10986388D03*
G01*
X1742211Y12764388D03*
G01*
X1742211Y10859388D03*
G01*
X1742211Y10351388D03*
G01*
X1869211Y12764388D03*
G01*
X1869211Y12637388D03*
G01*
X1869211Y12510388D03*
G01*
X1869211Y10478388D03*
G01*
X1869211Y10351388D03*
G01*
X1996211Y12764388D03*
G01*
X1996211Y12637388D03*
G01*
X2123211Y12764388D03*
G01*
X2123211Y12637388D03*
G01*
X2250211Y12764388D03*
G01*
X2250211Y12637388D03*
G01*
X2377211Y12764388D03*
G01*
X2377211Y12129388D03*
G01*
X2377211Y11875388D03*
G01*
X2377211Y11621388D03*
G01*
X2377211Y11367388D03*
G01*
X2377211Y10351388D03*
G01*
X2504211Y11367388D03*
G01*
X2504211Y10859388D03*
G01*
X2504211Y10351388D03*
G01*
X2631211Y10859388D03*
G01*
X3139211Y10478388D03*
G01*
X3393211Y10351388D03*
G01*
X3520211Y10351388D03*
G01*
X3647211Y10351388D03*
G01*
X3774211Y10351388D03*
G01*
X3901211Y10351388D03*
G01*
X4155211Y11875388D03*
G01*
X4282211Y12002388D03*
G01*
X4282211Y11875388D03*
G01*
X4409211Y12256388D03*
G01*
X4409211Y12129388D03*
G01*
X4409211Y12002388D03*
G01*
X4409211Y10351388D03*
G01*
X4536211Y12510388D03*
G01*
X4536211Y12129388D03*
G01*
X4536211Y11367388D03*
G01*
X4663211Y12510388D03*
G01*
X4663211Y12383388D03*
G01*
X4663211Y11367388D03*
G01*
X4663211Y11240388D03*
G01*
X4790211Y12510388D03*
G01*
X4790211Y12383388D03*
G01*
X4790211Y12256388D03*
G01*
X4790211Y11240388D03*
G01*
X4917211Y12764388D03*
G01*
X4917211Y12383388D03*
G01*
X4917211Y12256388D03*
G01*
X4917211Y11113388D03*
G01*
X4917211Y10986388D03*
G01*
X5044211Y12764388D03*
G01*
X5044211Y12637388D03*
G01*
X5044211Y12256388D03*
G01*
X5044211Y10986388D03*
G01*
X5044211Y10859388D03*
G01*
X5044211Y10478388D03*
G01*
X5044211Y10351388D03*
G01*
X5171211Y12764388D03*
G01*
X5171211Y12637388D03*
G01*
X5171211Y12510388D03*
G01*
X5171211Y10986388D03*
G01*
X5171211Y10859388D03*
G01*
X5171211Y10732388D03*
G01*
X5171211Y10605388D03*
G01*
X5171211Y10478388D03*
G01*
X5171211Y10351388D03*
G01*
X5298211Y12764388D03*
G01*
X5298211Y10986388D03*
G01*
X5298211Y10859388D03*
G01*
X5425211Y10986388D03*
G01*
X5552211Y11240388D03*
G01*
X5552211Y10986388D03*
G01*
X5679211Y12002388D03*
G01*
X5679211Y10986388D03*
G01*
X5806211Y12129388D03*
G01*
X5806211Y11875388D03*
G01*
X5806211Y11240388D03*
G01*
X3250006Y11740006D03*
G01*
X3329990Y11740006D03*
G01*
X2839999Y12000001D03*
G01*
X2839999Y12089993D03*
G01*
X3234994Y11909983D03*
G01*
X3359988Y11909983D03*
G01*
X4299991Y10959998D03*
G01*
X5806211Y10986388D03*
M02*
