G04 Layer: BottomLayer*
G04 EasyEDA v6.4.20.6, 2021-08-21T12:51:08+02:00*
G04 49faa743f6f2471693ae6abc579f8785,21b141c4020943fdbba11dee5124b23b,10*
G04 Gerber Generator version 0.2*
G04 Scale: 100 percent, Rotated: No, Reflected: No *
G04 Dimensions in millimeters *
G04 leading zeros omitted , absolute positions ,4 integer and 5 decimal *
%FSLAX45Y45*%
%MOMM*%

%ADD11C,0.5000*%
%ADD12C,0.3000*%
%ADD13C,1.0000*%
%ADD15C,2.0000*%
%ADD17C,0.8000*%
%ADD18C,0.6100*%
%ADD28R,1.5240X1.5240*%
%ADD29C,1.5240*%
%ADD30C,0.9906*%
%ADD31C,2.3749*%
%ADD32C,6.4000*%

%LPD*%
G36*
X1370634Y10197490D02*
G01*
X1345082Y10198455D01*
X1320698Y10201097D01*
X1296517Y10205466D01*
X1272743Y10211562D01*
X1249426Y10219334D01*
X1226718Y10228783D01*
X1204772Y10239806D01*
X1183690Y10252354D01*
X1163523Y10266375D01*
X1144422Y10281818D01*
X1126439Y10298582D01*
X1109726Y10316565D01*
X1094333Y10335717D01*
X1080363Y10355884D01*
X1067866Y10377017D01*
X1056894Y10399014D01*
X1047496Y10421721D01*
X1039774Y10445038D01*
X1033729Y10468813D01*
X1029411Y10492994D01*
X1026769Y10517428D01*
X1025906Y10542219D01*
X1025906Y12500965D01*
X1026820Y12526518D01*
X1029512Y12550902D01*
X1033881Y12575082D01*
X1039977Y12598857D01*
X1047750Y12622174D01*
X1057198Y12644882D01*
X1068222Y12666827D01*
X1080770Y12687909D01*
X1094790Y12708077D01*
X1110234Y12727178D01*
X1126947Y12745161D01*
X1144981Y12761874D01*
X1164082Y12777266D01*
X1184300Y12791236D01*
X1205433Y12803733D01*
X1227378Y12814706D01*
X1250086Y12824104D01*
X1273403Y12831826D01*
X1297228Y12837871D01*
X1321409Y12842189D01*
X1345793Y12844830D01*
X1370634Y12845694D01*
X5629402Y12845694D01*
X5654903Y12844780D01*
X5679338Y12842087D01*
X5703468Y12837718D01*
X5727293Y12831622D01*
X5750560Y12823850D01*
X5773267Y12814401D01*
X5795213Y12803428D01*
X5816295Y12790830D01*
X5836462Y12776809D01*
X5855563Y12761366D01*
X5873546Y12744653D01*
X5890260Y12726619D01*
X5905652Y12707518D01*
X5919622Y12687300D01*
X5932170Y12666167D01*
X5943142Y12644221D01*
X5952490Y12621514D01*
X5960211Y12598196D01*
X5966256Y12574371D01*
X5970625Y12550190D01*
X5973216Y12525705D01*
X5974080Y12500965D01*
X5974080Y10542219D01*
X5973165Y10516717D01*
X5970524Y10492282D01*
X5966104Y10468102D01*
X5960008Y10444327D01*
X5952236Y10421010D01*
X5942838Y10398353D01*
X5931814Y10376408D01*
X5919266Y10355275D01*
X5905195Y10335107D01*
X5889802Y10316006D01*
X5873038Y10298074D01*
X5855055Y10281361D01*
X5835904Y10265968D01*
X5815685Y10251948D01*
X5794552Y10239451D01*
X5772607Y10228478D01*
X5749899Y10219080D01*
X5726582Y10211358D01*
X5702757Y10205313D01*
X5678627Y10200995D01*
X5654192Y10198404D01*
X5629402Y10197490D01*
G37*

%LPC*%
G36*
X4124960Y10251490D02*
G01*
X4141470Y10251948D01*
X4157827Y10254284D01*
X4173778Y10258501D01*
X4189171Y10264495D01*
X4203801Y10272217D01*
X4217416Y10281513D01*
X4229912Y10292334D01*
X4241088Y10304475D01*
X4250791Y10317835D01*
X4258919Y10332262D01*
X4265320Y10347452D01*
X4269994Y10363301D01*
X4272788Y10379557D01*
X4273753Y10396067D01*
X4272788Y10412526D01*
X4269994Y10428833D01*
X4265320Y10444683D01*
X4258919Y10459872D01*
X4250791Y10474248D01*
X4241088Y10487609D01*
X4229912Y10499801D01*
X4217416Y10510570D01*
X4203801Y10519918D01*
X4189171Y10527639D01*
X4173778Y10533634D01*
X4157827Y10537799D01*
X4141470Y10540136D01*
X4124960Y10540644D01*
X4108500Y10539222D01*
X4092346Y10535920D01*
X4076649Y10530840D01*
X4061612Y10523982D01*
X4047439Y10515447D01*
X4034383Y10505338D01*
X4022547Y10493857D01*
X4012082Y10481056D01*
X4003141Y10467187D01*
X3995877Y10452354D01*
X3990340Y10436809D01*
X3986580Y10420705D01*
X3984701Y10404297D01*
X3984701Y10387787D01*
X3986580Y10371378D01*
X3990340Y10355326D01*
X3995877Y10339730D01*
X4003141Y10324947D01*
X4012082Y10311028D01*
X4022547Y10298277D01*
X4034383Y10286746D01*
X4047439Y10276636D01*
X4061612Y10268153D01*
X4076649Y10261295D01*
X4092346Y10256164D01*
X4108500Y10252913D01*
G37*
G36*
X4696460Y10251490D02*
G01*
X4712970Y10251948D01*
X4729327Y10254284D01*
X4745278Y10258501D01*
X4760671Y10264495D01*
X4775301Y10272217D01*
X4788916Y10281513D01*
X4801412Y10292334D01*
X4812588Y10304475D01*
X4822291Y10317835D01*
X4830419Y10332262D01*
X4836820Y10347452D01*
X4841494Y10363301D01*
X4844288Y10379557D01*
X4845253Y10396067D01*
X4844288Y10412526D01*
X4841494Y10428833D01*
X4836820Y10444683D01*
X4830419Y10459872D01*
X4822291Y10474248D01*
X4812588Y10487609D01*
X4801412Y10499801D01*
X4788916Y10510570D01*
X4775301Y10519918D01*
X4760671Y10527639D01*
X4745278Y10533634D01*
X4729327Y10537799D01*
X4712970Y10540136D01*
X4696460Y10540644D01*
X4680000Y10539222D01*
X4663846Y10535920D01*
X4648149Y10530840D01*
X4633112Y10523982D01*
X4618939Y10515447D01*
X4605883Y10505338D01*
X4595571Y10495381D01*
X4592320Y10493248D01*
X4588459Y10492486D01*
X4584649Y10493248D01*
X4581347Y10495432D01*
X4579162Y10498683D01*
X4578350Y10500614D01*
X4572660Y10509605D01*
X4565650Y10517530D01*
X4557420Y10524236D01*
X4548225Y10529519D01*
X4538319Y10533278D01*
X4528007Y10535412D01*
X4515967Y10535767D01*
X4512259Y10536631D01*
X4509109Y10538764D01*
X4503877Y10543997D01*
X4501692Y10547248D01*
X4500930Y10551160D01*
X4500930Y10766704D01*
X4501692Y10770565D01*
X4503877Y10773867D01*
X4507179Y10776102D01*
X4511090Y10776864D01*
X4514951Y10776102D01*
X4518253Y10773867D01*
X4670704Y10621467D01*
X4677257Y10616031D01*
X4684318Y10612272D01*
X4691989Y10609935D01*
X4700473Y10609122D01*
X4822291Y10609122D01*
X4826558Y10608157D01*
X4830064Y10605465D01*
X4832096Y10601553D01*
X4832299Y10597184D01*
X4830572Y10593120D01*
X4826304Y10586974D01*
X4821174Y10576661D01*
X4817668Y10565638D01*
X4815890Y10554208D01*
X4815890Y10542676D01*
X4817668Y10531297D01*
X4821174Y10520273D01*
X4826304Y10509910D01*
X4832908Y10500461D01*
X4840935Y10492181D01*
X4850130Y10485170D01*
X4860239Y10479633D01*
X4871110Y10475722D01*
X4882438Y10473537D01*
X4893970Y10473080D01*
X4905451Y10474401D01*
X4916576Y10477500D01*
X4927142Y10482224D01*
X4936794Y10488472D01*
X4945430Y10496143D01*
X4952796Y10505084D01*
X4958689Y10514990D01*
X4963007Y10525709D01*
X4965649Y10536936D01*
X4966512Y10548467D01*
X4965649Y10559948D01*
X4963007Y10571226D01*
X4960924Y10576356D01*
X4960162Y10580319D01*
X4961026Y10584281D01*
X4963363Y10587583D01*
X4966817Y10589717D01*
X4970780Y10590326D01*
X4974691Y10589361D01*
X4976672Y10588447D01*
X4986832Y10585450D01*
X4997348Y10584180D01*
X5007965Y10584637D01*
X5018328Y10586720D01*
X5028234Y10590479D01*
X5037429Y10595813D01*
X5045659Y10602518D01*
X5052669Y10610443D01*
X5058359Y10619384D01*
X5062524Y10629138D01*
X5065014Y10639450D01*
X5065877Y10650016D01*
X5065014Y10660583D01*
X5062524Y10670895D01*
X5058359Y10680649D01*
X5052669Y10689590D01*
X5045659Y10697514D01*
X5037429Y10704220D01*
X5028234Y10709554D01*
X5018328Y10713313D01*
X5007965Y10715396D01*
X4997348Y10715853D01*
X4986832Y10714583D01*
X4976672Y10711586D01*
X4974640Y10710672D01*
X4970729Y10709706D01*
X4966766Y10710316D01*
X4963312Y10712450D01*
X4960975Y10715752D01*
X4960112Y10719663D01*
X4960874Y10723626D01*
X4963007Y10728909D01*
X4965649Y10740136D01*
X4966512Y10751667D01*
X4965649Y10763148D01*
X4963007Y10774426D01*
X4958689Y10785094D01*
X4952796Y10795050D01*
X4945430Y10803940D01*
X4936794Y10811611D01*
X4927142Y10817910D01*
X4916576Y10822635D01*
X4905451Y10825683D01*
X4893970Y10827004D01*
X4882438Y10826546D01*
X4871110Y10824362D01*
X4860239Y10820450D01*
X4850130Y10814964D01*
X4840935Y10807954D01*
X4832908Y10799622D01*
X4826304Y10790174D01*
X4821174Y10779861D01*
X4817668Y10768838D01*
X4815890Y10757408D01*
X4815890Y10745876D01*
X4817668Y10734497D01*
X4821174Y10723473D01*
X4826304Y10713110D01*
X4830622Y10706912D01*
X4832350Y10702848D01*
X4832146Y10698480D01*
X4830114Y10694568D01*
X4826609Y10691876D01*
X4822342Y10690910D01*
X4721148Y10690910D01*
X4717237Y10691672D01*
X4713935Y10693908D01*
X4662373Y10745470D01*
X4660036Y10749076D01*
X4659426Y10753293D01*
X4660595Y10757458D01*
X4663389Y10760710D01*
X4667300Y10762538D01*
X4671568Y10762589D01*
X4680000Y10760913D01*
X4696460Y10759490D01*
X4712970Y10759948D01*
X4729327Y10762284D01*
X4745278Y10766501D01*
X4760671Y10772495D01*
X4775301Y10780217D01*
X4788916Y10789513D01*
X4801412Y10800334D01*
X4812588Y10812475D01*
X4822291Y10825835D01*
X4830419Y10840262D01*
X4836820Y10855452D01*
X4841494Y10871301D01*
X4844288Y10887557D01*
X4845253Y10904067D01*
X4844288Y10920526D01*
X4841494Y10936833D01*
X4836820Y10952683D01*
X4830419Y10967872D01*
X4822291Y10982248D01*
X4812588Y10995609D01*
X4801412Y11007801D01*
X4788916Y11018570D01*
X4775301Y11027918D01*
X4760671Y11035639D01*
X4745278Y11041634D01*
X4729327Y11045799D01*
X4712970Y11048136D01*
X4696460Y11048644D01*
X4680000Y11047222D01*
X4663846Y11043920D01*
X4648149Y11038840D01*
X4633112Y11031982D01*
X4618939Y11023447D01*
X4605883Y11013338D01*
X4598162Y11005870D01*
X4594860Y11003686D01*
X4590948Y11002975D01*
X4587138Y11003788D01*
X4583836Y11005972D01*
X4581652Y11009274D01*
X4580890Y11013135D01*
X4580890Y11204448D01*
X4580077Y11212931D01*
X4577740Y11220602D01*
X4573981Y11227663D01*
X4568596Y11234267D01*
X3799941Y12002871D01*
X3797604Y12006529D01*
X3796995Y12010847D01*
X3798265Y12015012D01*
X3801110Y12018264D01*
X3805123Y12019991D01*
X3813301Y12021667D01*
X3823208Y12025426D01*
X3832402Y12030760D01*
X3840632Y12037466D01*
X3847642Y12045391D01*
X3853332Y12054332D01*
X3857498Y12064085D01*
X3859987Y12074398D01*
X3860850Y12084964D01*
X3859987Y12095530D01*
X3857498Y12105843D01*
X3853332Y12115596D01*
X3847642Y12124537D01*
X3836873Y12136780D01*
X3835908Y12141149D01*
X3835908Y12268809D01*
X3836873Y12273127D01*
X3847642Y12285370D01*
X3853332Y12294362D01*
X3857498Y12304115D01*
X3859987Y12314377D01*
X3860850Y12324943D01*
X3859987Y12335560D01*
X3857498Y12345822D01*
X3853332Y12355576D01*
X3847642Y12364567D01*
X3840937Y12372086D01*
X3839006Y12375438D01*
X3838397Y12379248D01*
X3839311Y12383008D01*
X3841546Y12386157D01*
X3844747Y12388240D01*
X3848557Y12389002D01*
X3984853Y12389002D01*
X3988765Y12388240D01*
X3992016Y12386005D01*
X4056075Y12321946D01*
X4058310Y12318695D01*
X4059072Y12314783D01*
X4059072Y12104928D01*
X4058564Y12101677D01*
X4057040Y12098782D01*
X4054297Y12095226D01*
X4049420Y12085828D01*
X4046016Y12075769D01*
X4044340Y12065304D01*
X4044340Y12054687D01*
X4046016Y12044222D01*
X4049420Y12034164D01*
X4054297Y12024766D01*
X4060698Y12016333D01*
X4068318Y12008967D01*
X4077055Y12002922D01*
X4086656Y11998401D01*
X4096816Y11995454D01*
X4107332Y11994184D01*
X4117949Y11994591D01*
X4128312Y11996724D01*
X4138218Y12000484D01*
X4147413Y12005767D01*
X4155643Y12012472D01*
X4162653Y12020397D01*
X4168343Y12029389D01*
X4172508Y12039142D01*
X4174998Y12049404D01*
X4175861Y12059970D01*
X4174998Y12070588D01*
X4172508Y12080849D01*
X4168343Y12090603D01*
X4162450Y12099899D01*
X4161282Y12102490D01*
X4160875Y12105335D01*
X4160875Y12339878D01*
X4160672Y12344501D01*
X4160113Y12348921D01*
X4159148Y12353239D01*
X4157827Y12357506D01*
X4156100Y12361570D01*
X4154068Y12365532D01*
X4151680Y12369292D01*
X4148988Y12372797D01*
X4145838Y12376251D01*
X4046321Y12475768D01*
X4042867Y12478918D01*
X4039362Y12481610D01*
X4035602Y12483998D01*
X4031640Y12486030D01*
X4027576Y12487757D01*
X4023309Y12489078D01*
X4018991Y12490043D01*
X4014571Y12490602D01*
X4009948Y12490805D01*
X2611272Y12490805D01*
X2607056Y12491720D01*
X2603601Y12494310D01*
X2601569Y12498070D01*
X2601214Y12502388D01*
X2602738Y12506452D01*
X2605989Y12509652D01*
X2613710Y12516510D01*
X2616860Y12518440D01*
X2620467Y12519101D01*
X4234738Y12519101D01*
X4238650Y12518339D01*
X4241901Y12516104D01*
X4686096Y12071908D01*
X4688332Y12068657D01*
X4689094Y12064746D01*
X4689094Y11670334D01*
X4688332Y11666524D01*
X4686249Y11663273D01*
X4681474Y11658295D01*
X4674768Y11648795D01*
X4669637Y11638381D01*
X4666132Y11627307D01*
X4664354Y11615826D01*
X4664354Y11604193D01*
X4666132Y11592712D01*
X4669637Y11581638D01*
X4674768Y11571224D01*
X4681474Y11561724D01*
X4689500Y11553342D01*
X4698746Y11546332D01*
X4708956Y11540794D01*
X4719878Y11536832D01*
X4731308Y11534648D01*
X4742891Y11534190D01*
X4754422Y11535511D01*
X4765649Y11538610D01*
X4776266Y11543334D01*
X4785969Y11549684D01*
X4794656Y11557406D01*
X4802073Y11566347D01*
X4808016Y11576354D01*
X4812334Y11587124D01*
X4814976Y11598402D01*
X4815890Y11609984D01*
X4814976Y11621617D01*
X4812334Y11632895D01*
X4808016Y11643664D01*
X4802073Y11653672D01*
X4794300Y11662968D01*
X4791811Y11666372D01*
X4790897Y11670538D01*
X4790897Y12089841D01*
X4790694Y12094464D01*
X4790135Y12098883D01*
X4789170Y12103201D01*
X4787849Y12107468D01*
X4786122Y12111532D01*
X4784090Y12115495D01*
X4781702Y12119254D01*
X4779010Y12122759D01*
X4775860Y12126214D01*
X4296206Y12605867D01*
X4292752Y12609017D01*
X4289247Y12611709D01*
X4285488Y12614097D01*
X4281525Y12616129D01*
X4277461Y12617856D01*
X4273194Y12619177D01*
X4268876Y12620142D01*
X4264456Y12620701D01*
X4259834Y12620904D01*
X2620467Y12620904D01*
X2616860Y12621564D01*
X2613710Y12623495D01*
X2605989Y12630353D01*
X2600807Y12633706D01*
X2597759Y12636804D01*
X2596235Y12640868D01*
X2596591Y12645186D01*
X2598674Y12648946D01*
X2602179Y12651536D01*
X2606243Y12653365D01*
X2615996Y12659664D01*
X2623769Y12666573D01*
X2626918Y12668504D01*
X2630525Y12669164D01*
X4734661Y12669164D01*
X4738573Y12668402D01*
X4741824Y12666167D01*
X5406085Y12001906D01*
X5408320Y11998655D01*
X5409082Y11994743D01*
X5409082Y11480292D01*
X5408320Y11476482D01*
X5406237Y11473230D01*
X5401462Y11468252D01*
X5394807Y11458752D01*
X5389626Y11448338D01*
X5386120Y11437264D01*
X5384342Y11425783D01*
X5384342Y11414201D01*
X5386120Y11402720D01*
X5389626Y11391646D01*
X5394807Y11381232D01*
X5401462Y11371732D01*
X5409539Y11363350D01*
X5418785Y11356289D01*
X5428945Y11350752D01*
X5439918Y11346840D01*
X5451297Y11344605D01*
X5462930Y11344148D01*
X5474462Y11345519D01*
X5485638Y11348567D01*
X5496255Y11353342D01*
X5506008Y11359642D01*
X5514695Y11367363D01*
X5522061Y11376355D01*
X5528005Y11386312D01*
X5532374Y11397081D01*
X5535015Y11408410D01*
X5535879Y11419992D01*
X5535015Y11431574D01*
X5532374Y11442903D01*
X5528005Y11453672D01*
X5522061Y11463629D01*
X5514289Y11472976D01*
X5511800Y11476380D01*
X5510885Y11480546D01*
X5510885Y12019838D01*
X5510682Y12024461D01*
X5510123Y12028881D01*
X5509158Y12033199D01*
X5507837Y12037466D01*
X5506110Y12041530D01*
X5504078Y12045492D01*
X5501690Y12049252D01*
X5498998Y12052757D01*
X5495848Y12056211D01*
X4796129Y12755930D01*
X4792675Y12759080D01*
X4789170Y12761772D01*
X4785410Y12764160D01*
X4781448Y12766192D01*
X4777384Y12767919D01*
X4773117Y12769240D01*
X4768799Y12770205D01*
X4764379Y12770764D01*
X4759756Y12770967D01*
X2630424Y12770967D01*
X2626766Y12771628D01*
X2623616Y12773558D01*
X2615996Y12780365D01*
X2606243Y12786664D01*
X2595626Y12791440D01*
X2584450Y12794488D01*
X2572918Y12795859D01*
X2561285Y12795402D01*
X2549906Y12793167D01*
X2538933Y12789255D01*
X2528773Y12783718D01*
X2519527Y12776657D01*
X2511450Y12768275D01*
X2504795Y12758775D01*
X2499614Y12748361D01*
X2496108Y12737287D01*
X2494330Y12725806D01*
X2494330Y12714224D01*
X2496108Y12702743D01*
X2499614Y12691668D01*
X2504795Y12681254D01*
X2511450Y12671755D01*
X2519527Y12663373D01*
X2529433Y12655804D01*
X2532126Y12652806D01*
X2533396Y12648996D01*
X2533091Y12644983D01*
X2531262Y12641376D01*
X2528163Y12638786D01*
X2518765Y12633706D01*
X2509520Y12626644D01*
X2501493Y12618262D01*
X2494788Y12608763D01*
X2489657Y12598349D01*
X2486152Y12587274D01*
X2484374Y12575794D01*
X2484374Y12564211D01*
X2486152Y12552730D01*
X2489657Y12541656D01*
X2494788Y12531242D01*
X2501493Y12521742D01*
X2509520Y12513360D01*
X2515158Y12509042D01*
X2517902Y12505893D01*
X2519121Y12501880D01*
X2518664Y12497714D01*
X2516530Y12494107D01*
X2513126Y12491669D01*
X2509012Y12490805D01*
X2070303Y12490805D01*
X2065680Y12490602D01*
X2061260Y12490043D01*
X2056942Y12489078D01*
X2052675Y12487706D01*
X2048611Y12486030D01*
X2044649Y12483998D01*
X2040940Y12481610D01*
X2037384Y12478867D01*
X2033981Y12475768D01*
X1626616Y12068860D01*
X1623517Y12066727D01*
X1619808Y12065914D01*
X1611325Y12065609D01*
X1599895Y12063374D01*
X1588973Y12059462D01*
X1578762Y12053874D01*
X1569516Y12046864D01*
X1561439Y12038482D01*
X1554784Y12028982D01*
X1549603Y12018568D01*
X1546098Y12007494D01*
X1544370Y11996013D01*
X1544370Y11984380D01*
X1546098Y11972899D01*
X1549603Y11961825D01*
X1554784Y11951411D01*
X1561439Y11941911D01*
X1569516Y11933580D01*
X1578762Y11926519D01*
X1588973Y11920982D01*
X1599895Y11917019D01*
X1611325Y11914835D01*
X1622907Y11914378D01*
X1634439Y11915698D01*
X1645666Y11918797D01*
X1656232Y11923522D01*
X1665986Y11929872D01*
X1674672Y11937593D01*
X1682089Y11946534D01*
X1687982Y11956542D01*
X1692351Y11967311D01*
X1694992Y11978640D01*
X1695907Y11990730D01*
X1696821Y11994184D01*
X1698853Y11997131D01*
X2088184Y12386005D01*
X2091486Y12388240D01*
X2095398Y12389002D01*
X3391611Y12389002D01*
X3395573Y12388189D01*
X3398875Y12385954D01*
X3401060Y12382652D01*
X3401771Y12378690D01*
X3400958Y12374778D01*
X3398672Y12371527D01*
X3395675Y12368631D01*
X3389325Y12360198D01*
X3384397Y12350800D01*
X3381044Y12340742D01*
X3379317Y12330277D01*
X3379317Y12319660D01*
X3381044Y12309195D01*
X3384397Y12299137D01*
X3389325Y12289739D01*
X3395675Y12281306D01*
X3400958Y12276226D01*
X3403295Y12272873D01*
X3404108Y12268911D01*
X3404108Y11756186D01*
X3403295Y11752275D01*
X3401110Y11748973D01*
X3310991Y11658854D01*
X3307689Y11656618D01*
X3303778Y11655856D01*
X3226054Y11655856D01*
X3221888Y11656771D01*
X3218434Y11659311D01*
X3215640Y11662460D01*
X3207410Y11669166D01*
X3198215Y11674500D01*
X3188309Y11678259D01*
X3177946Y11680342D01*
X3167329Y11680799D01*
X3156813Y11679529D01*
X3146653Y11676532D01*
X3137052Y11672011D01*
X3128314Y11665966D01*
X3120694Y11658650D01*
X3114344Y11650167D01*
X3109417Y11640769D01*
X3106013Y11630710D01*
X3104337Y11620246D01*
X3104337Y11609679D01*
X3106013Y11599214D01*
X3109417Y11589156D01*
X3114344Y11579758D01*
X3120694Y11571274D01*
X3128314Y11563959D01*
X3137052Y11557914D01*
X3146653Y11553393D01*
X3156813Y11550396D01*
X3167329Y11549126D01*
X3177946Y11549583D01*
X3188309Y11551666D01*
X3198215Y11555425D01*
X3207410Y11560759D01*
X3215640Y11567464D01*
X3218434Y11570614D01*
X3221888Y11573154D01*
X3226054Y11574068D01*
X3324453Y11574068D01*
X3332937Y11574881D01*
X3340608Y11577218D01*
X3347669Y11580977D01*
X3354222Y11586413D01*
X3473551Y11705742D01*
X3478987Y11712295D01*
X3482746Y11719356D01*
X3485083Y11727027D01*
X3485896Y11735511D01*
X3485896Y12268758D01*
X3486912Y12273127D01*
X3497681Y12285370D01*
X3503320Y12294362D01*
X3507486Y12304115D01*
X3510026Y12314377D01*
X3510889Y12324943D01*
X3510026Y12335560D01*
X3507486Y12345822D01*
X3503320Y12355576D01*
X3497681Y12364567D01*
X3490976Y12372086D01*
X3488994Y12375438D01*
X3488436Y12379248D01*
X3489299Y12383008D01*
X3491534Y12386157D01*
X3494786Y12388240D01*
X3498596Y12389002D01*
X3641445Y12389002D01*
X3645357Y12388189D01*
X3648659Y12385954D01*
X3650843Y12382652D01*
X3651605Y12378690D01*
X3650742Y12374778D01*
X3648456Y12371527D01*
X3645611Y12368784D01*
X3639261Y12360300D01*
X3634333Y12350902D01*
X3630980Y12340844D01*
X3629253Y12330379D01*
X3629253Y12319812D01*
X3630980Y12309348D01*
X3634333Y12299289D01*
X3639261Y12289891D01*
X3645611Y12281408D01*
X3651910Y12275362D01*
X3654196Y12272111D01*
X3655060Y12268200D01*
X3657701Y12120016D01*
X3656837Y12115749D01*
X3654298Y12112193D01*
X3650437Y12110059D01*
X3646068Y12109754D01*
X3642004Y12111329D01*
X3638956Y12114479D01*
X3632657Y12124588D01*
X3625646Y12132462D01*
X3617417Y12139168D01*
X3608222Y12144502D01*
X3598316Y12148261D01*
X3587953Y12150344D01*
X3577336Y12150801D01*
X3566820Y12149531D01*
X3556660Y12146534D01*
X3547059Y12142012D01*
X3538321Y12135967D01*
X3530701Y12128652D01*
X3524300Y12120168D01*
X3519424Y12110770D01*
X3516020Y12100712D01*
X3514344Y12090247D01*
X3514344Y12079681D01*
X3516020Y12069216D01*
X3519424Y12059158D01*
X3524300Y12049760D01*
X3530701Y12041276D01*
X3535984Y12036196D01*
X3538270Y12032843D01*
X3539083Y12028881D01*
X3539083Y11940489D01*
X3539947Y11932056D01*
X3542233Y11924385D01*
X3546043Y11917324D01*
X3551428Y11910720D01*
X3555898Y11906250D01*
X3558082Y11903049D01*
X3558895Y11899290D01*
X3558235Y11895480D01*
X3556203Y11892178D01*
X3553053Y11889892D01*
X3547059Y11887047D01*
X3538321Y11881002D01*
X3530701Y11873687D01*
X3524300Y11865203D01*
X3519424Y11855805D01*
X3516020Y11845747D01*
X3514344Y11835282D01*
X3514344Y11824716D01*
X3516020Y11814251D01*
X3519424Y11804192D01*
X3524300Y11794794D01*
X3530701Y11786311D01*
X3538321Y11778996D01*
X3547059Y11772950D01*
X3556660Y11768429D01*
X3566820Y11765432D01*
X3577336Y11764162D01*
X3583127Y11764416D01*
X3587242Y11763705D01*
X3590696Y11761419D01*
X3888892Y11463274D01*
X3891127Y11459972D01*
X3891889Y11456060D01*
X3891127Y11452199D01*
X3888892Y11448897D01*
X3885590Y11446662D01*
X3881729Y11445900D01*
X3010204Y11445900D01*
X3004312Y11445697D01*
X2998774Y11445087D01*
X2989884Y11443157D01*
X2982112Y11440617D01*
X2979064Y11439347D01*
X2971952Y11435689D01*
X2968853Y11433759D01*
X2962605Y11429288D01*
X2959557Y11426748D01*
X2954274Y11421567D01*
X2951480Y11418366D01*
X2947263Y11412677D01*
X2944774Y11408867D01*
X2941574Y11402872D01*
X2939643Y11398402D01*
X2937459Y11392357D01*
X2936087Y11387328D01*
X2934970Y11381282D01*
X2934309Y11375847D01*
X2934106Y11369802D01*
X2934106Y10965230D01*
X2933344Y10961370D01*
X2931109Y10958068D01*
X2786481Y10813440D01*
X2781350Y10807801D01*
X2779014Y10804753D01*
X2774696Y10798251D01*
X2772968Y10795203D01*
X2769565Y10787837D01*
X2768396Y10784789D01*
X2766060Y10776712D01*
X2765450Y10773867D01*
X2764282Y10765231D01*
X2764332Y10753598D01*
X2764536Y10751362D01*
X2766720Y10739932D01*
X2770428Y10729264D01*
X2775762Y10719206D01*
X2782519Y10710062D01*
X2789478Y10703001D01*
X2798775Y10695889D01*
X2808935Y10690352D01*
X2819908Y10686440D01*
X2831287Y10684205D01*
X2842818Y10683748D01*
X2854096Y10685018D01*
X2865069Y10687964D01*
X2875432Y10692485D01*
X2885033Y10698530D01*
X2893923Y10706201D01*
X3065526Y10877804D01*
X3071164Y10884662D01*
X3077210Y10894314D01*
X3078327Y10896498D01*
X3081731Y10904677D01*
X3082493Y10907014D01*
X3084626Y10915650D01*
X3085033Y10918088D01*
X3085846Y10926927D01*
X3085896Y11283950D01*
X3086658Y11287810D01*
X3088894Y11291112D01*
X3092196Y11293297D01*
X3096056Y11294110D01*
X3922674Y11294160D01*
X3931513Y11294973D01*
X3933951Y11295380D01*
X3942537Y11297513D01*
X3944874Y11298275D01*
X3953103Y11301679D01*
X3955287Y11302796D01*
X3964940Y11308842D01*
X3971747Y11314480D01*
X3974541Y11317224D01*
X3981094Y11324996D01*
X3985818Y11332159D01*
X3987952Y11336172D01*
X3990390Y11341963D01*
X3992626Y11345265D01*
X3995877Y11347450D01*
X3999788Y11348212D01*
X4003649Y11347399D01*
X4006951Y11345214D01*
X4256125Y11096040D01*
X4258310Y11092738D01*
X4259072Y11088878D01*
X4259072Y11002670D01*
X4258614Y10999622D01*
X4256989Y10996523D01*
X4253687Y10993475D01*
X4249369Y10992205D01*
X4244898Y10992916D01*
X4241190Y10995456D01*
X4229912Y11007801D01*
X4217416Y11018570D01*
X4203801Y11027918D01*
X4189171Y11035639D01*
X4173778Y11041634D01*
X4157827Y11045799D01*
X4141470Y11048136D01*
X4124960Y11048644D01*
X4108500Y11047222D01*
X4092346Y11043920D01*
X4076649Y11038840D01*
X4061612Y11031982D01*
X4047439Y11023447D01*
X4034383Y11013338D01*
X4022547Y11001857D01*
X4012082Y10989056D01*
X4003141Y10975187D01*
X3995877Y10960354D01*
X3990340Y10944809D01*
X3986580Y10928705D01*
X3984701Y10912297D01*
X3984701Y10895787D01*
X3986580Y10879378D01*
X3990340Y10863326D01*
X3995877Y10847730D01*
X4003141Y10832947D01*
X4012082Y10819028D01*
X4022547Y10806277D01*
X4034383Y10794746D01*
X4047439Y10784636D01*
X4061612Y10776153D01*
X4076649Y10769295D01*
X4092346Y10764164D01*
X4108500Y10760913D01*
X4124960Y10759490D01*
X4141470Y10759948D01*
X4157827Y10762284D01*
X4173778Y10766501D01*
X4189171Y10772495D01*
X4203801Y10780217D01*
X4217416Y10789513D01*
X4229912Y10800334D01*
X4241088Y10812475D01*
X4250791Y10825835D01*
X4258919Y10840262D01*
X4265320Y10855452D01*
X4269994Y10871301D01*
X4272788Y10887557D01*
X4273296Y10896346D01*
X4274515Y10900664D01*
X4277512Y10904016D01*
X4281576Y10905794D01*
X4286046Y10905591D01*
X4290212Y10904474D01*
X4300016Y10903661D01*
X4309770Y10904474D01*
X4319270Y10907014D01*
X4324604Y10909503D01*
X4328566Y10910468D01*
X4332528Y10909808D01*
X4335983Y10907623D01*
X4338269Y10904270D01*
X4339082Y10900308D01*
X4339082Y10526064D01*
X4338269Y10522102D01*
X4335932Y10518749D01*
X4330700Y10513669D01*
X4324350Y10505236D01*
X4319422Y10495838D01*
X4316018Y10485780D01*
X4314342Y10475315D01*
X4314342Y10464698D01*
X4316018Y10454233D01*
X4319422Y10444175D01*
X4324350Y10434777D01*
X4330700Y10426344D01*
X4338320Y10418978D01*
X4347057Y10412933D01*
X4356658Y10408412D01*
X4366818Y10405465D01*
X4377334Y10404195D01*
X4387951Y10404602D01*
X4398314Y10406735D01*
X4408220Y10410494D01*
X4417415Y10415778D01*
X4425645Y10422483D01*
X4432655Y10430408D01*
X4438345Y10439400D01*
X4440529Y10444581D01*
X4442663Y10447731D01*
X4445812Y10449915D01*
X4449521Y10450728D01*
X4453280Y10450169D01*
X4456582Y10448239D01*
X4458919Y10445292D01*
X4464354Y10434777D01*
X4470704Y10426344D01*
X4478324Y10418978D01*
X4487062Y10412933D01*
X4496663Y10408412D01*
X4506823Y10405465D01*
X4517339Y10404195D01*
X4527956Y10404602D01*
X4538319Y10406735D01*
X4542434Y10408310D01*
X4546295Y10408970D01*
X4550105Y10408107D01*
X4553305Y10405872D01*
X4555439Y10402620D01*
X4556201Y10398810D01*
X4556201Y10387787D01*
X4558080Y10371378D01*
X4561840Y10355326D01*
X4567377Y10339730D01*
X4574641Y10324947D01*
X4583582Y10311028D01*
X4594047Y10298277D01*
X4605883Y10286746D01*
X4618939Y10276636D01*
X4633112Y10268153D01*
X4648149Y10261295D01*
X4663846Y10256164D01*
X4680000Y10252913D01*
G37*
G36*
X1556258Y10257028D02*
G01*
X1562862Y10260482D01*
X1584756Y10274249D01*
X1605534Y10289590D01*
X1625142Y10306507D01*
X1643430Y10324795D01*
X1660347Y10344404D01*
X1675688Y10365181D01*
X1689455Y10387076D01*
X1692910Y10393680D01*
X1556258Y10393680D01*
G37*
G36*
X5443728Y10257028D02*
G01*
X5443728Y10393680D01*
X5307076Y10393680D01*
X5310530Y10387076D01*
X5324297Y10365181D01*
X5339638Y10344404D01*
X5356555Y10324795D01*
X5374843Y10306507D01*
X5394452Y10289590D01*
X5415229Y10274249D01*
X5437124Y10260482D01*
G37*
G36*
X5776468Y10257028D02*
G01*
X5783072Y10260482D01*
X5804966Y10274249D01*
X5825744Y10289590D01*
X5845352Y10306507D01*
X5863640Y10324795D01*
X5880557Y10344404D01*
X5895898Y10365181D01*
X5909665Y10387076D01*
X5913120Y10393680D01*
X5776468Y10393680D01*
G37*
G36*
X1223518Y10257028D02*
G01*
X1223518Y10393680D01*
X1086866Y10393680D01*
X1090320Y10387076D01*
X1104087Y10365181D01*
X1119428Y10344404D01*
X1136345Y10324795D01*
X1154633Y10306507D01*
X1174242Y10289590D01*
X1195019Y10274249D01*
X1216914Y10260482D01*
G37*
G36*
X4131970Y10574680D02*
G01*
X4143451Y10576001D01*
X4154576Y10579100D01*
X4165142Y10583824D01*
X4174794Y10590072D01*
X4183430Y10597743D01*
X4190796Y10606684D01*
X4196689Y10616590D01*
X4201007Y10627309D01*
X4203649Y10638536D01*
X4204512Y10650067D01*
X4203649Y10661548D01*
X4201007Y10672826D01*
X4196689Y10683494D01*
X4190796Y10693450D01*
X4183430Y10702340D01*
X4174794Y10710011D01*
X4165142Y10716310D01*
X4154576Y10721035D01*
X4143451Y10724083D01*
X4131970Y10725404D01*
X4120438Y10724946D01*
X4109110Y10722762D01*
X4098239Y10718850D01*
X4088129Y10713364D01*
X4078935Y10706354D01*
X4070908Y10698022D01*
X4064304Y10688574D01*
X4059174Y10678261D01*
X4055668Y10667238D01*
X4053890Y10655808D01*
X4053890Y10644276D01*
X4055668Y10632897D01*
X4059174Y10621873D01*
X4064304Y10611510D01*
X4070908Y10602061D01*
X4078935Y10593781D01*
X4088129Y10586770D01*
X4098239Y10581233D01*
X4109110Y10577322D01*
X4120438Y10575137D01*
G37*
G36*
X5776468Y10726420D02*
G01*
X5913120Y10726420D01*
X5909665Y10733024D01*
X5895898Y10754918D01*
X5880557Y10775696D01*
X5863640Y10795304D01*
X5845352Y10813592D01*
X5825744Y10830509D01*
X5804966Y10845850D01*
X5783072Y10859617D01*
X5776468Y10863072D01*
G37*
G36*
X1556258Y10726420D02*
G01*
X1692910Y10726420D01*
X1689455Y10733024D01*
X1675688Y10754918D01*
X1660347Y10775696D01*
X1643430Y10795304D01*
X1625142Y10813592D01*
X1605534Y10830509D01*
X1584756Y10845850D01*
X1562862Y10859617D01*
X1556258Y10863072D01*
G37*
G36*
X1086866Y10726420D02*
G01*
X1223518Y10726420D01*
X1223518Y10863072D01*
X1216914Y10859617D01*
X1195019Y10845850D01*
X1174242Y10830509D01*
X1154633Y10813592D01*
X1136345Y10795304D01*
X1119428Y10775696D01*
X1104087Y10754918D01*
X1090320Y10733024D01*
G37*
G36*
X5307076Y10726420D02*
G01*
X5443728Y10726420D01*
X5443728Y10863072D01*
X5437124Y10859617D01*
X5415229Y10845850D01*
X5394452Y10830509D01*
X5374843Y10813592D01*
X5356555Y10795304D01*
X5339638Y10775696D01*
X5324297Y10754918D01*
X5310530Y10733024D01*
G37*
G36*
X1840179Y10964062D02*
G01*
X2269693Y10964062D01*
X2285187Y10965027D01*
X2300122Y10967770D01*
X2314651Y10972292D01*
X2328519Y10978540D01*
X2341524Y10986414D01*
X2353462Y10995761D01*
X2364232Y11006531D01*
X2373579Y11018469D01*
X2381453Y11031474D01*
X2387701Y11045342D01*
X2392222Y11059871D01*
X2394966Y11074806D01*
X2395880Y11089995D01*
X2394966Y11105184D01*
X2392222Y11120120D01*
X2387701Y11134648D01*
X2381453Y11148517D01*
X2373630Y11161522D01*
X2364232Y11173510D01*
X2353462Y11184229D01*
X2341524Y11193627D01*
X2328519Y11201450D01*
X2314651Y11207699D01*
X2300122Y11212220D01*
X2285187Y11214963D01*
X2269540Y11215878D01*
X2021078Y11215878D01*
X2016912Y11216792D01*
X2013457Y11219332D01*
X2011375Y11223040D01*
X2010968Y11227308D01*
X2012391Y11231321D01*
X2015337Y11234420D01*
X2023262Y11239906D01*
X2033371Y11249050D01*
X2042210Y11259464D01*
X2049525Y11270945D01*
X2055266Y11283340D01*
X2059330Y11296345D01*
X2061565Y11309807D01*
X2062022Y11323421D01*
X2060651Y11336985D01*
X2057501Y11350244D01*
X2052624Y11362994D01*
X2046071Y11374932D01*
X2037943Y11385905D01*
X2028494Y11395710D01*
X2017775Y11404193D01*
X2005584Y11411407D01*
X2002383Y11414353D01*
X2000757Y11418316D01*
X2000910Y11422634D01*
X2002789Y11426494D01*
X2006142Y11429187D01*
X2012035Y11432184D01*
X2023262Y11439906D01*
X2033371Y11449050D01*
X2042210Y11459464D01*
X2049525Y11470944D01*
X2055266Y11483340D01*
X2059330Y11496344D01*
X2061565Y11509806D01*
X2062022Y11523421D01*
X2060651Y11536984D01*
X2057501Y11550243D01*
X2052624Y11562994D01*
X2046071Y11574932D01*
X2037943Y11585905D01*
X2028494Y11595709D01*
X2023364Y11599773D01*
X2020671Y11602974D01*
X2019503Y11606936D01*
X2020062Y11611051D01*
X2022195Y11614658D01*
X2025599Y11617045D01*
X2029663Y11617909D01*
X2035606Y11617909D01*
X2041956Y11618620D01*
X2047392Y11620500D01*
X2052320Y11623598D01*
X2056384Y11627713D01*
X2059482Y11632590D01*
X2061413Y11638076D01*
X2062124Y11644376D01*
X2062124Y11675567D01*
X2004466Y11675567D01*
X2004466Y11626748D01*
X2003755Y11623090D01*
X2001824Y11619941D01*
X1998878Y11617706D01*
X1995322Y11616639D01*
X1991614Y11616944D01*
X1980336Y11620042D01*
X1966823Y11621871D01*
X1953158Y11621871D01*
X1939645Y11620042D01*
X1928418Y11616944D01*
X1924710Y11616639D01*
X1921154Y11617706D01*
X1918157Y11619941D01*
X1916226Y11623090D01*
X1915566Y11626748D01*
X1915566Y11675567D01*
X1866646Y11675567D01*
X1862937Y11676278D01*
X1859737Y11678259D01*
X1857502Y11681307D01*
X1856536Y11684965D01*
X1856943Y11688724D01*
X1859330Y11696344D01*
X1861566Y11709806D01*
X1862023Y11723420D01*
X1860651Y11736984D01*
X1857349Y11750649D01*
X1856689Y11754510D01*
X1857502Y11758320D01*
X1859737Y11761571D01*
X1862988Y11763705D01*
X1866849Y11764467D01*
X1915566Y11764467D01*
X1915566Y11822125D01*
X1884375Y11822125D01*
X1878025Y11821414D01*
X1872589Y11819483D01*
X1867712Y11816435D01*
X1863598Y11812320D01*
X1860499Y11807444D01*
X1858619Y11801957D01*
X1857908Y11795658D01*
X1857908Y11789765D01*
X1857044Y11785650D01*
X1854555Y11782247D01*
X1850898Y11780113D01*
X1846732Y11779656D01*
X1842719Y11780926D01*
X1839569Y11783771D01*
X1837943Y11785904D01*
X1828495Y11795709D01*
X1817776Y11804192D01*
X1806041Y11811101D01*
X1793493Y11816435D01*
X1780336Y11820042D01*
X1766824Y11821871D01*
X1753158Y11821871D01*
X1739646Y11820042D01*
X1726539Y11816435D01*
X1713941Y11811101D01*
X1702206Y11804192D01*
X1691538Y11795709D01*
X1682038Y11785904D01*
X1673961Y11774932D01*
X1667408Y11762994D01*
X1662480Y11750243D01*
X1659331Y11736984D01*
X1657959Y11723420D01*
X1658416Y11709806D01*
X1660702Y11696344D01*
X1664716Y11683339D01*
X1670456Y11670944D01*
X1677822Y11659463D01*
X1686610Y11649049D01*
X1696720Y11639905D01*
X1707997Y11632184D01*
X1713839Y11629186D01*
X1717192Y11626494D01*
X1719122Y11622633D01*
X1719275Y11618315D01*
X1717598Y11614353D01*
X1714449Y11611406D01*
X1702206Y11604193D01*
X1691538Y11595709D01*
X1682038Y11585905D01*
X1673961Y11574932D01*
X1667408Y11562994D01*
X1662480Y11550243D01*
X1659331Y11536984D01*
X1657959Y11523421D01*
X1658416Y11509806D01*
X1660702Y11496344D01*
X1664716Y11483340D01*
X1670456Y11470944D01*
X1677822Y11459464D01*
X1686610Y11449050D01*
X1694078Y11442293D01*
X1696364Y11439296D01*
X1697380Y11435689D01*
X1697024Y11431930D01*
X1695348Y11428577D01*
X1692503Y11426037D01*
X1688490Y11423599D01*
X1676501Y11414252D01*
X1665782Y11403482D01*
X1656384Y11391544D01*
X1648510Y11378488D01*
X1642313Y11364671D01*
X1637792Y11350142D01*
X1635048Y11335207D01*
X1634083Y11319713D01*
X1634083Y11170158D01*
X1634337Y11162385D01*
X1634998Y11154816D01*
X1636166Y11147298D01*
X1637741Y11139881D01*
X1639824Y11132566D01*
X1642262Y11125352D01*
X1645208Y11118342D01*
X1648510Y11111484D01*
X1652270Y11104880D01*
X1656384Y11098479D01*
X1660906Y11092332D01*
X1665782Y11086490D01*
X1671066Y11080851D01*
X1750872Y11001095D01*
X1756511Y10995761D01*
X1762353Y10990884D01*
X1768500Y10986363D01*
X1774901Y10982248D01*
X1781505Y10978489D01*
X1788363Y10975187D01*
X1795373Y10972292D01*
X1802536Y10969802D01*
X1809902Y10967770D01*
X1817319Y10966145D01*
X1824837Y10965027D01*
X1832406Y10964316D01*
G37*
G36*
X4964379Y11217910D02*
G01*
X4995570Y11217910D01*
X4995570Y11275568D01*
X4937912Y11275568D01*
X4937912Y11244376D01*
X4938623Y11238077D01*
X4940503Y11232591D01*
X4943602Y11227714D01*
X4947666Y11223599D01*
X4952593Y11220500D01*
X4958029Y11218621D01*
G37*
G36*
X5084470Y11217910D02*
G01*
X5115610Y11217910D01*
X5121960Y11218621D01*
X5127396Y11220500D01*
X5132324Y11223599D01*
X5136388Y11227714D01*
X5139486Y11232591D01*
X5141417Y11238077D01*
X5142128Y11244376D01*
X5142128Y11250218D01*
X5142992Y11254333D01*
X5145430Y11257788D01*
X5149088Y11259870D01*
X5153304Y11260328D01*
X5157317Y11259058D01*
X5160467Y11256264D01*
X5162042Y11254079D01*
X5171541Y11244275D01*
X5182209Y11235842D01*
X5193944Y11228882D01*
X5206492Y11223548D01*
X5219649Y11219992D01*
X5233162Y11218164D01*
X5246827Y11218164D01*
X5260340Y11219992D01*
X5273497Y11223548D01*
X5286044Y11228882D01*
X5297779Y11235842D01*
X5308498Y11244275D01*
X5317947Y11254079D01*
X5326024Y11265052D01*
X5332577Y11277041D01*
X5337505Y11289741D01*
X5340654Y11303050D01*
X5342026Y11316614D01*
X5341569Y11330228D01*
X5339283Y11343690D01*
X5335270Y11356695D01*
X5329529Y11369090D01*
X5322163Y11380571D01*
X5313375Y11390985D01*
X5303266Y11400129D01*
X5292039Y11407851D01*
X5286146Y11410797D01*
X5282793Y11413540D01*
X5280914Y11417401D01*
X5280761Y11421719D01*
X5282387Y11425682D01*
X5285587Y11428628D01*
X5297779Y11435842D01*
X5308498Y11444274D01*
X5317947Y11454079D01*
X5326024Y11465052D01*
X5332577Y11477040D01*
X5337505Y11489740D01*
X5340654Y11503050D01*
X5342026Y11516614D01*
X5341569Y11530228D01*
X5339283Y11543690D01*
X5335270Y11556695D01*
X5329529Y11569090D01*
X5322163Y11580571D01*
X5313375Y11590985D01*
X5305907Y11597741D01*
X5303621Y11600738D01*
X5302605Y11604345D01*
X5302961Y11608104D01*
X5304637Y11611457D01*
X5307482Y11613946D01*
X5311495Y11616436D01*
X5323484Y11625783D01*
X5334254Y11636552D01*
X5343601Y11648490D01*
X5351475Y11661546D01*
X5357723Y11675364D01*
X5362244Y11689892D01*
X5364988Y11704828D01*
X5365902Y11720322D01*
X5365902Y11869877D01*
X5365699Y11877598D01*
X5364988Y11885168D01*
X5363819Y11892686D01*
X5362244Y11900154D01*
X5360212Y11907469D01*
X5357723Y11914632D01*
X5354828Y11921693D01*
X5351475Y11928500D01*
X5347766Y11935155D01*
X5343601Y11941505D01*
X5339130Y11947652D01*
X5334254Y11953494D01*
X5328920Y11959132D01*
X5229148Y12058904D01*
X5223510Y12064238D01*
X5217668Y12069114D01*
X5211521Y12073636D01*
X5205120Y12077750D01*
X5198516Y12081510D01*
X5191658Y12084812D01*
X5184648Y12087707D01*
X5177485Y12090196D01*
X5170119Y12092228D01*
X5162702Y12093854D01*
X5155184Y12094972D01*
X5147614Y12095683D01*
X5139842Y12095886D01*
X4946700Y12095886D01*
X4931206Y12094972D01*
X4916220Y12092228D01*
X4901742Y12087707D01*
X4887874Y12081459D01*
X4874869Y12073585D01*
X4862880Y12064238D01*
X4852162Y12053468D01*
X4842764Y12041530D01*
X4834890Y12028525D01*
X4828641Y12014657D01*
X4824120Y12000128D01*
X4821377Y11985193D01*
X4820462Y11970004D01*
X4821377Y11954814D01*
X4824120Y11939879D01*
X4828641Y11925350D01*
X4834890Y11911482D01*
X4842764Y11898477D01*
X4852162Y11886539D01*
X4862880Y11875770D01*
X4874869Y11866422D01*
X4887874Y11858548D01*
X4901742Y11852300D01*
X4916220Y11847779D01*
X4931206Y11845036D01*
X4946700Y11844070D01*
X5083657Y11844070D01*
X5087518Y11843308D01*
X5090820Y11841124D01*
X5111140Y11820804D01*
X5113324Y11817553D01*
X5114086Y11812016D01*
X5113172Y11807698D01*
X5110480Y11804243D01*
X5106619Y11802211D01*
X5102250Y11801957D01*
X5098186Y11803634D01*
X5092039Y11807850D01*
X5079847Y11813997D01*
X5066995Y11818467D01*
X5053584Y11821160D01*
X5040020Y11822074D01*
X5026406Y11821160D01*
X5013045Y11818467D01*
X5000142Y11813997D01*
X4988001Y11807850D01*
X4976723Y11800128D01*
X4966614Y11790984D01*
X4957826Y11780570D01*
X4950460Y11769090D01*
X4944719Y11756694D01*
X4940706Y11743690D01*
X4938420Y11730228D01*
X4937963Y11716613D01*
X4939334Y11703050D01*
X4942484Y11689740D01*
X4947412Y11677040D01*
X4953965Y11665051D01*
X4962042Y11654078D01*
X4971542Y11644274D01*
X4982210Y11635841D01*
X4994452Y11628628D01*
X4997602Y11625681D01*
X4999228Y11621719D01*
X4999126Y11617401D01*
X4997196Y11613540D01*
X4993843Y11610797D01*
X4988001Y11607850D01*
X4976723Y11600129D01*
X4966614Y11590985D01*
X4957826Y11580571D01*
X4950460Y11569090D01*
X4944719Y11556695D01*
X4940706Y11543690D01*
X4938420Y11530228D01*
X4937963Y11516614D01*
X4939334Y11503050D01*
X4942484Y11489740D01*
X4947412Y11477040D01*
X4953965Y11465052D01*
X4962042Y11454079D01*
X4971542Y11444274D01*
X4976672Y11440261D01*
X4979314Y11437061D01*
X4980482Y11433048D01*
X4979974Y11428933D01*
X4977790Y11425377D01*
X4974437Y11422989D01*
X4970373Y11422126D01*
X4964379Y11422126D01*
X4958029Y11421414D01*
X4952593Y11419484D01*
X4947666Y11416436D01*
X4943602Y11412321D01*
X4940503Y11407444D01*
X4938623Y11401958D01*
X4937912Y11395659D01*
X4937912Y11364468D01*
X4995570Y11364468D01*
X4995570Y11413236D01*
X4996230Y11416893D01*
X4998161Y11420094D01*
X5001107Y11422329D01*
X5004714Y11423345D01*
X5008372Y11423040D01*
X5019649Y11419992D01*
X5033162Y11418163D01*
X5046827Y11418163D01*
X5060340Y11419992D01*
X5071618Y11423040D01*
X5075326Y11423345D01*
X5078882Y11422329D01*
X5081828Y11420094D01*
X5083759Y11416893D01*
X5084470Y11413236D01*
X5084470Y11364468D01*
X5133340Y11364468D01*
X5137048Y11363756D01*
X5140248Y11361724D01*
X5142534Y11358676D01*
X5143500Y11355019D01*
X5143042Y11351310D01*
X5140706Y11343690D01*
X5138420Y11330228D01*
X5137962Y11316614D01*
X5139334Y11303050D01*
X5142636Y11289385D01*
X5143347Y11285524D01*
X5142484Y11281664D01*
X5140299Y11278463D01*
X5136997Y11276330D01*
X5133187Y11275568D01*
X5084470Y11275568D01*
G37*
G36*
X2004466Y11764467D02*
G01*
X2062124Y11764467D01*
X2062124Y11795658D01*
X2061413Y11801957D01*
X2059482Y11807444D01*
X2056384Y11812320D01*
X2052320Y11816435D01*
X2047392Y11819483D01*
X2041956Y11821414D01*
X2035606Y11822125D01*
X2004466Y11822125D01*
G37*
G36*
X5443728Y12177014D02*
G01*
X5443728Y12313666D01*
X5307076Y12313666D01*
X5310530Y12307062D01*
X5324297Y12285167D01*
X5339638Y12264390D01*
X5356555Y12244781D01*
X5374843Y12226493D01*
X5394452Y12209576D01*
X5415229Y12194235D01*
X5437124Y12180468D01*
G37*
G36*
X1556258Y12177014D02*
G01*
X1562862Y12180468D01*
X1584756Y12194235D01*
X1605534Y12209576D01*
X1625142Y12226493D01*
X1643430Y12244781D01*
X1660347Y12264390D01*
X1675688Y12285167D01*
X1689455Y12307062D01*
X1692910Y12313666D01*
X1556258Y12313666D01*
G37*
G36*
X1223518Y12177014D02*
G01*
X1223518Y12313666D01*
X1086866Y12313666D01*
X1090320Y12307062D01*
X1104087Y12285167D01*
X1119428Y12264390D01*
X1136345Y12244781D01*
X1154633Y12226493D01*
X1174242Y12209576D01*
X1195019Y12194235D01*
X1216914Y12180468D01*
G37*
G36*
X5776468Y12177014D02*
G01*
X5783072Y12180468D01*
X5804966Y12194235D01*
X5825744Y12209576D01*
X5845352Y12226493D01*
X5863640Y12244781D01*
X5880557Y12264390D01*
X5895898Y12285167D01*
X5909665Y12307062D01*
X5913120Y12313666D01*
X5776468Y12313666D01*
G37*
G36*
X5776468Y12646406D02*
G01*
X5913120Y12646406D01*
X5909665Y12653010D01*
X5895898Y12674904D01*
X5880557Y12695682D01*
X5863640Y12715290D01*
X5845352Y12733578D01*
X5825744Y12750495D01*
X5804966Y12765836D01*
X5783072Y12779603D01*
X5776468Y12783058D01*
G37*
G36*
X1556258Y12646406D02*
G01*
X1692910Y12646406D01*
X1689455Y12653010D01*
X1675688Y12674904D01*
X1660347Y12695682D01*
X1643430Y12715290D01*
X1625142Y12733578D01*
X1605534Y12750495D01*
X1584756Y12765836D01*
X1562862Y12779603D01*
X1556258Y12783058D01*
G37*
G36*
X1086866Y12646406D02*
G01*
X1223518Y12646406D01*
X1223518Y12783058D01*
X1216914Y12779603D01*
X1195019Y12765836D01*
X1174242Y12750495D01*
X1154633Y12733578D01*
X1136345Y12715290D01*
X1119428Y12695682D01*
X1104087Y12674904D01*
X1090320Y12653010D01*
G37*
G36*
X5307076Y12646406D02*
G01*
X5443728Y12646406D01*
X5443728Y12783058D01*
X5437124Y12779603D01*
X5415229Y12765836D01*
X5394452Y12750495D01*
X5374843Y12733578D01*
X5356555Y12715290D01*
X5339638Y12695682D01*
X5324297Y12674904D01*
X5310530Y12653010D01*
G37*

%LPD*%
D11*
X2560017Y12570005D02*
G01*
X4260032Y12570005D01*
X4739995Y12090041D01*
X4739995Y11610009D01*
D13*
X3009999Y11370002D02*
G01*
X3920004Y11370002D01*
X3920007Y11370005D01*
D12*
X3169996Y11614962D02*
G01*
X3324951Y11614962D01*
X3444999Y11735010D01*
X3444999Y12324971D01*
X3590008Y11930006D02*
G01*
X3580002Y11940011D01*
X3580002Y12084964D01*
X4379973Y10469879D02*
G01*
X4379973Y11140036D01*
X3590002Y11930006D01*
X3794993Y12324974D02*
G01*
X3794993Y12084974D01*
X3699992Y12044977D02*
G01*
X3694938Y12325095D01*
X4540003Y11200005D02*
G01*
X4540003Y11204966D01*
X3699992Y12044977D01*
X5000015Y10650016D02*
G01*
X4699972Y10650016D01*
X4540001Y10809988D01*
X4540001Y11200005D01*
X3794993Y11834975D02*
G01*
X4460001Y11169967D01*
X4460001Y10810006D01*
X4460001Y10530006D01*
X4520003Y10470004D01*
D13*
X2839999Y10759592D02*
G01*
X3010001Y10929592D01*
X3010001Y11370005D01*
D11*
X1620012Y11990324D02*
G01*
X2070100Y12439904D01*
X4010152Y12439904D01*
X4109974Y12340081D01*
X4109974Y12059920D01*
X2569972Y12720065D02*
G01*
X4759959Y12720065D01*
X5459984Y12020042D01*
X5459984Y11420094D01*
D15*
X4946373Y11970004D02*
G01*
X5140004Y11970004D01*
X5240002Y11870006D01*
X5240002Y11720024D01*
X2269997Y11089995D02*
G01*
X1840011Y11089995D01*
X1760004Y11170003D01*
X1760004Y11320010D01*
D12*
X3580002Y11830006D02*
G01*
X4300001Y11110008D01*
X4300001Y10960006D01*
D28*
G01*
X1959990Y11720017D03*
D29*
G01*
X1759991Y11720017D03*
G01*
X1959990Y11520017D03*
G01*
X1759991Y11520017D03*
G01*
X1959990Y11320018D03*
G01*
X1759991Y11320018D03*
D28*
G01*
X5039995Y11320018D03*
D29*
G01*
X5239994Y11320018D03*
G01*
X5039995Y11520017D03*
G01*
X5239994Y11520017D03*
G01*
X5039995Y11720017D03*
G01*
X5239994Y11720017D03*
D30*
G01*
X4891100Y10751642D03*
G01*
X4891100Y10548442D03*
G01*
X4129100Y10650042D03*
D31*
G01*
X4129100Y10904042D03*
G01*
X4129100Y10396042D03*
G01*
X4700600Y10396042D03*
G01*
X4700600Y10904042D03*
D32*
G01*
X1389887Y12480036D03*
G01*
X5610097Y12480036D03*
G01*
X1389887Y10560050D03*
G01*
X5610097Y10560050D03*
D17*
G01*
X3169996Y11614962D03*
G01*
X3445002Y12324969D03*
G01*
X4380001Y10470006D03*
G01*
X5000015Y10650016D03*
G01*
X3580002Y12084964D03*
G01*
X3694938Y12325095D03*
D13*
G01*
X2839999Y10759592D03*
G01*
X3010001Y11370005D03*
G01*
X3920007Y11370005D03*
D17*
G01*
X3580002Y11829999D03*
G01*
X3794988Y12324969D03*
G01*
X3794988Y12084964D03*
G01*
X3799992Y11829999D03*
G01*
X4520006Y10470006D03*
G01*
X4109999Y12059996D03*
D13*
G01*
X2560015Y12570002D03*
G01*
X4739995Y11610009D03*
G01*
X2569997Y12720015D03*
G01*
X5460009Y11419992D03*
D17*
G01*
X4950002Y10410012D03*
D13*
G01*
X1620012Y11990196D03*
D15*
G01*
X4946370Y11970004D03*
G01*
X2269997Y11089995D03*
D18*
G01*
X3320313Y12229287D03*
G01*
X3320313Y12102287D03*
G01*
X2019172Y12009831D03*
G01*
X2882214Y11763273D03*
G01*
X2882214Y11636273D03*
G01*
X3009214Y11636273D03*
G01*
X3009214Y11509273D03*
G01*
X1107211Y12129388D03*
G01*
X1107211Y11875388D03*
G01*
X1107211Y10859388D03*
G01*
X1234211Y11240388D03*
G01*
X1234211Y10986388D03*
G01*
X1361211Y11875388D03*
G01*
X1488211Y12002388D03*
G01*
X1488211Y11240388D03*
G01*
X1488211Y10986388D03*
G01*
X1615211Y10986388D03*
G01*
X1742211Y12764388D03*
G01*
X1742211Y10859388D03*
G01*
X1742211Y10351388D03*
G01*
X1869211Y12764388D03*
G01*
X1869211Y12637388D03*
G01*
X1869211Y12510388D03*
G01*
X1869211Y10478388D03*
G01*
X1869211Y10351388D03*
G01*
X1996211Y12764388D03*
G01*
X1996211Y12637388D03*
G01*
X2123211Y12764388D03*
G01*
X2123211Y12637388D03*
G01*
X2250211Y12764388D03*
G01*
X2250211Y12637388D03*
G01*
X2377211Y12764388D03*
G01*
X2377211Y12129388D03*
G01*
X2377211Y11875388D03*
G01*
X2377211Y11621388D03*
G01*
X2377211Y11367388D03*
G01*
X2377211Y10351388D03*
G01*
X2504211Y11367388D03*
G01*
X2504211Y10859388D03*
G01*
X2504211Y10351388D03*
G01*
X2631211Y10859388D03*
G01*
X3139211Y10478388D03*
G01*
X3393211Y10351388D03*
G01*
X3520211Y10351388D03*
G01*
X3647211Y10351388D03*
G01*
X3774211Y10351388D03*
G01*
X3901211Y10351388D03*
G01*
X4155211Y11875388D03*
G01*
X4282211Y12002388D03*
G01*
X4282211Y11875388D03*
G01*
X4409211Y12256388D03*
G01*
X4409211Y12129388D03*
G01*
X4409211Y12002388D03*
G01*
X4409211Y10351388D03*
G01*
X4536211Y12510388D03*
G01*
X4536211Y12129388D03*
G01*
X4536211Y11367388D03*
G01*
X4663211Y12510388D03*
G01*
X4663211Y12383388D03*
G01*
X4663211Y11367388D03*
G01*
X4663211Y11240388D03*
G01*
X4790211Y12510388D03*
G01*
X4790211Y12383388D03*
G01*
X4790211Y12256388D03*
G01*
X4790211Y11240388D03*
G01*
X4917211Y12764388D03*
G01*
X4917211Y12383388D03*
G01*
X4917211Y12256388D03*
G01*
X4917211Y11113388D03*
G01*
X4917211Y10986388D03*
G01*
X5044211Y12764388D03*
G01*
X5044211Y12637388D03*
G01*
X5044211Y12256388D03*
G01*
X5044211Y10986388D03*
G01*
X5044211Y10859388D03*
G01*
X5044211Y10478388D03*
G01*
X5044211Y10351388D03*
G01*
X5171211Y12764388D03*
G01*
X5171211Y12637388D03*
G01*
X5171211Y12510388D03*
G01*
X5171211Y10986388D03*
G01*
X5171211Y10859388D03*
G01*
X5171211Y10732388D03*
G01*
X5171211Y10605388D03*
G01*
X5171211Y10478388D03*
G01*
X5171211Y10351388D03*
G01*
X5298211Y12764388D03*
G01*
X5298211Y10986388D03*
G01*
X5298211Y10859388D03*
G01*
X5425211Y10986388D03*
G01*
X5552211Y11240388D03*
G01*
X5552211Y10986388D03*
G01*
X5679211Y12002388D03*
G01*
X5679211Y10986388D03*
G01*
X5806211Y12129388D03*
G01*
X5806211Y11875388D03*
G01*
X5806211Y11240388D03*
G01*
X3250006Y11740006D03*
G01*
X3329990Y11740006D03*
G01*
X2839999Y12000001D03*
G01*
X2839999Y12089993D03*
G01*
X3234994Y11909983D03*
G01*
X3359988Y11909983D03*
G01*
X4299991Y10959998D03*
G01*
X5806211Y10986388D03*
M02*
