G04 Layer: TopPasteMaskLayer*
G04 EasyEDA v6.4.25, 2021-10-07T01:57:40+02:00*
G04 74d54719dcbb48859515a23e3f46d2e4,21b141c4020943fdbba11dee5124b23b,10*
G04 Gerber Generator version 0.2*
G04 Scale: 100 percent, Rotated: No, Reflected: No *
G04 Dimensions in millimeters *
G04 leading zeros omitted , absolute positions ,4 integer and 5 decimal *
%FSLAX45Y45*%
%MOMM*%

%ADD17C,0.2700*%
%ADD18R,3.0000X0.8900*%
%ADD19R,0.8000X0.8000*%
%ADD21R,0.8000X0.9000*%
%ADD22R,0.9000X0.8000*%
%ADD23R,1.7280X1.1901*%
%ADD27R,2.5000X1.1000*%

%LPD*%
G36*
X2046122Y-1110691D02*
G01*
X2041093Y-1115720D01*
X2041093Y-1138478D01*
X2078075Y-1138478D01*
X2078075Y-1171498D01*
X2041093Y-1171498D01*
X2041093Y-1195679D01*
X2046122Y-1200708D01*
X2126081Y-1200708D01*
X2131110Y-1195679D01*
X2131110Y-1115720D01*
X2126081Y-1110691D01*
G37*
G36*
X1887118Y-1110691D02*
G01*
X1882089Y-1115720D01*
X1882089Y-1195679D01*
X1887118Y-1200708D01*
X1966112Y-1200708D01*
X1971090Y-1195679D01*
X1971090Y-1171498D01*
X1933092Y-1171498D01*
X1933092Y-1138478D01*
X1971090Y-1138478D01*
X1971090Y-1115720D01*
X1966112Y-1110691D01*
G37*
G36*
X855522Y-2310536D02*
G01*
X845566Y-2320544D01*
X845566Y-2389276D01*
X892352Y-2427782D01*
X936447Y-2427782D01*
X983234Y-2389276D01*
X983234Y-2320544D01*
X973226Y-2310536D01*
G37*
G36*
X892352Y-2499817D02*
G01*
X845566Y-2538323D01*
X845566Y-2607056D01*
X855522Y-2617063D01*
X973226Y-2617063D01*
X983234Y-2607056D01*
X983234Y-2538323D01*
X936447Y-2499817D01*
G37*
G36*
X2574544Y-2293366D02*
G01*
X2564536Y-2303373D01*
X2564536Y-2421026D01*
X2574544Y-2431034D01*
X2643276Y-2431034D01*
X2681782Y-2384247D01*
X2681782Y-2340152D01*
X2643276Y-2293366D01*
G37*
G36*
X2792323Y-2293366D02*
G01*
X2753817Y-2340152D01*
X2753817Y-2384247D01*
X2792323Y-2431034D01*
X2861056Y-2431034D01*
X2871063Y-2421026D01*
X2871063Y-2303373D01*
X2861056Y-2293366D01*
G37*
G36*
X2559304Y-1375613D02*
G01*
X2554325Y-1380591D01*
X2554325Y-1403400D01*
X2591308Y-1403400D01*
X2591308Y-1436420D01*
X2554325Y-1436420D01*
X2554325Y-1460601D01*
X2559304Y-1465630D01*
X2639314Y-1465630D01*
X2644292Y-1460601D01*
X2644292Y-1380591D01*
X2639314Y-1375613D01*
G37*
G36*
X2400300Y-1375613D02*
G01*
X2395321Y-1380591D01*
X2395321Y-1460601D01*
X2400300Y-1465630D01*
X2479294Y-1465630D01*
X2484323Y-1460601D01*
X2484323Y-1436420D01*
X2446324Y-1436420D01*
X2446324Y-1403400D01*
X2484323Y-1403400D01*
X2484323Y-1380591D01*
X2479294Y-1375613D01*
G37*
G36*
X3896207Y-1234897D02*
G01*
X3891229Y-1239926D01*
X3891229Y-1319885D01*
X3896207Y-1324914D01*
X3976217Y-1324914D01*
X3981196Y-1319885D01*
X3981196Y-1239926D01*
X3976217Y-1234897D01*
X3953408Y-1234897D01*
X3953408Y-1271879D01*
X3920388Y-1271879D01*
X3920388Y-1234897D01*
G37*
G36*
X3896207Y-1075893D02*
G01*
X3891229Y-1080922D01*
X3891229Y-1159916D01*
X3896207Y-1164894D01*
X3920388Y-1164894D01*
X3920388Y-1126896D01*
X3953408Y-1126896D01*
X3953408Y-1164894D01*
X3976217Y-1164894D01*
X3981196Y-1159916D01*
X3981196Y-1080922D01*
X3976217Y-1075893D01*
G37*
D17*
X2981274Y-1714012D02*
G01*
X2981274Y-1837011D01*
X3031286Y-1714012D02*
G01*
X3031286Y-1837011D01*
X3081274Y-1714012D02*
G01*
X3081274Y-1837011D01*
X3131286Y-1714012D02*
G01*
X3131286Y-1837011D01*
X3181273Y-1714012D02*
G01*
X3181273Y-1837011D01*
X3231286Y-1714012D02*
G01*
X3231286Y-1837011D01*
X3281273Y-1714012D02*
G01*
X3281273Y-1837011D01*
X3331286Y-1714012D02*
G01*
X3331286Y-1837011D01*
X3381273Y-1714012D02*
G01*
X3381273Y-1837011D01*
X3431286Y-1714012D02*
G01*
X3431286Y-1837011D01*
X3481273Y-1714012D02*
G01*
X3481273Y-1837011D01*
X3531285Y-1714012D02*
G01*
X3531285Y-1837011D01*
X3619771Y-1625523D02*
G01*
X3742773Y-1625523D01*
X3619771Y-1575511D02*
G01*
X3742773Y-1575511D01*
X3619771Y-1525523D02*
G01*
X3742773Y-1525523D01*
X3619771Y-1475511D02*
G01*
X3742773Y-1475511D01*
X3619771Y-1425524D02*
G01*
X3742773Y-1425524D01*
X3619771Y-1375511D02*
G01*
X3742773Y-1375511D01*
X3619771Y-1325524D02*
G01*
X3742773Y-1325524D01*
X3619771Y-1275511D02*
G01*
X3742773Y-1275511D01*
X3619771Y-1225524D02*
G01*
X3742773Y-1225524D01*
X3619771Y-1175512D02*
G01*
X3742773Y-1175512D01*
X3619771Y-1125524D02*
G01*
X3742773Y-1125524D01*
X3619771Y-1075512D02*
G01*
X3742773Y-1075512D01*
X3531285Y-864026D02*
G01*
X3531285Y-987026D01*
X3481273Y-864026D02*
G01*
X3481273Y-987026D01*
X3431286Y-864026D02*
G01*
X3431286Y-987026D01*
X3381273Y-864026D02*
G01*
X3381273Y-987026D01*
X3331286Y-864026D02*
G01*
X3331286Y-987026D01*
X3281273Y-864026D02*
G01*
X3281273Y-987026D01*
X3231286Y-864026D02*
G01*
X3231286Y-987026D01*
X3181273Y-864026D02*
G01*
X3181273Y-987026D01*
X3131286Y-864026D02*
G01*
X3131286Y-987026D01*
X3081274Y-864026D02*
G01*
X3081274Y-987026D01*
X3031286Y-864026D02*
G01*
X3031286Y-987026D01*
X2981274Y-864026D02*
G01*
X2981274Y-987026D01*
X2769786Y-1075512D02*
G01*
X2892788Y-1075512D01*
X2769786Y-1125524D02*
G01*
X2892788Y-1125524D01*
X2769786Y-1175512D02*
G01*
X2892788Y-1175512D01*
X2769786Y-1225524D02*
G01*
X2892788Y-1225524D01*
X2769786Y-1275511D02*
G01*
X2892788Y-1275511D01*
X2769786Y-1325524D02*
G01*
X2892788Y-1325524D01*
X2769786Y-1375511D02*
G01*
X2892788Y-1375511D01*
X2769786Y-1425524D02*
G01*
X2892788Y-1425524D01*
X2769786Y-1475511D02*
G01*
X2892788Y-1475511D01*
X2769786Y-1525523D02*
G01*
X2892788Y-1525523D01*
X2769786Y-1575511D02*
G01*
X2892788Y-1575511D01*
X2769786Y-1625523D02*
G01*
X2892788Y-1625523D01*
G36*
X4584700Y-1183629D02*
G01*
X4589449Y-1183909D01*
X4594123Y-1184772D01*
X4598670Y-1186195D01*
X4602988Y-1188151D01*
X4607052Y-1190589D01*
X4610811Y-1193535D01*
X4614163Y-1196888D01*
X4617110Y-1200622D01*
X4619548Y-1204711D01*
X4621504Y-1209029D01*
X4622927Y-1213576D01*
X4623790Y-1218250D01*
X4624070Y-1222999D01*
X4623790Y-1227749D01*
X4622927Y-1232423D01*
X4621504Y-1236969D01*
X4619548Y-1241287D01*
X4617110Y-1245351D01*
X4614163Y-1249111D01*
X4610811Y-1252463D01*
X4607052Y-1255410D01*
X4602988Y-1257848D01*
X4598670Y-1259804D01*
X4594123Y-1261226D01*
X4589449Y-1262090D01*
X4584700Y-1262369D01*
X4579950Y-1262090D01*
X4575276Y-1261226D01*
X4570729Y-1259804D01*
X4566411Y-1257848D01*
X4562322Y-1255410D01*
X4558588Y-1252463D01*
X4555236Y-1249111D01*
X4552289Y-1245351D01*
X4549851Y-1241287D01*
X4547895Y-1236969D01*
X4546472Y-1232423D01*
X4545609Y-1227749D01*
X4545329Y-1222999D01*
X4545609Y-1218250D01*
X4546472Y-1213576D01*
X4547895Y-1209029D01*
X4549851Y-1204711D01*
X4552289Y-1200622D01*
X4555236Y-1196888D01*
X4558588Y-1193535D01*
X4562322Y-1190589D01*
X4566411Y-1188151D01*
X4570729Y-1186195D01*
X4575276Y-1184772D01*
X4579950Y-1183909D01*
G37*
G36*
X4584700Y-1310629D02*
G01*
X4589449Y-1310909D01*
X4594123Y-1311772D01*
X4598670Y-1313195D01*
X4602988Y-1315151D01*
X4607052Y-1317589D01*
X4610811Y-1320535D01*
X4614163Y-1323888D01*
X4617110Y-1327622D01*
X4619548Y-1331711D01*
X4621504Y-1336029D01*
X4622927Y-1340576D01*
X4623790Y-1345250D01*
X4624070Y-1349999D01*
X4623790Y-1354749D01*
X4622927Y-1359423D01*
X4621504Y-1363969D01*
X4619548Y-1368287D01*
X4617110Y-1372351D01*
X4614163Y-1376111D01*
X4610811Y-1379463D01*
X4607052Y-1382410D01*
X4602988Y-1384848D01*
X4598670Y-1386804D01*
X4594123Y-1388226D01*
X4589449Y-1389090D01*
X4584700Y-1389369D01*
X4579950Y-1389090D01*
X4575276Y-1388226D01*
X4570729Y-1386804D01*
X4566411Y-1384848D01*
X4562322Y-1382410D01*
X4558588Y-1379463D01*
X4555236Y-1376111D01*
X4552289Y-1372351D01*
X4549851Y-1368287D01*
X4547895Y-1363969D01*
X4546472Y-1359423D01*
X4545609Y-1354749D01*
X4545329Y-1349999D01*
X4545609Y-1345250D01*
X4546472Y-1340576D01*
X4547895Y-1336029D01*
X4549851Y-1331711D01*
X4552289Y-1327622D01*
X4555236Y-1323888D01*
X4558588Y-1320535D01*
X4562322Y-1317589D01*
X4566411Y-1315151D01*
X4570729Y-1313195D01*
X4575276Y-1311772D01*
X4579950Y-1310909D01*
G37*
G36*
X4584700Y-1437629D02*
G01*
X4589449Y-1437909D01*
X4594123Y-1438772D01*
X4598670Y-1440195D01*
X4602988Y-1442151D01*
X4607052Y-1444589D01*
X4610811Y-1447535D01*
X4614163Y-1450888D01*
X4617110Y-1454622D01*
X4619548Y-1458711D01*
X4621504Y-1463029D01*
X4622927Y-1467576D01*
X4623790Y-1472250D01*
X4624070Y-1476999D01*
X4623790Y-1481749D01*
X4622927Y-1486423D01*
X4621504Y-1490969D01*
X4619548Y-1495287D01*
X4617110Y-1499351D01*
X4614163Y-1503111D01*
X4610811Y-1506463D01*
X4607052Y-1509410D01*
X4602988Y-1511848D01*
X4598670Y-1513804D01*
X4594123Y-1515226D01*
X4589449Y-1516090D01*
X4584700Y-1516369D01*
X4579950Y-1516090D01*
X4575276Y-1515226D01*
X4570729Y-1513804D01*
X4566411Y-1511848D01*
X4562322Y-1509410D01*
X4558588Y-1506463D01*
X4555236Y-1503111D01*
X4552289Y-1499351D01*
X4549851Y-1495287D01*
X4547895Y-1490969D01*
X4546472Y-1486423D01*
X4545609Y-1481749D01*
X4545329Y-1476999D01*
X4545609Y-1472250D01*
X4546472Y-1467576D01*
X4547895Y-1463029D01*
X4549851Y-1458711D01*
X4552289Y-1454622D01*
X4555236Y-1450888D01*
X4558588Y-1447535D01*
X4562322Y-1444589D01*
X4566411Y-1442151D01*
X4570729Y-1440195D01*
X4575276Y-1438772D01*
X4579950Y-1437909D01*
G37*
G36*
X4457700Y-1437629D02*
G01*
X4462449Y-1437909D01*
X4467123Y-1438772D01*
X4471670Y-1440195D01*
X4475988Y-1442151D01*
X4480077Y-1444589D01*
X4483811Y-1447535D01*
X4487163Y-1450888D01*
X4490110Y-1454622D01*
X4492548Y-1458711D01*
X4494504Y-1463029D01*
X4495927Y-1467576D01*
X4496790Y-1472250D01*
X4497070Y-1476999D01*
X4496790Y-1481749D01*
X4495927Y-1486423D01*
X4494504Y-1490969D01*
X4492548Y-1495287D01*
X4490110Y-1499351D01*
X4487163Y-1503111D01*
X4483811Y-1506463D01*
X4480077Y-1509410D01*
X4475988Y-1511848D01*
X4471670Y-1513804D01*
X4467123Y-1515226D01*
X4462449Y-1516090D01*
X4457700Y-1516369D01*
X4452950Y-1516090D01*
X4448276Y-1515226D01*
X4443729Y-1513804D01*
X4439411Y-1511848D01*
X4435347Y-1509410D01*
X4431588Y-1506463D01*
X4428236Y-1503111D01*
X4425289Y-1499351D01*
X4422851Y-1495287D01*
X4420895Y-1490969D01*
X4419472Y-1486423D01*
X4418609Y-1481749D01*
X4418329Y-1476999D01*
X4418609Y-1472250D01*
X4419472Y-1467576D01*
X4420895Y-1463029D01*
X4422851Y-1458711D01*
X4425289Y-1454622D01*
X4428236Y-1450888D01*
X4431588Y-1447535D01*
X4435347Y-1444589D01*
X4439411Y-1442151D01*
X4443729Y-1440195D01*
X4448276Y-1438772D01*
X4452950Y-1437909D01*
G37*
G36*
X4457700Y-1310629D02*
G01*
X4462449Y-1310909D01*
X4467123Y-1311772D01*
X4471670Y-1313195D01*
X4475988Y-1315151D01*
X4480077Y-1317589D01*
X4483811Y-1320535D01*
X4487163Y-1323888D01*
X4490110Y-1327622D01*
X4492548Y-1331711D01*
X4494504Y-1336029D01*
X4495927Y-1340576D01*
X4496790Y-1345250D01*
X4497070Y-1349999D01*
X4496790Y-1354749D01*
X4495927Y-1359423D01*
X4494504Y-1363969D01*
X4492548Y-1368287D01*
X4490110Y-1372351D01*
X4487163Y-1376111D01*
X4483811Y-1379463D01*
X4480077Y-1382410D01*
X4475988Y-1384848D01*
X4471670Y-1386804D01*
X4467123Y-1388226D01*
X4462449Y-1389090D01*
X4457700Y-1389369D01*
X4452950Y-1389090D01*
X4448276Y-1388226D01*
X4443729Y-1386804D01*
X4439411Y-1384848D01*
X4435347Y-1382410D01*
X4431588Y-1379463D01*
X4428236Y-1376111D01*
X4425289Y-1372351D01*
X4422851Y-1368287D01*
X4420895Y-1363969D01*
X4419472Y-1359423D01*
X4418609Y-1354749D01*
X4418329Y-1349999D01*
X4418609Y-1345250D01*
X4419472Y-1340576D01*
X4420895Y-1336029D01*
X4422851Y-1331711D01*
X4425289Y-1327622D01*
X4428236Y-1323888D01*
X4431588Y-1320535D01*
X4435347Y-1317589D01*
X4439411Y-1315151D01*
X4443729Y-1313195D01*
X4448276Y-1311772D01*
X4452950Y-1310909D01*
G37*
G36*
X4457700Y-1183629D02*
G01*
X4462449Y-1183909D01*
X4467123Y-1184772D01*
X4471670Y-1186195D01*
X4475988Y-1188151D01*
X4480077Y-1190589D01*
X4483811Y-1193535D01*
X4487163Y-1196888D01*
X4490110Y-1200622D01*
X4492548Y-1204711D01*
X4494504Y-1209029D01*
X4495927Y-1213576D01*
X4496790Y-1218250D01*
X4497070Y-1222999D01*
X4496790Y-1227749D01*
X4495927Y-1232423D01*
X4494504Y-1236969D01*
X4492548Y-1241287D01*
X4490110Y-1245351D01*
X4487163Y-1249111D01*
X4483811Y-1252463D01*
X4480077Y-1255410D01*
X4475988Y-1257848D01*
X4471670Y-1259804D01*
X4467123Y-1261226D01*
X4462449Y-1262090D01*
X4457700Y-1262369D01*
X4452950Y-1262090D01*
X4448276Y-1261226D01*
X4443729Y-1259804D01*
X4439411Y-1257848D01*
X4435347Y-1255410D01*
X4431588Y-1252463D01*
X4428236Y-1249111D01*
X4425289Y-1245351D01*
X4422851Y-1241287D01*
X4420895Y-1236969D01*
X4419472Y-1232423D01*
X4418609Y-1227749D01*
X4418329Y-1222999D01*
X4418609Y-1218250D01*
X4419472Y-1213576D01*
X4420895Y-1209029D01*
X4422851Y-1204711D01*
X4425289Y-1200622D01*
X4428236Y-1196888D01*
X4431588Y-1193535D01*
X4435347Y-1190589D01*
X4439411Y-1188151D01*
X4443729Y-1186195D01*
X4448276Y-1184772D01*
X4452950Y-1183909D01*
G37*
D18*
G01*
X4746193Y-1550009D03*
G01*
X4296206Y-1550009D03*
G01*
X4746193Y-1350010D03*
G01*
X4296206Y-1350010D03*
G01*
X4746193Y-1150010D03*
G01*
X4296206Y-1150010D03*
D19*
G01*
X2091690Y-1384300D03*
G01*
X1921510Y-1384300D03*
G36*
X2036599Y-1580598D02*
G01*
X2116599Y-1580598D01*
X2116599Y-1670601D01*
X2036599Y-1670601D01*
G37*
G36*
X1896600Y-1580598D02*
G01*
X1976600Y-1580598D01*
X1976600Y-1670601D01*
X1896600Y-1670601D01*
G37*
D22*
G01*
X635000Y-2559202D03*
G01*
X635000Y-2419197D03*
D21*
G01*
X3905097Y-685800D03*
G01*
X4045102Y-685800D03*
D23*
G01*
X1320800Y-1989099D03*
G01*
X1320800Y-2278100D03*
D27*
G01*
X1700809Y-1903196D03*
G01*
X1700809Y-2133193D03*
G01*
X1700809Y-2363190D03*
G36*
X2177803Y-2313200D02*
G01*
X2177803Y-1953201D01*
X2411803Y-1953201D01*
X2411803Y-2313200D01*
G37*
D22*
G01*
X3155010Y-2178608D03*
G01*
X3155010Y-2038604D03*
G01*
X3383610Y-2178608D03*
G01*
X3383610Y-2038604D03*
D21*
G01*
X2653207Y-1880006D03*
G01*
X2793212Y-1880006D03*
G01*
X2450007Y-1626006D03*
G01*
X2590012Y-1626006D03*
G36*
X3134202Y-641202D02*
G01*
X3214202Y-641202D01*
X3214202Y-731205D01*
X3134202Y-731205D01*
G37*
G36*
X2994202Y-641202D02*
G01*
X3074202Y-641202D01*
X3074202Y-731205D01*
X2994202Y-731205D01*
G37*
G01*
X3542207Y-686206D03*
G01*
X3682212Y-686206D03*
M02*
