M48
METRIC,LZ,000.000
;FILE_FORMAT=3:3
;TYPE=PLATED
;Layer: Drill PTH
;EasyEDA v6.4.25, 2021-10-07T01:57:40+02:00
;74d54719dcbb48859515a23e3f46d2e4,21b141c4020943fdbba11dee5124b23b,10
;Gerber Generator version 0.2
;Holesize 1 = 0.400 mm
T01C0.400
;Holesize 2 = 0.915 mm
T02C0.915
;Holesize 3 = 2.200 mm
T03C2.200
%
G05
G90
T01
X011303Y-011303
X011303Y-012303
X010303Y-012303
X009303Y-012303
X011303Y-020336
X011303Y-021336
X010303Y-021336
X009303Y-021336
X039362Y-009604
X033074Y-019054
X035868Y-019054
X030788Y-015752
X031804Y-015752
X032820Y-015752
X035100Y-010900
X031550Y-023372
X033836Y-023372
X032693Y-023372
X033074Y-006862
X034090Y-006862
X041656Y-016383
X032800Y-010900
X034344Y-016260
X025200Y-018800
X024500Y-018100
X017018Y-016256
X017018Y-014605
X039370Y-008509
X014986Y-017018
X014986Y-019118
X016000Y-010100
X017100Y-010100
X016000Y-007800
X017100Y-007800
X042545Y-016383
X041656Y-014605
X042545Y-014605
X030813Y-010541
X048514Y-010287
X048514Y-016764
X030800Y-011600
X049400Y-013500
X030800Y-012700
T02
X009999Y-007001
X007999Y-007001
X009999Y-009001
X007999Y-009001
X009999Y-011001
X007999Y-011001
X009999Y-016000
X007999Y-016000
X009999Y-018000
X007999Y-018000
X009999Y-020000
X007999Y-020000
T03
X002497Y-002500G85X002503Y-002500
X047497Y-002500G85X047503Y-002500
X002497Y-024500G85X002503Y-024500
X047497Y-024500G85X047503Y-024500
M30
