G04 Layer: BottomLayer*
G04 EasyEDA v6.4.25, 2021-10-07T01:57:40+02:00*
G04 74d54719dcbb48859515a23e3f46d2e4,21b141c4020943fdbba11dee5124b23b,10*
G04 Gerber Generator version 0.2*
G04 Scale: 100 percent, Rotated: No, Reflected: No *
G04 Dimensions in millimeters *
G04 leading zeros omitted , absolute positions ,4 integer and 5 decimal *
%FSLAX45Y45*%
%MOMM*%

%ADD15C,0.3000*%
%ADD16C,0.8000*%
%ADD29R,1.5240X1.5240*%
%ADD30C,1.5240*%
%ADD31C,4.4000*%

%LPD*%
G36*
X200863Y-2674112D02*
G01*
X182422Y-2673146D01*
X165557Y-2670606D01*
X148996Y-2666390D01*
X140411Y-2663291D01*
X136855Y-2661158D01*
X134467Y-2657805D01*
X133654Y-2653741D01*
X133654Y-2566365D01*
X46228Y-2566365D01*
X42214Y-2565501D01*
X38811Y-2563114D01*
X36677Y-2559608D01*
X33324Y-2550058D01*
X29209Y-2533446D01*
X26771Y-2516581D01*
X25908Y-2499156D01*
X25908Y-2343810D01*
X26670Y-2339898D01*
X28905Y-2336647D01*
X32156Y-2334412D01*
X36068Y-2333650D01*
X133654Y-2333650D01*
X133654Y-2233625D01*
X120802Y-2240788D01*
X102819Y-2252980D01*
X86004Y-2266797D01*
X70459Y-2281986D01*
X56286Y-2298496D01*
X44348Y-2315311D01*
X41198Y-2318156D01*
X37185Y-2319477D01*
X32969Y-2319070D01*
X29311Y-2316988D01*
X26771Y-2313533D01*
X25908Y-2309418D01*
X25908Y-390601D01*
X26771Y-386435D01*
X29311Y-383032D01*
X32969Y-380949D01*
X37185Y-380492D01*
X41198Y-381863D01*
X44348Y-384708D01*
X56286Y-401472D01*
X70459Y-418033D01*
X86004Y-433222D01*
X102819Y-446989D01*
X120802Y-459232D01*
X133654Y-466394D01*
X133654Y-366369D01*
X36068Y-366369D01*
X32156Y-365556D01*
X28905Y-363372D01*
X26670Y-360070D01*
X25908Y-356209D01*
X25908Y-200863D01*
X26873Y-182422D01*
X29413Y-165557D01*
X33578Y-148996D01*
X36677Y-140411D01*
X38811Y-136855D01*
X42214Y-134467D01*
X46228Y-133654D01*
X133654Y-133654D01*
X133654Y-46228D01*
X134467Y-42214D01*
X136855Y-38811D01*
X140411Y-36677D01*
X149961Y-33324D01*
X166522Y-29209D01*
X183438Y-26771D01*
X200863Y-25908D01*
X356209Y-25908D01*
X360070Y-26670D01*
X363372Y-28905D01*
X365556Y-32156D01*
X366369Y-36068D01*
X366369Y-133654D01*
X466343Y-133654D01*
X462026Y-125476D01*
X450189Y-107238D01*
X436829Y-90119D01*
X421944Y-74218D01*
X405739Y-59690D01*
X388315Y-46685D01*
X385114Y-44704D01*
X381965Y-41706D01*
X380390Y-37642D01*
X380695Y-33274D01*
X382727Y-29464D01*
X386181Y-26822D01*
X390448Y-25908D01*
X4609642Y-25908D01*
X4613859Y-26822D01*
X4617262Y-29362D01*
X4619396Y-33070D01*
X4619752Y-37338D01*
X4618329Y-41351D01*
X4615383Y-44450D01*
X4602835Y-52984D01*
X4586020Y-66802D01*
X4570476Y-81991D01*
X4556302Y-98501D01*
X4543653Y-116230D01*
X4533442Y-133654D01*
X4633671Y-133654D01*
X4633671Y-36068D01*
X4634433Y-32156D01*
X4636617Y-28905D01*
X4639919Y-26670D01*
X4643831Y-25908D01*
X4799126Y-25908D01*
X4817567Y-26873D01*
X4834432Y-29413D01*
X4850993Y-33578D01*
X4859629Y-36677D01*
X4863134Y-38811D01*
X4865522Y-42214D01*
X4866335Y-46228D01*
X4866335Y-133654D01*
X4953762Y-133654D01*
X4957775Y-134467D01*
X4961178Y-136855D01*
X4963312Y-140411D01*
X4966665Y-149961D01*
X4970780Y-166522D01*
X4973269Y-183438D01*
X4974082Y-200761D01*
X4974082Y-356209D01*
X4973320Y-360070D01*
X4971084Y-363372D01*
X4967833Y-365556D01*
X4963922Y-366369D01*
X4866335Y-366369D01*
X4866335Y-466445D01*
X4869789Y-464718D01*
X4888280Y-453339D01*
X4905756Y-440283D01*
X4921961Y-425805D01*
X4936794Y-409905D01*
X4950206Y-392785D01*
X4955387Y-384759D01*
X4958435Y-381711D01*
X4962499Y-380238D01*
X4966817Y-380542D01*
X4970576Y-382625D01*
X4973167Y-386080D01*
X4974082Y-390296D01*
X4974082Y-1277975D01*
X4973320Y-1281836D01*
X4971186Y-1285087D01*
X4967986Y-1287272D01*
X4964176Y-1288135D01*
X4960315Y-1287475D01*
X4958334Y-1286713D01*
X4947920Y-1284630D01*
X4937353Y-1284173D01*
X4926838Y-1285443D01*
X4916627Y-1288389D01*
X4907076Y-1292961D01*
X4898339Y-1298956D01*
X4890719Y-1306271D01*
X4887518Y-1308354D01*
X4883708Y-1309116D01*
X3291179Y-1309116D01*
X3287268Y-1308354D01*
X3283965Y-1306118D01*
X3256127Y-1278229D01*
X3253892Y-1274978D01*
X3253130Y-1271066D01*
X3253892Y-1267155D01*
X3256127Y-1263904D01*
X3259378Y-1261668D01*
X3263290Y-1260906D01*
X4659579Y-1260906D01*
X4668062Y-1260094D01*
X4675733Y-1257757D01*
X4682794Y-1253998D01*
X4689398Y-1248562D01*
X4840528Y-1097432D01*
X4843678Y-1095298D01*
X4847386Y-1094486D01*
X4859375Y-1094079D01*
X4869738Y-1091996D01*
X4879644Y-1088237D01*
X4888839Y-1082903D01*
X4897018Y-1076198D01*
X4904079Y-1068273D01*
X4909718Y-1059332D01*
X4913884Y-1049578D01*
X4916424Y-1039266D01*
X4917287Y-1028700D01*
X4916424Y-1018133D01*
X4913884Y-1007821D01*
X4909718Y-998067D01*
X4904079Y-989126D01*
X4897018Y-981202D01*
X4888839Y-974496D01*
X4879644Y-969162D01*
X4869738Y-965403D01*
X4859324Y-963320D01*
X4848758Y-962863D01*
X4838242Y-964133D01*
X4828032Y-967130D01*
X4818481Y-971651D01*
X4809744Y-977696D01*
X4802073Y-985012D01*
X4795723Y-993495D01*
X4790795Y-1002893D01*
X4787442Y-1012952D01*
X4785715Y-1023416D01*
X4785715Y-1032306D01*
X4784953Y-1036167D01*
X4782769Y-1039469D01*
X4646117Y-1176121D01*
X4642815Y-1178306D01*
X4638954Y-1179068D01*
X4556353Y-1179068D01*
X4552442Y-1178306D01*
X4549140Y-1176121D01*
X4546955Y-1172819D01*
X4546193Y-1168908D01*
X4546955Y-1165047D01*
X4549140Y-1161745D01*
X4562856Y-1153363D01*
X4571339Y-1146098D01*
X4578553Y-1137666D01*
X4584344Y-1128166D01*
X4588611Y-1117904D01*
X4591202Y-1107084D01*
X4592066Y-1096010D01*
X4591202Y-1084935D01*
X4588611Y-1074115D01*
X4584344Y-1063802D01*
X4578553Y-1054354D01*
X4571339Y-1045870D01*
X4562856Y-1038656D01*
X4553356Y-1032865D01*
X4543094Y-1028598D01*
X4532274Y-1026007D01*
X4521200Y-1025093D01*
X4510125Y-1026007D01*
X4499305Y-1028598D01*
X4489043Y-1032865D01*
X4479544Y-1038656D01*
X4471060Y-1045870D01*
X4463846Y-1054354D01*
X4458055Y-1063802D01*
X4453788Y-1074115D01*
X4451197Y-1084935D01*
X4450334Y-1096010D01*
X4451197Y-1107084D01*
X4453788Y-1117904D01*
X4458055Y-1128166D01*
X4463846Y-1137666D01*
X4471060Y-1146098D01*
X4479544Y-1153363D01*
X4493260Y-1161745D01*
X4495444Y-1165047D01*
X4496206Y-1168908D01*
X4495444Y-1172819D01*
X4493260Y-1176121D01*
X4489958Y-1178306D01*
X4486046Y-1179068D01*
X3268319Y-1179068D01*
X3264458Y-1178306D01*
X3261156Y-1176121D01*
X3256381Y-1171346D01*
X3253994Y-1167587D01*
X3253435Y-1163218D01*
X3254806Y-1159002D01*
X3257854Y-1155750D01*
X3261969Y-1154125D01*
X3277362Y-1155801D01*
X3287928Y-1155395D01*
X3298342Y-1153261D01*
X3308248Y-1149502D01*
X3317443Y-1144219D01*
X3325622Y-1137513D01*
X3332683Y-1129588D01*
X3338322Y-1120597D01*
X3342487Y-1110843D01*
X3345027Y-1100582D01*
X3345891Y-1090015D01*
X3345027Y-1079398D01*
X3342487Y-1069136D01*
X3338322Y-1059383D01*
X3332683Y-1050391D01*
X3325622Y-1042466D01*
X3317443Y-1035761D01*
X3308248Y-1030478D01*
X3298342Y-1026718D01*
X3287979Y-1024585D01*
X3275990Y-1024229D01*
X3272282Y-1023366D01*
X3269132Y-1021232D01*
X3119272Y-871423D01*
X3112719Y-866038D01*
X3105658Y-862228D01*
X3097987Y-859942D01*
X3089503Y-859078D01*
X1099667Y-859078D01*
X1095908Y-858367D01*
X1092657Y-856335D01*
X1090422Y-853186D01*
X1089456Y-851052D01*
X1082090Y-839571D01*
X1073302Y-829157D01*
X1063091Y-819912D01*
X1060704Y-816660D01*
X1059789Y-812749D01*
X1060450Y-808736D01*
X1062634Y-805332D01*
X1065936Y-803046D01*
X1069898Y-802233D01*
X1075537Y-802233D01*
X1081887Y-801522D01*
X1087323Y-799592D01*
X1092250Y-796544D01*
X1096314Y-792429D01*
X1099413Y-787552D01*
X1101344Y-782066D01*
X1102055Y-775766D01*
X1102055Y-624484D01*
X1101344Y-618185D01*
X1099413Y-612698D01*
X1096314Y-607822D01*
X1092250Y-603707D01*
X1087323Y-600659D01*
X1081887Y-598728D01*
X1075537Y-598017D01*
X924306Y-598017D01*
X917956Y-598728D01*
X912520Y-600659D01*
X907592Y-603707D01*
X903528Y-607822D01*
X900430Y-612698D01*
X898550Y-618185D01*
X897839Y-624484D01*
X897839Y-630377D01*
X896975Y-634390D01*
X894638Y-637794D01*
X891133Y-639927D01*
X887069Y-640537D01*
X883107Y-639470D01*
X879906Y-636930D01*
X873302Y-629158D01*
X863193Y-620014D01*
X851966Y-612292D01*
X839774Y-606145D01*
X826871Y-601675D01*
X813511Y-598932D01*
X799947Y-598017D01*
X786333Y-598932D01*
X772972Y-601675D01*
X760069Y-606145D01*
X747877Y-612292D01*
X736650Y-620014D01*
X726541Y-629158D01*
X717753Y-639572D01*
X710387Y-651052D01*
X704646Y-663448D01*
X700633Y-676452D01*
X698347Y-689914D01*
X697890Y-703529D01*
X699262Y-717092D01*
X702411Y-730351D01*
X707339Y-743102D01*
X713892Y-755040D01*
X721969Y-766013D01*
X731469Y-775817D01*
X742137Y-784301D01*
X754380Y-791514D01*
X757529Y-794461D01*
X759155Y-798423D01*
X759053Y-802741D01*
X757123Y-806602D01*
X753770Y-809345D01*
X747877Y-812292D01*
X736650Y-820013D01*
X726541Y-829157D01*
X717753Y-839571D01*
X710387Y-851052D01*
X709422Y-853135D01*
X707440Y-856030D01*
X704596Y-858012D01*
X701243Y-858977D01*
X692302Y-859840D01*
X684631Y-862177D01*
X677570Y-865936D01*
X671017Y-871372D01*
X581050Y-961339D01*
X575614Y-967892D01*
X571855Y-974953D01*
X569518Y-982624D01*
X568706Y-991108D01*
X568706Y-1701292D01*
X569518Y-1709775D01*
X571855Y-1717446D01*
X575614Y-1724507D01*
X581050Y-1731060D01*
X678637Y-1828647D01*
X685190Y-1834083D01*
X692251Y-1837842D01*
X699922Y-1840179D01*
X703935Y-1841093D01*
X706678Y-1842922D01*
X708660Y-1845462D01*
X713892Y-1854962D01*
X721969Y-1865934D01*
X731469Y-1875739D01*
X742137Y-1884222D01*
X754380Y-1891436D01*
X757529Y-1894382D01*
X759155Y-1898345D01*
X759053Y-1902663D01*
X757123Y-1906524D01*
X753770Y-1909267D01*
X747877Y-1912213D01*
X736650Y-1919935D01*
X726541Y-1929079D01*
X717753Y-1939493D01*
X710387Y-1950974D01*
X704646Y-1963369D01*
X700633Y-1976374D01*
X698347Y-1989836D01*
X697890Y-2003450D01*
X699262Y-2017014D01*
X702411Y-2030272D01*
X707339Y-2043023D01*
X713892Y-2054961D01*
X721969Y-2065934D01*
X731469Y-2075738D01*
X742137Y-2084222D01*
X753872Y-2091182D01*
X766419Y-2096465D01*
X779576Y-2100072D01*
X793089Y-2101900D01*
X806754Y-2101900D01*
X820267Y-2100072D01*
X833424Y-2096465D01*
X845972Y-2091182D01*
X857707Y-2084222D01*
X868426Y-2075738D01*
X877874Y-2065934D01*
X885952Y-2054961D01*
X891032Y-2045766D01*
X893826Y-2042515D01*
X897788Y-2040737D01*
X899058Y-2040737D01*
X897432Y-2038350D01*
X896619Y-2034539D01*
X897432Y-2030272D01*
X900582Y-2017014D01*
X901953Y-2003450D01*
X901496Y-1989836D01*
X899210Y-1976374D01*
X896874Y-1968754D01*
X896416Y-1964994D01*
X897432Y-1961337D01*
X898855Y-1959406D01*
X896162Y-1958848D01*
X892962Y-1956816D01*
X890727Y-1953717D01*
X889457Y-1950974D01*
X882091Y-1939493D01*
X873302Y-1929079D01*
X863193Y-1919935D01*
X851966Y-1912213D01*
X846074Y-1909267D01*
X842721Y-1906524D01*
X840841Y-1902663D01*
X840689Y-1898345D01*
X842314Y-1894382D01*
X845515Y-1891436D01*
X857707Y-1884222D01*
X868426Y-1875739D01*
X877874Y-1865934D01*
X885952Y-1854962D01*
X891032Y-1845767D01*
X893826Y-1842516D01*
X897788Y-1840738D01*
X902106Y-1840738D01*
X906018Y-1842516D01*
X908812Y-1845767D01*
X913892Y-1854962D01*
X921969Y-1865934D01*
X931468Y-1875739D01*
X942136Y-1884222D01*
X954379Y-1891436D01*
X957529Y-1894382D01*
X959154Y-1898345D01*
X959154Y-1899208D01*
X961034Y-1897735D01*
X964641Y-1896668D01*
X968298Y-1897024D01*
X979576Y-1900072D01*
X993089Y-1901901D01*
X1006754Y-1901901D01*
X1020267Y-1900072D01*
X1031544Y-1897024D01*
X1035253Y-1896668D01*
X1038809Y-1897735D01*
X1040688Y-1899208D01*
X1040688Y-1898345D01*
X1042314Y-1894382D01*
X1045514Y-1891436D01*
X1057706Y-1884222D01*
X1068425Y-1875739D01*
X1077874Y-1865934D01*
X1085951Y-1854962D01*
X1090726Y-1846275D01*
X1093012Y-1843481D01*
X1096111Y-1841652D01*
X1099667Y-1840992D01*
X2136394Y-1840992D01*
X2144877Y-1840179D01*
X2152548Y-1837842D01*
X2159609Y-1834083D01*
X2166162Y-1828647D01*
X2261870Y-1732991D01*
X2265172Y-1730806D01*
X2269032Y-1729993D01*
X3370834Y-1729993D01*
X3379317Y-1729181D01*
X3386988Y-1726844D01*
X3394049Y-1723085D01*
X3400602Y-1717649D01*
X3423564Y-1694738D01*
X3426663Y-1692605D01*
X3430371Y-1691792D01*
X3442411Y-1691386D01*
X3452723Y-1689303D01*
X3462629Y-1685543D01*
X3471824Y-1680210D01*
X3480054Y-1673504D01*
X3487064Y-1665579D01*
X3492754Y-1656638D01*
X3496919Y-1646885D01*
X3499408Y-1636572D01*
X3500272Y-1626006D01*
X3499408Y-1615440D01*
X3496919Y-1605127D01*
X3492754Y-1595374D01*
X3487064Y-1586433D01*
X3480054Y-1578508D01*
X3471824Y-1571802D01*
X3462629Y-1566468D01*
X3452723Y-1562709D01*
X3442360Y-1560626D01*
X3431743Y-1560169D01*
X3421227Y-1561439D01*
X3411067Y-1564436D01*
X3401466Y-1568958D01*
X3392728Y-1575003D01*
X3385108Y-1582318D01*
X3378708Y-1590802D01*
X3373831Y-1600200D01*
X3370427Y-1610258D01*
X3368751Y-1620723D01*
X3368751Y-1629613D01*
X3367989Y-1633524D01*
X3365754Y-1636826D01*
X3357372Y-1645208D01*
X3354070Y-1647443D01*
X3350209Y-1648206D01*
X2248408Y-1648206D01*
X2239924Y-1649018D01*
X2232253Y-1651355D01*
X2225192Y-1655114D01*
X2218639Y-1660550D01*
X2122932Y-1756206D01*
X2119630Y-1758442D01*
X2115769Y-1759204D01*
X1099718Y-1759204D01*
X1095959Y-1758492D01*
X1092758Y-1756410D01*
X1090523Y-1753311D01*
X1089456Y-1750974D01*
X1082090Y-1739493D01*
X1073302Y-1729079D01*
X1063091Y-1719834D01*
X1060704Y-1716582D01*
X1059789Y-1712671D01*
X1060450Y-1708657D01*
X1062634Y-1705254D01*
X1065936Y-1702968D01*
X1069898Y-1702155D01*
X1075537Y-1702155D01*
X1081887Y-1701444D01*
X1087323Y-1699514D01*
X1092250Y-1696466D01*
X1096314Y-1692351D01*
X1099413Y-1687474D01*
X1101344Y-1681988D01*
X1102055Y-1675688D01*
X1102055Y-1524406D01*
X1101344Y-1518107D01*
X1099413Y-1512620D01*
X1096314Y-1507744D01*
X1092250Y-1503629D01*
X1087323Y-1500581D01*
X1081887Y-1498650D01*
X1075537Y-1497939D01*
X924306Y-1497939D01*
X917956Y-1498650D01*
X912520Y-1500581D01*
X907592Y-1503629D01*
X903528Y-1507744D01*
X900430Y-1512620D01*
X898550Y-1518107D01*
X897839Y-1524406D01*
X897839Y-1530299D01*
X896975Y-1534312D01*
X894638Y-1537716D01*
X891133Y-1539849D01*
X887069Y-1540459D01*
X883107Y-1539392D01*
X879906Y-1536852D01*
X873302Y-1529080D01*
X863193Y-1519936D01*
X851966Y-1512214D01*
X839774Y-1506067D01*
X826871Y-1501597D01*
X813511Y-1498854D01*
X799947Y-1497939D01*
X786333Y-1498854D01*
X772972Y-1501597D01*
X760069Y-1506067D01*
X747877Y-1512214D01*
X736650Y-1519936D01*
X726541Y-1529080D01*
X717753Y-1539494D01*
X710387Y-1550974D01*
X704646Y-1563370D01*
X700633Y-1576374D01*
X698347Y-1589836D01*
X697890Y-1603451D01*
X699262Y-1617014D01*
X702411Y-1630273D01*
X707339Y-1643024D01*
X713892Y-1654962D01*
X721969Y-1665935D01*
X731469Y-1675739D01*
X742137Y-1684223D01*
X754380Y-1691436D01*
X757529Y-1694383D01*
X759155Y-1698345D01*
X759053Y-1702663D01*
X757123Y-1706524D01*
X753770Y-1709267D01*
X747877Y-1712214D01*
X736650Y-1719935D01*
X726541Y-1729079D01*
X719124Y-1737868D01*
X715822Y-1740458D01*
X711758Y-1741474D01*
X707644Y-1740763D01*
X704138Y-1738528D01*
X653491Y-1687830D01*
X651306Y-1684528D01*
X650494Y-1680667D01*
X650494Y-1011732D01*
X651306Y-1007871D01*
X653491Y-1004569D01*
X700887Y-957122D01*
X704545Y-954786D01*
X708863Y-954176D01*
X713028Y-955446D01*
X716280Y-958291D01*
X721969Y-966012D01*
X731469Y-975817D01*
X742137Y-984300D01*
X754380Y-991514D01*
X757529Y-994460D01*
X759155Y-998423D01*
X759053Y-1002741D01*
X757123Y-1006602D01*
X753770Y-1009345D01*
X747877Y-1012291D01*
X736650Y-1020013D01*
X726541Y-1029157D01*
X717753Y-1039571D01*
X710387Y-1051052D01*
X704646Y-1063447D01*
X700633Y-1076452D01*
X698347Y-1089914D01*
X697890Y-1103528D01*
X699262Y-1117092D01*
X702411Y-1130350D01*
X707339Y-1143101D01*
X713892Y-1155039D01*
X721969Y-1166012D01*
X731469Y-1175816D01*
X742137Y-1184300D01*
X753872Y-1191260D01*
X766419Y-1196543D01*
X779576Y-1200150D01*
X793089Y-1201978D01*
X806754Y-1201978D01*
X820267Y-1200150D01*
X833424Y-1196543D01*
X845972Y-1191260D01*
X857707Y-1184300D01*
X868426Y-1175816D01*
X877874Y-1166012D01*
X885952Y-1155039D01*
X891032Y-1145844D01*
X893826Y-1142593D01*
X897788Y-1140815D01*
X899058Y-1140815D01*
X897432Y-1138428D01*
X896619Y-1134618D01*
X897432Y-1130350D01*
X900582Y-1117092D01*
X901953Y-1103528D01*
X901496Y-1089914D01*
X899210Y-1076452D01*
X896874Y-1068832D01*
X896416Y-1065072D01*
X897432Y-1061415D01*
X898855Y-1059484D01*
X896162Y-1058926D01*
X892962Y-1056894D01*
X890727Y-1053795D01*
X889457Y-1051052D01*
X882091Y-1039571D01*
X873302Y-1029157D01*
X863193Y-1020013D01*
X851966Y-1012291D01*
X846074Y-1009345D01*
X842721Y-1006602D01*
X840841Y-1002741D01*
X840689Y-998423D01*
X842314Y-994460D01*
X845515Y-991514D01*
X857707Y-984300D01*
X868426Y-975817D01*
X877874Y-966012D01*
X885952Y-955040D01*
X891032Y-945845D01*
X893826Y-942594D01*
X897788Y-940816D01*
X902106Y-940816D01*
X906018Y-942594D01*
X908812Y-945845D01*
X913892Y-955040D01*
X921969Y-966012D01*
X931468Y-975817D01*
X942136Y-984300D01*
X954379Y-991514D01*
X957529Y-994460D01*
X959154Y-998423D01*
X959154Y-999286D01*
X961034Y-997813D01*
X964641Y-996746D01*
X968298Y-997102D01*
X979576Y-1000150D01*
X993089Y-1001979D01*
X1006754Y-1001979D01*
X1020267Y-1000150D01*
X1031544Y-997102D01*
X1035253Y-996746D01*
X1038809Y-997813D01*
X1040688Y-999286D01*
X1040688Y-998423D01*
X1042314Y-994460D01*
X1045514Y-991514D01*
X1057706Y-984300D01*
X1068425Y-975817D01*
X1077874Y-966012D01*
X1085951Y-955040D01*
X1090828Y-946200D01*
X1093114Y-943406D01*
X1096213Y-941527D01*
X1099718Y-940917D01*
X3068878Y-940917D01*
X3072739Y-941679D01*
X3076041Y-943864D01*
X3105099Y-972921D01*
X3107436Y-976528D01*
X3108045Y-980795D01*
X3106826Y-984910D01*
X3104083Y-988212D01*
X3100171Y-989990D01*
X3095853Y-990041D01*
X3089198Y-988720D01*
X3078632Y-988263D01*
X3068116Y-989533D01*
X3057906Y-992530D01*
X3048355Y-997051D01*
X3039618Y-1003096D01*
X3031947Y-1010412D01*
X3025597Y-1018895D01*
X3020669Y-1028293D01*
X3017316Y-1038352D01*
X3015589Y-1048816D01*
X3015589Y-1059383D01*
X3017316Y-1069848D01*
X3020669Y-1079906D01*
X3025597Y-1089304D01*
X3031947Y-1097788D01*
X3033369Y-1099108D01*
X3035655Y-1102461D01*
X3036468Y-1106424D01*
X3035655Y-1110437D01*
X3033369Y-1113790D01*
X3030677Y-1116330D01*
X3024327Y-1124813D01*
X3019399Y-1134160D01*
X3016046Y-1144219D01*
X3014319Y-1154684D01*
X3014319Y-1165301D01*
X3016046Y-1175766D01*
X3019399Y-1185824D01*
X3024327Y-1195222D01*
X3030677Y-1203706D01*
X3034842Y-1207668D01*
X3037179Y-1211021D01*
X3037992Y-1214983D01*
X3037179Y-1218996D01*
X3034842Y-1222349D01*
X3030677Y-1226312D01*
X3024327Y-1234795D01*
X3019399Y-1244193D01*
X3016046Y-1254252D01*
X3014319Y-1264716D01*
X3014319Y-1275283D01*
X3016046Y-1285748D01*
X3019399Y-1295806D01*
X3024327Y-1305204D01*
X3030677Y-1313688D01*
X3038348Y-1321003D01*
X3047085Y-1327048D01*
X3056636Y-1331569D01*
X3066846Y-1334566D01*
X3077362Y-1335836D01*
X3083102Y-1335582D01*
X3087217Y-1336294D01*
X3090722Y-1338580D01*
X3253943Y-1501749D01*
X3260496Y-1507185D01*
X3267557Y-1510944D01*
X3275228Y-1513281D01*
X3283712Y-1514094D01*
X3661867Y-1514094D01*
X3665728Y-1514906D01*
X3669029Y-1517091D01*
X3933139Y-1781149D01*
X3939692Y-1786585D01*
X3946753Y-1790344D01*
X3954424Y-1792681D01*
X3962908Y-1793493D01*
X4774692Y-1793493D01*
X4783175Y-1792681D01*
X4790846Y-1790344D01*
X4797907Y-1786585D01*
X4804460Y-1781149D01*
X4840528Y-1745132D01*
X4843678Y-1742998D01*
X4847386Y-1742186D01*
X4859375Y-1741779D01*
X4869738Y-1739696D01*
X4879644Y-1735937D01*
X4888839Y-1730603D01*
X4897018Y-1723898D01*
X4904079Y-1715973D01*
X4909718Y-1707032D01*
X4913884Y-1697278D01*
X4916424Y-1686966D01*
X4917287Y-1676400D01*
X4916424Y-1665833D01*
X4913884Y-1655521D01*
X4909718Y-1645767D01*
X4904079Y-1636826D01*
X4897018Y-1628901D01*
X4888839Y-1622196D01*
X4879644Y-1616862D01*
X4869738Y-1613103D01*
X4859324Y-1611020D01*
X4848758Y-1610563D01*
X4838242Y-1611833D01*
X4828032Y-1614830D01*
X4818481Y-1619351D01*
X4809744Y-1625396D01*
X4802073Y-1632712D01*
X4795723Y-1641195D01*
X4790795Y-1650593D01*
X4787442Y-1660652D01*
X4785715Y-1671116D01*
X4785715Y-1680006D01*
X4784953Y-1683867D01*
X4782769Y-1687169D01*
X4761230Y-1708708D01*
X4757928Y-1710943D01*
X4754067Y-1711706D01*
X3983532Y-1711706D01*
X3979672Y-1710943D01*
X3976370Y-1708708D01*
X3712260Y-1444650D01*
X3705707Y-1439214D01*
X3698646Y-1435455D01*
X3690975Y-1433118D01*
X3682492Y-1432306D01*
X3304336Y-1432306D01*
X3300476Y-1431544D01*
X3297174Y-1429308D01*
X3276092Y-1408277D01*
X3273907Y-1404975D01*
X3273145Y-1401064D01*
X3273907Y-1397203D01*
X3276092Y-1393901D01*
X3279394Y-1391716D01*
X3283305Y-1390904D01*
X4883708Y-1390904D01*
X4887518Y-1391666D01*
X4890770Y-1393748D01*
X4898339Y-1401013D01*
X4907076Y-1407058D01*
X4916627Y-1411579D01*
X4926838Y-1414526D01*
X4937353Y-1415846D01*
X4947920Y-1415389D01*
X4958334Y-1413256D01*
X4960315Y-1412544D01*
X4964176Y-1411884D01*
X4967986Y-1412697D01*
X4971186Y-1414932D01*
X4973320Y-1418183D01*
X4974082Y-1422044D01*
X4974082Y-2309723D01*
X4973167Y-2313940D01*
X4970576Y-2317394D01*
X4966817Y-2319426D01*
X4962499Y-2319782D01*
X4958435Y-2318258D01*
X4955387Y-2315260D01*
X4950206Y-2307234D01*
X4936794Y-2290114D01*
X4921961Y-2274214D01*
X4905756Y-2259685D01*
X4888280Y-2246680D01*
X4869789Y-2235250D01*
X4866335Y-2233523D01*
X4866335Y-2333650D01*
X4963922Y-2333650D01*
X4967833Y-2334412D01*
X4971084Y-2336647D01*
X4973320Y-2339898D01*
X4974082Y-2343810D01*
X4974082Y-2499258D01*
X4973167Y-2517546D01*
X4970576Y-2534462D01*
X4966411Y-2550972D01*
X4963312Y-2559608D01*
X4961178Y-2563114D01*
X4957775Y-2565501D01*
X4953762Y-2566365D01*
X4866335Y-2566365D01*
X4866335Y-2653741D01*
X4865522Y-2657805D01*
X4863134Y-2661158D01*
X4859629Y-2663291D01*
X4850028Y-2666695D01*
X4833467Y-2670810D01*
X4816551Y-2673248D01*
X4799126Y-2674112D01*
X4643831Y-2674112D01*
X4639919Y-2673299D01*
X4636617Y-2671114D01*
X4634433Y-2667812D01*
X4633671Y-2663952D01*
X4633671Y-2566365D01*
X4533442Y-2566365D01*
X4543653Y-2583789D01*
X4556302Y-2601468D01*
X4570476Y-2618028D01*
X4586020Y-2633218D01*
X4602835Y-2646984D01*
X4615383Y-2655519D01*
X4618329Y-2658618D01*
X4619752Y-2662682D01*
X4619396Y-2666898D01*
X4617262Y-2670657D01*
X4613859Y-2673197D01*
X4609642Y-2674112D01*
X390448Y-2674112D01*
X386181Y-2673146D01*
X382727Y-2670556D01*
X380695Y-2666695D01*
X380390Y-2662377D01*
X381965Y-2658313D01*
X385114Y-2655265D01*
X388315Y-2653334D01*
X405739Y-2640279D01*
X421944Y-2625801D01*
X436829Y-2609900D01*
X450189Y-2592781D01*
X462026Y-2574493D01*
X466343Y-2566365D01*
X366369Y-2566365D01*
X366369Y-2663952D01*
X365556Y-2667812D01*
X363372Y-2671114D01*
X360070Y-2673299D01*
X356209Y-2674112D01*
G37*

%LPC*%
G36*
X366369Y-2333650D02*
G01*
X466343Y-2333650D01*
X462026Y-2325471D01*
X450189Y-2307234D01*
X436829Y-2290114D01*
X421944Y-2274214D01*
X405739Y-2259685D01*
X388315Y-2246680D01*
X369773Y-2235250D01*
X366369Y-2233523D01*
G37*
G36*
X4533442Y-2333650D02*
G01*
X4633671Y-2333650D01*
X4633671Y-2233625D01*
X4620818Y-2240788D01*
X4602835Y-2252980D01*
X4586020Y-2266797D01*
X4570476Y-2281986D01*
X4556302Y-2298496D01*
X4543653Y-2316226D01*
G37*
G36*
X1044397Y-2091842D02*
G01*
X1045971Y-2091182D01*
X1057706Y-2084222D01*
X1068425Y-2075738D01*
X1077874Y-2065934D01*
X1085951Y-2054961D01*
X1091692Y-2044496D01*
X1044397Y-2044496D01*
G37*
G36*
X955497Y-2091842D02*
G01*
X955497Y-2044496D01*
X907745Y-2044496D01*
X908812Y-2045766D01*
X913892Y-2054961D01*
X921969Y-2065934D01*
X931468Y-2075738D01*
X942136Y-2084222D01*
X953871Y-2091182D01*
G37*
G36*
X3304743Y-1971243D02*
G01*
X3315360Y-1970786D01*
X3325723Y-1968703D01*
X3335629Y-1964943D01*
X3344824Y-1959610D01*
X3353054Y-1952904D01*
X3355848Y-1949754D01*
X3359302Y-1947214D01*
X3363468Y-1946300D01*
X3530498Y-1946300D01*
X3534308Y-1947062D01*
X3537559Y-1949145D01*
X3545128Y-1956409D01*
X3553866Y-1962454D01*
X3563467Y-1966975D01*
X3573627Y-1969973D01*
X3584143Y-1971243D01*
X3594760Y-1970786D01*
X3605123Y-1968703D01*
X3615029Y-1964943D01*
X3624224Y-1959610D01*
X3632454Y-1952904D01*
X3639464Y-1944979D01*
X3645154Y-1936038D01*
X3649319Y-1926285D01*
X3651808Y-1915972D01*
X3652672Y-1905406D01*
X3651808Y-1894839D01*
X3649319Y-1884527D01*
X3645154Y-1874774D01*
X3639464Y-1865833D01*
X3632454Y-1857908D01*
X3624224Y-1851202D01*
X3615029Y-1845868D01*
X3605123Y-1842109D01*
X3594760Y-1840026D01*
X3584143Y-1839569D01*
X3573627Y-1840839D01*
X3563467Y-1843836D01*
X3553866Y-1848357D01*
X3545128Y-1854403D01*
X3537559Y-1861667D01*
X3534308Y-1863750D01*
X3530549Y-1864512D01*
X3363468Y-1864512D01*
X3359302Y-1863598D01*
X3355848Y-1861057D01*
X3353054Y-1857908D01*
X3344824Y-1851202D01*
X3335629Y-1845868D01*
X3325723Y-1842109D01*
X3315360Y-1840026D01*
X3304743Y-1839569D01*
X3294227Y-1840839D01*
X3284067Y-1843836D01*
X3274466Y-1848357D01*
X3265728Y-1854403D01*
X3258108Y-1861718D01*
X3251708Y-1870202D01*
X3246831Y-1879600D01*
X3243427Y-1889658D01*
X3241751Y-1900123D01*
X3241751Y-1910689D01*
X3243427Y-1921154D01*
X3246831Y-1931212D01*
X3251708Y-1940610D01*
X3258108Y-1949094D01*
X3265728Y-1956409D01*
X3274466Y-1962454D01*
X3284067Y-1966975D01*
X3294227Y-1969973D01*
G37*
G36*
X1044397Y-1955596D02*
G01*
X1091590Y-1955596D01*
X1089456Y-1950974D01*
X1082090Y-1939493D01*
X1073302Y-1929079D01*
X1063193Y-1919935D01*
X1051966Y-1912213D01*
X1046073Y-1909267D01*
X1044397Y-1907844D01*
G37*
G36*
X907796Y-1955596D02*
G01*
X955497Y-1955596D01*
X955497Y-1907844D01*
X953769Y-1909267D01*
X947877Y-1912213D01*
X936650Y-1919935D01*
X926541Y-1929079D01*
X917752Y-1939493D01*
X910386Y-1950974D01*
X909116Y-1953717D01*
G37*
G36*
X4622800Y-1674875D02*
G01*
X4633874Y-1674012D01*
X4644694Y-1671421D01*
X4654956Y-1667154D01*
X4664456Y-1661363D01*
X4672939Y-1654098D01*
X4680153Y-1645666D01*
X4685944Y-1636166D01*
X4690211Y-1625904D01*
X4692802Y-1615084D01*
X4693666Y-1604010D01*
X4692802Y-1592935D01*
X4690211Y-1582115D01*
X4685944Y-1571802D01*
X4680153Y-1562354D01*
X4672939Y-1553870D01*
X4664456Y-1546656D01*
X4654956Y-1540865D01*
X4644694Y-1536598D01*
X4633874Y-1534007D01*
X4622800Y-1533093D01*
X4611725Y-1534007D01*
X4600905Y-1536598D01*
X4590643Y-1540865D01*
X4581144Y-1546656D01*
X4572660Y-1553870D01*
X4565446Y-1562354D01*
X4559655Y-1571802D01*
X4555388Y-1582115D01*
X4552797Y-1592935D01*
X4551934Y-1604010D01*
X4552797Y-1615084D01*
X4555388Y-1625904D01*
X4559655Y-1636166D01*
X4565446Y-1645666D01*
X4572660Y-1654098D01*
X4581144Y-1661363D01*
X4590643Y-1667154D01*
X4600905Y-1671421D01*
X4611725Y-1674012D01*
G37*
G36*
X4419600Y-1674875D02*
G01*
X4430674Y-1674012D01*
X4441494Y-1671421D01*
X4451756Y-1667154D01*
X4461256Y-1661363D01*
X4469739Y-1654098D01*
X4476953Y-1645666D01*
X4482744Y-1636166D01*
X4487011Y-1625904D01*
X4489602Y-1615084D01*
X4490466Y-1604010D01*
X4489602Y-1592935D01*
X4487011Y-1582115D01*
X4482744Y-1571802D01*
X4476953Y-1562354D01*
X4469739Y-1553870D01*
X4461256Y-1546656D01*
X4451756Y-1540865D01*
X4441494Y-1536598D01*
X4430674Y-1534007D01*
X4419600Y-1533093D01*
X4408525Y-1534007D01*
X4397705Y-1536598D01*
X4387443Y-1540865D01*
X4377944Y-1546656D01*
X4369460Y-1553870D01*
X4362246Y-1562354D01*
X4356455Y-1571802D01*
X4352188Y-1582115D01*
X4349597Y-1592935D01*
X4348734Y-1604010D01*
X4349597Y-1615084D01*
X4352188Y-1625904D01*
X4356455Y-1636166D01*
X4362246Y-1645666D01*
X4369460Y-1654098D01*
X4377944Y-1661363D01*
X4387443Y-1667154D01*
X4397705Y-1671421D01*
X4408525Y-1674012D01*
G37*
G36*
X1044397Y-1191920D02*
G01*
X1045971Y-1191260D01*
X1057706Y-1184300D01*
X1068425Y-1175816D01*
X1077874Y-1166012D01*
X1085951Y-1155039D01*
X1091692Y-1144574D01*
X1044397Y-1144574D01*
G37*
G36*
X955497Y-1191920D02*
G01*
X955497Y-1144574D01*
X907745Y-1144574D01*
X908812Y-1145844D01*
X913892Y-1155039D01*
X921969Y-1166012D01*
X931468Y-1175816D01*
X942136Y-1184300D01*
X953871Y-1191260D01*
G37*
G36*
X1044397Y-1055674D02*
G01*
X1091590Y-1055674D01*
X1089456Y-1051052D01*
X1082090Y-1039571D01*
X1073302Y-1029157D01*
X1063193Y-1020013D01*
X1051966Y-1012291D01*
X1046073Y-1009345D01*
X1044397Y-1007922D01*
G37*
G36*
X907796Y-1055674D02*
G01*
X955497Y-1055674D01*
X955497Y-1007922D01*
X953769Y-1009345D01*
X947877Y-1012291D01*
X936650Y-1020013D01*
X926541Y-1029157D01*
X917752Y-1039571D01*
X910386Y-1051052D01*
X909116Y-1053795D01*
G37*
G36*
X366369Y-466445D02*
G01*
X369773Y-464718D01*
X388315Y-453339D01*
X405739Y-440283D01*
X421944Y-425805D01*
X436829Y-409905D01*
X450189Y-392785D01*
X462026Y-374497D01*
X466343Y-366369D01*
X366369Y-366369D01*
G37*
G36*
X4633671Y-466394D02*
G01*
X4633671Y-366369D01*
X4533442Y-366369D01*
X4543653Y-383794D01*
X4556302Y-401472D01*
X4570476Y-418033D01*
X4586020Y-433222D01*
X4602835Y-446989D01*
X4620818Y-459232D01*
G37*

%LPD*%
D15*
X1000000Y-900000D02*
G01*
X3090014Y-900000D01*
X3280003Y-1089990D01*
X800100Y-1800097D02*
G01*
X707897Y-1800097D01*
X609600Y-1701800D01*
X609600Y-990600D01*
X700278Y-899921D01*
X800100Y-899921D01*
X3434334Y-1626107D02*
G01*
X3371341Y-1689100D01*
X2247900Y-1689100D01*
X2136902Y-1800097D01*
X999997Y-1800097D01*
X3307402Y-1905403D02*
G01*
X3586802Y-1905403D01*
X3081274Y-1054100D02*
G01*
X3247174Y-1220000D01*
X3460000Y-1220000D01*
X3079998Y-1159997D02*
G01*
X3270011Y-1350010D01*
X4939995Y-1350010D01*
X3079998Y-1270000D02*
G01*
X3283198Y-1473200D01*
X3683000Y-1473200D01*
X3962400Y-1752600D01*
X4775200Y-1752600D01*
X4851400Y-1676400D01*
X3460005Y-1220000D02*
G01*
X4660099Y-1220000D01*
X4851400Y-1028700D01*
D29*
G01*
X999921Y-700125D03*
D30*
G01*
X799922Y-700125D03*
G01*
X999921Y-900125D03*
G01*
X799922Y-900125D03*
G01*
X999921Y-1100124D03*
G01*
X799922Y-1100124D03*
D29*
G01*
X999921Y-1600047D03*
D30*
G01*
X799922Y-1600047D03*
G01*
X999921Y-1800047D03*
G01*
X799922Y-1800047D03*
G01*
X999921Y-2000046D03*
G01*
X799922Y-2000046D03*
D31*
G01*
X250012Y-250012D03*
G01*
X4750003Y-250012D03*
G01*
X250012Y-2450007D03*
G01*
X4750003Y-2450007D03*
D16*
G01*
X1130300Y-1130300D03*
G01*
X1130300Y-1230299D03*
G01*
X1030300Y-1230299D03*
G01*
X930300Y-1230299D03*
G01*
X1130300Y-2033600D03*
G01*
X1130300Y-2133600D03*
G01*
X1030300Y-2133600D03*
G01*
X930300Y-2133600D03*
G01*
X3936212Y-960399D03*
G01*
X3307410Y-1905406D03*
G01*
X3586810Y-1905406D03*
G01*
X3078810Y-1575206D03*
G01*
X3180410Y-1575206D03*
G01*
X3282010Y-1575206D03*
G01*
X3510000Y-1089990D03*
G01*
X3155010Y-2337206D03*
G01*
X3383610Y-2337206D03*
G01*
X3269310Y-2337206D03*
G01*
X3307410Y-686206D03*
G01*
X3409010Y-686206D03*
G01*
X4165600Y-1638300D03*
G01*
X3280003Y-1089990D03*
G01*
X3434410Y-1626006D03*
G01*
X2520010Y-1880006D03*
G01*
X2450007Y-1810004D03*
G01*
X1701800Y-1625600D03*
G01*
X1701800Y-1460500D03*
G01*
X3937000Y-850900D03*
G01*
X1498600Y-1701800D03*
G01*
X1498600Y-1911807D03*
G01*
X1599996Y-1010005D03*
G01*
X1710004Y-1010005D03*
G01*
X1599996Y-780008D03*
G01*
X1710004Y-780008D03*
G01*
X4254500Y-1638300D03*
G01*
X4165600Y-1460500D03*
G01*
X4254500Y-1460500D03*
G01*
X3081274Y-1054100D03*
G01*
X4851400Y-1028700D03*
G01*
X4851400Y-1676400D03*
G01*
X3080004Y-1159992D03*
G01*
X4939995Y-1350010D03*
G01*
X3080004Y-1270000D03*
M02*
