G04 Layer: TopSolderMaskLayer*
G04 EasyEDA v6.4.25, 2021-10-07T01:57:40+02:00*
G04 74d54719dcbb48859515a23e3f46d2e4,21b141c4020943fdbba11dee5124b23b,10*
G04 Gerber Generator version 0.2*
G04 Scale: 100 percent, Rotated: No, Reflected: No *
G04 Dimensions in millimeters *
G04 leading zeros omitted , absolute positions ,4 integer and 5 decimal *
%FSLAX45Y45*%
%MOMM*%

%ADD38C,0.3700*%
%ADD40C,1.6256*%
%ADD52C,4.6032*%

%LPD*%
D38*
X2981274Y-1714012D02*
G01*
X2981274Y-1837011D01*
X3031286Y-1714012D02*
G01*
X3031286Y-1837011D01*
X3081274Y-1714012D02*
G01*
X3081274Y-1837011D01*
X3131286Y-1714012D02*
G01*
X3131286Y-1837011D01*
X3181273Y-1714012D02*
G01*
X3181273Y-1837011D01*
X3231286Y-1714012D02*
G01*
X3231286Y-1837011D01*
X3281273Y-1714012D02*
G01*
X3281273Y-1837011D01*
X3331286Y-1714012D02*
G01*
X3331286Y-1837011D01*
X3381273Y-1714012D02*
G01*
X3381273Y-1837011D01*
X3431286Y-1714012D02*
G01*
X3431286Y-1837011D01*
X3481273Y-1714012D02*
G01*
X3481273Y-1837011D01*
X3531285Y-1714012D02*
G01*
X3531285Y-1837011D01*
X3619771Y-1625523D02*
G01*
X3742773Y-1625523D01*
X3619771Y-1575511D02*
G01*
X3742773Y-1575511D01*
X3619771Y-1525523D02*
G01*
X3742773Y-1525523D01*
X3619771Y-1475511D02*
G01*
X3742773Y-1475511D01*
X3619771Y-1425524D02*
G01*
X3742773Y-1425524D01*
X3619771Y-1375511D02*
G01*
X3742773Y-1375511D01*
X3619771Y-1325524D02*
G01*
X3742773Y-1325524D01*
X3619771Y-1275511D02*
G01*
X3742773Y-1275511D01*
X3619771Y-1225524D02*
G01*
X3742773Y-1225524D01*
X3619771Y-1175512D02*
G01*
X3742773Y-1175512D01*
X3619771Y-1125524D02*
G01*
X3742773Y-1125524D01*
X3619771Y-1075512D02*
G01*
X3742773Y-1075512D01*
X3531285Y-864026D02*
G01*
X3531285Y-987026D01*
X3481273Y-864026D02*
G01*
X3481273Y-987026D01*
X3431286Y-864026D02*
G01*
X3431286Y-987026D01*
X3381273Y-864026D02*
G01*
X3381273Y-987026D01*
X3331286Y-864026D02*
G01*
X3331286Y-987026D01*
X3281273Y-864026D02*
G01*
X3281273Y-987026D01*
X3231286Y-864026D02*
G01*
X3231286Y-987026D01*
X3181273Y-864026D02*
G01*
X3181273Y-987026D01*
X3131286Y-864026D02*
G01*
X3131286Y-987026D01*
X3081274Y-864026D02*
G01*
X3081274Y-987026D01*
X3031286Y-864026D02*
G01*
X3031286Y-987026D01*
X2981274Y-864026D02*
G01*
X2981274Y-987026D01*
X2769786Y-1075512D02*
G01*
X2892788Y-1075512D01*
X2769786Y-1125524D02*
G01*
X2892788Y-1125524D01*
X2769786Y-1175512D02*
G01*
X2892788Y-1175512D01*
X2769786Y-1225524D02*
G01*
X2892788Y-1225524D01*
X2769786Y-1275511D02*
G01*
X2892788Y-1275511D01*
X2769786Y-1325524D02*
G01*
X2892788Y-1325524D01*
X2769786Y-1375511D02*
G01*
X2892788Y-1375511D01*
X2769786Y-1425524D02*
G01*
X2892788Y-1425524D01*
X2769786Y-1475511D02*
G01*
X2892788Y-1475511D01*
X2769786Y-1525523D02*
G01*
X2892788Y-1525523D01*
X2769786Y-1575511D02*
G01*
X2892788Y-1575511D01*
X2769786Y-1625523D02*
G01*
X2892788Y-1625523D01*
G36*
X4584700Y-1272539D02*
G01*
X4578604Y-1272286D01*
X4572761Y-1271015D01*
X4567174Y-1269237D01*
X4561586Y-1266952D01*
X4556506Y-1263904D01*
X4551934Y-1260094D01*
X4547615Y-1255776D01*
X4543806Y-1251204D01*
X4540758Y-1246123D01*
X4538472Y-1240536D01*
X4536693Y-1234947D01*
X4535424Y-1228852D01*
X4535170Y-1223010D01*
X4535424Y-1216913D01*
X4536693Y-1211071D01*
X4538472Y-1205484D01*
X4540758Y-1199895D01*
X4543806Y-1194815D01*
X4547615Y-1190244D01*
X4551934Y-1185926D01*
X4556506Y-1182115D01*
X4561586Y-1179068D01*
X4567174Y-1176781D01*
X4572761Y-1175004D01*
X4578604Y-1173734D01*
X4584700Y-1173479D01*
X4590795Y-1173734D01*
X4596638Y-1175004D01*
X4602225Y-1176781D01*
X4607813Y-1179068D01*
X4612893Y-1182115D01*
X4617465Y-1185926D01*
X4621784Y-1190244D01*
X4625593Y-1194815D01*
X4628641Y-1199895D01*
X4630927Y-1205484D01*
X4632706Y-1211071D01*
X4633975Y-1216913D01*
X4634229Y-1223010D01*
X4633975Y-1228852D01*
X4632706Y-1234947D01*
X4630927Y-1240536D01*
X4628641Y-1246123D01*
X4625593Y-1251204D01*
X4621784Y-1255776D01*
X4617465Y-1260094D01*
X4612893Y-1263904D01*
X4607813Y-1266952D01*
X4602225Y-1269237D01*
X4596638Y-1271015D01*
X4590795Y-1272286D01*
G37*
G36*
X4584700Y-1399539D02*
G01*
X4578604Y-1399286D01*
X4572761Y-1398015D01*
X4567174Y-1396237D01*
X4561586Y-1393952D01*
X4556506Y-1390904D01*
X4551934Y-1387094D01*
X4547615Y-1382776D01*
X4543806Y-1378204D01*
X4540758Y-1373123D01*
X4538472Y-1367536D01*
X4536693Y-1361947D01*
X4535424Y-1355852D01*
X4535170Y-1350010D01*
X4535424Y-1343913D01*
X4536693Y-1338071D01*
X4538472Y-1332484D01*
X4540758Y-1326895D01*
X4543806Y-1321815D01*
X4547615Y-1317244D01*
X4551934Y-1312926D01*
X4556506Y-1309115D01*
X4561586Y-1306068D01*
X4567174Y-1303781D01*
X4572761Y-1302004D01*
X4578604Y-1300734D01*
X4584700Y-1300479D01*
X4590795Y-1300734D01*
X4596638Y-1302004D01*
X4602225Y-1303781D01*
X4607813Y-1306068D01*
X4612893Y-1309115D01*
X4617465Y-1312926D01*
X4621784Y-1317244D01*
X4625593Y-1321815D01*
X4628641Y-1326895D01*
X4630927Y-1332484D01*
X4632706Y-1338071D01*
X4633975Y-1343913D01*
X4634229Y-1350010D01*
X4633975Y-1355852D01*
X4632706Y-1361947D01*
X4630927Y-1367536D01*
X4628641Y-1373123D01*
X4625593Y-1378204D01*
X4621784Y-1382776D01*
X4617465Y-1387094D01*
X4612893Y-1390904D01*
X4607813Y-1393952D01*
X4602225Y-1396237D01*
X4596638Y-1398015D01*
X4590795Y-1399286D01*
G37*
G36*
X4584700Y-1526539D02*
G01*
X4578604Y-1526286D01*
X4572761Y-1525015D01*
X4567174Y-1523237D01*
X4561586Y-1520952D01*
X4556506Y-1517904D01*
X4551934Y-1514094D01*
X4547615Y-1509776D01*
X4543806Y-1505204D01*
X4540758Y-1500123D01*
X4538472Y-1494536D01*
X4536693Y-1488947D01*
X4535424Y-1482852D01*
X4535170Y-1477010D01*
X4535424Y-1470913D01*
X4536693Y-1465071D01*
X4538472Y-1459484D01*
X4540758Y-1453895D01*
X4543806Y-1448815D01*
X4547615Y-1444244D01*
X4551934Y-1439926D01*
X4556506Y-1436115D01*
X4561586Y-1433068D01*
X4567174Y-1430781D01*
X4572761Y-1429004D01*
X4578604Y-1427734D01*
X4584700Y-1427479D01*
X4590795Y-1427734D01*
X4596638Y-1429004D01*
X4602225Y-1430781D01*
X4607813Y-1433068D01*
X4612893Y-1436115D01*
X4617465Y-1439926D01*
X4621784Y-1444244D01*
X4625593Y-1448815D01*
X4628641Y-1453895D01*
X4630927Y-1459484D01*
X4632706Y-1465071D01*
X4633975Y-1470913D01*
X4634229Y-1477010D01*
X4633975Y-1482852D01*
X4632706Y-1488947D01*
X4630927Y-1494536D01*
X4628641Y-1500123D01*
X4625593Y-1505204D01*
X4621784Y-1509776D01*
X4617465Y-1514094D01*
X4612893Y-1517904D01*
X4607813Y-1520952D01*
X4602225Y-1523237D01*
X4596638Y-1525015D01*
X4590795Y-1526286D01*
G37*
G36*
X4457700Y-1526539D02*
G01*
X4451604Y-1526286D01*
X4445761Y-1525015D01*
X4440174Y-1523237D01*
X4434586Y-1520952D01*
X4429506Y-1517904D01*
X4424934Y-1514094D01*
X4420615Y-1509776D01*
X4416806Y-1505204D01*
X4413758Y-1500123D01*
X4411472Y-1494536D01*
X4409693Y-1488947D01*
X4408424Y-1482852D01*
X4408170Y-1477010D01*
X4408424Y-1470913D01*
X4409693Y-1465071D01*
X4411472Y-1459484D01*
X4413758Y-1453895D01*
X4416806Y-1448815D01*
X4420615Y-1444244D01*
X4424934Y-1439926D01*
X4429506Y-1436115D01*
X4434586Y-1433068D01*
X4440174Y-1430781D01*
X4445761Y-1429004D01*
X4451604Y-1427734D01*
X4457700Y-1427479D01*
X4463795Y-1427734D01*
X4469638Y-1429004D01*
X4475225Y-1430781D01*
X4480813Y-1433068D01*
X4485893Y-1436115D01*
X4490465Y-1439926D01*
X4494784Y-1444244D01*
X4498593Y-1448815D01*
X4501641Y-1453895D01*
X4503927Y-1459484D01*
X4505706Y-1465071D01*
X4506975Y-1470913D01*
X4507229Y-1477010D01*
X4506975Y-1482852D01*
X4505706Y-1488947D01*
X4503927Y-1494536D01*
X4501641Y-1500123D01*
X4498593Y-1505204D01*
X4494784Y-1509776D01*
X4490465Y-1514094D01*
X4485893Y-1517904D01*
X4480813Y-1520952D01*
X4475225Y-1523237D01*
X4469638Y-1525015D01*
X4463795Y-1526286D01*
G37*
G36*
X4457700Y-1399539D02*
G01*
X4451604Y-1399286D01*
X4445761Y-1398015D01*
X4440174Y-1396237D01*
X4434586Y-1393952D01*
X4429506Y-1390904D01*
X4424934Y-1387094D01*
X4420615Y-1382776D01*
X4416806Y-1378204D01*
X4413758Y-1373123D01*
X4411472Y-1367536D01*
X4409693Y-1361947D01*
X4408424Y-1355852D01*
X4408170Y-1350010D01*
X4408424Y-1343913D01*
X4409693Y-1338071D01*
X4411472Y-1332484D01*
X4413758Y-1326895D01*
X4416806Y-1321815D01*
X4420615Y-1317244D01*
X4424934Y-1312926D01*
X4429506Y-1309115D01*
X4434586Y-1306068D01*
X4440174Y-1303781D01*
X4445761Y-1302004D01*
X4451604Y-1300734D01*
X4457700Y-1300479D01*
X4463795Y-1300734D01*
X4469638Y-1302004D01*
X4475225Y-1303781D01*
X4480813Y-1306068D01*
X4485893Y-1309115D01*
X4490465Y-1312926D01*
X4494784Y-1317244D01*
X4498593Y-1321815D01*
X4501641Y-1326895D01*
X4503927Y-1332484D01*
X4505706Y-1338071D01*
X4506975Y-1343913D01*
X4507229Y-1350010D01*
X4506975Y-1355852D01*
X4505706Y-1361947D01*
X4503927Y-1367536D01*
X4501641Y-1373123D01*
X4498593Y-1378204D01*
X4494784Y-1382776D01*
X4490465Y-1387094D01*
X4485893Y-1390904D01*
X4480813Y-1393952D01*
X4475225Y-1396237D01*
X4469638Y-1398015D01*
X4463795Y-1399286D01*
G37*
G36*
X4457700Y-1272539D02*
G01*
X4451604Y-1272286D01*
X4445761Y-1271015D01*
X4440174Y-1269237D01*
X4434586Y-1266952D01*
X4429506Y-1263904D01*
X4424934Y-1260094D01*
X4420615Y-1255776D01*
X4416806Y-1251204D01*
X4413758Y-1246123D01*
X4411472Y-1240536D01*
X4409693Y-1234947D01*
X4408424Y-1228852D01*
X4408170Y-1223010D01*
X4408424Y-1216913D01*
X4409693Y-1211071D01*
X4411472Y-1205484D01*
X4413758Y-1199895D01*
X4416806Y-1194815D01*
X4420615Y-1190244D01*
X4424934Y-1185926D01*
X4429506Y-1182115D01*
X4434586Y-1179068D01*
X4440174Y-1176781D01*
X4445761Y-1175004D01*
X4451604Y-1173734D01*
X4457700Y-1173479D01*
X4463795Y-1173734D01*
X4469638Y-1175004D01*
X4475225Y-1176781D01*
X4480813Y-1179068D01*
X4485893Y-1182115D01*
X4490465Y-1185926D01*
X4494784Y-1190244D01*
X4498593Y-1194815D01*
X4501641Y-1199895D01*
X4503927Y-1205484D01*
X4505706Y-1211071D01*
X4506975Y-1216913D01*
X4507229Y-1223010D01*
X4506975Y-1228852D01*
X4505706Y-1234947D01*
X4503927Y-1240536D01*
X4501641Y-1246123D01*
X4498593Y-1251204D01*
X4494784Y-1255776D01*
X4490465Y-1260094D01*
X4485893Y-1263904D01*
X4480813Y-1266952D01*
X4475225Y-1269237D01*
X4469638Y-1271015D01*
X4463795Y-1272286D01*
G37*
G36*
X918718Y-781304D02*
G01*
X918718Y-618744D01*
X1081278Y-618744D01*
X1081278Y-781304D01*
G37*
D40*
G01*
X799922Y-700125D03*
G01*
X999921Y-900125D03*
G01*
X799922Y-900125D03*
G01*
X999921Y-1100124D03*
G01*
X799922Y-1100124D03*
G36*
X918718Y-1681226D02*
G01*
X918718Y-1518665D01*
X1081278Y-1518665D01*
X1081278Y-1681226D01*
G37*
G01*
X799922Y-1600047D03*
G01*
X999921Y-1800047D03*
G01*
X799922Y-1800047D03*
G01*
X999921Y-2000046D03*
G01*
X799922Y-2000046D03*
G36*
X4591050Y-1599692D02*
G01*
X4591050Y-1500378D01*
X4901184Y-1500378D01*
X4901184Y-1599692D01*
G37*
G36*
X4141215Y-1599692D02*
G01*
X4141215Y-1500378D01*
X4451350Y-1500378D01*
X4451350Y-1599692D01*
G37*
G36*
X4591050Y-1399539D02*
G01*
X4591050Y-1300479D01*
X4901184Y-1300479D01*
X4901184Y-1399539D01*
G37*
G36*
X4141215Y-1399539D02*
G01*
X4141215Y-1300479D01*
X4451350Y-1300479D01*
X4451350Y-1399539D01*
G37*
G36*
X4591050Y-1199642D02*
G01*
X4591050Y-1100328D01*
X4901184Y-1100328D01*
X4901184Y-1199642D01*
G37*
G36*
X4141215Y-1199642D02*
G01*
X4141215Y-1100328D01*
X4451350Y-1100328D01*
X4451350Y-1199642D01*
G37*
G36*
X2046731Y-1429257D02*
G01*
X2046731Y-1339342D01*
X2136647Y-1339342D01*
X2136647Y-1429257D01*
G37*
G36*
X1876552Y-1429257D02*
G01*
X1876552Y-1339342D01*
X1966468Y-1339342D01*
X1966468Y-1429257D01*
G37*
G36*
X2036572Y-1203960D02*
G01*
X2036572Y-1107439D01*
X2127250Y-1107439D01*
X2127250Y-1203960D01*
G37*
G36*
X1885950Y-1203960D02*
G01*
X1885950Y-1107439D01*
X1976627Y-1107439D01*
X1976627Y-1203960D01*
G37*
G36*
X2031491Y-1675637D02*
G01*
X2031491Y-1575562D01*
X2121661Y-1575562D01*
X2121661Y-1675637D01*
G37*
G36*
X1891537Y-1675637D02*
G01*
X1891537Y-1575562D01*
X1981708Y-1575562D01*
X1981708Y-1675637D01*
G37*
G36*
X584962Y-2604262D02*
G01*
X584962Y-2514092D01*
X685037Y-2514092D01*
X685037Y-2604262D01*
G37*
G36*
X584962Y-2464307D02*
G01*
X584962Y-2374137D01*
X685037Y-2374137D01*
X685037Y-2464307D01*
G37*
G36*
X3860038Y-735837D02*
G01*
X3860038Y-635762D01*
X3950208Y-635762D01*
X3950208Y-735837D01*
G37*
G36*
X3999991Y-735837D02*
G01*
X3999991Y-635762D01*
X4090161Y-635762D01*
X4090161Y-735837D01*
G37*
G36*
X1229360Y-2053589D02*
G01*
X1229360Y-1924557D01*
X1412239Y-1924557D01*
X1412239Y-2053589D01*
G37*
G36*
X1229360Y-2342642D02*
G01*
X1229360Y-2213610D01*
X1412239Y-2213610D01*
X1412239Y-2342642D01*
G37*
G36*
X840486Y-2429002D02*
G01*
X840486Y-2305557D01*
X988313Y-2305557D01*
X988313Y-2429002D01*
G37*
G36*
X840486Y-2622042D02*
G01*
X840486Y-2498597D01*
X988313Y-2498597D01*
X988313Y-2622042D01*
G37*
G36*
X2559558Y-2436113D02*
G01*
X2559558Y-2288286D01*
X2683002Y-2288286D01*
X2683002Y-2436113D01*
G37*
G36*
X2752597Y-2436113D02*
G01*
X2752597Y-2288286D01*
X2876041Y-2288286D01*
X2876041Y-2436113D01*
G37*
G36*
X2549652Y-1468881D02*
G01*
X2549652Y-1372362D01*
X2640584Y-1372362D01*
X2640584Y-1468881D01*
G37*
G36*
X2399029Y-1468881D02*
G01*
X2399029Y-1372362D01*
X2489961Y-1372362D01*
X2489961Y-1468881D01*
G37*
G36*
X3887977Y-1321054D02*
G01*
X3887977Y-1230376D01*
X3984497Y-1230376D01*
X3984497Y-1321054D01*
G37*
G36*
X3887977Y-1170431D02*
G01*
X3887977Y-1079754D01*
X3984497Y-1079754D01*
X3984497Y-1170431D01*
G37*
G36*
X1570736Y-1963165D02*
G01*
X1570736Y-1843023D01*
X1830831Y-1843023D01*
X1830831Y-1963165D01*
G37*
G36*
X1570736Y-2193289D02*
G01*
X1570736Y-2073147D01*
X1830831Y-2073147D01*
X1830831Y-2193289D01*
G37*
G36*
X1570736Y-2423160D02*
G01*
X1570736Y-2303018D01*
X1830831Y-2303018D01*
X1830831Y-2423160D01*
G37*
G36*
X2172715Y-2318257D02*
G01*
X2172715Y-1948179D01*
X2416809Y-1948179D01*
X2416809Y-2318257D01*
G37*
G36*
X3104895Y-2223770D02*
G01*
X3104895Y-2133600D01*
X3204972Y-2133600D01*
X3204972Y-2223770D01*
G37*
G36*
X3104895Y-2083562D02*
G01*
X3104895Y-1993645D01*
X3204972Y-1993645D01*
X3204972Y-2083562D01*
G37*
G36*
X3333495Y-2223770D02*
G01*
X3333495Y-2133600D01*
X3433572Y-2133600D01*
X3433572Y-2223770D01*
G37*
G36*
X3333495Y-2083562D02*
G01*
X3333495Y-1993645D01*
X3433572Y-1993645D01*
X3433572Y-2083562D01*
G37*
G36*
X2608072Y-1930145D02*
G01*
X2608072Y-1829815D01*
X2698241Y-1829815D01*
X2698241Y-1930145D01*
G37*
G36*
X2748025Y-1930145D02*
G01*
X2748025Y-1829815D01*
X2838195Y-1829815D01*
X2838195Y-1930145D01*
G37*
G36*
X2404872Y-1676145D02*
G01*
X2404872Y-1575815D01*
X2495041Y-1575815D01*
X2495041Y-1676145D01*
G37*
G36*
X2544825Y-1676145D02*
G01*
X2544825Y-1575815D01*
X2634995Y-1575815D01*
X2634995Y-1676145D01*
G37*
G36*
X3129025Y-736345D02*
G01*
X3129025Y-636015D01*
X3219195Y-636015D01*
X3219195Y-736345D01*
G37*
G36*
X2989072Y-736345D02*
G01*
X2989072Y-636015D01*
X3079241Y-636015D01*
X3079241Y-736345D01*
G37*
G36*
X3497072Y-736345D02*
G01*
X3497072Y-636015D01*
X3587241Y-636015D01*
X3587241Y-736345D01*
G37*
G36*
X3637025Y-736345D02*
G01*
X3637025Y-636015D01*
X3727195Y-636015D01*
X3727195Y-736345D01*
G37*
D52*
G01*
X250012Y-250012D03*
G01*
X4750003Y-250012D03*
G01*
X250012Y-2450007D03*
G01*
X4750003Y-2450007D03*
M02*
