G04 Layer: BottomSilkLayer*
G04 EasyEDA v6.4.20.6, 2021-08-21T12:51:08+02:00*
G04 49faa743f6f2471693ae6abc579f8785,21b141c4020943fdbba11dee5124b23b,10*
G04 Gerber Generator version 0.2*
G04 Scale: 100 percent, Rotated: No, Reflected: No *
G04 Dimensions in millimeters *
G04 leading zeros omitted , absolute positions ,4 integer and 5 decimal *
%FSLAX45Y45*%
%MOMM*%

%ADD37C,0.2200*%
%ADD39C,0.1520*%

%LPD*%
D39*
X2225454Y11742552D02*
G01*
X2229091Y11749824D01*
X2236363Y11757098D01*
X2243637Y11760733D01*
X2258181Y11760733D01*
X2265453Y11757098D01*
X2272728Y11749824D01*
X2276363Y11742552D01*
X2280000Y11731642D01*
X2280000Y11713461D01*
X2276363Y11702552D01*
X2272728Y11695280D01*
X2265453Y11688008D01*
X2258181Y11684370D01*
X2243637Y11684370D01*
X2236363Y11688008D01*
X2229091Y11695280D01*
X2225454Y11702552D01*
X2225454Y11713461D01*
X2243637Y11713461D02*
G01*
X2225454Y11713461D01*
X2201456Y11760733D02*
G01*
X2201456Y11684370D01*
X2201456Y11760733D02*
G01*
X2150546Y11684370D01*
X2150546Y11760733D02*
G01*
X2150546Y11684370D01*
X2126546Y11760733D02*
G01*
X2126546Y11684370D01*
X2126546Y11760733D02*
G01*
X2101090Y11760733D01*
X2090181Y11757098D01*
X2082909Y11749824D01*
X2079274Y11742552D01*
X2075637Y11731642D01*
X2075637Y11713461D01*
X2079274Y11702552D01*
X2082909Y11695280D01*
X2090181Y11688008D01*
X2101090Y11684370D01*
X2126546Y11684370D01*
X2369091Y11549821D02*
G01*
X2376363Y11557096D01*
X2387272Y11560731D01*
X2401818Y11560731D01*
X2412728Y11557096D01*
X2420000Y11549821D01*
X2420000Y11542549D01*
X2416362Y11535277D01*
X2412728Y11531640D01*
X2405453Y11528005D01*
X2383637Y11520731D01*
X2376363Y11517096D01*
X2372728Y11513459D01*
X2369091Y11506187D01*
X2369091Y11495278D01*
X2376363Y11488005D01*
X2387272Y11484368D01*
X2401818Y11484368D01*
X2412728Y11488005D01*
X2420000Y11495278D01*
X2345090Y11560731D02*
G01*
X2345090Y11484368D01*
X2345090Y11560731D02*
G01*
X2297818Y11560731D01*
X2345090Y11524368D02*
G01*
X2315999Y11524368D01*
X2345090Y11484368D02*
G01*
X2297818Y11484368D01*
X2273818Y11560731D02*
G01*
X2273818Y11484368D01*
X2273818Y11560731D02*
G01*
X2222908Y11484368D01*
X2222908Y11560731D02*
G01*
X2222908Y11484368D01*
X2147999Y11549821D02*
G01*
X2155273Y11557096D01*
X2166183Y11560731D01*
X2180727Y11560731D01*
X2191636Y11557096D01*
X2198908Y11549821D01*
X2198908Y11542549D01*
X2195273Y11535277D01*
X2191636Y11531640D01*
X2184364Y11528005D01*
X2162545Y11520731D01*
X2155273Y11517096D01*
X2151636Y11513459D01*
X2147999Y11506187D01*
X2147999Y11495278D01*
X2155273Y11488005D01*
X2166183Y11484368D01*
X2180727Y11484368D01*
X2191636Y11488005D01*
X2198908Y11495278D01*
X2124001Y11560731D02*
G01*
X2124001Y11484368D01*
X2124001Y11560731D02*
G01*
X2076726Y11560731D01*
X2124001Y11524368D02*
G01*
X2094908Y11524368D01*
X2124001Y11484368D02*
G01*
X2076726Y11484368D01*
X2204996Y11360703D02*
G01*
X2204996Y11284341D01*
X2204996Y11360703D02*
G01*
X2154087Y11284341D01*
X2154087Y11360703D02*
G01*
X2154087Y11284341D01*
X2075543Y11342522D02*
G01*
X2079177Y11349794D01*
X2086452Y11357068D01*
X2093724Y11360703D01*
X2108268Y11360703D01*
X2115543Y11357068D01*
X2122815Y11349794D01*
X2126452Y11342522D01*
X2130087Y11331613D01*
X2130087Y11313431D01*
X2126452Y11302522D01*
X2122815Y11295250D01*
X2115543Y11287978D01*
X2108268Y11284341D01*
X2093724Y11284341D01*
X2086452Y11287978D01*
X2079177Y11295250D01*
X2075543Y11302522D01*
X1650001Y11760733D02*
G01*
X1650001Y11684370D01*
X1650001Y11684370D02*
G01*
X1606364Y11684370D01*
X1560548Y11760733D02*
G01*
X1567820Y11757098D01*
X1575092Y11749824D01*
X1578729Y11742552D01*
X1582366Y11731642D01*
X1582366Y11713461D01*
X1578729Y11702552D01*
X1575092Y11695280D01*
X1567820Y11688008D01*
X1560548Y11684370D01*
X1546001Y11684370D01*
X1538729Y11688008D01*
X1531457Y11695280D01*
X1527820Y11702552D01*
X1524182Y11713461D01*
X1524182Y11731642D01*
X1527820Y11742552D01*
X1531457Y11749824D01*
X1538729Y11757098D01*
X1546001Y11760733D01*
X1560548Y11760733D01*
X1478366Y11760733D02*
G01*
X1485638Y11757098D01*
X1492910Y11749824D01*
X1496547Y11742552D01*
X1500182Y11731642D01*
X1500182Y11713461D01*
X1496547Y11702552D01*
X1492910Y11695280D01*
X1485638Y11688008D01*
X1478366Y11684370D01*
X1463819Y11684370D01*
X1456547Y11688008D01*
X1449275Y11695280D01*
X1445638Y11702552D01*
X1442001Y11713461D01*
X1442001Y11731642D01*
X1445638Y11742552D01*
X1449275Y11749824D01*
X1456547Y11757098D01*
X1463819Y11760733D01*
X1478366Y11760733D01*
X1418000Y11760733D02*
G01*
X1418000Y11684370D01*
X1418000Y11760733D02*
G01*
X1385275Y11760733D01*
X1374366Y11757098D01*
X1370728Y11753461D01*
X1367091Y11746189D01*
X1367091Y11735280D01*
X1370728Y11728008D01*
X1374366Y11724370D01*
X1385275Y11720733D01*
X1418000Y11720733D01*
X1650001Y11560731D02*
G01*
X1650001Y11484368D01*
X1650001Y11560731D02*
G01*
X1617273Y11560731D01*
X1606364Y11557096D01*
X1602729Y11553459D01*
X1599092Y11546187D01*
X1599092Y11535277D01*
X1602729Y11528005D01*
X1606364Y11524368D01*
X1617273Y11520731D01*
X1650001Y11520731D01*
X1575092Y11560731D02*
G01*
X1556910Y11484368D01*
X1538729Y11560731D02*
G01*
X1556910Y11484368D01*
X1538729Y11560731D02*
G01*
X1520548Y11484368D01*
X1502364Y11560731D02*
G01*
X1520548Y11484368D01*
X1478366Y11560731D02*
G01*
X1478366Y11484368D01*
X1478366Y11560731D02*
G01*
X1449275Y11484368D01*
X1420182Y11560731D02*
G01*
X1449275Y11484368D01*
X1420182Y11560731D02*
G01*
X1420182Y11484368D01*
X1340182Y11560731D02*
G01*
X1340182Y11484368D01*
X1316184Y11560731D02*
G01*
X1316184Y11484368D01*
X1316184Y11560731D02*
G01*
X1265275Y11484368D01*
X1265275Y11560731D02*
G01*
X1265275Y11484368D01*
X1650001Y11346187D02*
G01*
X1642729Y11349822D01*
X1631820Y11360731D01*
X1631820Y11284369D01*
X1604182Y11342550D02*
G01*
X1604182Y11346187D01*
X1600547Y11353459D01*
X1596910Y11357096D01*
X1589638Y11360731D01*
X1575092Y11360731D01*
X1567820Y11357096D01*
X1564182Y11353459D01*
X1560548Y11346187D01*
X1560548Y11338915D01*
X1564182Y11331641D01*
X1571457Y11320731D01*
X1607820Y11284369D01*
X1556910Y11284369D01*
X1532910Y11360731D02*
G01*
X1503819Y11284369D01*
X1474729Y11360731D02*
G01*
X1503819Y11284369D01*
X4865456Y11342550D02*
G01*
X4869093Y11349822D01*
X4876365Y11357096D01*
X4883640Y11360731D01*
X4898184Y11360731D01*
X4905456Y11357096D01*
X4912730Y11349822D01*
X4916365Y11342550D01*
X4920002Y11331641D01*
X4920002Y11313459D01*
X4916365Y11302550D01*
X4912730Y11295278D01*
X4905456Y11288006D01*
X4898184Y11284369D01*
X4883640Y11284369D01*
X4876365Y11288006D01*
X4869093Y11295278D01*
X4865456Y11302550D01*
X4865456Y11313459D01*
X4883640Y11313459D02*
G01*
X4865456Y11313459D01*
X4841458Y11360731D02*
G01*
X4841458Y11284369D01*
X4841458Y11360731D02*
G01*
X4790549Y11284369D01*
X4790549Y11360731D02*
G01*
X4790549Y11284369D01*
X4766548Y11360731D02*
G01*
X4766548Y11284369D01*
X4766548Y11360731D02*
G01*
X4741092Y11360731D01*
X4730183Y11357096D01*
X4722911Y11349822D01*
X4719276Y11342550D01*
X4715639Y11331641D01*
X4715639Y11313459D01*
X4719276Y11302550D01*
X4722911Y11295278D01*
X4730183Y11288006D01*
X4741092Y11284369D01*
X4766548Y11284369D01*
X4869093Y11549821D02*
G01*
X4876365Y11557096D01*
X4887274Y11560731D01*
X4901821Y11560731D01*
X4912730Y11557096D01*
X4920002Y11549821D01*
X4920002Y11542549D01*
X4916365Y11535277D01*
X4912730Y11531640D01*
X4905456Y11528005D01*
X4883640Y11520731D01*
X4876365Y11517096D01*
X4872730Y11513459D01*
X4869093Y11506187D01*
X4869093Y11495278D01*
X4876365Y11488005D01*
X4887274Y11484368D01*
X4901821Y11484368D01*
X4912730Y11488005D01*
X4920002Y11495278D01*
X4845093Y11560731D02*
G01*
X4845093Y11484368D01*
X4845093Y11560731D02*
G01*
X4797821Y11560731D01*
X4845093Y11524368D02*
G01*
X4816002Y11524368D01*
X4845093Y11484368D02*
G01*
X4797821Y11484368D01*
X4773820Y11560731D02*
G01*
X4773820Y11484368D01*
X4773820Y11560731D02*
G01*
X4722911Y11484368D01*
X4722911Y11560731D02*
G01*
X4722911Y11484368D01*
X4648001Y11549821D02*
G01*
X4655276Y11557096D01*
X4666185Y11560731D01*
X4680729Y11560731D01*
X4691639Y11557096D01*
X4698911Y11549821D01*
X4698911Y11542549D01*
X4695276Y11535277D01*
X4691639Y11531640D01*
X4684367Y11528005D01*
X4662548Y11520731D01*
X4655276Y11517096D01*
X4651639Y11513459D01*
X4648001Y11506187D01*
X4648001Y11495278D01*
X4655276Y11488005D01*
X4666185Y11484368D01*
X4680729Y11484368D01*
X4691639Y11488005D01*
X4698911Y11495278D01*
X4624003Y11560731D02*
G01*
X4624003Y11484368D01*
X4624003Y11560731D02*
G01*
X4576729Y11560731D01*
X4624003Y11524368D02*
G01*
X4594910Y11524368D01*
X4624003Y11484368D02*
G01*
X4576729Y11484368D01*
X4920002Y11760733D02*
G01*
X4920002Y11684370D01*
X4920002Y11760733D02*
G01*
X4869093Y11684370D01*
X4869093Y11760733D02*
G01*
X4869093Y11684370D01*
X4790549Y11742552D02*
G01*
X4794183Y11749824D01*
X4801458Y11757098D01*
X4808730Y11760733D01*
X4823274Y11760733D01*
X4830549Y11757098D01*
X4837821Y11749824D01*
X4841458Y11742552D01*
X4845093Y11731642D01*
X4845093Y11713461D01*
X4841458Y11702552D01*
X4837821Y11695280D01*
X4830549Y11688008D01*
X4823274Y11684370D01*
X4808730Y11684370D01*
X4801458Y11688008D01*
X4794183Y11695280D01*
X4790549Y11702552D01*
X5530004Y11746189D02*
G01*
X5522732Y11749824D01*
X5511822Y11760733D01*
X5511822Y11684370D01*
X5484185Y11742552D02*
G01*
X5484185Y11746189D01*
X5480550Y11753461D01*
X5476913Y11757098D01*
X5469641Y11760733D01*
X5455094Y11760733D01*
X5447822Y11757098D01*
X5444185Y11753461D01*
X5440550Y11746189D01*
X5440550Y11738917D01*
X5444185Y11731642D01*
X5451459Y11720733D01*
X5487822Y11684370D01*
X5436913Y11684370D01*
X5412912Y11760733D02*
G01*
X5383822Y11684370D01*
X5354731Y11760733D02*
G01*
X5383822Y11684370D01*
X5870003Y11360731D02*
G01*
X5870003Y11284369D01*
X5870003Y11360731D02*
G01*
X5837275Y11360731D01*
X5826366Y11357096D01*
X5822731Y11353459D01*
X5819094Y11346187D01*
X5819094Y11335278D01*
X5822731Y11328006D01*
X5826366Y11324369D01*
X5837275Y11320731D01*
X5870003Y11320731D01*
X5795093Y11360731D02*
G01*
X5776912Y11284369D01*
X5758731Y11360731D02*
G01*
X5776912Y11284369D01*
X5758731Y11360731D02*
G01*
X5740549Y11284369D01*
X5722365Y11360731D02*
G01*
X5740549Y11284369D01*
X5698368Y11360731D02*
G01*
X5698368Y11284369D01*
X5698368Y11360731D02*
G01*
X5669277Y11284369D01*
X5640184Y11360731D02*
G01*
X5669277Y11284369D01*
X5640184Y11360731D02*
G01*
X5640184Y11284369D01*
X5538368Y11360731D02*
G01*
X5545640Y11357096D01*
X5552912Y11349822D01*
X5556549Y11342550D01*
X5560184Y11331641D01*
X5560184Y11313459D01*
X5556549Y11302550D01*
X5552912Y11295278D01*
X5545640Y11288006D01*
X5538368Y11284369D01*
X5523821Y11284369D01*
X5516549Y11288006D01*
X5509275Y11295278D01*
X5505640Y11302550D01*
X5502003Y11313459D01*
X5502003Y11331641D01*
X5505640Y11342550D01*
X5509275Y11349822D01*
X5516549Y11357096D01*
X5523821Y11360731D01*
X5538368Y11360731D01*
X5478002Y11360731D02*
G01*
X5478002Y11306187D01*
X5474368Y11295278D01*
X5467093Y11288006D01*
X5456184Y11284369D01*
X5448912Y11284369D01*
X5438002Y11288006D01*
X5430730Y11295278D01*
X5427093Y11306187D01*
X5427093Y11360731D01*
X5377639Y11360731D02*
G01*
X5377639Y11284369D01*
X5403095Y11360731D02*
G01*
X5352186Y11360731D01*
X5640003Y11560731D02*
G01*
X5640003Y11484368D01*
X5640003Y11484368D02*
G01*
X5596366Y11484368D01*
X5550550Y11560731D02*
G01*
X5557822Y11557096D01*
X5565094Y11549821D01*
X5568731Y11542549D01*
X5572368Y11531640D01*
X5572368Y11513459D01*
X5568731Y11502550D01*
X5565094Y11495278D01*
X5557822Y11488005D01*
X5550550Y11484368D01*
X5536003Y11484368D01*
X5528731Y11488005D01*
X5521459Y11495278D01*
X5517822Y11502550D01*
X5514185Y11513459D01*
X5514185Y11531640D01*
X5517822Y11542549D01*
X5521459Y11549821D01*
X5528731Y11557096D01*
X5536003Y11560731D01*
X5550550Y11560731D01*
X5468368Y11560731D02*
G01*
X5475640Y11557096D01*
X5482912Y11549821D01*
X5486549Y11542549D01*
X5490184Y11531640D01*
X5490184Y11513459D01*
X5486549Y11502550D01*
X5482912Y11495278D01*
X5475640Y11488005D01*
X5468368Y11484368D01*
X5453821Y11484368D01*
X5446549Y11488005D01*
X5439277Y11495278D01*
X5435640Y11502550D01*
X5432003Y11513459D01*
X5432003Y11531640D01*
X5435640Y11542549D01*
X5439277Y11549821D01*
X5446549Y11557096D01*
X5453821Y11560731D01*
X5468368Y11560731D01*
X5408002Y11560731D02*
G01*
X5408002Y11484368D01*
X5408002Y11560731D02*
G01*
X5375277Y11560731D01*
X5364368Y11557096D01*
X5360730Y11553459D01*
X5357093Y11546187D01*
X5357093Y11535277D01*
X5360730Y11528005D01*
X5364368Y11524368D01*
X5375277Y11520731D01*
X5408002Y11520731D01*
D37*
X2083561Y11124824D02*
G01*
X2094486Y11135746D01*
X2110993Y11141080D01*
X2132838Y11141080D01*
X2149093Y11135746D01*
X2160018Y11124824D01*
X2160018Y11113902D01*
X2154427Y11102980D01*
X2149093Y11097392D01*
X2138172Y11092058D01*
X2105406Y11081136D01*
X2094486Y11075548D01*
X2089152Y11070214D01*
X2083561Y11059292D01*
X2083561Y11043036D01*
X2094486Y11032114D01*
X2110993Y11026526D01*
X2132838Y11026526D01*
X2149093Y11032114D01*
X2160018Y11043036D01*
X2047747Y11141080D02*
G01*
X2047747Y11026526D01*
X2047747Y11141080D02*
G01*
X1976627Y11141080D01*
X2047747Y11086470D02*
G01*
X2004059Y11086470D01*
X2047747Y11026526D02*
G01*
X1976627Y11026526D01*
X1940813Y11141080D02*
G01*
X1940813Y11026526D01*
X1940813Y11141080D02*
G01*
X1891537Y11141080D01*
X1875281Y11135746D01*
X1869694Y11130158D01*
X1864360Y11119236D01*
X1864360Y11108314D01*
X1869694Y11097392D01*
X1875281Y11092058D01*
X1891537Y11086470D01*
X1940813Y11086470D01*
X1902460Y11086470D02*
G01*
X1864360Y11026526D01*
X1828294Y11141080D02*
G01*
X1784604Y11026526D01*
X1741170Y11141080D02*
G01*
X1784604Y11026526D01*
X1705102Y11141080D02*
G01*
X1705102Y11026526D01*
X1705102Y11141080D02*
G01*
X1634236Y11141080D01*
X1705102Y11086470D02*
G01*
X1661413Y11086470D01*
X1705102Y11026526D02*
G01*
X1634236Y11026526D01*
X1598170Y11141080D02*
G01*
X1598170Y11026526D01*
X1598170Y11141080D02*
G01*
X1549145Y11141080D01*
X1532636Y11135746D01*
X1527302Y11130158D01*
X1521713Y11119236D01*
X1521713Y11108314D01*
X1527302Y11097392D01*
X1532636Y11092058D01*
X1549145Y11086470D01*
X1598170Y11086470D01*
X1560070Y11086470D02*
G01*
X1521713Y11026526D01*
X5290017Y11141057D02*
G01*
X5290017Y11026503D01*
X5290017Y11141057D02*
G01*
X5219151Y11141057D01*
X5290017Y11086447D02*
G01*
X5246329Y11086447D01*
X5139395Y11141057D02*
G01*
X5183083Y11026503D01*
X5139395Y11141057D02*
G01*
X5095707Y11026503D01*
X5166827Y11064603D02*
G01*
X5112217Y11064603D01*
X5059893Y11141057D02*
G01*
X5059893Y11026503D01*
X5059893Y11141057D02*
G01*
X4983439Y11026503D01*
X4983439Y11141057D02*
G01*
X4983439Y11026503D01*
M02*
